<svg width="315" height="141" viewBox="0 0 315 141" fill="none" xmlns="http://www.w3.org/2000/svg">
<path d="M134.05 49.4C137.75 49.4 140.733 50.7167 143 53.35C145.3 55.95 146.45 59.0333 146.45 62.6C146.45 62.9667 146.417 63.4833 146.35 64.15H124.4C124.733 66.6833 125.8 68.7 127.6 70.2C129.433 71.6667 131.683 72.4 134.35 72.4C136.25 72.4 137.883 72.0167 139.25 71.25C140.65 70.45 141.7 69.4167 142.4 68.15L145.3 69.85C144.2 71.6167 142.7 73.0167 140.8 74.05C138.9 75.0833 136.733 75.6 134.3 75.6C130.367 75.6 127.167 74.3667 124.7 71.9C122.233 69.4333 121 66.3 121 62.5C121 58.7667 122.217 55.65 124.65 53.15C127.083 50.65 130.217 49.4 134.05 49.4ZM134.05 52.6C131.45 52.6 129.267 53.3833 127.5 54.95C125.767 56.4833 124.733 58.4833 124.4 60.95H143.05C142.717 58.3167 141.7 56.2667 140 54.8C138.3 53.3333 136.317 52.6 134.05 52.6ZM171.723 75H167.773L159.973 64.7L152.173 75H148.223L158.023 62.05L148.873 50H152.823L159.973 59.45L167.123 50H171.073L161.973 62.05L171.723 75ZM195.953 50H199.253V75H195.953V70.1C193.653 73.7667 190.286 75.6 185.853 75.6C182.286 75.6 179.236 74.3333 176.703 71.8C174.203 69.2667 172.953 66.1667 172.953 62.5C172.953 58.8333 174.203 55.7333 176.703 53.2C179.236 50.6667 182.286 49.4 185.853 49.4C190.286 49.4 193.653 51.2333 195.953 54.9V50ZM179.103 69.55C181.003 71.45 183.336 72.4 186.103 72.4C188.87 72.4 191.203 71.45 193.103 69.55C195.003 67.6167 195.953 65.2667 195.953 62.5C195.953 59.7333 195.003 57.4 193.103 55.5C191.203 53.5667 188.87 52.6 186.103 52.6C183.336 52.6 181.003 53.5667 179.103 55.5C177.203 57.4 176.253 59.7333 176.253 62.5C176.253 65.2667 177.203 67.6167 179.103 69.55ZM232.89 49.4C235.69 49.4 237.94 50.3 239.64 52.1C241.374 53.9 242.24 56.3333 242.24 59.4V75H238.94V59.4C238.94 57.2333 238.374 55.5667 237.24 54.4C236.14 53.2 234.674 52.6 232.84 52.6C230.774 52.6 229.09 53.3 227.79 54.7C226.524 56.0667 225.89 58.2167 225.89 61.15V75H222.59V59.4C222.59 57.2 222.057 55.5167 220.99 54.35C219.957 53.1833 218.54 52.6 216.74 52.6C214.74 52.6 213.04 53.3 211.64 54.7C210.24 56.1 209.54 58.25 209.54 61.15V75H206.24V50H209.54V53.65C211.34 50.8167 213.89 49.4 217.19 49.4C220.79 49.4 223.324 50.9167 224.79 53.95C226.59 50.9167 229.29 49.4 232.89 49.4Z" fill="#0375D7"/>
<g filter="url(#filter0_d_504_2411)">
<line x1="73.6602" y1="10.64" x2="73.6602" y2="74.48" stroke="#0375D7"/>
<line x1="100.071" y1="53.5914" x2="73.4708" y2="74.7363" stroke="#0375D7"/>
<line x1="46.831" y1="58.0998" x2="75.3921" y2="76.5098" stroke="#0375D7"/>
<line x1="73.5991" y1="10.8794" x2="9.7591" y2="127.919" stroke="#0375D7"/>
<path d="M75.4756 9.33078L142.32 130.34" stroke="#0375D7"/>
<line x1="11.8447" y1="130.397" x2="78.1395" y2="68.7937" stroke="#0375D7"/>
<line x1="73.5005" y1="68.7937" x2="139.795" y2="130.398" stroke="#0375D7"/>
<circle cx="11.98" cy="125.02" r="7.98" fill="#0375D7"/>
<circle cx="75.8198" cy="71.82" r="7.98" fill="#0375D7"/>
<circle cx="75.8198" cy="7.98" r="7.98" fill="#0375D7"/>
<circle cx="49.2202" cy="55.86" r="7.98" fill="#0375D7"/>
<circle cx="102.42" cy="55.86" r="7.98" fill="#0375D7"/>
<circle cx="139.66" cy="125.02" r="7.98" fill="#0375D7"/>
</g>
<defs>
<filter id="filter0_d_504_2411" x="0" y="0" width="151.64" height="141" filterUnits="userSpaceOnUse" color-interpolation-filters="sRGB">
<feFlood flood-opacity="0" result="BackgroundImageFix"/>
<feColorMatrix in="SourceAlpha" type="matrix" values="0 0 0 0 0 0 0 0 0 0 0 0 0 0 0 0 0 0 127 0" result="hardAlpha"/>
<feOffset dy="4"/>
<feGaussianBlur stdDeviation="2"/>
<feComposite in2="hardAlpha" operator="out"/>
<feColorMatrix type="matrix" values="0 0 0 0 0 0 0 0 0 0 0 0 0 0 0 0 0 0 0.25 0"/>
<feBlend mode="normal" in2="BackgroundImageFix" result="effect1_dropShadow_504_2411"/>
<feBlend mode="normal" in="SourceGraphic" in2="effect1_dropShadow_504_2411" result="shape"/>
</filter>
</defs>
</svg>
