<svg width="254" height="108" viewBox="0 0 254 108" fill="none" xmlns="http://www.w3.org/2000/svg">
<g filter="url(#filter0_d_608_3608)">
<line x1="56.5" y1="8" x2="56.5" y2="56" stroke="white"/>
<line x1="76.3111" y1="40.3913" x2="56.3111" y2="56.2897" stroke="white"/>
<line x1="36.2709" y1="43.5796" x2="57.7454" y2="57.4218" stroke="white"/>
<line x1="56.4389" y1="8.23943" x2="8.43895" y2="96.2394" stroke="white"/>
<path d="M57.7412 7.01556L108 97.9999" stroke="white"/>
<line x1="9.81394" y1="97.9521" x2="59.6596" y2="51.6338" stroke="white"/>
<line x1="56.3404" y1="51.6339" x2="106.185" y2="97.9528" stroke="white"/>
<circle cx="10" cy="94" r="6" fill="white"/>
<circle cx="58" cy="53.9999" r="6" fill="white"/>
<circle cx="58" cy="6" r="6" fill="white"/>
<circle cx="38" cy="41.9999" r="6" fill="white"/>
<circle cx="78" cy="41.9999" r="6" fill="white"/>
<circle cx="106" cy="94" r="6" fill="white"/>
</g>
<path d="M100.85 29C100.383 29.4667 99.8167 29.7 99.15 29.7C98.4833 29.7 97.9167 29.4667 97.45 29C96.9833 28.5333 96.75 27.9667 96.75 27.3C96.75 26.6333 96.9833 26.0667 97.45 25.6C97.9167 25.1333 98.4833 24.9 99.15 24.9C99.8167 24.9 100.383 25.1333 100.85 25.6C101.317 26.0667 101.55 26.6333 101.55 27.3C101.55 27.9667 101.317 28.5333 100.85 29ZM97.5 60V35H100.8V60H97.5ZM111.103 39.15C112.636 36.1167 115.269 34.6 119.003 34.6V37.8C116.736 37.8 114.853 38.4667 113.353 39.8C111.853 41.1333 111.103 43.2333 111.103 46.1V60H107.803V35H111.103V39.15ZM127.525 56.7H144.525V60H124.025V25H144.275V28.3H127.525V40.7H143.025V44H127.525V56.7ZM171.051 25H174.351V60H171.051V55.1C168.751 58.7667 165.384 60.6 160.951 60.6C157.384 60.6 154.334 59.3333 151.801 56.8C149.301 54.2667 148.051 51.1667 148.051 47.5C148.051 43.8333 149.301 40.7333 151.801 38.2C154.334 35.6667 157.384 34.4 160.951 34.4C165.384 34.4 168.751 36.2333 171.051 39.9V25ZM154.201 54.55C156.101 56.45 158.434 57.4 161.201 57.4C163.967 57.4 166.301 56.45 168.201 54.55C170.101 52.6167 171.051 50.2667 171.051 47.5C171.051 44.7333 170.101 42.4 168.201 40.5C166.301 38.5667 163.967 37.6 161.201 37.6C158.434 37.6 156.101 38.5667 154.201 40.5C152.301 42.4 151.351 44.7333 151.351 47.5C151.351 50.2667 152.301 52.6167 154.201 54.55ZM184.688 29C184.221 29.4667 183.655 29.7 182.988 29.7C182.321 29.7 181.755 29.4667 181.288 29C180.821 28.5333 180.588 27.9667 180.588 27.3C180.588 26.6333 180.821 26.0667 181.288 25.6C181.755 25.1333 182.321 24.9 182.988 24.9C183.655 24.9 184.221 25.1333 184.688 25.6C185.155 26.0667 185.388 26.6333 185.388 27.3C185.388 27.9667 185.155 28.5333 184.688 29ZM181.338 60V35H184.638V60H181.338ZM204.141 27.6C201.707 27.4 199.891 27.8167 198.691 28.85C197.524 29.8833 196.941 31.6 196.941 34V35H204.141V38.2H196.941V60H193.641V38.2H189.391V35H193.641V34C193.641 30.7333 194.541 28.2667 196.341 26.6C198.174 24.9 200.774 24.1667 204.141 24.4V27.6ZM226.633 35H230.133L219.433 62.3C218.466 64.7667 217.083 66.7 215.283 68.1C213.516 69.5333 211.533 70.1667 209.333 70V66.9C212.333 67.2333 214.616 65.5 216.183 61.7L216.833 60.15L205.633 35H209.133L218.533 55.95L226.633 35Z" fill="white"/>
<defs>
<filter id="filter0_d_608_3608" x="0" y="0" width="116" height="108" filterUnits="userSpaceOnUse" color-interpolation-filters="sRGB">
<feFlood flood-opacity="0" result="BackgroundImageFix"/>
<feColorMatrix in="SourceAlpha" type="matrix" values="0 0 0 0 0 0 0 0 0 0 0 0 0 0 0 0 0 0 127 0" result="hardAlpha"/>
<feOffset dy="4"/>
<feGaussianBlur stdDeviation="2"/>
<feComposite in2="hardAlpha" operator="out"/>
<feColorMatrix type="matrix" values="0 0 0 0 0 0 0 0 0 0 0 0 0 0 0 0 0 0 0.25 0"/>
<feBlend mode="normal" in2="BackgroundImageFix" result="effect1_dropShadow_608_3608"/>
<feBlend mode="normal" in="SourceGraphic" in2="effect1_dropShadow_608_3608" result="shape"/>
</filter>
</defs>
</svg>
