<svg width="26" height="36" viewBox="0 0 26 36" fill="none" xmlns="http://www.w3.org/2000/svg">
<g opacity="0.3">
<path opacity="0.3" d="M13.1866 29.11C14.8208 29.039 16.4224 28.6339 17.8908 27.9202C19.3592 27.2065 20.6626 26.1997 21.7191 24.963C22.7601 23.7132 23.5198 22.2579 23.9476 20.6941C24.3754 19.1304 24.4613 17.4943 24.1997 15.895C23.916 14.2993 23.2815 12.7848 22.3413 11.4589C21.401 10.1329 20.1779 9.02784 18.7585 8.22195C17.9237 7.76865 17.044 7.40182 16.1332 7.12728C15.3742 6.88142 14.5931 6.7086 13.8007 6.61123C12.1885 6.4475 10.5601 6.66485 9.04924 7.24544C6.20688 8.31295 3.90898 10.4547 2.66084 13.1998C1.41269 15.9449 1.31651 19.0686 2.39342 21.8839C2.53913 22.2656 2.70629 22.6389 2.89411 23.0021C4.82387 26.7273 9.06027 29.065 13.2878 29.0395" fill="white"/>
</g>
<path opacity="0.7" d="M10.8983 28.7664C10.6394 27.9077 10.773 26.5079 10.7402 25.4593C10.7242 24.9824 10.6239 24.512 10.444 24.0694C10.4038 23.9406 10.326 23.8264 10.2204 23.7412C10.1251 23.6869 10.0189 23.6541 9.90929 23.6451C9.57242 23.5757 9.22701 23.5565 8.88441 23.5879C8.39101 23.658 7.95122 23.9345 7.46592 24.0472C6.9409 24.1429 6.4008 24.1194 5.88624 23.9786C4.90619 23.7579 3.88377 23.3096 3.42921 22.4218C3.29896 22.1638 3.2234 21.8821 3.20718 21.5941C3.19096 21.306 3.23441 21.0177 3.33488 20.747C3.492 20.3309 3.78047 19.971 3.91957 19.5486C4.08439 19.0481 4.02734 18.4975 4.18338 17.9942C4.33941 17.491 4.86865 17.0165 5.3602 17.2169C5.46502 17.2596 5.58242 17.3306 5.68164 17.2763C5.7316 17.2428 5.76791 17.1928 5.78412 17.1352C5.98152 16.6054 5.64851 16.0425 5.54029 15.488C5.37388 14.6354 5.75274 13.7729 6.20729 13.0303C6.70065 12.2243 7.30424 11.4574 7.48979 10.5223C7.53973 10.3103 7.51356 10.0877 7.41575 9.89276C7.05609 9.24113 6.12144 9.59896 5.47306 9.33258C5.47306 9.33258 0.230241 14.8947 1.85399 20.1575C3.47773 25.4203 6.42488 27.0812 6.42488 27.0812L10.3272 28.8014C10.4609 28.7388 10.5232 28.7715 10.6078 28.7289L10.8983 28.7664Z" fill="white"/>
<path opacity="0.7" d="M10.9804 28.6683C10.9812 28.6706 10.9814 28.673 10.9811 28.6754C10.9809 28.6778 10.98 28.6801 10.9788 28.6821C10.9751 28.7018 10.966 28.7201 10.9524 28.735C10.9388 28.7499 10.9213 28.7607 10.9019 28.7663C10.8825 28.7719 10.8619 28.772 10.8424 28.7666C10.8229 28.7612 10.8053 28.7506 10.7915 28.7359C10.7867 28.7319 10.7825 28.7272 10.7791 28.7219C10.7503 28.6167 10.7275 28.5101 10.7107 28.4024L10.7081 28.3847L10.7039 28.3566C10.6856 28.2449 10.6747 28.1326 10.6636 28.0198C10.6256 27.5688 10.6278 27.1121 10.6334 26.6506C10.6372 26.1905 10.6548 25.7185 10.624 25.2562C10.604 25.0236 10.5632 24.7932 10.5021 24.5677C10.4714 24.4542 10.4356 24.3417 10.3947 24.2302C10.3596 24.1223 10.3125 24.0186 10.2543 23.9209C10.2277 23.88 10.1926 23.8452 10.1513 23.8188C10.11 23.7924 10.0635 23.7749 10.0149 23.7677C9.9061 23.7451 9.7746 23.7279 9.65518 23.7102C9.41584 23.6705 9.17229 23.662 8.93073 23.6848C8.45401 23.7406 8.01161 24.0228 7.48377 24.1476C6.95274 24.2447 6.40648 24.2226 5.88526 24.0827C5.35237 23.9737 4.84033 23.7817 4.36825 23.5137C3.87302 23.2385 3.48288 22.8097 3.25791 22.2933C3.04351 21.7576 3.04795 21.1604 3.27031 20.6279C3.50059 20.1047 3.85344 19.682 3.90633 19.144C3.94745 18.8788 3.95886 18.6016 4.00365 18.3198C4.0361 18.0248 4.14842 17.7439 4.32877 17.5068C4.4192 17.38 4.53707 17.2748 4.67379 17.1988C4.81051 17.1228 4.96263 17.0779 5.11905 17.0676C5.27013 17.0766 5.41776 17.1161 5.55297 17.1834C5.60786 17.198 5.62587 17.1927 5.64515 17.1743C5.6761 17.131 5.69748 17.0818 5.70791 17.0297C5.76104 16.7719 5.74165 16.5046 5.65183 16.257C5.55968 15.9871 5.48451 15.7117 5.42675 15.4326C5.35566 14.8502 5.45581 14.2599 5.71517 13.7325C5.9641 13.2193 6.25234 12.7258 6.57739 12.2562C6.89441 11.7986 7.14448 11.2989 7.32018 10.772C7.41824 10.5297 7.43143 10.2618 7.35764 10.0112C7.30799 9.8976 7.22847 9.79931 7.12738 9.72654C7.0263 9.65378 6.90735 9.60921 6.78294 9.59751C6.51953 9.55236 6.23547 9.56434 5.94522 9.53763C5.79583 9.52725 5.64835 9.49838 5.5062 9.45169C5.54239 9.40382 5.40013 9.5668 5.3192 9.65988C4.95669 10.0824 4.61652 10.523 4.29707 10.9745C3.65991 11.8663 3.11022 12.8162 2.65547 13.8115C2.20688 14.7774 1.89701 15.8008 1.73488 16.8519C1.65838 17.3629 1.63263 17.8801 1.658 18.3962C1.67719 18.9017 1.75505 19.4033 1.89005 19.8912C2.16376 20.8381 2.51703 21.7605 2.94614 22.649C3.79525 24.3664 4.91375 25.8696 6.26716 26.8538C8.63191 27.9231 10.2048 28.6343 10.2048 28.6343L10.2517 28.6591C10.2789 28.6716 10.3048 28.6867 10.3291 28.7042C10.3333 28.7037 10.3278 28.707 10.342 28.703C10.3581 28.6986 10.375 28.6947 10.3923 28.6917C10.4257 28.6862 10.4594 28.6836 10.4933 28.6839C10.5193 28.6855 10.5454 28.6833 10.5708 28.6774C10.5812 28.6723 10.5925 28.6695 10.6041 28.6692C10.6156 28.6689 10.6271 28.6711 10.6377 28.6756L10.6812 28.687C11.0495 28.7789 10.894 28.8048 10.659 28.7992C10.6695 28.8029 10.6171 28.7952 10.6135 28.804C10.5822 28.8179 10.549 28.8274 10.5151 28.8323C10.485 28.8368 10.4553 28.8441 10.4266 28.8541C10.4083 28.8611 10.4115 28.8599 10.374 28.8769L10.3292 28.8976C10.3138 28.8944 10.2989 28.8893 10.2848 28.8824L10.1806 28.8427L10.0955 28.8111L10.0201 28.7779C9.88766 28.7195 9.72678 28.6486 9.54219 28.5672C8.92026 28.2931 8.2597 28.0019 7.56048 27.6937C7.21153 27.5398 6.85375 27.3821 6.48714 27.2205C6.43618 27.2003 6.38673 27.1766 6.33917 27.1495C6.29544 27.1211 6.25024 27.0941 6.2083 27.0642C6.12245 27.0062 6.03857 26.9454 5.95667 26.8816C5.79193 26.7551 5.63038 26.6215 5.47513 26.4784C4.16091 25.2218 3.12513 23.7081 2.43366 22.0335C2.25584 21.5883 2.06481 21.1404 1.91767 20.6709C1.55787 19.7191 1.39719 18.7049 1.44536 17.6898C1.47287 17.1691 1.54181 16.6514 1.65152 16.1415C2.10813 14.0833 3.15968 12.1319 4.48034 10.3729C4.64586 10.1523 4.81831 9.93612 4.99516 9.72263L5.26586 9.40583L5.33561 9.32776L5.39255 9.2656C5.41795 9.2484 5.434 9.19373 5.47106 9.22193L5.61579 9.27152C5.64609 9.2811 5.67841 9.28685 5.70958 9.29483C5.97917 9.33751 6.25162 9.36001 6.52463 9.36213C6.67137 9.36909 6.81704 9.39051 6.95949 9.42608C7.11241 9.4665 7.25212 9.54554 7.36496 9.65546C7.47186 9.76956 7.54884 9.9079 7.58915 10.0583C7.62946 10.2088 7.63186 10.3667 7.59615 10.5183C7.54023 10.7989 7.45191 11.0722 7.33294 11.3328C7.08625 11.8381 6.80177 12.3243 6.48188 12.7876C6.17038 13.2402 5.92086 13.7318 5.73984 14.2494C5.65739 14.5049 5.61217 14.7708 5.60555 15.039C5.60549 15.3065 5.64981 15.5722 5.73673 15.8254C5.83334 16.0931 5.90244 16.3697 5.94296 16.6511C5.95838 16.8017 5.9451 16.9539 5.90381 17.0997C5.88545 17.1862 5.84313 17.266 5.7816 17.3301C5.74068 17.3639 5.69132 17.3861 5.63871 17.3944C5.58611 17.4028 5.53221 17.3969 5.4827 17.3774C4.99077 17.069 4.48348 17.4961 4.30646 17.9579C4.12864 18.4439 4.19639 19.0133 4.02355 19.5632C3.84241 20.1124 3.4599 20.5284 3.35803 21.0321C3.24295 21.5343 3.32798 22.0611 3.59541 22.5027C3.87565 22.9324 4.27546 23.2727 4.7466 23.4824C5.21325 23.6995 5.70742 23.853 6.21565 23.9388C6.70391 24.0475 7.21264 24.0252 7.68925 23.874C7.92389 23.795 8.15455 23.6897 8.39881 23.6047C8.6452 23.5127 8.90626 23.4653 9.16956 23.4647C9.42295 23.471 9.67546 23.4968 9.92482 23.5418C10.0669 23.5522 10.2032 23.6016 10.3184 23.6845C10.42 23.7797 10.4963 23.8982 10.5406 24.0295C10.7249 24.4829 10.8276 24.9648 10.8443 25.4532C10.8575 25.9268 10.843 26.3894 10.8397 26.8427C10.829 27.2855 10.8453 27.7285 10.8885 28.1693C10.8981 28.2385 10.9076 28.3064 10.9169 28.3731C10.9325 28.4726 10.9538 28.5712 10.9804 28.6683Z" fill="#2C2C2E"/>
<g opacity="0.5">
<path opacity="0.5" d="M10.3643 33.793C10.3706 33.6797 10.408 33.5701 10.4725 33.4762C10.5369 33.3823 10.626 33.3076 10.7301 33.26C10.9396 33.1678 11.1649 33.1163 11.394 33.1083C12.6978 32.9851 14.0079 32.9395 15.3173 32.9718C15.624 32.9601 15.9298 33.0111 16.2156 33.1217C16.3576 33.1794 16.4797 33.2764 16.5673 33.4012C16.6549 33.526 16.7043 33.6732 16.7094 33.8251" fill="white"/>
</g>
<path opacity="0.7" d="M9.23915 7.91082C9.69637 8.11764 9.94735 8.60039 10.1646 9.04929L10.3792 9.49251C10.4805 9.74832 10.638 9.97857 10.8404 10.1665C10.9437 10.258 11.0743 10.3138 11.2124 10.3253C11.3506 10.3369 11.4887 10.3036 11.6061 10.2306C11.8913 10.0103 11.8852 9.49912 12.2263 9.38029C12.4239 9.31147 12.6548 9.4176 12.8473 9.33598C12.9897 9.25283 13.097 9.12148 13.1493 8.96618L13.4966 8.23246C13.5668 8.12064 13.5932 7.98722 13.5708 7.85741C13.5161 7.68182 13.3065 7.61379 13.1259 7.5714C12.8502 7.50666 12.529 7.45121 12.3091 7.62824C12.2451 7.69585 12.1742 7.75669 12.0975 7.80979C11.995 7.8492 11.8829 7.8575 11.7755 7.83364L9.87717 7.5994C9.58613 7.53255 9.28112 7.55977 9.00684 7.67707C9.03061 7.74 9.06909 7.79646 9.11912 7.84184C9.16915 7.88723 9.22931 7.92024 9.29469 7.93818" fill="white"/>
<path opacity="0.7" d="M9.25484 8.03353C9.25077 8.03141 9.2493 8.03068 9.24625 8.02357C9.22571 7.98042 9.19028 7.87865 9.33378 7.85112C9.34036 7.85031 9.34702 7.85051 9.35354 7.85172C9.46306 7.91097 9.56389 7.98476 9.65325 8.07103C10.0492 8.46254 10.2255 8.96411 10.457 9.41446C10.549 9.6407 10.68 9.84942 10.8441 10.0313C10.9193 10.111 11.015 10.1689 11.1209 10.1988C11.2268 10.2286 11.3389 10.2294 11.4452 10.201C11.6398 10.1359 11.722 9.8931 11.8331 9.65406C11.8901 9.51511 11.989 9.39696 12.1163 9.31577C12.2528 9.2542 12.4048 9.23472 12.5525 9.25983C12.6563 9.28132 12.7643 9.26428 12.8562 9.21196C12.9402 9.13835 13.0051 9.04579 13.0453 8.9421L13.3738 8.24845C13.4316 8.15253 13.4676 8.0453 13.4794 7.9342C13.477 7.8498 13.4165 7.78432 13.3137 7.73778C13.2016 7.6932 13.085 7.66072 12.9659 7.6409C12.8501 7.61504 12.7311 7.60647 12.6127 7.61547C12.506 7.62372 12.4059 7.6701 12.3311 7.74598C12.2825 7.79982 12.2273 7.84747 12.1668 7.88785C12.0942 7.92845 12.0119 7.94887 11.9286 7.94695C11.6445 7.92779 11.4087 7.88718 11.1463 7.85835C10.6366 7.79787 10.1167 7.72575 9.61535 7.67484L9.52378 7.67073L9.49984 7.6704L9.45226 7.6708C9.4207 7.67151 9.38937 7.67302 9.35872 7.67645C9.30247 7.67728 9.24639 7.68298 9.19113 7.69347C9.1277 7.70962 9.13578 7.70059 9.10628 7.70906C9.10603 7.72606 9.10212 7.74007 9.13839 7.79023C9.24779 7.91884 9.32047 7.93138 9.29069 7.95123C9.24658 7.95603 9.20195 7.95067 9.16027 7.93557C9.11859 7.92047 9.081 7.89603 9.05043 7.86417C9.05238 7.8671 9.04663 7.86246 9.03497 7.85187C9.01415 7.83201 8.99573 7.80983 8.98006 7.78577C8.9535 7.74381 8.93076 7.69959 8.91211 7.65364C8.92991 7.61614 8.99625 7.59056 9.04946 7.56117C9.11941 7.52709 9.19342 7.50189 9.26974 7.48615C9.32803 7.47341 9.3673 7.46904 9.3673 7.46904C9.40322 7.46655 9.439 7.46493 9.47448 7.46471L9.52743 7.46512L9.62017 7.46903C9.68622 7.473 9.75115 7.47965 9.81513 7.48705L11.3266 7.67325L11.7043 7.71985C11.8116 7.74474 11.923 7.7465 12.0311 7.72499C12.1045 7.70641 12.1712 7.58538 12.3106 7.50085C12.4393 7.4288 12.5865 7.39576 12.734 7.40582C12.8677 7.41277 13.0003 7.43272 13.13 7.46542C13.2697 7.49016 13.4028 7.54323 13.5209 7.6213C13.5895 7.6712 13.6409 7.74073 13.6682 7.82051C13.6924 7.89921 13.6938 7.98301 13.6723 8.06245C13.6316 8.18881 13.5799 8.31146 13.518 8.42904L13.1908 9.11497C13.1291 9.25288 13.0204 9.36492 12.8838 9.43151C12.7471 9.47302 12.6026 9.48283 12.4614 9.46015C12.4115 9.45158 12.3603 9.45297 12.3109 9.46424C12.2615 9.47552 12.2148 9.49644 12.1737 9.5258C12.0943 9.60284 12.0331 9.69628 11.9944 9.79945C11.9451 9.92163 11.8855 10.0394 11.816 10.1516C11.7343 10.2808 11.6058 10.3743 11.4569 10.4129C11.3137 10.4409 11.1657 10.4313 11.0275 10.385C10.8893 10.3387 10.7657 10.2574 10.6691 10.1492C10.4975 9.94901 10.3588 9.72333 10.258 9.48042C10.0318 9.03238 9.84939 8.55055 9.50884 8.21968C9.43312 8.14647 9.34767 8.08384 9.25484 8.03353Z" fill="#2C2C2E"/>
<g opacity="0.7">
<path d="M21.3699 25.2366C20.2545 24.7575 20.2973 23.0302 19.1819 22.5511C18.9815 22.465 18.4438 22.6449 18.2667 22.5184C17.7567 22.1539 17.7488 21.1863 17.1202 21.1691C16.8868 21.187 16.6571 21.2374 16.438 21.319C16.0354 21.4432 15.6102 21.4783 15.1924 21.4218C14.9951 21.4004 14.693 21.03 14.521 20.9319C14.1734 20.7336 13.9299 20.6985 13.8703 20.3057C13.7508 19.5185 13.7385 18.4769 14.3123 17.9195C14.4583 17.7792 14.6318 17.6699 14.822 17.5984C15.0123 17.5269 15.2153 17.4946 15.4185 17.5036C15.836 17.5697 16.2451 17.6798 16.6388 17.832C17.2367 17.9928 17.9124 18.3312 18.5311 18.3002C19.1339 18.27 19.618 17.1763 20.1801 17.4277C20.6231 17.6259 20.5415 16.4341 20.224 16.136C20.1954 16.11 20.1615 16.0905 20.1245 16.0789C20.0875 16.0673 20.0484 16.0639 20.0099 16.069C19.9715 16.0741 19.9346 16.0875 19.902 16.1083C19.8694 16.1291 19.8417 16.1567 19.8211 16.1892C19.54 16.6258 19.1392 16.9741 18.6655 17.1933C18.6459 17.2023 18.6243 17.206 18.6028 17.2041C18.5813 17.2021 18.5607 17.1945 18.5432 17.182C18.5257 17.1695 18.5118 17.1527 18.503 17.1332C18.4942 17.1136 18.4909 17.0921 18.4932 17.0709C18.5452 16.5227 18.467 15.97 18.265 15.457C18.2203 15.3066 18.1256 15.1755 17.9962 15.0851L17.9921 15.0828C17.9506 15.0632 17.9041 15.0568 17.8588 15.0644C17.8135 15.072 17.7716 15.0932 17.739 15.1252C17.7063 15.1572 17.6843 15.1983 17.6761 15.2431C17.6679 15.2879 17.6739 15.334 17.6931 15.3753C17.751 15.5033 18.0233 16.1089 17.9916 16.2518C17.9598 16.3948 18.0396 16.7662 17.8917 16.7647C17.5948 16.7617 17.084 15.5862 16.8091 15.4703C16.5913 15.3784 16.3536 15.5329 16.1684 15.6789C15.6061 16.1222 15.1293 16.733 14.567 17.1763C14.3922 17.3141 14.1238 17.3033 13.822 17.1228C13.6537 17.0194 13.5196 16.8696 13.4361 16.6917L13.1045 16.004C12.9927 15.7722 12.8755 15.5177 13.382 15.2099C13.674 15.0512 13.9938 14.949 14.3244 14.9088C15.5241 14.7958 15.0858 14.8677 15.3182 14.1685C15.4 13.9227 15.7207 13.9598 15.7377 13.6336C15.735 13.6042 15.7403 13.5746 15.753 13.5478C15.7657 13.521 15.7854 13.4981 15.81 13.4813C15.8346 13.4646 15.8632 13.4546 15.893 13.4524C15.9228 13.4502 15.9526 13.4559 15.9794 13.4689C16.1713 13.5424 16.2496 13.5968 16.3461 13.4203L16.279 12.9225C16.2748 12.8909 16.28 12.8589 16.2937 12.8301C16.3075 12.8014 16.3294 12.7772 16.3567 12.7605C16.384 12.7437 16.4156 12.7352 16.4477 12.7358C16.4798 12.7364 16.5111 12.7462 16.5377 12.7639C16.867 12.9803 17.1636 13.1173 17.5752 12.9675C18.1101 12.7727 18.5343 12.5391 18.3554 12.0033C18.271 11.7508 17.8885 11.2774 17.8278 11.0183C17.7468 10.6731 18.065 10.1851 17.8518 9.85083C17.8131 9.78726 17.7551 9.73741 17.6861 9.7084C17.6171 9.67939 17.5406 9.67269 17.4675 9.68926C17.2424 9.74939 17.208 9.99318 17.1763 10.1975C17.0851 10.7793 16.8332 11.3248 16.4483 11.7736C16.4019 11.8389 16.3355 11.8875 16.259 11.9123C16.0763 11.9518 16.1644 11.6461 16.1494 11.4615C16.1296 11.2178 15.6039 11.4045 15.4948 11.4313C15.4454 11.4405 15.3945 11.4381 15.3462 11.4245C15.2978 11.4109 15.2533 11.3863 15.2162 11.3527C15.1791 11.3192 15.1503 11.2775 15.1322 11.2311C15.1141 11.1846 15.1071 11.1346 15.1118 11.0851C15.1181 11.0089 15.1423 10.9353 15.1826 10.8701C15.3331 10.6353 15.6037 10.5042 15.7887 10.295C16.1739 9.8592 16.1102 9.20814 16.2103 8.6375C16.3103 8.06687 16.8407 7.43572 17.3732 7.67508C17.3732 7.67508 23.4755 9.71229 24.1996 15.896C24.9237 22.0797 21.3699 25.2366 21.3699 25.2366Z" fill="white"/>
<path opacity="0.7" d="M21.352 25.1092C21.3561 25.1114 21.3576 25.1122 21.3608 25.1196C21.3828 25.1647 21.4176 25.2674 21.2782 25.2945C21.2718 25.2953 21.2653 25.2951 21.259 25.2939C21.1871 25.2604 21.119 25.2196 21.0556 25.1723L20.961 25.1012L20.9221 25.0692C20.7408 24.8985 20.587 24.7013 20.4662 24.4843C20.22 24.0654 20.0576 23.6158 19.8003 23.2364C19.6803 23.0469 19.5237 22.8829 19.3393 22.7539C19.2943 22.7221 19.2428 22.7011 19.1951 22.6738C19.1568 22.6475 19.1116 22.6325 19.065 22.6308C18.9517 22.6292 18.8385 22.6361 18.7262 22.6515C18.5974 22.6702 18.4666 22.6711 18.3375 22.6541C18.2957 22.6461 18.2556 22.6308 18.2192 22.6088C18.1906 22.5887 18.1632 22.567 18.137 22.5439C18.0874 22.5007 18.0421 22.4528 18.0017 22.4011C17.862 22.2005 17.7431 21.9864 17.6467 21.7622C17.5445 21.5584 17.4263 21.3532 17.2449 21.2961C17.0303 21.2584 16.8092 21.2862 16.6109 21.3756C16.3766 21.4477 16.1368 21.5004 15.8938 21.5332C15.6441 21.5592 15.3921 21.5534 15.1439 21.516C15.015 21.4705 14.898 21.3973 14.8012 21.3016C14.7088 21.222 14.6229 21.1374 14.5372 21.0685C14.4452 21.0044 14.3475 20.9487 14.2452 20.9022C14.124 20.8484 14.0142 20.7724 13.9216 20.6781C13.8329 20.5708 13.7784 20.4397 13.765 20.3016C13.7479 20.1827 13.7325 20.0634 13.7223 19.9434C13.6996 19.7026 13.6953 19.4604 13.7094 19.219C13.7128 18.7163 13.8984 18.2315 14.2324 17.8528C14.4152 17.6746 14.6387 17.5427 14.8839 17.4682C15.1292 17.3937 15.389 17.3788 15.6412 17.4249C15.8805 17.4746 16.1153 17.5432 16.3435 17.6302C16.4558 17.6688 16.5659 17.705 16.6784 17.7352C16.7966 17.7675 16.9118 17.8047 17.0261 17.8426C17.4587 18.02 17.9135 18.1389 18.3782 18.1959C18.4826 18.2077 18.5883 18.1943 18.6863 18.157C18.7863 18.1132 18.8792 18.0552 18.9621 17.9846C19.1401 17.843 19.3028 17.6677 19.4963 17.5117C19.5977 17.4275 19.7127 17.3608 19.8365 17.3145C19.907 17.2932 19.981 17.2853 20.0544 17.2911C20.0917 17.2928 20.1284 17.3005 20.1631 17.3138L20.2161 17.3307L20.2445 17.3378C20.2828 17.3539 20.2843 17.3389 20.3068 17.328C20.3321 17.2948 20.3497 17.2565 20.3581 17.2158C20.3821 17.1109 20.3893 17.003 20.3796 16.8959C20.3715 16.677 20.3109 16.4631 20.2029 16.2719C20.1869 16.2362 20.1592 16.207 20.1243 16.189C20.0894 16.171 20.0493 16.1652 20.0107 16.1727C19.9748 16.1808 19.9427 16.2006 19.9195 16.2289L19.8217 16.3707C19.6046 16.6709 19.3301 16.9261 19.0137 17.1216C18.9614 17.1545 18.9078 17.1853 18.8529 17.214L18.7703 17.2563C18.7375 17.274 18.7031 17.2886 18.6676 17.3C18.6131 17.3131 18.5556 17.3057 18.5064 17.2791C18.4572 17.2524 18.4198 17.2086 18.4015 17.1561C18.389 17.1139 18.386 17.0695 18.3927 17.0261L18.399 16.9402C18.4059 16.8256 18.4068 16.7107 18.4017 16.596C18.3921 16.3664 18.3592 16.1383 18.3033 15.9153C18.2547 15.6961 18.1744 15.4851 18.0649 15.2887C18.009 15.2063 17.9243 15.1458 17.8769 15.1606C17.8454 15.1682 17.8179 15.1874 17.7999 15.2142C17.782 15.241 17.7748 15.2735 17.78 15.3053C17.7971 15.354 17.8171 15.4018 17.8397 15.4483L17.9102 15.6136C17.9562 15.7244 18 15.8364 18.0386 15.953C18.0593 16.0134 18.076 16.0751 18.0884 16.1377C18.0975 16.1781 18.0997 16.2198 18.0947 16.2609C18.0905 16.2854 18.0881 16.3102 18.0877 16.3351C18.0959 16.4633 18.0897 16.592 18.0691 16.7188C18.0623 16.7464 18.0498 16.7722 18.0322 16.7946C18.0147 16.8171 17.9926 16.8356 17.9673 16.849C17.9125 16.865 17.854 16.8638 17.7998 16.8457C17.7317 16.8136 17.6707 16.7686 17.6202 16.7132C17.5361 16.6213 17.4593 16.5231 17.3906 16.4194C17.2543 16.2204 17.1322 16.0158 17 15.8257C16.9426 15.7352 16.8732 15.6527 16.7935 15.5806C16.7564 15.5589 16.7145 15.5465 16.6715 15.5443C16.6285 15.5421 16.5856 15.5503 16.5465 15.5681C16.3436 15.6656 16.159 15.7965 16.0004 15.9553C15.6515 16.2671 15.3354 16.6224 14.9831 16.9512C14.8953 17.0335 14.8047 17.1139 14.711 17.1913C14.6613 17.2358 14.6072 17.2751 14.5494 17.3088C14.4843 17.3426 14.413 17.3631 14.3397 17.3692C14.2029 17.3777 14.0661 17.3532 13.9411 17.2975C13.8198 17.2478 13.7076 17.1785 13.6092 17.0924C13.5119 17.0046 13.4306 16.9009 13.3687 16.7859L13.2109 16.4621L13.0566 16.1419C12.9954 16.0303 12.9476 15.912 12.9142 15.7894C12.8998 15.7167 12.902 15.6417 12.9206 15.5699C12.9393 15.4982 12.9739 15.4314 13.022 15.3747C13.1072 15.2751 13.2088 15.1906 13.3226 15.1248C13.5402 15.0026 13.7747 14.9126 14.0186 14.8575C14.2574 14.8108 14.499 14.7798 14.7419 14.7647C14.8523 14.7571 14.9619 14.7394 15.0691 14.7118C15.1092 14.6897 15.1031 14.7025 15.1161 14.6594C15.1247 14.6151 15.1297 14.5531 15.1378 14.4923C15.1545 14.3678 15.1832 14.2452 15.2235 14.1261C15.2838 13.9995 15.385 13.8965 15.5111 13.8333C15.5504 13.8109 15.5828 13.7783 15.6047 13.7391C15.6267 13.6998 15.6374 13.6553 15.6358 13.6104C15.6383 13.5644 15.6521 13.5196 15.6759 13.48C15.6997 13.4403 15.7329 13.407 15.7725 13.3827C15.8128 13.362 15.8574 13.3509 15.9028 13.3502C15.9482 13.3495 15.9932 13.3593 16.0341 13.3788C16.0829 13.4001 16.1332 13.418 16.1844 13.4325C16.218 13.4338 16.198 13.4426 16.2326 13.4062C16.2444 13.3896 16.236 13.4014 16.2386 13.3976L16.227 13.3114L16.2033 13.1356L16.1796 12.9597C16.1705 12.915 16.1726 12.8688 16.1857 12.825C16.1989 12.7813 16.2227 12.7414 16.2551 12.709C16.2899 12.6754 16.3331 12.6517 16.3803 12.6402C16.4275 12.6287 16.4769 12.6299 16.5235 12.6437C16.5463 12.6509 16.5681 12.6609 16.5884 12.6734L16.6277 12.6983L16.701 12.7442C16.8785 12.8704 17.094 12.9333 17.3122 12.9227C17.4215 12.9099 17.5283 12.8809 17.6289 12.8367C17.7362 12.7965 17.8406 12.7493 17.9414 12.6953C18.0364 12.6591 18.1195 12.5975 18.1813 12.5174C18.2432 12.4373 18.2814 12.3418 18.2919 12.2415C18.2676 12.0248 18.1823 11.8192 18.0457 11.6481C17.9833 11.5478 17.919 11.447 17.8587 11.3403C17.7878 11.2285 17.7394 11.1043 17.716 10.9744C17.7227 10.73 17.7559 10.4871 17.8151 10.2499C17.832 10.1505 17.8233 10.0485 17.7899 9.95336C17.7738 9.91294 17.7484 9.87683 17.7157 9.84794C17.683 9.81906 17.6438 9.79821 17.6014 9.78709C17.5625 9.77729 17.5215 9.77877 17.4834 9.79133C17.4452 9.80388 17.4115 9.82699 17.3863 9.85793C17.3321 9.94389 17.2991 10.0413 17.29 10.1422C17.2235 10.6268 17.0497 11.091 16.7812 11.5014C16.7142 11.604 16.6413 11.7027 16.5627 11.7968C16.5221 11.8496 16.4759 11.898 16.4249 11.9411C16.3923 11.9675 16.3553 11.9881 16.3156 12.002C16.2612 12.0217 16.2013 12.0203 16.1479 11.998C16.1228 11.9841 16.101 11.9651 16.084 11.9422C16.067 11.9193 16.0552 11.893 16.0494 11.8651C16.0407 11.8267 16.0368 11.7874 16.0377 11.7481C16.0379 11.682 16.0437 11.6224 16.0461 11.5661C16.0503 11.5301 16.049 11.4938 16.0424 11.4582C16.0477 11.456 16.0127 11.4385 15.9635 11.4397C15.8543 11.4443 15.7462 11.4631 15.6419 11.4957C15.5781 11.5174 15.5121 11.5323 15.4451 11.5403C15.364 11.544 15.2837 11.5228 15.2152 11.4796C15.1484 11.4385 15.0939 11.3803 15.0575 11.3112C15.0211 11.242 15.0041 11.1645 15.0082 11.0866C15.0188 10.9455 15.0775 10.8121 15.1748 10.7084C15.3493 10.5103 15.5638 10.3925 15.7063 10.2312C15.8476 10.0616 15.9413 9.85808 15.9781 9.64119C16.019 9.41181 16.0479 9.1805 16.0648 8.94817C16.0771 8.69974 16.1354 8.45565 16.2366 8.22802C16.3427 7.99312 16.5124 7.79192 16.727 7.64679C16.8429 7.57174 16.9768 7.52862 17.1151 7.52186C17.1858 7.51906 17.2565 7.52799 17.3242 7.54827L17.4996 7.61064C18.3972 7.96266 19.2478 8.4222 20.0326 8.979C20.8229 9.52847 21.5349 10.1808 22.1494 10.9184C22.7734 11.6504 23.2759 12.476 23.6383 13.3642L23.7799 13.6944C23.823 13.8059 23.8512 13.9227 23.8875 14.0366L24.0937 14.7243C24.1438 14.9578 24.1793 15.1946 24.2227 15.4296C24.2716 15.6634 24.305 15.9001 24.3224 16.1381L24.3779 16.8506C24.4035 17.0877 24.3846 17.3268 24.3901 17.5649C24.3914 18.0416 24.3667 18.5181 24.3161 18.9922C24.1106 20.9006 23.4202 22.7263 22.3094 24.2989L22.3094 24.2989L22.0297 24.665C22.0093 24.6915 21.9886 24.7178 21.9664 24.743C21.8408 24.8743 21.7072 24.9979 21.5664 25.1131C21.2644 25.3479 21.3455 25.2066 21.4882 25.0288C21.4779 25.0355 21.5662 24.9297 21.6526 24.819L21.8233 24.5922L22.1409 24.1787L22.141 24.1786C23.2309 22.6346 23.9082 20.8424 24.1097 18.9692C24.1594 18.5025 24.1836 18.0335 24.1824 17.5643C24.1769 17.3298 24.1959 17.0945 24.1704 16.8606L24.1157 16.1583C24.0987 15.9246 24.0659 15.6923 24.0177 15.4629C23.9751 15.2329 23.9406 15.0009 23.8917 14.7724L23.6898 14.0999C23.6543 13.9885 23.6269 13.8742 23.5848 13.7651L23.4461 13.4424C23.0917 12.5734 22.6 11.7658 21.9895 11.0498C21.3864 10.3259 20.6877 9.68582 19.9121 9.1467C19.142 8.60038 18.3074 8.14928 17.4268 7.80345L17.2653 7.74566C17.2188 7.73158 17.1702 7.72547 17.1216 7.7276C17.0205 7.73322 16.9227 7.76532 16.8383 7.82062C16.6571 7.9451 16.514 8.11647 16.4245 8.316C16.3333 8.52248 16.2815 8.74386 16.2716 8.96901C16.2541 9.20852 16.224 9.44696 16.1815 9.68337C16.1374 9.93537 16.0271 10.1714 15.8618 10.3679C15.6854 10.5614 15.4713 10.6798 15.333 10.8421C15.2644 10.9116 15.2228 11.0028 15.2157 11.0997C15.214 11.1405 15.2232 11.1809 15.2424 11.217C15.2617 11.253 15.2902 11.2834 15.3252 11.3049C15.4024 11.3513 15.4525 11.3388 15.5858 11.2974C15.7097 11.259 15.8384 11.2376 15.9682 11.2339C16.0142 11.231 16.0602 11.239 16.1025 11.2571C16.1447 11.2753 16.182 11.3031 16.2113 11.3383C16.2395 11.3795 16.2546 11.4281 16.2547 11.4778C16.2563 11.5127 16.255 11.5443 16.2538 11.5757C16.2509 11.6375 16.2456 11.6958 16.2456 11.748C16.2451 11.7677 16.2463 11.7874 16.2491 11.8069L16.2504 11.8065C16.2668 11.8 16.282 11.791 16.2956 11.7799C16.3349 11.7456 16.3706 11.7074 16.4022 11.6659C16.4758 11.5778 16.5441 11.4854 16.6068 11.3893C16.8598 11.0028 17.0231 10.5654 17.0848 10.1089C17.0986 9.97331 17.1461 9.84325 17.223 9.73034C17.2731 9.66857 17.3399 9.62225 17.4156 9.59685C17.4914 9.57145 17.5729 9.56802 17.6505 9.58697C17.7243 9.60573 17.7926 9.64132 17.85 9.69091C17.9074 9.7405 17.9523 9.80271 17.9811 9.87256C18.0292 10.0009 18.0431 10.1394 18.0215 10.2747C17.9671 10.4963 17.9339 10.7225 17.9225 10.9502C17.9433 11.0532 17.9833 11.1514 18.0403 11.2399C18.0965 11.3397 18.1597 11.4389 18.2226 11.5399C18.2854 11.6413 18.3494 11.7429 18.4063 11.8563C18.467 11.977 18.499 12.1099 18.4998 12.2448C18.499 12.3877 18.447 12.5257 18.3529 12.6341C18.2651 12.7324 18.16 12.8141 18.0427 12.8752C17.9335 12.9338 17.8204 12.985 17.7042 13.0286C17.5858 13.0797 17.4603 13.1131 17.332 13.1278C17.069 13.1426 16.8085 13.0695 16.5925 12.92L16.5144 12.8711L16.4783 12.8481C16.4733 12.8451 16.4679 12.8426 16.4624 12.8406C16.4515 12.8376 16.44 12.8375 16.429 12.8403C16.4181 12.8432 16.4081 12.8488 16.4001 12.8566C16.3844 12.8791 16.3774 12.8781 16.3857 12.9325L16.4094 13.1083L16.4331 13.2841L16.4452 13.3738C16.4433 13.4019 16.466 13.4349 16.4435 13.459C16.4293 13.4833 16.411 13.5144 16.402 13.5258C16.3757 13.5648 16.34 13.5967 16.2981 13.6184C16.2503 13.6403 16.1967 13.646 16.1453 13.6348C16.0813 13.6185 16.0187 13.597 15.9582 13.5706C15.9102 13.5501 15.8902 13.5541 15.8754 13.5617C15.865 13.5698 15.8566 13.5802 15.8509 13.592C15.8452 13.6039 15.8424 13.617 15.8428 13.6301C15.8395 13.7037 15.8199 13.7757 15.7855 13.841C15.747 13.905 15.6946 13.9596 15.6321 14.0009C15.5206 14.0755 15.442 14.1208 15.4194 14.1953C15.3841 14.3007 15.3589 14.4091 15.344 14.5191C15.3361 14.5754 15.333 14.6317 15.3192 14.7036C15.3098 14.7499 15.2888 14.7932 15.2582 14.8294C15.2255 14.8628 15.1857 14.8885 15.1418 14.9048C15.0184 14.9392 14.8917 14.9609 14.7638 14.9695C14.53 14.9839 14.2974 15.0133 14.0675 15.0577C13.8451 15.1079 13.631 15.1895 13.432 15.3C13.2407 15.4161 13.0717 15.5729 13.1184 15.7501C13.1491 15.8553 13.1913 15.957 13.2443 16.0532L13.3986 16.3733L13.552 16.6885C13.6026 16.7827 13.6691 16.8676 13.7486 16.9395C13.9042 17.0825 14.1083 17.1626 14.3205 17.164C14.4195 17.1528 14.511 17.1063 14.5778 17.033C14.6675 16.959 14.7551 16.8818 14.8404 16.8012C15.1837 16.4814 15.5005 16.125 15.8609 15.8023C16.0391 15.6244 16.2478 15.4793 16.4773 15.3738C16.5482 15.3444 16.6254 15.3328 16.7019 15.3398C16.7785 15.3469 16.8521 15.3725 16.9163 15.4143C17.0155 15.4993 17.1014 15.5984 17.171 15.7084C17.3097 15.908 17.4307 16.1112 17.5627 16.3035C17.6249 16.3977 17.6944 16.487 17.7704 16.5706C17.8004 16.6025 17.8346 16.6302 17.872 16.6532L17.8722 16.6524C17.8824 16.545 17.8849 16.437 17.8797 16.3292C17.8806 16.2949 17.8839 16.2608 17.8894 16.227C17.8895 16.2092 17.8876 16.1915 17.8837 16.1742C17.8728 16.1208 17.8585 16.0681 17.8407 16.0166C17.8049 15.9085 17.7625 15.7997 17.7177 15.6919L17.6488 15.5304C17.6191 15.4707 17.5947 15.4085 17.5757 15.3447C17.5597 15.2588 17.5784 15.1701 17.6277 15.0978C17.6771 15.0254 17.7532 14.9751 17.8397 14.9578C17.8828 14.9512 17.9268 14.9532 17.9691 14.9636C18.0115 14.9741 18.0513 14.9928 18.0862 15.0187C18.1451 15.0603 18.1959 15.1121 18.2361 15.1716C18.3608 15.3882 18.4516 15.6223 18.5053 15.8658C18.5645 16.1022 18.5995 16.344 18.6096 16.5874C18.6151 16.709 18.6141 16.8308 18.6067 16.9523C18.6044 17.0026 18.5939 17.1029 18.5982 17.0889C18.5994 17.0928 18.602 17.0961 18.6056 17.0982C18.6092 17.1003 18.6135 17.1009 18.6175 17.1C18.6125 17.1037 18.658 17.081 18.678 17.0716L18.7545 17.0325C18.8051 17.0058 18.8549 16.9773 18.9034 16.9469C19.0008 16.8866 19.0942 16.8201 19.1831 16.7478C19.3607 16.6031 19.5185 16.4359 19.6525 16.2507L19.7571 16.1C19.8097 16.0354 19.8827 15.9903 19.9644 15.9718C20.0466 15.953 20.1328 15.9629 20.2084 16C20.2766 16.0372 20.334 16.0911 20.3753 16.1565C20.505 16.3779 20.5778 16.6275 20.5874 16.8833C20.5986 17.0122 20.5892 17.1421 20.5594 17.2681C20.5426 17.3434 20.5071 17.4133 20.4561 17.4715C20.4224 17.5057 20.3797 17.53 20.3328 17.5415C20.286 17.5531 20.2368 17.5515 20.1908 17.5369L20.1005 17.5104C20.0799 17.5015 20.0578 17.4967 20.0354 17.4964C19.9897 17.4931 19.9438 17.498 19.8999 17.5108C19.8006 17.5497 19.7083 17.6043 19.6266 17.6724C19.4491 17.8149 19.287 17.9895 19.0929 18.145C18.9941 18.2284 18.8834 18.2968 18.7643 18.3481C18.6999 18.3752 18.6316 18.3923 18.5619 18.3988C18.4978 18.4046 18.4334 18.4056 18.3692 18.4019C17.8847 18.3448 17.4104 18.2223 16.9594 18.0379C16.8473 18.0007 16.7353 17.9646 16.6233 17.934C16.5053 17.9023 16.3886 17.8639 16.2754 17.825C16.0577 17.7418 15.8337 17.6759 15.6054 17.628C15.386 17.5876 15.1599 17.6002 14.9465 17.6648C14.733 17.7293 14.5384 17.844 14.3793 17.9989C14.0819 18.3425 13.9181 18.7798 13.9172 19.2324C13.9037 19.4633 13.9079 19.6949 13.9297 19.9252C13.9395 20.0409 13.9545 20.1563 13.971 20.2715C13.9786 20.3706 14.0162 20.4651 14.0787 20.5428C14.2057 20.6868 14.4516 20.7453 14.6676 20.9078C14.7673 20.9882 14.8506 21.0711 14.9384 21.1465C15.011 21.2183 15.0968 21.2756 15.1913 21.3152C15.4161 21.3466 15.6439 21.3511 15.8698 21.3284C16.1001 21.2969 16.3275 21.2468 16.5496 21.1785C16.7896 21.0734 17.057 21.0464 17.3134 21.1013C17.4451 21.1498 17.5593 21.2359 17.6415 21.3487C17.7149 21.4504 17.7792 21.5582 17.8336 21.671C17.924 21.8823 18.0353 22.0843 18.1657 22.274C18.1982 22.3158 18.2348 22.3544 18.2749 22.3893C18.2937 22.404 18.3171 22.4264 18.3319 22.4354C18.3469 22.4435 18.3631 22.4492 18.38 22.4522C18.4881 22.4641 18.5974 22.4621 18.705 22.4463C18.8294 22.4293 18.955 22.4222 19.0805 22.4251C19.1537 22.4292 19.2247 22.4511 19.2873 22.4889C19.3431 22.5201 19.4028 22.5459 19.455 22.5824C19.6622 22.7265 19.8385 22.9099 19.9736 23.122C20.2491 23.5311 20.4109 23.9828 20.6465 24.381C20.7564 24.579 20.8962 24.7593 21.0611 24.9156L21.0951 24.9433L21.177 25.0047C21.2315 25.0456 21.2901 25.0806 21.352 25.1092Z" fill="#2C2C2E"/>
</g>
<g opacity="0.7">
<path opacity="0.7" d="M14.9229 12.5173C14.9852 12.7577 15.1268 12.9705 15.3253 13.122C15.3513 13.1372 15.3715 13.1606 15.3824 13.1885C15.3844 13.2051 15.3824 13.2219 15.3766 13.2375C15.3707 13.2532 15.3611 13.2672 15.3487 13.2785C15.2901 13.3378 15.2103 13.3719 15.1265 13.3734C15.0427 13.3749 14.9617 13.3437 14.901 13.2865C14.7404 13.1221 14.8081 12.8387 14.6881 12.6433C14.6485 12.5789 14.5932 12.4863 14.6554 12.4428C14.7004 12.4114 14.7616 12.4478 14.7997 12.4871C14.8378 12.5264 14.8819 12.5743 14.9363 12.5663" fill="white"/>
<path opacity="0.7" d="M14.8668 12.5866C14.8661 12.585 14.8658 12.5831 14.8659 12.5813C14.866 12.5795 14.8665 12.5777 14.8673 12.5761C14.8775 12.5359 14.9177 12.483 14.9977 12.5361C15.001 12.5385 15.0039 12.5413 15.0064 12.5446C15.0284 12.616 15.0582 12.6848 15.0952 12.7499C15.1717 12.8836 15.276 12.9996 15.4013 13.0901C15.4305 13.1134 15.4498 13.1466 15.4553 13.1833C15.4609 13.22 15.4523 13.2574 15.4312 13.288C15.4024 13.3323 15.3629 13.3688 15.3163 13.3943C15.2287 13.4426 15.126 13.4569 15.0284 13.4342C14.9792 13.4231 14.9329 13.4021 14.8923 13.3725C14.8517 13.3429 14.8177 13.3054 14.7923 13.2622C14.7493 13.1834 14.7218 13.0973 14.711 13.0083C14.7011 12.9314 14.6869 12.8551 14.6685 12.7798C14.6568 12.7387 14.6391 12.6995 14.6159 12.6634C14.6052 12.6434 14.5957 12.6227 14.5873 12.6016C14.576 12.5746 14.5689 12.5461 14.5661 12.517C14.5637 12.4938 14.5677 12.4703 14.5778 12.4492C14.588 12.4282 14.6038 12.4103 14.6236 12.3976C14.644 12.3861 14.6672 12.3802 14.6907 12.3806C14.7142 12.3811 14.7371 12.3878 14.7571 12.4001C14.7858 12.4172 14.8106 12.4402 14.8297 12.4674C14.9002 12.5751 14.9488 12.5547 14.9377 12.5759C14.9277 12.5828 14.9161 12.587 14.904 12.5882C14.8919 12.5894 14.8797 12.5874 14.8686 12.5825C14.8312 12.5681 14.797 12.5466 14.768 12.519C14.7693 12.5219 14.758 12.511 14.7372 12.4988C14.7114 12.4844 14.6957 12.4836 14.6922 12.4923C14.6908 12.4941 14.69 12.4964 14.69 12.4987C14.69 12.501 14.6908 12.5033 14.6922 12.5051C14.6976 12.5208 14.7047 12.5359 14.7135 12.55L14.7503 12.6054C14.764 12.6287 14.776 12.653 14.7863 12.6779C14.7987 12.7077 14.8086 12.7384 14.816 12.7697C14.8372 12.8535 14.8448 12.9334 14.8584 13.008C14.8811 13.1575 14.9446 13.278 15.0736 13.2965C15.1349 13.3076 15.1983 13.2962 15.2518 13.2643C15.2747 13.2507 15.2941 13.2321 15.3086 13.2098C15.3083 13.1954 15.3203 13.2169 15.299 13.1931C15.1637 13.0931 15.0511 12.9663 14.9681 12.8207C14.9259 12.7466 14.8919 12.6681 14.8668 12.5866Z" fill="#2C2C2E"/>
</g>
<g opacity="0.7">
<path opacity="0.7" d="M14.2915 13.1918L14.1219 13.4261C14.1049 13.4495 14.0883 13.4833 14.1082 13.5044C14.1148 13.5098 14.1225 13.5136 14.1307 13.5158C14.139 13.5179 14.1476 13.5183 14.156 13.5169C14.2059 13.5139 14.2547 13.5009 14.2994 13.4788C14.3442 13.4566 14.3839 13.4258 14.4163 13.388C14.4396 13.3638 14.4566 13.3344 14.4662 13.3023C14.4758 13.2703 14.4775 13.2364 14.4713 13.2036C14.4672 13.1876 14.4598 13.1727 14.4495 13.1597C14.4392 13.1468 14.4263 13.1362 14.4116 13.1285C14.3969 13.1209 14.3807 13.1164 14.3641 13.1153C14.3476 13.1143 14.3309 13.1167 14.3154 13.1225L14.3091 13.1894" fill="white"/>
<path opacity="0.7" d="M14.2022 13.1905C14.2031 13.189 14.2044 13.1877 14.2058 13.1868C14.2073 13.1858 14.2089 13.1852 14.2107 13.1849C14.2462 13.1709 14.3162 13.1642 14.3227 13.2621C14.3228 13.2663 14.3221 13.2706 14.3208 13.2747L14.2035 13.4366L14.2034 13.4369C14.2114 13.4346 14.1841 13.4429 14.2286 13.43C14.263 13.4185 14.2951 13.4009 14.3232 13.3781C14.3522 13.3594 14.3771 13.3351 14.3966 13.3068C14.4152 13.2861 14.425 13.2592 14.4242 13.2316C14.4233 13.2039 14.4119 13.1776 14.3921 13.1581C14.3777 13.147 14.3595 13.1418 14.3414 13.1437C14.328 13.148 14.3293 13.1629 14.3227 13.1701C14.3134 13.1877 14.3051 13.1963 14.2987 13.1881C14.2902 13.1644 14.2877 13.139 14.2917 13.1142C14.2961 13.0752 14.3636 13.0609 14.4217 13.0831C14.4473 13.0917 14.47 13.107 14.4876 13.1273C14.5077 13.151 14.522 13.1791 14.5292 13.2093C14.5364 13.2395 14.5364 13.2709 14.5292 13.301C14.5098 13.3814 14.4632 13.4528 14.3972 13.5033C14.3601 13.5305 14.3189 13.5517 14.2752 13.5663C14.2149 13.5893 14.149 13.5928 14.0866 13.5764C14.0728 13.5693 14.0607 13.5595 14.0509 13.5476C14.0411 13.5356 14.0339 13.5218 14.0297 13.507C14.0255 13.4922 14.0243 13.4767 14.0264 13.4615C14.0284 13.4462 14.0336 13.4316 14.0416 13.4184C14.0911 13.3382 14.1077 13.3238 14.1318 13.2878L14.2022 13.1905Z" fill="#2C2C2E"/>
</g>
<path d="M17.1164 7.49983C17.1155 7.50204 17.1152 7.50285 17.1088 7.50382C17.0705 7.5104 17.0312 7.50703 16.9947 7.49403C16.9582 7.48103 16.9257 7.45886 16.9004 7.42968C16.8976 7.42663 16.8955 7.42308 16.894 7.41922L17.2166 6.54908C17.2597 6.47338 17.3081 6.40071 17.3613 6.33161C17.4701 6.18229 17.4947 6.26665 17.483 6.37941C17.4918 6.37039 17.4337 6.6414 17.4337 6.6414C17.4337 6.6414 17.1209 7.48786 17.1164 7.49983Z" fill="#2C2C2E"/>
<path d="M9.60465 28.4322C9.60544 28.4294 9.6068 28.4268 9.60865 28.4247C9.6105 28.4225 9.61281 28.4207 9.6154 28.4195C9.66521 28.3801 9.77053 28.3414 9.82511 28.4899C9.8272 28.4964 9.82819 28.5032 9.82804 28.5101L9.70585 28.8756L9.61563 29.16L9.55126 29.367C9.55126 29.367 9.42326 29.7018 9.30905 29.9293C9.12012 30.3163 9.13005 30.1358 9.18743 29.8807C9.17641 29.9062 9.3349 29.2691 9.3349 29.2691L9.39015 29.0912L9.48024 28.8048L9.60465 28.4322Z" fill="#2C2C2E"/>
<path d="M16.8237 6.16296C16.8197 6.1607 16.8183 6.15971 16.8164 6.151C16.8041 6.11152 16.7954 6.07102 16.7904 6.03001C16.7874 5.98384 16.8009 5.91122 16.9336 5.89402C16.9455 5.89337 16.9574 5.89467 16.9688 5.89786C17.0503 5.94741 17.1257 6.00605 17.1937 6.07265C17.2487 6.12077 17.3089 6.16267 17.3733 6.19758C17.5506 6.28504 17.7353 6.35683 17.9253 6.41211C18.1238 6.47812 18.3203 6.54997 18.5158 6.62452C18.9062 6.77472 19.2895 6.94161 19.6656 7.12517L19.9194 7.25228C20.1465 7.38958 20.3658 7.53904 20.5765 7.7C21.0166 8.03873 20.7903 7.97949 20.4817 7.8381C20.4953 7.84979 20.3137 7.75936 20.1259 7.67265C19.9351 7.58674 19.745 7.5011 19.745 7.5011L19.5316 7.39468C19.1639 7.2153 18.7886 7.05208 18.4059 6.90503C18.2146 6.83215 18.0222 6.76189 17.8279 6.69736C17.6202 6.63661 17.4184 6.55742 17.2251 6.46075C17.1418 6.41537 17.0638 6.36108 16.9925 6.29886C16.9411 6.24794 16.8845 6.2024 16.8237 6.16296Z" fill="#2C2C2E"/>
<path d="M22.6354 9.78434C22.6328 9.78193 22.6308 9.77897 22.6294 9.7757C22.6281 9.77242 22.6275 9.76889 22.6277 9.76537C22.6154 9.68989 22.6248 9.5399 22.8303 9.56718C22.8393 9.56888 22.848 9.57201 22.856 9.57646C22.8633 9.58349 22.9958 9.71944 23.172 9.93374L23.3269 10.1349C23.4911 10.3568 23.6434 10.5869 23.7834 10.8245C24.0732 11.32 24.3286 11.8345 24.5479 12.3644C24.774 12.9088 24.9863 13.4645 25.1763 14.0564C25.3553 14.6596 25.4919 15.2744 25.5851 15.8964C25.6818 16.5272 25.7471 17.1705 25.7865 17.8245C25.8143 18.4872 25.7992 19.1509 25.7412 19.8117C25.6523 21.173 25.2531 22.4966 24.5738 23.6832C23.2425 26.0085 21.2602 27.9026 18.866 29.1368C16.7858 30.2114 14.4606 30.7354 12.1157 30.6581C11.6263 30.6432 11.1382 30.6012 10.6536 30.5323C10.4222 30.503 10.1988 30.4624 9.98183 30.4216C9.87293 30.4033 9.76657 30.3805 9.66218 30.3562L9.61691 30.346L9.47847 30.3149L9.35795 30.2878C9.1044 30.2072 8.85579 30.1121 8.61335 30.003C8.10478 29.7774 8.34015 29.7808 8.67321 29.8469C8.65762 29.8376 8.85386 29.8888 9.05786 29.9258L9.33873 29.9821C9.41566 29.9978 9.46815 30.0047 9.46815 30.0047L9.58425 30.0307C9.68676 30.053 9.81124 30.08 9.95405 30.111C13.0725 30.725 16.3099 30.2176 19.0845 28.6799C21.3565 27.4247 23.2172 25.5504 24.4459 23.2795C24.7481 22.7008 24.9889 22.0927 25.1646 21.4649C25.3304 20.8386 25.4279 20.1964 25.4556 19.5494C25.5416 18.2826 25.4741 17.0101 25.2547 15.7591C25.159 15.161 25.0196 14.5706 24.8373 13.9927C24.6461 13.4302 24.4386 12.8777 24.2137 12.356C23.9988 11.8478 23.7483 11.3551 23.464 10.8816C23.3284 10.6581 23.1806 10.4421 23.0211 10.2347C22.9904 10.1949 22.9602 10.1558 22.9306 10.1175C22.7654 9.91688 22.6422 9.79103 22.6354 9.78434Z" fill="#2C2C2E"/>
<path d="M12.8206 30.6161C12.8206 30.6132 12.8213 30.6105 12.8225 30.6079C12.8237 30.6054 12.8255 30.6031 12.8277 30.6013C12.8657 30.5521 12.958 30.4865 13.0485 30.6177C13.0522 30.6235 13.0549 30.6299 13.0565 30.6367L13.0261 31.0218C13.0114 31.2351 13.0004 31.4486 12.993 31.6622L12.9871 31.8775C12.9871 31.8775 12.9559 32.2313 12.9237 32.4811C12.8811 32.9051 12.825 32.7384 12.7927 32.4743C12.7902 32.4881 12.7773 32.3303 12.7676 32.1687L12.752 31.8417L12.7571 31.6546C12.7641 31.4383 12.7751 31.2221 12.7899 31.0061L12.8206 30.6161Z" fill="#2C2C2E"/>
<path d="M13.8494 30.6241C13.8493 30.6213 13.8497 30.6184 13.8508 30.6158C13.8518 30.6132 13.8535 30.6108 13.8555 30.6088C13.89 30.5569 13.9774 30.4853 14.077 30.6096C14.081 30.6152 14.0842 30.6214 14.0862 30.628L14.0853 31.0133C14.0875 31.1986 14.0936 31.3837 14.1037 31.5688L14.1173 31.7832C14.1173 31.7832 14.1196 32.0445 14.1225 32.3865C14.1278 32.8118 14.0549 32.6576 13.9919 32.3967C13.9912 32.4108 13.9593 32.2547 13.9275 32.0938C13.9033 31.9287 13.8799 31.769 13.8799 31.769L13.8681 31.5817C13.8575 31.3934 13.8511 31.2049 13.8486 31.0163L13.8494 30.6241Z" fill="#2C2C2E"/>
<g opacity="0.8">
<path opacity="0.8" d="M9.32064 34.1931C11.6698 33.7923 14.0683 33.8051 16.452 33.819C16.9806 33.7996 17.5095 33.8481 18.0255 33.9635C18.1034 33.9769 18.1746 34.0153 18.2282 34.0728C18.3038 34.173 18.3621 34.4667 18.2655 34.5473C18.1505 34.6368 18.0118 34.6915 17.8661 34.7046C15.0704 34.7885 12.1583 34.8619 9.28853 35.0821C9.21418 35.0976 9.13744 35.0982 9.06286 35.0838C8.98829 35.0694 8.91739 35.0403 8.85436 34.9982C8.79632 34.9117 8.76077 34.8123 8.75088 34.7089C8.74099 34.6055 8.75707 34.5013 8.79769 34.4055C8.83922 34.3369 8.9024 34.2837 8.97748 34.2541C9.05256 34.2245 9.13539 34.2202 9.2132 34.2418" fill="white"/>
<path opacity="0.8" d="M9.42236 34.295C9.41961 34.2957 9.41674 34.2957 9.41397 34.2951C9.4112 34.2946 9.40858 34.2934 9.40629 34.2918C9.34968 34.2672 9.26023 34.1952 9.36628 34.076C9.37117 34.0711 9.37684 34.0669 9.38307 34.0637L9.75128 34.0053L10.0508 33.9637C10.2253 33.9379 10.4007 33.9204 10.5757 33.8985C10.9262 33.8596 11.2771 33.8273 11.6285 33.8015C12.3313 33.7503 13.035 33.7227 13.7383 33.7087C14.4417 33.6952 15.1445 33.6954 15.8468 33.6984C16.5575 33.6669 17.2697 33.7105 17.971 33.8286C18.0739 33.8462 18.1722 33.8841 18.2601 33.9399C18.3462 34.018 18.4019 34.1236 18.4176 34.2381C18.4482 34.3501 18.4389 34.4692 18.3912 34.5752C18.3553 34.6279 18.3064 34.6708 18.2492 34.6999C18.2061 34.7251 18.1609 34.7469 18.1142 34.7651C18.067 34.7836 18.0184 34.7982 17.9687 34.8086C17.919 34.8179 17.8684 34.8225 17.8178 34.8223L17.5547 34.8301L17.0285 34.8457L14.9243 34.9108C13.4918 34.9588 12.06 35.0172 10.6305 35.1059L9.5589 35.1784C9.37005 35.2034 9.17894 35.2067 8.98934 35.1883C8.93107 35.1767 8.87556 35.1542 8.82574 35.1221C8.79784 35.1045 8.77264 35.083 8.75091 35.0583L8.74295 35.0494L8.72264 35.0208C8.68146 34.9534 8.65469 34.8783 8.644 34.8002C8.63544 34.7211 8.63825 34.6411 8.65233 34.5627C8.66343 34.4828 8.69409 34.4067 8.74166 34.3412C8.79262 34.278 8.86177 34.2316 8.93996 34.2081C9.01714 34.1793 9.10258 34.1813 9.17836 34.2135C9.21748 34.234 9.2219 34.2496 9.2083 34.257C9.131 34.2686 9.05621 34.293 8.98706 34.3292C8.95474 34.3496 8.92696 34.3764 8.90542 34.4078C8.88387 34.4392 8.86902 34.4747 8.86176 34.512C8.85317 34.5751 8.85361 34.6392 8.86308 34.7022C8.86717 34.7309 8.8733 34.7594 8.88141 34.7873C8.88856 34.8285 8.90401 34.8678 8.92684 34.903C8.95487 34.9299 8.98981 34.9488 9.02787 34.9574C9.10014 34.9715 9.17415 34.9747 9.24739 34.9669L9.76112 34.9292L10.7916 34.8617C12.166 34.7789 13.5413 34.7231 14.9163 34.6771L17.0214 34.6118L17.5476 34.5962L17.8107 34.5883C17.8478 34.589 17.8849 34.586 17.9215 34.5793C17.9576 34.5716 17.9931 34.5609 18.0274 34.5474C18.0625 34.5338 18.0963 34.5175 18.1287 34.4986C18.1492 34.4871 18.1685 34.4737 18.1864 34.4585C18.2017 34.4016 18.2016 34.3418 18.186 34.2849C18.1792 34.226 18.1547 34.1704 18.1158 34.1253C18.0534 34.091 17.9856 34.0676 17.9152 34.056C17.2317 33.9429 16.538 33.9016 15.8458 33.9325C15.1443 33.9296 14.4432 33.9294 13.743 33.9429C13.0428 33.9568 12.3434 33.9843 11.6461 34.0352C11.2975 34.0605 10.9496 34.0926 10.6024 34.1314C10.4292 34.153 10.2554 34.1704 10.0828 34.196L9.78639 34.2371L9.42236 34.295Z" fill="#2C2C2E"/>
</g>
<path d="M13.1867 29.2716C17.938 29.0599 22.2456 26.0266 23.8429 21.5661C24.8454 18.8505 24.7397 15.8548 23.5481 13.2151C22.3565 10.5755 20.173 8.49977 17.4611 7.42871C16.1984 6.89226 14.8596 6.55229 13.492 6.42082C10.986 6.26797 8.50341 6.9765 6.4638 8.4267C4.48916 9.78732 2.99033 11.7221 2.17468 13.9633C1.35903 16.2045 1.26689 18.6414 1.91101 20.9368C3.12352 25.3144 7.06755 28.5537 11.579 29.1651C12.1118 29.237 12.649 29.2726 13.1867 29.2716C13.229 29.2701 13.269 29.2525 13.2984 29.2223C13.3278 29.1922 13.3443 29.1519 13.3443 29.11C13.3443 29.0681 13.3278 29.0279 13.2984 28.9978C13.269 28.9676 13.229 28.95 13.1867 28.9485C8.93613 28.9546 4.78944 26.5147 2.92476 22.7016C1.9043 20.5561 1.59232 18.1468 2.03314 15.8157C2.47395 13.4846 3.64514 11.3504 5.38038 9.716C7.0802 8.11546 9.24867 7.0899 11.5741 6.78673C12.8865 6.63949 14.2152 6.74813 15.4855 7.10654C16.7144 7.42148 17.8931 7.90449 18.9874 8.54164C20.8696 9.70071 22.3543 11.3959 23.2469 13.405C24.1395 15.4142 24.3983 17.6435 23.9895 19.8008C23.5599 22.0456 22.4472 24.1066 20.8008 25.7071C19.1575 27.2733 17.0903 28.3332 14.8504 28.7581C14.3012 28.8613 13.7452 28.925 13.1867 28.9485C12.9776 28.9578 12.9765 29.2809 13.1867 29.2716Z" fill="#2C2C2E"/>
<g opacity="0.8">
<path opacity="0.8" d="M9.32064 34.1931C11.6698 33.7923 14.0683 33.8051 16.452 33.819C16.9806 33.7996 17.5095 33.8481 18.0255 33.9635C18.1034 33.9769 18.1746 34.0153 18.2282 34.0728C18.3038 34.173 18.3621 34.4667 18.2655 34.5473C18.1505 34.6368 18.0118 34.6915 17.8661 34.7046C15.0704 34.7885 12.1583 34.8619 9.28853 35.0821C9.21418 35.0976 9.13744 35.0982 9.06286 35.0838C8.98829 35.0694 8.91739 35.0403 8.85436 34.9982C8.79632 34.9117 8.76077 34.8123 8.75088 34.7089C8.74099 34.6055 8.75707 34.5013 8.79769 34.4055C8.83922 34.3369 8.9024 34.2837 8.97748 34.2541C9.05256 34.2245 9.13539 34.2202 9.2132 34.2418" fill="white"/>
<path opacity="0.8" d="M9.42236 34.295C9.41961 34.2957 9.41674 34.2957 9.41397 34.2951C9.4112 34.2946 9.40858 34.2934 9.40629 34.2918C9.34968 34.2672 9.26023 34.1952 9.36628 34.076C9.37117 34.0711 9.37684 34.0669 9.38307 34.0637L9.75128 34.0053L10.0508 33.9637C10.2253 33.9379 10.4007 33.9204 10.5757 33.8985C10.9262 33.8596 11.2771 33.8273 11.6285 33.8015C12.3313 33.7503 13.035 33.7227 13.7383 33.7087C14.4417 33.6952 15.1445 33.6954 15.8468 33.6984C16.5575 33.6669 17.2697 33.7105 17.971 33.8286C18.0739 33.8462 18.1722 33.8841 18.2601 33.9399C18.3462 34.018 18.4019 34.1236 18.4176 34.2381C18.4482 34.3501 18.4389 34.4692 18.3912 34.5752C18.3553 34.6279 18.3064 34.6708 18.2492 34.6999C18.2061 34.7251 18.1609 34.7469 18.1142 34.7651C18.067 34.7836 18.0184 34.7982 17.9687 34.8086C17.919 34.8179 17.8684 34.8225 17.8178 34.8223L17.5547 34.8301L17.0285 34.8457L14.9243 34.9108C13.4918 34.9588 12.06 35.0172 10.6305 35.1059L9.5589 35.1784C9.37005 35.2034 9.17894 35.2067 8.98934 35.1883C8.93107 35.1767 8.87556 35.1542 8.82574 35.1221C8.79784 35.1045 8.77264 35.083 8.75091 35.0583L8.74295 35.0494L8.72264 35.0208C8.68146 34.9534 8.65469 34.8783 8.644 34.8002C8.63544 34.7211 8.63825 34.6411 8.65233 34.5627C8.66343 34.4828 8.69409 34.4067 8.74166 34.3412C8.79262 34.278 8.86177 34.2316 8.93996 34.2081C9.01714 34.1793 9.10258 34.1813 9.17836 34.2135C9.21748 34.234 9.2219 34.2496 9.2083 34.257C9.131 34.2686 9.05621 34.293 8.98706 34.3292C8.95474 34.3496 8.92696 34.3764 8.90542 34.4078C8.88387 34.4392 8.86902 34.4747 8.86176 34.512C8.85317 34.5751 8.85361 34.6392 8.86308 34.7022C8.86717 34.7309 8.8733 34.7594 8.88141 34.7873C8.88856 34.8285 8.90401 34.8678 8.92684 34.903C8.95487 34.9299 8.98981 34.9488 9.02787 34.9574C9.10014 34.9715 9.17415 34.9747 9.24739 34.9669L9.76112 34.9292L10.7916 34.8617C12.166 34.7789 13.5413 34.7231 14.9163 34.6771L17.0214 34.6118L17.5476 34.5962L17.8107 34.5883C17.8478 34.589 17.8849 34.586 17.9215 34.5793C17.9576 34.5716 17.9931 34.5609 18.0274 34.5474C18.0625 34.5338 18.0963 34.5175 18.1287 34.4986C18.1492 34.4871 18.1685 34.4737 18.1864 34.4585C18.2017 34.4016 18.2016 34.3418 18.186 34.2849C18.1792 34.226 18.1547 34.1704 18.1158 34.1253C18.0534 34.091 17.9856 34.0676 17.9152 34.056C17.2317 33.9429 16.538 33.9016 15.8458 33.9325C15.1443 33.9296 14.4432 33.9294 13.743 33.9429C13.0428 33.9568 12.3434 33.9843 11.6461 34.0352C11.2975 34.0605 10.9496 34.0926 10.6024 34.1314C10.4292 34.153 10.2554 34.1704 10.0828 34.196L9.78639 34.2371L9.42236 34.295Z" fill="#2C2C2E"/>
</g>
<path d="M3.18495 8.07112C2.99484 7.9457 2.78626 7.8502 2.56662 7.78801C2.36909 7.73839 2.16407 7.72486 1.96164 7.74809C1.7319 7.77844 1.51118 7.85635 1.31383 7.97674C1.18762 8.04578 1.06798 8.126 0.956366 8.2164C0.750185 8.39106 0.584743 8.60795 0.471474 8.85211C0.358205 9.09627 0.299807 9.36188 0.300314 9.63057C0.298814 9.93104 0.377339 10.2266 0.527969 10.4874C0.678598 10.7482 0.896009 10.9651 1.15827 11.1162C1.31101 11.192 1.46995 11.255 1.63341 11.3043C2.78339 11.6867 3.93337 12.0691 5.08336 12.4515L5.04242 12.4374C4.71158 11.4553 4.38074 10.4733 4.0499 9.49119C3.86973 8.95637 3.65991 8.38197 3.18495 8.07112ZM2.52844 9.9741C2.43315 10.0398 2.32089 10.0773 2.20486 10.082C2.08884 10.0868 1.97385 10.0587 1.87339 10.001C1.77293 9.94328 1.69117 9.85841 1.63771 9.75631C1.58425 9.65421 1.56131 9.53912 1.57158 9.42456C1.58185 9.31 1.6249 9.20073 1.69568 9.10955C1.76647 9.01838 1.86204 8.94908 1.97119 8.90982C2.08034 8.87055 2.19854 8.86294 2.31191 8.88786C2.42527 8.91279 2.52911 8.96923 2.61123 9.05055C2.72258 9.18445 2.77631 9.35634 2.76083 9.52913C2.74534 9.70191 2.66187 9.86173 2.52844 9.97411V9.9741Z" fill="white"/>
<path d="M3.23645 7.98308C2.96693 7.79344 2.65066 7.67951 2.3211 7.65333C1.99155 7.62716 1.66098 7.68972 1.36439 7.83439C1.08609 7.96496 0.841033 8.15589 0.647372 8.39301C0.45371 8.63014 0.316413 8.90739 0.245654 9.20421C0.184056 9.47909 0.185071 9.7641 0.248624 10.0385C0.312177 10.313 0.43667 10.57 0.61306 10.7908C1.0461 11.3237 1.77932 11.4583 2.40249 11.6655L5.0563 12.548C5.18125 12.5896 5.23358 12.3958 5.1105 12.3533L5.06956 12.3392L5.14075 12.4097C4.83999 11.5169 4.53923 10.6241 4.23847 9.73131C4.02243 9.09002 3.82419 8.39047 3.23645 7.98307C3.12873 7.9084 3.02672 8.08337 3.13355 8.15742C3.80457 8.62254 3.97921 9.59899 4.22233 10.3207L4.67347 11.6599L4.884 12.2848C4.92608 12.4097 4.92836 12.5039 5.0563 12.548L5.1105 12.3533L2.72207 11.5591C2.31472 11.4236 1.9021 11.2982 1.49884 11.1512C1.13788 11.034 0.831602 10.7921 0.63609 10.4696C0.455764 10.1555 0.37887 9.79363 0.416129 9.43427C0.453389 9.07491 0.602946 8.73601 0.843946 8.46484C1.1079 8.17279 1.45382 7.96535 1.83746 7.86905C2.062 7.82934 2.29228 7.83439 2.51484 7.8839C2.73739 7.93342 2.94773 8.0264 3.13355 8.15742C3.24466 8.22723 3.34706 8.05258 3.23645 7.98308Z" fill="#2C2C2E"/>
<path d="M2.4564 9.90187C2.37577 9.98858 2.27196 10.0509 2.15702 10.0815C2.04208 10.1121 1.92073 10.1097 1.80706 10.0748C1.71199 10.0331 1.63454 9.95996 1.58799 9.86789C1.54144 9.77583 1.5287 9.67059 1.55195 9.57023C1.57686 9.44714 1.63376 9.33261 1.71704 9.23796C1.80031 9.14331 1.90708 9.07181 2.0268 9.03053C2.12609 8.98969 2.23643 8.98339 2.33981 9.01264C2.44318 9.0419 2.53351 9.10499 2.59603 9.19161C2.65443 9.30882 2.67239 9.44177 2.64717 9.57006C2.62195 9.69836 2.55493 9.81492 2.4564 9.90187C2.36438 9.99466 2.50844 10.1375 2.60056 10.0446C2.71521 9.93814 2.79696 9.80158 2.83633 9.65086C2.87569 9.50015 2.87104 9.34145 2.82292 9.19325C2.76405 9.05344 2.65761 8.93846 2.52206 8.86827C2.38651 8.79809 2.23043 8.77713 2.0809 8.80904C1.91978 8.84098 1.77006 8.91458 1.64695 9.02237C1.52385 9.13016 1.43174 9.26829 1.37998 9.42273C1.32692 9.56407 1.32335 9.71895 1.36984 9.86253C1.41632 10.0061 1.51018 10.1301 1.63633 10.2145C1.79363 10.2948 1.97321 10.3216 2.14743 10.291C2.32166 10.2603 2.48088 10.1737 2.60058 10.0446C2.69433 9.95345 2.55013 9.81071 2.4564 9.90187Z" fill="#2C2C2E"/>
<path d="M13.249 2.66677C13.177 2.38464 13.0614 2.11525 12.9062 1.86818C12.7611 1.65198 12.5775 1.4638 12.3642 1.31286C12.1187 1.14538 11.8403 1.03095 11.5472 0.977008C11.3667 0.934924 11.1827 0.909109 10.9975 0.899878C10.6486 0.890121 10.3018 0.955476 9.98098 1.09143C9.66015 1.22738 9.37294 1.43069 9.1392 1.68731C8.87584 1.97251 8.69307 2.32144 8.60932 2.69891C8.52558 3.07638 8.54381 3.46904 8.66219 3.8373C8.74168 4.04022 8.83837 4.23613 8.9512 4.42291C9.71431 5.77074 10.4774 7.11857 11.2405 8.4664L11.2138 8.41792C11.7544 7.1987 12.2951 5.97948 12.8357 4.76026C13.1302 4.09629 13.4308 3.36923 13.249 2.66677ZM10.9642 3.91987C10.816 3.90106 10.6763 3.84079 10.5616 3.74612C10.4468 3.65145 10.3616 3.52632 10.3162 3.38542C10.2707 3.24452 10.2667 3.09369 10.3047 2.95064C10.3428 2.80759 10.4212 2.67825 10.5309 2.57781C10.6405 2.47736 10.7768 2.40998 10.9238 2.38356C11.0708 2.35715 11.2223 2.3728 11.3606 2.42868C11.4989 2.48457 11.6182 2.57836 11.7046 2.69906C11.791 2.81975 11.8408 2.96235 11.8482 3.11009C11.8376 3.33296 11.739 3.54279 11.5736 3.69429C11.4082 3.84579 11.1893 3.92681 10.9642 3.91987Z" fill="white"/>
<path d="M13.3474 2.63901C13.2329 2.15136 12.9652 1.71223 12.5827 1.38479C12.2003 1.05735 11.7228 0.858464 11.2191 0.816739C10.7239 0.759433 10.2227 0.849915 9.77975 1.07658C9.33683 1.30325 8.97237 1.65577 8.73309 2.08895C8.50631 2.50459 8.41341 2.97902 8.46687 3.44849C8.53331 3.97524 8.83565 4.42406 9.09226 4.8773C9.77905 6.09035 10.4658 7.3034 11.1526 8.51645C11.2169 8.62992 11.3916 8.52868 11.3287 8.41454C11.292 8.34796 11.5893 7.81993 11.6263 7.73644L11.9507 7.0049L12.6536 5.41992C13.0396 4.54942 13.564 3.61895 13.3474 2.63903C13.3194 2.51216 13.1228 2.56584 13.1508 2.6927C13.2407 3.27412 13.1472 3.86885 12.8831 4.39568C12.6618 4.93166 12.4153 5.45842 12.1802 5.98858L11.5044 7.51261C11.3962 7.75645 11.2881 8.0003 11.18 8.24414C11.1236 8.37171 11.0889 8.40092 11.1526 8.51645L11.3287 8.41454C10.7836 7.4518 10.2385 6.48907 9.69345 5.52634C9.21178 4.67557 8.46833 3.76279 8.70697 2.73107C8.8219 2.26028 9.08609 1.83833 9.4608 1.52707C9.83551 1.2158 10.301 1.03159 10.7892 1.00144C11.3221 0.956381 11.8537 1.10234 12.2871 1.41274C12.7206 1.72315 13.0271 2.17736 13.1508 2.69272C13.1587 2.71775 13.1761 2.73876 13.1993 2.75132C13.2226 2.76389 13.2498 2.76701 13.2753 2.76004C13.3009 2.75307 13.3226 2.73655 13.3361 2.71397C13.3495 2.69138 13.3536 2.6645 13.3474 2.63901Z" fill="#2C2C2E"/>
<path d="M10.9642 3.818C10.8066 3.83256 10.648 3.80277 10.5068 3.73206C10.3655 3.66134 10.2472 3.55257 10.1656 3.41826C10.1058 3.28964 10.0938 3.14421 10.1317 3.00767C10.1696 2.87113 10.255 2.75225 10.3729 2.67202C10.5082 2.57439 10.6669 2.51324 10.8332 2.49454C10.9996 2.47583 11.168 2.50023 11.3221 2.56534C11.4581 2.61489 11.5732 2.70849 11.6488 2.83096C11.7243 2.95344 11.7559 3.09761 11.7383 3.24008C11.6903 3.40665 11.5887 3.55317 11.449 3.65745C11.3093 3.76173 11.1391 3.81809 10.9642 3.818C10.8338 3.826 10.8329 4.02797 10.9642 4.01991C11.1643 4.01692 11.3593 3.95697 11.5259 3.84722C11.6925 3.73747 11.8238 3.58255 11.9039 3.40096C11.9622 3.22813 11.9593 3.04078 11.8956 2.86983C11.8319 2.69887 11.7112 2.55454 11.5535 2.46065C11.3752 2.3513 11.1703 2.29151 10.9606 2.28756C10.7508 2.28361 10.5439 2.33565 10.3614 2.4382C10.1967 2.5234 10.0649 2.6599 9.98624 2.82666C9.90762 2.99342 9.88658 3.18116 9.92638 3.36093C10.0008 3.56941 10.1432 3.74739 10.3311 3.86673C10.5191 3.98607 10.7418 4.03997 10.9642 4.01991C11.095 4.01509 11.0956 3.81315 10.9642 3.818Z" fill="#2C2C2E"/>
<path d="M22.6979 9.06466C22.7578 8.96367 22.8016 8.85408 22.8277 8.73982C22.8478 8.63723 22.8489 8.53186 22.8309 8.42889C22.8084 8.31214 22.7613 8.20139 22.6927 8.10385C22.6529 8.04123 22.6076 7.9823 22.5571 7.92778C22.46 7.8273 22.3419 7.7489 22.2112 7.69801C22.0804 7.64712 21.94 7.62495 21.7998 7.63303C21.6429 7.64101 21.4909 7.68981 21.3591 7.77453C21.2273 7.85925 21.1204 7.97688 21.0492 8.11556C21.014 8.19598 20.9858 8.27919 20.9648 8.36432L20.4663 10.1642L20.4725 10.1428L21.9817 9.54886C22.2678 9.4701 22.5196 9.29987 22.6979 9.06466ZM21.6853 8.78389C21.6482 8.73701 21.6254 8.68063 21.6195 8.62136C21.6137 8.56209 21.625 8.50239 21.6522 8.44927C21.6794 8.39615 21.7213 8.35183 21.7731 8.32148C21.8248 8.29114 21.8842 8.27604 21.9443 8.27796C22.0044 8.27989 22.0627 8.29875 22.1124 8.33234C22.1621 8.36592 22.201 8.41285 22.2247 8.46759C22.2484 8.52234 22.2558 8.58263 22.2461 8.64141C22.2364 8.70018 22.2099 8.75499 22.1698 8.7994C22.1032 8.86032 22.015 8.89283 21.9244 8.88993C21.8337 8.88703 21.7478 8.84894 21.6853 8.78389Z" fill="white"/>
<path d="M22.7859 9.11466C22.8811 8.96496 22.9341 8.79273 22.9394 8.61587C22.9446 8.43901 22.9019 8.264 22.8158 8.10901C22.7377 7.96463 22.6281 7.83929 22.4949 7.7421C22.3618 7.6449 22.2085 7.57829 22.0461 7.54709C21.8933 7.51994 21.7362 7.52684 21.5863 7.5673C21.4365 7.60775 21.2976 7.68075 21.1798 7.78098C20.904 8.01838 20.8506 8.39422 20.7587 8.72569L20.368 10.1364C20.3619 10.1619 20.366 10.1887 20.3794 10.2112C20.3929 10.2338 20.4147 10.2503 20.4401 10.2573C20.4656 10.2642 20.4929 10.2611 20.5161 10.2486C20.5393 10.236 20.5567 10.215 20.5646 10.1901L20.5708 10.1687L20.4996 10.2392L21.8673 9.70093C22.2092 9.56637 22.5819 9.44008 22.7859 9.11465C22.8553 9.00394 22.679 8.90245 22.6098 9.01274C22.3916 9.36087 21.8905 9.47577 21.5301 9.6176L20.8699 9.87745L20.5397 10.0074C20.4611 10.0383 20.393 10.05 20.368 10.1364L20.5646 10.1901L20.9149 8.92529C20.9721 8.71892 21.0247 8.51069 21.0871 8.30581C21.1333 8.12971 21.2417 7.97588 21.3927 7.87227C21.5438 7.77444 21.7221 7.72614 21.9024 7.73421C22.0828 7.74227 22.256 7.80629 22.3975 7.91721C22.5564 8.04361 22.6707 8.21655 22.7242 8.41126C22.7639 8.61886 22.7231 8.83366 22.6098 9.01274C22.5458 9.12633 22.7219 9.22826 22.7859 9.11466Z" fill="#2C2C2E"/>
<path d="M21.7575 8.71152C21.7449 8.70035 21.733 8.68855 21.7217 8.67615C21.7162 8.67005 21.711 8.66374 21.7058 8.65742C21.7183 8.67259 21.7045 8.65489 21.7003 8.64867C21.6908 8.63455 21.6822 8.61986 21.6745 8.60468C21.6701 8.59596 21.6657 8.58445 21.6721 8.60089C21.6689 8.59266 21.6657 8.5845 21.6629 8.57613C21.6582 8.56207 21.6544 8.54775 21.6515 8.53324C21.6505 8.52837 21.6496 8.50733 21.6493 8.52158C21.6489 8.53631 21.6488 8.51115 21.6487 8.50645C21.6483 8.49236 21.6487 8.47827 21.6499 8.46423C21.6511 8.44497 21.6456 8.48221 21.6502 8.46356C21.6521 8.45572 21.6536 8.44784 21.6558 8.44007C21.6576 8.43344 21.6599 8.42698 21.6621 8.42045C21.6694 8.39876 21.6552 8.4313 21.6641 8.41617C21.6676 8.41024 21.6706 8.40398 21.6742 8.39807C21.6764 8.39439 21.6893 8.3733 21.682 8.38533C21.675 8.39703 21.687 8.37982 21.69 8.37653C21.695 8.3712 21.7001 8.36609 21.7055 8.36118C21.7086 8.3583 21.7261 8.34583 21.7145 8.3531C21.7028 8.36046 21.7241 8.34725 21.7278 8.34504C21.7339 8.34139 21.7404 8.33834 21.7466 8.33485C21.763 8.32559 21.7304 8.33987 21.7484 8.33371C21.763 8.32847 21.778 8.32418 21.7933 8.32088C21.7982 8.31987 21.8191 8.31906 21.8049 8.31865C21.7891 8.3182 21.8165 8.31826 21.8208 8.31811C21.8372 8.31757 21.8533 8.31889 21.8697 8.31996C21.8817 8.32075 21.8617 8.31941 21.8616 8.31884L21.873 8.32084C21.8806 8.32229 21.8882 8.32398 21.8958 8.32589C21.9126 8.33014 21.9287 8.33594 21.945 8.34173C21.9281 8.33575 21.9424 8.3408 21.9504 8.34466C21.9578 8.34827 21.9651 8.3521 21.9723 8.35615C21.9796 8.36025 21.9868 8.36456 21.9938 8.36907L22.0044 8.37609C22.006 8.37722 22.0209 8.3876 22.0114 8.38071C22.0031 8.37474 22.0252 8.39225 22.0279 8.39471C22.0342 8.40031 22.0404 8.40607 22.0464 8.41203C22.0523 8.41788 22.0581 8.42391 22.0637 8.43009L22.0718 8.43938C22.0732 8.44112 22.0841 8.45509 22.0766 8.445C22.0696 8.43557 22.083 8.45449 22.0851 8.45756C22.0895 8.46413 22.0937 8.47081 22.0978 8.47762C22.1017 8.48434 22.1055 8.49118 22.1091 8.49811C22.1132 8.50599 22.1207 8.52447 22.1133 8.50534C22.1187 8.51939 22.1239 8.53341 22.1279 8.54793C22.1299 8.55503 22.1316 8.5622 22.1332 8.56942L22.1353 8.58016C22.1361 8.58421 22.1357 8.5986 22.1361 8.58466C22.1365 8.57 22.1365 8.59466 22.1367 8.59979C22.137 8.60686 22.137 8.61393 22.1368 8.62101C22.1366 8.62803 22.136 8.63501 22.1355 8.64201C22.1351 8.64829 22.1311 8.65172 22.1356 8.6424C22.1412 8.63083 22.1357 8.64101 22.1345 8.64607C22.1313 8.65956 22.1278 8.67265 22.1233 8.68579C22.1225 8.68917 22.1213 8.69241 22.1196 8.69541C22.119 8.69594 22.1293 8.67726 22.1228 8.68696C22.1183 8.69351 22.1153 8.70136 22.1112 8.70816C22.1093 8.71134 22.1032 8.72458 22.0997 8.72554C22.099 8.72573 22.1131 8.71055 22.1048 8.71898C22.1024 8.72147 22.1002 8.72442 22.0979 8.72703C22.093 8.73243 22.0879 8.73762 22.0826 8.74261C22.079 8.74602 22.0596 8.76016 22.0709 8.75311C22.0826 8.74576 22.0587 8.76055 22.0545 8.76296C22.0508 8.76508 22.0364 8.77557 22.0324 8.77444C22.0319 8.77429 22.0517 8.76765 22.0404 8.77121C22.0358 8.77264 22.0314 8.77455 22.0269 8.77605C22.0189 8.7787 22.0109 8.78101 22.0027 8.78299C21.9945 8.78499 21.9861 8.78611 21.9778 8.78792C21.9659 8.79052 21.9871 8.78627 21.9867 8.78664C21.985 8.78835 21.9746 8.78763 21.972 8.78777C21.9545 8.78852 21.937 8.78815 21.9195 8.78665C21.9168 8.78645 21.9042 8.78427 21.9179 8.78661C21.9325 8.7891 21.9152 8.78589 21.9124 8.78537C21.9035 8.78367 21.8946 8.78167 21.8858 8.77935C21.8756 8.77666 21.8655 8.77357 21.8555 8.77007C21.8517 8.76875 21.848 8.76716 21.8442 8.76591C21.8305 8.76141 21.8592 8.77337 21.8462 8.76674C21.8289 8.75794 21.8116 8.74969 21.7952 8.73937C21.7868 8.7341 21.7788 8.72828 21.7706 8.72279C21.7718 8.72362 21.7829 8.733 21.7741 8.72552C21.7686 8.72081 21.763 8.71627 21.7575 8.71152C21.7384 8.6926 21.7124 8.68198 21.6854 8.68199C21.6584 8.682 21.6325 8.69263 21.6134 8.71156C21.5942 8.73048 21.5835 8.75615 21.5835 8.78292C21.5835 8.80969 21.5942 8.83535 21.6133 8.85429C21.6814 8.91891 21.7672 8.96231 21.86 8.97911C21.9528 8.9959 22.0485 8.98536 22.1353 8.94879C22.2132 8.90801 22.2747 8.84219 22.3097 8.76218C22.3448 8.68217 22.3513 8.59273 22.3282 8.50857C22.3047 8.41876 22.2578 8.33666 22.192 8.27057C22.1263 8.20448 22.0441 8.15674 21.9538 8.13216C21.8679 8.10604 21.7757 8.10917 21.6919 8.14108C21.608 8.17298 21.5374 8.2318 21.4913 8.30814C21.4485 8.39986 21.4372 8.50296 21.4592 8.60161C21.4813 8.70027 21.5354 8.78903 21.6133 8.85429C21.6324 8.87321 21.6584 8.88383 21.6854 8.88382C21.7124 8.88381 21.7383 8.87318 21.7574 8.85425C21.7765 8.83532 21.7873 8.80966 21.7873 8.7829C21.7873 8.75613 21.7766 8.73045 21.7575 8.71152L21.7575 8.71152Z" fill="#2C2C2E"/>
<path d="M5.02509 27.3477C4.98318 27.4573 4.95865 27.5726 4.95238 27.6896C4.94995 27.7941 4.96679 27.8981 5.00205 27.9966C5.04412 28.1079 5.10936 28.2092 5.19356 28.294C5.24336 28.3491 5.29809 28.3996 5.35708 28.4449C5.46996 28.5278 5.59964 28.5853 5.73719 28.6137C5.87474 28.6421 6.01686 28.6405 6.15374 28.6092C6.30705 28.5751 6.44858 28.5017 6.56408 28.3962C6.67957 28.2907 6.76494 28.1569 6.81158 28.0083C6.83256 27.9232 6.84624 27.8365 6.85247 27.7491C6.91426 27.13 6.97605 26.5109 7.03784 25.8918L7.03537 25.9139L5.64873 26.751C5.38009 26.8764 5.16083 27.0861 5.02509 27.3477ZM6.07093 27.4556C6.11546 27.4957 6.14753 27.5474 6.16339 27.6049C6.17924 27.6623 6.17822 27.7231 6.16044 27.78C6.14267 27.8369 6.10887 27.8875 6.06302 27.9261C6.01718 27.9646 5.96119 27.9894 5.90161 27.9975C5.84204 28.0057 5.78136 27.9968 5.7267 27.972C5.67204 27.9471 5.62567 27.9074 5.59302 27.8574C5.56038 27.8074 5.54281 27.7491 5.54239 27.6896C5.54198 27.63 5.55873 27.5716 5.59067 27.5211C5.64602 27.45 5.7274 27.4032 5.81725 27.391C5.9071 27.3787 5.99822 27.402 6.07093 27.4556V27.4556Z" fill="white"/>
<path d="M4.92695 27.3199C4.84693 27.5231 4.83516 27.7465 4.89338 27.9568C4.9516 28.1672 5.07671 28.3533 5.25016 28.4877C5.41446 28.6227 5.61576 28.7059 5.8282 28.7267C6.04063 28.7475 6.2545 28.7049 6.44231 28.6044C6.61312 28.5122 6.75266 28.3722 6.84343 28.2018C6.92654 27.9985 6.97053 27.7817 6.9731 27.5624C7.02871 27.0052 7.08432 26.448 7.13994 25.8908C7.15288 25.7611 6.95026 25.7633 6.93606 25.8908L6.93359 25.9129L6.98408 25.8258L5.71299 26.5931C5.37789 26.7439 5.10183 26.9992 4.92695 27.3199C4.87739 27.4402 5.07453 27.4925 5.12355 27.3736C5.21232 27.194 5.35323 27.0446 5.52824 26.9448C5.71188 26.8231 5.9046 26.7139 6.09322 26.6L6.71721 26.2233C6.82503 26.1582 6.93383 26.0945 7.04077 26.028C7.10465 25.9883 7.13137 25.9678 7.13994 25.8908H6.93606L6.80364 27.2175C6.76694 27.5852 6.80118 28.0345 6.50822 28.3088C6.37086 28.433 6.19648 28.5097 6.01132 28.5272C5.82616 28.5448 5.64026 28.5023 5.4816 28.4062C5.30608 28.3059 5.17314 28.1461 5.10732 27.9563C5.04151 27.7665 5.04727 27.5595 5.12355 27.3736C5.16737 27.2509 4.97047 27.1981 4.92695 27.3199Z" fill="#2C2C2E"/>
<path d="M6.0198 27.5418C6.02773 27.5469 6.03544 27.5521 6.04321 27.5574C6.06732 27.5737 6.03047 27.5447 6.05159 27.5641C6.06263 27.5743 6.07386 27.5839 6.08426 27.5948C6.09035 27.6011 6.096 27.6078 6.10189 27.6143C6.1201 27.6345 6.09592 27.604 6.10458 27.6177C6.11441 27.6332 6.12496 27.6479 6.13358 27.6641C6.13676 27.6702 6.13924 27.6768 6.1427 27.6826C6.1505 27.6958 6.13587 27.6609 6.14332 27.6849C6.14767 27.6989 6.1525 27.7126 6.15574 27.727C6.15718 27.7334 6.15828 27.7398 6.15951 27.7462C6.15451 27.72 6.15896 27.7448 6.1593 27.7503C6.15989 27.7656 6.1596 27.7809 6.15843 27.7962C6.15987 27.7696 6.15866 27.7934 6.15736 27.7995C6.15603 27.8056 6.15446 27.8118 6.15269 27.8179C6.15091 27.824 6.14869 27.8299 6.14672 27.836C6.13907 27.8595 6.15757 27.8188 6.14458 27.84C6.13762 27.8514 6.13133 27.8629 6.12373 27.874C6.13713 27.8545 6.12209 27.8753 6.11906 27.8785C6.11264 27.8854 6.10566 27.8916 6.09879 27.898C6.0942 27.9023 6.07939 27.911 6.0973 27.8995C6.09051 27.9038 6.08395 27.9084 6.07696 27.9124C6.06994 27.9165 6.06267 27.9199 6.05549 27.9237C6.05046 27.9263 6.03854 27.9287 6.05733 27.9231C6.04138 27.9278 6.02605 27.9335 6.00967 27.937C6.00418 27.9381 5.99865 27.939 5.99313 27.94C6.01883 27.9351 5.98318 27.9405 5.97774 27.9407C5.96317 27.9413 5.94859 27.941 5.93405 27.94C5.93028 27.9397 5.90191 27.935 5.92568 27.9394C5.91673 27.9377 5.90781 27.9361 5.89895 27.9341C5.8839 27.9306 5.86907 27.9262 5.8545 27.9211C5.8526 27.9204 5.82469 27.9083 5.84367 27.9172C5.83491 27.9131 5.82622 27.9089 5.81768 27.9044C5.80084 27.8951 5.78451 27.885 5.76875 27.8741C5.76585 27.8721 5.75392 27.8621 5.76739 27.8732C5.76039 27.8674 5.7535 27.8616 5.74682 27.8554C5.73592 27.8454 5.72557 27.8349 5.71579 27.8238C5.71371 27.8214 5.69647 27.7988 5.7099 27.8173C5.70324 27.8081 5.69679 27.7988 5.69083 27.7891C5.68353 27.7773 5.67736 27.7649 5.67099 27.7526C5.6588 27.729 5.67643 27.7717 5.66866 27.7466C5.66707 27.7415 5.66507 27.7365 5.66346 27.7314C5.65867 27.7162 5.65592 27.7008 5.65246 27.6853C5.65728 27.7069 5.65346 27.6949 5.65324 27.6889C5.65284 27.6786 5.652 27.6685 5.6522 27.6581C5.65234 27.6505 5.65348 27.6429 5.65356 27.6353C5.65336 27.6566 5.65159 27.6461 5.65313 27.6395C5.65661 27.6245 5.66031 27.6101 5.66526 27.5955C5.67114 27.5782 5.66558 27.5954 5.66397 27.5984C5.66767 27.5915 5.67095 27.5845 5.67493 27.5778C5.67906 27.5708 5.68365 27.5642 5.68825 27.5575C5.67536 27.5763 5.68913 27.557 5.69292 27.553C5.6984 27.5471 5.70415 27.5415 5.71016 27.5361C5.71415 27.5325 5.71825 27.5291 5.72245 27.5258C5.71244 27.5335 5.71206 27.534 5.72133 27.5275C5.73553 27.5196 5.74896 27.5111 5.76389 27.5044C5.74108 27.5146 5.76619 27.5043 5.77018 27.503C5.77808 27.5005 5.78607 27.4983 5.79416 27.4964C5.80234 27.4944 5.81059 27.493 5.81886 27.4914C5.79471 27.4959 5.81986 27.4916 5.82565 27.4913C5.84603 27.4901 5.86645 27.4905 5.88678 27.4923C5.90665 27.4938 5.89028 27.4929 5.88632 27.4921C5.89828 27.4943 5.91016 27.4966 5.92195 27.4996C5.94008 27.5041 5.95786 27.51 5.97515 27.517C5.95541 27.5088 5.98425 27.5219 5.98569 27.5226C5.99736 27.5286 6.00865 27.5351 6.01983 27.5418C6.04317 27.5553 6.07095 27.559 6.09707 27.5522C6.12319 27.5454 6.14552 27.5286 6.15915 27.5055C6.17278 27.4824 6.17659 27.4549 6.16977 27.4291C6.16294 27.4032 6.14602 27.381 6.12273 27.3675C6.04617 27.3173 5.95658 27.2901 5.86477 27.2892C5.77296 27.2883 5.68284 27.3137 5.60528 27.3624C5.53234 27.4165 5.48086 27.4943 5.45978 27.5822C5.43871 27.67 5.44937 27.7624 5.48991 27.8433C5.53026 27.9269 5.59216 27.9985 5.66936 28.0509C5.74657 28.1032 5.83635 28.1345 5.92965 28.1415C6.0196 28.1509 6.11009 28.1296 6.18619 28.0812C6.26229 28.0328 6.31945 27.9601 6.34824 27.8752C6.37049 27.7778 6.36058 27.6759 6.31999 27.5845C6.27939 27.4931 6.21025 27.4171 6.12273 27.3675C6.09933 27.3542 6.0716 27.3506 6.0455 27.3573C6.01941 27.3641 5.99706 27.3808 5.98326 27.4037C5.97019 27.427 5.96669 27.4543 5.9735 27.4801C5.98031 27.5058 5.9969 27.5279 6.0198 27.5418Z" fill="#2C2C2E"/>
<path d="M10.4873 33.7295C10.4867 33.7337 10.4866 33.7352 10.4803 33.7401C10.4437 33.7638 10.354 33.8673 10.2601 33.7163C10.2567 33.7087 10.2544 33.7007 10.2534 33.6924C10.2826 33.5383 10.3622 33.3981 10.48 33.2934C10.7066 33.1129 10.9865 33.0107 11.2772 33.0024C11.5423 32.9763 11.8038 32.9536 12.0677 32.9345C12.5944 32.8958 13.1219 32.8696 13.6501 32.8561C14.1781 32.8428 14.7062 32.8419 15.2345 32.8534C15.5077 32.8479 15.7805 32.8759 16.0467 32.9369L16.1071 32.9549L16.1369 32.9648L16.196 32.9866C16.2356 33.0023 16.2744 33.02 16.3122 33.0396C16.3799 33.0797 16.4422 33.1283 16.4973 33.1841C16.604 33.2861 16.6808 33.4147 16.7199 33.5564C16.771 33.7854 16.7054 33.8487 16.6929 33.8242C16.6696 33.8012 16.6557 33.6994 16.5953 33.5966C16.5497 33.5178 16.492 33.4465 16.4243 33.3854C16.351 33.3219 16.2677 33.2707 16.1777 33.234C16.1471 33.2192 16.1158 33.2059 16.0839 33.1942C16.0241 33.1718 15.9627 33.1542 15.9 33.1416C15.6524 33.1 15.4013 33.0812 15.1501 33.0855C14.6346 33.0751 14.1191 33.0771 13.6035 33.0913C13.0881 33.1058 12.5733 33.132 12.0589 33.17C11.8025 33.1889 11.5436 33.2112 11.2899 33.2367C11.0547 33.2418 10.8274 33.3217 10.6415 33.4646C10.5623 33.5339 10.5082 33.6269 10.4873 33.7295Z" fill="#3A3A3C"/>
</svg>
