<svg width="40" height="40" viewBox="0 0 40 40" fill="none" xmlns="http://www.w3.org/2000/svg">
<path fill-rule="evenodd" clip-rule="evenodd" d="M17.6472 34.1689C16.0195 35.1866 14.1111 35.2694 12.3053 34.9796C8.80946 34.4186 5.27912 32.3038 3.54087 28.4777C2.79108 26.8273 2.4124 24.9559 2.14857 23.0876C1.79623 20.5924 1.6539 17.9099 2.53931 15.6298C3.28573 13.7077 4.67093 12.309 6.051 11.0454C7.49739 9.72112 9.2186 8.65639 11 8.39173C16.1388 8.26474 16.75 7.27266 21 5.28321C27 3.4181 28.6828 8.51353 30.25 9.13778C31.8172 9.76204 33.256 10.5921 35.3533 12.8799C36.23 13.8362 37.0386 14.9307 37.5313 16.2472C38.2689 18.2184 38.2332 20.5146 37.889 22.6473C37.5418 24.7985 36.5 27.1672 35.3533 28.908C34.6616 29.3957 33.9169 29.8226 33.125 29.9027C29.8178 30.237 26.375 29.1566 23.375 29.9027C21.3031 31.0645 19.678 32.8993 17.6472 34.1689Z" fill="#12EDE9"/>
<path fill-rule="evenodd" clip-rule="evenodd" d="M5.63044 20.7418C6.23044 20.1532 6.79437 19.5462 7.17389 19.0172C7.69631 18.2891 8.46228 17.5967 9.3699 17.4632C10.4283 17.3074 11.4004 18.0342 12.1698 18.7747C13.2327 19.7978 14.1867 20.9332 15.0104 22.1556C14.68 22.1985 13.9679 22.6894 13.0217 22.6738C12.4647 22.6646 11.7992 22.1702 11.156 22.1372C10.7092 22.1143 10.2214 22.5801 9.77147 22.5446C8.98483 22.4825 8.24907 21.9056 7.58548 21.8012C7.19016 21.7391 6.65664 22.1305 6.35276 22.0519C5.51764 21.8362 5.27015 21.0953 5.63044 20.7418Z" fill="white"/>
<path fill-rule="evenodd" clip-rule="evenodd" d="M23.6228 29.9004C26.216 29.0488 29.026 30.0358 31.7563 29.9993C32.9659 29.9832 34.259 29.7173 35.0917 28.8433C33.2678 27.7737 31.8834 26.0727 30.875 24.2192C29.8665 22.3656 29.2035 20.3491 28.546 18.3453C27.6808 17.8539 26.5671 18.6849 25.6174 18.386C25.1321 18.2333 24.5526 17.8185 24.2043 18.1881C23.9941 18.4113 23.6025 18.28 23.3981 18.0516C23.1936 17.8233 23.0797 17.5197 22.8491 17.3175C22.6186 17.1152 22.1809 17.0898 22.0636 17.3726C21.8605 17.8621 21.6464 18.3678 21.257 18.7285C20.8676 19.0893 20.2502 19.2634 19.794 18.991C19.4378 18.7782 19.2696 18.3642 19.0621 18.0058C18.8545 17.6473 18.7736 17.3251 18.3609 17.3726C16.9669 20.2979 15.9262 23.1737 14.2113 25.9246C13.4744 27.1068 9.3514 31.6131 6.9557 31.0323C4.56 30.4516 4.73774 29.9993 3.92871 29.2852C4.77145 30.9929 6.2602 32.3365 7.96005 33.205C9.6599 34.0735 11.5638 34.4911 13.4682 34.6419C14.2197 34.7014 14.9819 34.7202 15.7216 34.5754C18.753 33.982 20.6887 30.864 23.6228 29.9004Z" fill="white"/>
<path fill-rule="evenodd" clip-rule="evenodd" d="M21.0235 18.4904C21.2891 18.1485 21.4551 17.7373 21.7288 17.4018C22.0025 17.0663 22.447 16.8063 22.861 16.9359C23.2463 17.0564 23.4583 17.4569 23.6301 17.8209C23.7163 18.0037 23.9785 18.0179 24.1675 17.9446C24.3565 17.8713 24.5263 17.7387 24.7279 17.7168C25.145 17.6715 25.4592 18.1018 25.8667 18.2009C26.4733 18.3484 27.083 17.7319 27.6824 17.9058C27.936 17.9795 28.1556 18.1907 28.4192 18.1726C27.9122 16.9623 27.5304 15.7019 26.9981 14.5023C26.4659 13.3028 25.7639 12.145 24.742 11.318C24.637 11.2329 24.522 11.1488 24.3877 11.1317C24.2534 11.1146 24.0978 11.1906 24.0743 11.3234C24.0043 11.7182 23.9343 12.113 23.8644 12.5078C23.8297 12.7032 23.7383 12.9486 23.5391 12.9449C23.4063 12.9424 23.3044 12.8128 23.2861 12.6818C23.2678 12.5508 23.3119 12.42 23.3553 12.2951C23.4914 11.9035 23.6275 11.512 23.7635 11.1204C22.83 11.456 22.0208 12.0787 21.35 12.8073C20.6792 13.5359 20.1367 14.3709 19.6168 15.2129C19.1716 15.9339 18.7403 16.6633 18.3232 17.4008C18.8825 17.3217 19.3696 17.7791 19.686 18.2452C19.8754 18.524 20.1008 18.8562 20.4387 18.855C20.677 18.8541 20.8776 18.6781 21.0235 18.4904Z" fill="white"/>
<path fill-rule="evenodd" clip-rule="evenodd" d="M24.6403 10.0643C24.5784 10.0445 24.5134 10.022 24.4712 9.97271C24.4106 9.90176 24.4146 9.79806 24.4219 9.70514C24.4941 8.78693 24.5662 7.86872 24.6384 6.95051C24.6468 6.84412 24.7516 6.76567 24.8576 6.74996C24.9636 6.73425 25.0702 6.76621 25.1725 6.79781C25.8327 7.00161 26.4929 7.20542 27.153 7.40922C27.3142 7.45896 27.3227 7.68173 27.2888 7.84631C27.2549 8.01089 27.2294 8.22221 27.3737 8.30931C28.3364 8.89068 29.3595 9.37296 30.4213 9.74598C30.4899 9.77009 30.495 9.87404 30.4471 9.92858C30.3991 9.98312 30.3226 10.0007 30.2514 10.0158C29.1734 10.245 28.1185 10.582 27.1079 11.0202C26.9664 11.0815 26.7818 11.1375 26.675 11.0267C26.5991 10.9478 26.6064 10.8244 26.6 10.7153C26.5935 10.6062 26.5452 10.4755 26.4363 10.4618C25.8271 10.3846 25.225 10.2514 24.6403 10.0643M26.902 8.20175C27.0497 7.9688 26.9444 7.61669 26.6929 7.50218C26.0962 7.23061 25.4701 7.02345 24.8289 6.88551C24.9355 7.04927 24.9298 7.25875 24.9204 7.45368C24.8843 8.20219 24.8471 8.95759 24.6509 9.68103C24.634 9.74358 24.7148 9.78427 24.7782 9.79841C25.3469 9.92506 25.9198 10.0327 26.4957 10.1212C26.4483 9.56832 26.4009 9.01549 26.3534 8.46265C26.3482 8.4012 26.3433 8.33702 26.3668 8.27997C26.4048 8.18752 26.5105 8.13728 26.6108 8.13444C26.7111 8.1316 26.808 8.16693 26.902 8.20175M26.7784 8.63766C26.8237 9.28633 26.869 9.935 26.9143 10.5837C26.9183 10.6405 26.925 10.7033 26.9672 10.7418C27.8852 10.3622 28.8362 10.0619 29.806 9.84531C28.7551 9.54476 27.8685 8.72255 26.7784 8.63766Z" fill="#FFAB01"/>
<path fill-rule="evenodd" clip-rule="evenodd" d="M17.6033 34.3882C16.0317 35.1725 14.1891 35.2364 12.4456 35.013C9.0703 34.5806 5.6617 32.9508 3.98339 30.002C3.25946 28.7301 2.89384 27.2878 2.63911 25.8479C2.49936 25.0579 2.22795 23.8748 2.72492 23.3378C2.83596 23.2178 5.95539 20.7156 7.17389 19.0173C7.6963 18.2891 8.46227 17.5968 9.36989 17.4632C10.4283 17.3074 11.4004 18.0343 12.1698 18.7748C13.2327 19.7979 14.1867 20.9332 15.0104 22.1557C14.1026 21.7716 13.4493 20.9733 12.8463 20.1959C12.2434 19.4185 11.6203 18.6051 10.7375 18.167C9.85479 17.7289 8.62889 17.8019 8.05557 18.6012C6.68906 20.5064 4.96047 22.153 2.98865 23.4277C2.84034 23.5236 2.82693 23.7309 2.82971 23.907C2.86176 25.9395 3.08991 28.2542 4.72241 29.4742C6.08593 30.4932 8.06527 30.3602 9.55887 29.5419C11.0525 28.7237 12.1448 27.3396 13.0826 25.9218C15.8335 21.7627 17.6197 17.0088 20.5765 12.9923C21.2562 12.069 22.057 11.1456 23.152 10.7976C23.8828 10.5653 24.0876 9.63662 24.0742 8.87277C24.0607 8.10892 23.9882 7.24047 24.5207 6.69061C24.4084 7.96086 24.2962 9.2311 24.184 10.5013C25.8195 11.3101 26.7748 13.0321 27.4759 14.7115C28.517 17.2053 29.2237 19.8302 30.3198 22.3005C31.4158 24.7709 32.9716 27.1445 35.2715 28.5753C36.336 27.1949 36.9431 24.9851 36.9431 23.7222C36.336 23.0632 35.4737 22.0322 34.4648 21.568C33.2621 21.0147 31.9427 21.9848 30.9765 22.8877C31.5105 22.0782 32.1515 21.226 33.0964 20.9967C33.8591 20.8116 34.6754 21.0877 35.3083 21.5504C35.9411 22.0131 36.4236 22.6465 36.8966 23.2704C37.375 23.4277 37.4794 23.8649 37.1471 25.5086C36.8119 27.1665 36.0842 28.8908 34.606 29.7228C33.9381 30.0987 33.168 30.2599 32.4034 30.3216C29.2103 30.5792 25.8136 29.2214 22.8916 30.5294C20.8911 31.4248 19.5641 33.4097 17.6033 34.3882ZM23.6229 29.9005C26.2161 29.0488 29.0261 30.0358 31.7564 29.9994C32.966 29.9832 34.2591 29.7173 35.0918 28.8433C33.2679 27.7737 31.8835 26.0727 30.875 24.2192C29.8666 22.3657 29.2036 20.3492 28.5461 18.3454C27.6809 17.854 26.5672 18.685 25.6175 18.3861C25.1322 18.2334 24.5526 17.8185 24.2044 18.1882C23.9942 18.4113 23.6026 18.2801 23.3982 18.0517C23.1937 17.8233 23.0798 17.5197 22.8492 17.3175C22.6187 17.1153 22.181 17.0898 22.0637 17.3726C21.8606 17.8622 21.6465 18.3678 21.2571 18.7286C20.8677 19.0893 20.2503 19.2634 19.7941 18.9911C19.4378 18.7783 19.2697 18.3642 19.0622 18.0058C18.8546 17.6474 18.5109 17.289 18.0982 17.3365C16.7042 20.2618 15.1449 23.109 13.43 25.86C12.6931 27.0421 11.9131 28.2232 10.8577 29.1348C9.80226 30.0464 8.424 30.67 7.0328 30.5432C5.91016 30.4408 4.89039 29.8713 3.9288 29.2853C4.77155 30.993 6.26029 32.3366 7.96014 33.2051C9.65999 34.0735 11.5639 34.4911 13.4683 34.642C14.2198 34.7015 14.982 34.7202 15.7217 34.5754C18.7531 33.982 20.6888 30.864 23.6229 29.9005ZM20.9693 18.2759C21.235 17.9341 21.4009 17.5228 21.6747 17.1873C21.9484 16.8519 22.3928 16.5918 22.8069 16.7214C23.1922 16.842 23.4041 17.2424 23.576 17.6064C23.6622 17.7892 23.9244 17.8034 24.1134 17.7301C24.3023 17.6568 24.4722 17.5243 24.6738 17.5024C25.0909 17.457 25.405 17.8874 25.8126 17.9865C26.4191 18.1339 27.0288 17.5174 27.6282 17.6914C27.8819 17.765 28.1015 17.9762 28.3651 17.9582C27.8581 16.7478 27.479 15.556 26.9468 14.3565C26.4145 13.1569 25.2584 11.0355 24.3335 10.9172C23.3982 10.7976 21.9666 11.8643 21.2959 12.5929C20.6251 13.3214 20.0826 14.1565 19.5626 14.9985C19.1174 15.7194 18.6862 16.4489 18.2691 17.1863C18.8284 17.1072 19.3155 17.5646 19.6319 18.0307C19.8212 18.3095 20.0466 18.6418 20.3846 18.6405C20.6229 18.6397 20.8235 18.4636 20.9693 18.2759Z" fill="#2C2C2E"/>
<path fill-rule="evenodd" clip-rule="evenodd" d="M17.4518 8.80741C17.9071 8.99532 18.2687 9.39739 18.4077 9.86821L18.4147 9.89263C18.4247 9.92871 18.4328 9.96145 18.444 10.0112L18.4689 10.1241C18.5109 10.3116 18.5392 10.4025 18.596 10.5087C18.7186 10.7379 18.9648 10.8841 19.1891 10.8231L19.2026 10.8192C19.5497 10.7115 19.9568 10.9637 20.237 11.394C20.3672 11.5939 20.4047 12.0585 20.3019 12.4554C20.1776 12.935 19.8859 13.2464 19.4379 13.2924L19.3876 13.2973C18.9751 13.3369 18.5646 13.3416 17.7182 13.3257L17.1002 13.313C16.4628 13.301 16.0608 13.3022 15.6812 13.3228L15.5323 13.3319C15.4261 13.3389 15.3247 13.3469 15.1592 13.3608L14.7029 13.399C13.7145 13.4766 13.1136 13.4394 12.5401 13.199L12.5149 13.1883C12.4669 13.1677 12.4191 13.1455 12.3563 13.1152L12.2144 13.0462C11.8479 12.8692 11.6642 12.8101 11.4194 12.8229C11.252 12.8317 11.1269 12.8705 10.8673 12.9783L10.7525 13.026C10.7071 13.0445 10.6754 13.0567 10.6391 13.0699C10.4098 13.1526 10.1658 13.1949 9.92187 13.1942C9.73281 13.1937 9.58707 13.1644 9.47261 13.0945C9.34412 13.0161 9.26525 12.876 9.28399 12.7516C9.30114 12.6378 9.38889 12.536 9.54658 12.4263C10.173 11.9906 10.956 11.8188 12.0684 11.7901L12.1136 11.789C12.6843 11.7764 12.9731 11.7089 13.1819 11.446C13.2411 11.3715 13.2759 11.3048 13.3324 11.1691L13.3761 11.0633C13.3982 11.0109 13.4139 10.9777 13.4333 10.9422C13.6499 10.5453 14.1167 10.3558 14.833 10.2839L14.8978 10.2778C15.3269 10.2397 15.588 10.1406 15.6856 9.88361L15.6908 9.86917C15.9145 9.22681 16.35 8.75991 16.8634 8.70802C17.0426 8.68991 17.2342 8.72183 17.4257 8.7969L17.4518 8.80741Z" fill="white" fill-opacity="0.32" stroke="white" stroke-width="0.5"/>
<path fill-rule="evenodd" clip-rule="evenodd" d="M34.3552 11.878L34.3352 11.8978C34.32 11.9133 34.305 11.9293 34.2864 11.9498L34.2125 12.0326C34.142 12.1112 34.1039 12.1487 34.0541 12.1862C33.9455 12.2678 33.8155 12.293 33.729 12.2448C33.6942 12.2254 33.6683 12.2 33.6183 12.1388L33.5811 12.0931C33.5617 12.0697 33.5479 12.0543 33.531 12.0373C33.3081 11.8136 32.9187 11.8028 32.6223 11.9809C32.3904 12.1203 32.2237 12.3338 32.0411 12.6735C31.9666 12.8123 31.8026 12.9083 31.6076 12.9376C31.5128 12.9519 31.4132 12.9529 31.2857 12.9435L31.2234 12.9384L31.0275 12.9186C29.9965 12.8173 28.9422 12.9624 27.9774 13.3383C27.8251 13.3976 27.7405 13.4508 27.6867 13.5498C27.6093 13.6925 27.6878 13.8997 27.8533 13.9088C30.6813 14.0649 33.521 14.0115 36.3412 13.7494L36.5201 13.7327L36.6506 13.7237C36.6628 13.7229 36.6728 13.722 36.6853 13.7209L36.7188 13.7176C36.9761 13.6892 37.1174 13.6042 37.1174 13.3911C37.1174 13.1853 37.0178 13.129 36.7663 13.1035L36.7159 13.0982C36.6185 13.0876 36.5741 13.0797 36.514 13.0611C36.3007 12.9953 36.0467 12.8581 35.9913 12.7896C35.9093 12.6882 35.8744 12.5928 35.8245 12.371L35.8088 12.3008C35.7564 12.0723 35.7147 11.9634 35.616 11.8411C35.3279 11.4843 34.713 11.528 34.3552 11.878Z" fill="white" fill-opacity="0.48" stroke="white" stroke-width="0.5"/>
<path fill-rule="evenodd" clip-rule="evenodd" d="M24.0742 8.87271C24.0607 8.10886 23.9882 7.24041 24.5207 6.69055C24.4085 7.96079 24.2962 9.23104 24.184 10.5013C24.3662 10.5914 24.0944 10.7422 23.9297 10.7452C23.3396 10.756 24.0876 9.63656 24.0742 8.87271Z" fill="#FFAB01"/>
</svg>
