<svg width="54" height="54" viewBox="0 0 54 54" fill="none" xmlns="http://www.w3.org/2000/svg">
<path fill-rule="evenodd" clip-rule="evenodd" d="M28.0259 5.33654C32.8984 4.49467 37.7291 0.391267 42.2633 2.69189C46.9983 5.09438 49.8103 11.2298 51.2874 17.1392C52.7436 22.9651 51.7404 29.0648 50.3143 34.9014C48.8478 40.9035 47.5989 47.9911 43.0195 50.9773C38.5013 53.9236 33.1664 49.5816 28.0259 49.4357C23.073 49.2952 17.3313 53.9663 13.5387 50.1408C9.6941 46.2628 13.2937 38.2777 11.42 32.6855C9.29908 26.3556 0.821823 22.7523 2.13803 16.1151C3.41781 9.66162 11.2626 9.32008 16.4847 7.14581C20.2421 5.58141 24.0894 6.01667 28.0259 5.33654Z" fill="#B18CFE" stroke="#0375D7" stroke-width="4"/>
<g opacity="0.5">
<path opacity="0.5" d="M10.7386 21.002C10.9143 21.0782 11.0836 21.1687 11.2447 21.2727C11.3183 21.3306 11.3949 21.3846 11.4741 21.4345C11.3838 21.3894 11.4353 21.4041 11.4688 21.4314C11.4861 21.4455 11.5032 21.4598 11.5202 21.4742C11.5577 21.506 11.5945 21.5385 11.6306 21.5717C11.7677 21.6996 11.8954 21.8375 12.0125 21.9842C12.0732 22.0592 11.9525 21.901 12.0087 21.9794C12.0217 21.9976 12.0351 22.0155 12.048 22.0337C12.0765 22.0738 12.1042 22.1144 12.131 22.1557C12.1846 22.2383 12.2342 22.3232 12.2809 22.4099C12.3407 22.511 12.4374 22.5843 12.5503 22.6142C12.6632 22.644 12.7832 22.628 12.8844 22.5695C12.9836 22.5083 13.0555 22.4108 13.085 22.2973C13.1145 22.1839 13.0993 22.0634 13.0427 21.961C12.6293 21.1942 11.9757 20.5869 11.1839 20.234C11.0798 20.1776 10.9589 20.1617 10.8439 20.1891C10.7603 20.2124 10.6853 20.26 10.6283 20.3261C10.5714 20.3921 10.535 20.4736 10.5237 20.5603C10.5125 20.6471 10.5269 20.7353 10.5651 20.8139C10.6033 20.8924 10.6636 20.9579 10.7386 21.002V21.002Z" fill="white"/>
</g>
<g opacity="0.5">
<path opacity="0.5" d="M12.7088 31.6465C13.0263 32.3476 13.5221 32.9516 14.1461 33.3969C14.197 33.4267 14.2532 33.446 14.3116 33.4537C14.3699 33.4614 14.4292 33.4573 14.486 33.4417C14.5697 33.4185 14.6447 33.3708 14.7016 33.3048C14.7586 33.2388 14.795 33.1573 14.8062 33.0705C14.8174 32.9838 14.8031 32.8956 14.7649 32.817C14.7266 32.7385 14.6663 32.673 14.5914 32.6289C14.574 32.6162 14.5567 32.6035 14.5395 32.5906C14.4841 32.549 14.5326 32.5811 14.5573 32.6052C14.527 32.5757 14.4899 32.5511 14.4575 32.5237C14.3951 32.4711 14.3345 32.4164 14.2755 32.3598C14.1545 32.2437 14.0411 32.1198 13.9359 31.989C13.9251 31.9756 13.9145 31.962 13.9038 31.9485C13.8473 31.8774 13.9492 32.0106 13.9179 31.9667C13.8929 31.9317 13.867 31.8973 13.8424 31.862C13.7957 31.7948 13.7511 31.7262 13.7086 31.6562C13.6194 31.5088 13.5399 31.3555 13.4706 31.1976C13.4125 31.0974 13.3179 31.0241 13.207 30.9932C13.0922 30.9624 12.9701 30.9785 12.8671 31.038C12.768 31.0969 12.6953 31.1921 12.6643 31.3038C12.6395 31.4198 12.6552 31.5409 12.7088 31.6465V31.6465Z" fill="white"/>
</g>
<g opacity="0.5">
<path opacity="0.5" d="M22.2795 25.6125C22.5079 26.5304 22.5768 27.4811 22.4831 28.4227C22.4835 28.5405 22.5301 28.6534 22.6128 28.7367C22.6954 28.8201 22.8074 28.867 22.9243 28.8674C23.0403 28.8644 23.1508 28.8166 23.2329 28.7338C23.315 28.6511 23.3624 28.5397 23.3654 28.4227C23.46 27.4011 23.3805 26.3707 23.1303 25.3761C23.0992 25.2623 23.0246 25.1657 22.9228 25.1074C22.821 25.0492 22.7005 25.0341 22.5876 25.0654C22.4748 25.0968 22.379 25.1721 22.3212 25.2747C22.2634 25.3773 22.2484 25.4988 22.2795 25.6125V25.6125Z" fill="white"/>
</g>
<g opacity="0.5">
<path opacity="0.5" d="M18.6772 17.115C18.6715 17.1615 18.6654 17.2078 18.6598 17.2543C18.6555 17.2871 18.6564 17.2808 18.6624 17.2354C18.6588 17.2619 18.6552 17.2884 18.6515 17.3149C18.6404 17.3943 18.6287 17.4736 18.6165 17.5528C18.5899 17.7245 18.5607 17.8958 18.5289 18.0666C18.4651 18.4082 18.3909 18.7475 18.3063 19.0846C18.2907 19.1409 18.2863 19.1999 18.2933 19.258C18.3003 19.3161 18.3187 19.3722 18.3473 19.4231C18.3758 19.4741 18.4141 19.5188 18.4599 19.5548C18.5057 19.5908 18.558 19.6174 18.614 19.6329C18.67 19.6485 18.7285 19.6528 18.7861 19.6455C18.8437 19.6382 18.8993 19.6196 18.9497 19.5906C19.0002 19.5616 19.0444 19.5229 19.08 19.4766C19.1156 19.4304 19.1418 19.3775 19.157 19.321C19.3366 18.5949 19.471 17.8581 19.5595 17.115C19.5592 16.9971 19.5127 16.8841 19.43 16.8008C19.3473 16.7174 19.2352 16.6705 19.1183 16.6703C19.0024 16.6737 18.8921 16.7216 18.8101 16.8043C18.7281 16.887 18.6805 16.9982 18.6772 17.115V17.115Z" fill="white"/>
</g>
<g opacity="0.5">
<path opacity="0.5" d="M21.5904 12.607C21.6053 12.5999 21.6201 12.5932 21.6352 12.5867L21.5299 12.6315C21.5952 12.6053 21.6633 12.5869 21.7329 12.5767L21.6156 12.5926C21.6961 12.5823 21.7776 12.582 21.8581 12.5918L21.7408 12.5759C21.8326 12.5884 21.9225 12.6128 22.0081 12.6485L21.9027 12.6037C21.9828 12.6383 22.0585 12.6825 22.1281 12.7355L22.0388 12.666C22.1029 12.7162 22.1606 12.7741 22.2105 12.8385L22.1416 12.7485C22.1839 12.8051 22.2195 12.8666 22.2475 12.9316L22.203 12.8253C22.2093 12.8406 22.2151 12.856 22.2207 12.8715C22.2542 12.9819 22.3262 13.0764 22.4235 13.1373C22.4992 13.182 22.5864 13.2028 22.674 13.1973C22.7616 13.1917 22.8455 13.1599 22.9151 13.106C22.9846 13.0521 23.0367 12.9785 23.0645 12.8946C23.0924 12.8107 23.0948 12.7203 23.0715 12.6351C23.0055 12.4409 22.8971 12.2641 22.7543 12.1178C22.6075 11.975 22.4334 11.8637 22.2426 11.7908C22.0668 11.72 21.878 11.6877 21.6888 11.696C21.4996 11.7043 21.3142 11.753 21.1451 11.8389C21.046 11.8977 20.9733 11.993 20.9424 12.1047C20.9119 12.2204 20.9279 12.3435 20.9869 12.4474C21.0453 12.5473 21.1397 12.6206 21.2505 12.6518C21.3655 12.678 21.486 12.6621 21.5904 12.607V12.607Z" fill="white"/>
</g>
<g opacity="0.5">
<path opacity="0.5" d="M17.1223 41.8594C17.6285 42.5944 18.2043 43.3654 19.1012 43.6177C19.2139 43.6487 19.3342 43.6333 19.4356 43.575C19.5371 43.5167 19.6115 43.4203 19.6426 43.3068C19.6736 43.1932 19.6588 43.0719 19.6012 42.9694C19.5437 42.8669 19.4482 42.7916 19.3357 42.76C19.2898 42.7471 19.2443 42.7329 19.1995 42.7166C19.1801 42.7072 19.16 42.6995 19.1393 42.6936C19.2011 42.7204 19.2166 42.7269 19.1856 42.7132C19.1739 42.708 19.1622 42.7027 19.1506 42.6972C19.0658 42.657 18.9839 42.6109 18.9054 42.5592C18.8696 42.5357 18.8351 42.5103 18.8001 42.4856C18.7235 42.4319 18.8798 42.552 18.8076 42.492C18.791 42.4782 18.7741 42.4647 18.7576 42.4507C18.6844 42.3887 18.6144 42.3229 18.5471 42.2544C18.482 42.188 18.4195 42.1192 18.359 42.0486C18.3272 42.0113 18.2958 41.9735 18.265 41.9353C18.243 41.9081 18.1497 41.7741 18.2263 41.888C18.1172 41.7259 17.9951 41.5715 17.8841 41.4104C17.8251 41.3086 17.7283 41.2345 17.6151 41.2046C17.5019 41.1747 17.3816 41.1913 17.2806 41.2509C17.1795 41.3104 17.1061 41.4079 17.0764 41.5221C17.0468 41.6362 17.0633 41.7575 17.1223 41.8594V41.8594Z" fill="white"/>
</g>
<g opacity="0.5">
<path opacity="0.5" d="M21.6786 37.5361C21.9226 38.1027 22.0576 38.7109 22.0763 39.3283C22.0484 39.9737 21.6688 40.4018 21.2717 40.865C20.6171 41.6287 20.2124 42.4588 20.4132 43.4891C20.5059 43.9344 20.7097 44.3484 21.0052 44.6922C21.3007 45.0361 21.6782 45.2983 22.1021 45.4543C22.526 45.6102 22.9824 45.6547 23.4281 45.5835C23.8738 45.5124 24.2941 45.3279 24.6495 45.0475C25.4837 44.3865 25.7339 43.3137 25.8867 42.3077C26.0772 41.0532 26.2717 39.7942 26.393 38.5307C26.527 37.3381 26.5178 36.1337 26.3655 34.9433C26.2163 33.9089 25.9292 32.6672 25.2428 31.8467C24.2908 30.7086 22.7333 31.375 21.4866 31.1757C20.9285 31.0768 20.4102 30.819 19.9927 30.4328C19.5753 30.0465 19.2762 29.5478 19.1308 28.9957C19.0965 28.8857 19.0212 28.7934 18.9207 28.7383C18.8203 28.6831 18.7025 28.6694 18.5923 28.7001C18.482 28.7307 18.3878 28.8033 18.3296 28.9026C18.2714 29.0018 18.2536 29.12 18.28 29.2322C18.5172 30.0907 19.0374 30.8421 19.755 31.3626C20.4725 31.8831 21.3446 32.1415 22.2274 32.0953C22.7691 32.042 23.3142 32.0312 23.8576 32.0631C24.502 32.1479 24.7687 32.6461 24.9974 33.2012C25.3978 34.2313 25.6035 35.3279 25.6039 36.4343C25.61 37.5254 25.5339 38.6153 25.3763 39.6947C25.2661 40.7755 25.1008 41.8499 24.8809 42.9135C24.6591 43.844 24.131 44.6532 23.1084 44.73C22.6723 44.7659 22.239 44.6333 21.8965 44.3589C21.5539 44.0845 21.3278 43.689 21.2639 43.2526C21.0734 42.1148 22.0142 41.5154 22.5538 40.6656C23.2244 39.6094 22.9149 38.398 22.5293 37.2996C22.3412 36.7637 21.4885 36.9945 21.6786 37.5361V37.5361Z" fill="white"/>
</g>
<g opacity="0.5">
<path opacity="0.5" d="M10.0397 28.9559C8.56052 30.2313 8.62424 32.3848 9.47578 33.9991C9.90083 34.8435 10.5165 35.5756 11.2733 36.1365C12.1139 36.7059 13.1366 36.9346 14.1372 36.7769C14.9566 36.5726 15.7053 35.84 16.204 35.1861C16.7641 34.4578 17.1281 33.596 17.2606 32.6842C17.3453 32.2609 17.3183 31.8227 17.1821 31.4133C17.046 31.0039 16.8055 30.6378 16.4849 30.3516C15.7812 29.7316 14.8663 29.5039 14.1065 28.9792C13.642 28.6325 13.3243 28.1221 13.2165 27.5497C13.1088 26.9772 13.2191 26.3849 13.5253 25.8908C13.7049 25.6698 13.9268 25.4875 14.1776 25.3546C14.4284 25.2216 14.7032 25.1408 14.9856 25.1169C15.5534 25.0035 16.2114 24.8489 16.7412 25.1582C16.842 25.213 16.9599 25.2262 17.0701 25.195C17.1803 25.1638 17.2742 25.0907 17.332 24.9911C17.3897 24.8914 17.4069 24.7731 17.3797 24.6609C17.3526 24.5488 17.2833 24.4517 17.1865 24.3901C16.4102 23.9369 15.5072 24.1009 14.6715 24.2756C14.2537 24.331 13.8542 24.4828 13.5042 24.7192C13.1541 24.9555 12.8628 25.2702 12.653 25.6385C12.2674 26.4269 12.1984 27.3348 12.4603 28.1732C12.5937 28.5643 12.8024 28.925 13.0743 29.2347C13.3462 29.5443 13.676 29.7969 14.0448 29.9779C14.7552 30.3648 15.6651 30.6155 16.166 31.2989C16.7065 32.0362 16.3295 33.2039 15.9524 33.9379C15.5615 34.7337 14.9379 35.3895 14.1657 35.8168C13.7146 36.047 13.1241 35.9061 12.6539 35.7871C12.1583 35.6632 11.7047 35.4076 11.3403 35.047C9.94304 33.6933 8.91548 31.0921 10.6635 29.5848C11.0957 29.2122 10.4692 28.5855 10.0397 28.9559L10.0397 28.9559Z" fill="white"/>
</g>
<g opacity="0.5">
<path opacity="0.5" d="M13.1606 37.3558C12.6251 38.6582 13.9225 40.0066 14.9341 40.6273C15.5493 40.963 16.2554 41.0897 16.9478 40.9887C17.6105 40.9369 18.3884 40.9363 18.9333 40.5105C19.0154 40.4268 19.0615 40.3138 19.0615 40.196C19.0615 40.0783 19.0154 39.9653 18.9333 39.8815C18.8491 39.8008 18.7375 39.7558 18.6213 39.7558C18.5052 39.7558 18.3935 39.8008 18.3094 39.8815C18.1183 39.9748 17.9087 40.0228 17.6964 40.0219C17.4166 40.0585 17.1358 40.0866 16.8539 40.1062C16.3489 40.1857 15.8318 40.0991 15.3794 39.8592C14.976 39.597 14.6171 39.2712 14.3163 38.8941C14.1488 38.7283 14.0313 38.518 13.9773 38.2876C13.9234 38.0573 13.9352 37.8162 14.0114 37.5923C14.0418 37.4786 14.0265 37.3574 13.9688 37.2549C13.9111 37.1525 13.8157 37.0772 13.7033 37.0452C13.5905 37.0168 13.4713 37.0333 13.3703 37.0911C13.2693 37.1489 13.1942 37.2437 13.1606 37.3558V37.3558Z" fill="white"/>
</g>
<g opacity="0.5">
<path opacity="0.5" d="M8.35513 23.3975C8.01202 23.7629 7.75414 24.2008 7.6003 24.6795C7.44646 25.1581 7.40053 25.6653 7.46588 26.1641C7.55683 27.3068 7.92931 28.4086 8.54954 29.3695C8.85736 29.8481 9.62148 29.4028 9.31137 28.9206C8.78391 28.1192 8.45585 27.2015 8.35501 26.2451C8.28252 25.4583 8.37652 24.5924 8.97899 24.0265C9.39532 23.6354 8.77038 23.0075 8.35512 23.3975L8.35513 23.3975Z" fill="white"/>
</g>
<g opacity="0.5">
<path opacity="0.5" d="M10.5934 23.535C9.36932 21.9682 8.02708 19.7578 9.19411 17.7832C9.63496 17.0345 10.3473 16.4879 11.1805 16.259C11.6302 16.1236 12.1123 16.1482 12.5461 16.3286C12.9799 16.5091 13.339 16.8344 13.5631 17.25C14.4948 18.7442 14.4649 20.7319 15.9708 21.8596C16.7768 22.3927 17.6932 22.7325 18.6498 22.8529C19.5907 23.0678 20.5744 22.9868 21.4683 22.6208C21.906 22.3991 22.2891 22.0818 22.5896 21.6918C22.8902 21.3019 23.1006 20.8493 23.2056 20.367C23.4959 19.3158 23.6664 18.129 23.3207 17.0734C23.1435 16.5323 22.2912 16.7641 22.4699 17.3098C22.7937 18.2986 22.5962 19.4677 22.2617 20.4342C22.1025 20.9154 21.7964 21.3335 21.3871 21.6286C20.9779 21.9237 20.4865 22.0806 19.9834 22.0769C18.8995 22.1123 17.8244 21.8714 16.8574 21.3765C15.9377 20.8791 15.5422 19.9682 15.2254 19.0151C14.7097 17.4636 14.0599 15.5149 12.178 15.2984C10.4646 15.1013 8.79506 16.3271 8.16428 17.8847C7.24324 20.1589 8.60914 22.4228 9.96951 24.164C10.3206 24.6133 10.9411 23.98 10.5934 23.535L10.5934 23.535Z" fill="white"/>
</g>
<g opacity="0.5">
<path opacity="0.5" d="M13.3339 14.6591C13.4196 13.9365 13.7445 13.2642 14.2562 12.7509C14.7679 12.2377 15.4364 11.9135 16.1535 11.8308C16.2697 11.8281 16.3803 11.7803 16.4625 11.6975C16.5446 11.6147 16.592 11.5031 16.5947 11.386C16.5937 11.2684 16.5469 11.1558 16.4644 11.0726C16.3819 10.9894 16.2702 10.9423 16.1535 10.9413C15.1985 11.0065 14.3001 11.4218 13.6278 12.1087C12.9695 12.8062 12.5563 13.7021 12.4517 14.6591C12.4523 14.7769 12.4989 14.8897 12.5815 14.9729C12.6641 15.0562 12.776 15.1033 12.8928 15.1039C13.0089 15.101 13.1195 15.0532 13.2016 14.9705C13.2837 14.8877 13.3311 14.7762 13.3339 14.6591H13.3339Z" fill="white"/>
</g>
<g opacity="0.5">
<path opacity="0.5" d="M19.5481 13.8693C18.8051 13.134 18.1089 12.2385 18.0164 11.1528C17.9723 10.6604 18.081 10.1663 18.3272 9.73869C18.5735 9.3111 18.9453 8.97109 19.3914 8.76553C20.3344 8.34252 21.3744 8.1882 22.3983 8.31936C23.2247 8.39592 24.1258 8.67726 24.586 9.42685C25.1211 10.2985 24.9465 11.4638 24.9018 12.4343C24.8474 13.6148 24.8215 14.7965 24.8104 15.9781C24.7879 18.3695 24.814 20.7614 24.8251 23.1528C24.8314 24.5089 24.8646 25.868 24.8394 27.2239C24.817 28.4239 24.6317 29.6708 23.6565 30.4723C23.2162 30.8342 23.8436 31.4602 24.2803 31.1013C25.1771 30.3643 25.5544 29.2448 25.6725 28.1175C25.7606 26.7274 25.7735 25.3334 25.711 23.9419C25.6977 21.0908 25.66 18.2383 25.6995 15.3872C25.7186 14.0124 25.8174 12.6387 25.8325 11.2646C25.8441 10.2098 25.656 9.09757 24.8407 8.35848C24.0683 7.7369 23.1072 7.40247 22.1189 7.41144C20.9795 7.3198 19.8372 7.54682 18.8175 8.06755C18.272 8.36375 17.8229 8.81248 17.5243 9.3598C17.2257 9.90712 17.0902 10.5297 17.1341 11.1528C17.2331 12.4837 18.0064 13.59 18.9243 14.4983C19.3298 14.8996 19.9542 14.2712 19.5481 13.8693V13.8693Z" fill="white"/>
</g>
<g opacity="0.5">
<path opacity="0.5" d="M17.0748 37.906C17.8585 37.662 18.5946 37.2839 19.2509 36.7881C19.5464 36.5285 19.8017 36.2259 20.0084 35.8901C20.2539 35.524 20.499 35.1576 20.7438 34.791C20.8028 34.6891 20.8193 34.5678 20.7897 34.4537C20.76 34.3396 20.6866 34.242 20.5855 34.1825C20.4845 34.123 20.3642 34.1063 20.251 34.1363C20.1378 34.1662 20.041 34.2402 19.982 34.3421L19.3204 35.3308C19.144 35.6247 18.9258 35.8911 18.6729 36.1213C18.1201 36.5354 17.5 36.8491 16.8403 37.0482C16.729 37.082 16.6348 37.1576 16.5775 37.2595C16.5201 37.3614 16.5039 37.4817 16.5322 37.5953C16.5642 37.7085 16.639 37.8044 16.7405 37.8625C16.842 37.9206 16.962 37.9362 17.0748 37.906V37.906Z" fill="white"/>
</g>
<g opacity="0.5">
<path opacity="0.5" d="M10.7386 21.002C10.9143 21.0782 11.0836 21.1687 11.2447 21.2727C11.3183 21.3306 11.3949 21.3846 11.4741 21.4345C11.3838 21.3894 11.4353 21.4041 11.4688 21.4314C11.4861 21.4455 11.5032 21.4598 11.5202 21.4742C11.5577 21.506 11.5945 21.5385 11.6306 21.5717C11.7677 21.6996 11.8954 21.8375 12.0125 21.9842C12.0732 22.0592 11.9525 21.901 12.0087 21.9794C12.0217 21.9976 12.0351 22.0155 12.048 22.0337C12.0765 22.0738 12.1042 22.1144 12.131 22.1557C12.1846 22.2383 12.2342 22.3232 12.2809 22.4099C12.3407 22.511 12.4374 22.5843 12.5503 22.6142C12.6632 22.644 12.7832 22.628 12.8844 22.5695C12.9836 22.5083 13.0555 22.4108 13.085 22.2973C13.1145 22.1839 13.0993 22.0634 13.0427 21.961C12.6293 21.1942 11.9757 20.5869 11.1839 20.234C11.0798 20.1776 10.9589 20.1617 10.8439 20.1891C10.7603 20.2124 10.6853 20.26 10.6283 20.3261C10.5714 20.3921 10.535 20.4736 10.5237 20.5603C10.5125 20.6471 10.5269 20.7353 10.5651 20.8139C10.6033 20.8924 10.6636 20.9579 10.7386 21.002V21.002Z" fill="#D8C9FE"/>
</g>
<g opacity="0.5">
<path opacity="0.5" d="M12.7088 31.6465C13.0263 32.3476 13.5221 32.9516 14.1461 33.3969C14.197 33.4267 14.2532 33.446 14.3116 33.4537C14.3699 33.4614 14.4292 33.4573 14.486 33.4417C14.5697 33.4185 14.6447 33.3708 14.7016 33.3048C14.7586 33.2388 14.795 33.1573 14.8062 33.0705C14.8174 32.9838 14.8031 32.8956 14.7649 32.817C14.7266 32.7385 14.6663 32.673 14.5914 32.6289C14.574 32.6162 14.5567 32.6035 14.5395 32.5906C14.4841 32.549 14.5326 32.5811 14.5573 32.6052C14.527 32.5757 14.4899 32.5511 14.4575 32.5237C14.3951 32.4711 14.3345 32.4164 14.2755 32.3598C14.1545 32.2437 14.0411 32.1198 13.9359 31.989C13.9251 31.9756 13.9145 31.962 13.9038 31.9485C13.8473 31.8774 13.9492 32.0106 13.9179 31.9667C13.8929 31.9317 13.867 31.8973 13.8424 31.862C13.7957 31.7948 13.7511 31.7262 13.7086 31.6562C13.6194 31.5088 13.5399 31.3555 13.4706 31.1976C13.4125 31.0974 13.3179 31.0241 13.207 30.9932C13.0922 30.9624 12.9701 30.9785 12.8671 31.038C12.768 31.0969 12.6953 31.1921 12.6643 31.3038C12.6395 31.4198 12.6552 31.5409 12.7088 31.6465V31.6465Z" fill="#D8C9FE"/>
</g>
<path d="M25.6985 21.7745C25.7045 20.8016 25.7105 19.8286 25.7165 18.8557L25.7474 13.8458C25.7265 14.3596 25.7073 14.8733 25.7002 15.3873C25.6706 17.516 25.6842 19.6454 25.6985 21.7745Z" fill="white"/>
<path d="M25.1078 30.083C24.9007 30.4736 24.6198 30.8195 24.2809 31.1014C24.2162 31.1554 24.1379 31.1902 24.0547 31.2021C24.1033 31.2098 24.1523 31.2164 24.2001 31.2268C24.6119 30.9485 24.9289 30.5492 25.1078 30.083V30.083Z" fill="white"/>
<path d="M25.3911 32.0486C25.8843 32.8328 26.2005 33.7168 26.3173 34.6379L26.3199 34.6237C26.4233 34.219 26.422 33.7943 26.316 33.3902C26.2101 32.9862 26.0031 32.6163 25.7148 32.3159C25.6152 32.217 25.5069 32.1275 25.3911 32.0486V32.0486Z" fill="white"/>
<path d="M11.2733 36.1366C10.5165 35.5757 9.90087 34.8436 9.47581 33.9991C8.9411 33.0206 8.76108 31.8848 8.96667 30.787C8.76874 31.2767 8.72766 31.8165 8.84918 32.3309C9.18303 33.9953 10.0367 35.6492 11.5668 36.317C11.4659 36.2621 11.3679 36.2019 11.2733 36.1366Z" fill="white"/>
<path d="M25.9349 41.9882C25.9188 42.0947 25.9026 42.2012 25.8866 42.3077C25.8541 42.5213 25.8154 42.7377 25.7695 42.9527C25.8432 42.6347 25.8984 42.3126 25.9349 41.9882V41.9882Z" fill="white"/>
<path d="M20.4133 43.4892C20.2126 42.4588 20.6173 41.6287 21.2719 40.865C21.669 40.4018 22.0486 39.9737 22.0765 39.3284C22.0577 38.7109 21.9227 38.1028 21.6787 37.5362C21.4886 36.9946 22.3414 36.7637 22.5295 37.2997C22.915 38.398 23.2246 39.6095 22.554 40.6656C22.0144 41.5155 21.0736 42.1148 21.2641 43.2527C21.3279 43.6891 21.5541 44.0846 21.8967 44.359C22.2392 44.6333 22.6725 44.766 23.1085 44.7301C24.1312 44.6532 24.6593 43.8441 24.8811 42.9135C25.101 41.8499 25.2663 40.7756 25.3764 39.6948C25.5341 38.6154 25.6102 37.5254 25.6041 36.4343C25.6036 35.3279 25.3979 34.2314 24.9976 33.2012C24.7689 32.6462 24.5022 32.148 23.8578 32.0631C23.3143 32.0312 22.7693 32.042 22.2275 32.0954C21.3448 32.1416 20.4727 31.8831 19.7552 31.3627C19.0376 30.8422 18.5174 30.0907 18.2802 29.2322C18.2538 29.12 18.2716 29.0019 18.3298 28.9027C18.388 28.8034 18.4822 28.7308 18.5925 28.7002C18.7027 28.6695 18.8205 28.6832 18.9209 28.7384C19.0214 28.7935 19.0967 28.8858 19.131 28.9958C19.2764 29.5479 19.5755 30.0465 19.9929 30.4328C20.4104 30.8191 20.9287 31.0769 21.4868 31.1758C22.2199 31.293 23.0599 31.1129 23.8216 31.1743C23.7496 31.1567 23.6839 31.1193 23.6317 31.0664C23.5795 31.0134 23.5428 30.9469 23.5257 30.8743C23.5087 30.8016 23.5119 30.7256 23.5351 30.6547C23.5582 30.5837 23.6004 30.5207 23.6569 30.4724C24.6322 29.6709 24.8175 28.424 24.8398 27.224C24.8651 25.8681 24.8318 24.5089 24.8255 23.1528C24.8144 20.7615 24.7884 18.3696 24.8108 15.9782C24.8219 14.7965 24.8479 13.6149 24.9022 12.4344C24.9469 11.4639 25.1216 10.2986 24.5864 9.42693C24.1262 8.67736 23.2251 8.39601 22.3987 8.31945C21.3748 8.18829 20.3348 8.3426 19.3918 8.76562C18.9458 8.97118 18.574 9.31119 18.3277 9.73878C18.0814 10.1664 17.9728 10.6605 18.0168 11.1529C18.1093 12.2385 18.8055 13.1341 19.5485 13.8694C19.9546 14.2712 19.3302 14.8997 18.9247 14.4984C18.0068 13.5901 17.2335 12.4838 17.1345 11.1529C17.0895 10.5588 17.2123 9.96394 17.4886 9.43719C17.4825 9.44513 17.4759 9.45227 17.4698 9.46026C17.3513 9.62436 17.2656 9.81018 17.2176 10.0073C17.088 10.2729 16.9881 10.5521 16.9196 10.84C16.914 10.864 16.9122 10.8884 16.907 10.9126C16.1946 10.789 15.4645 10.8148 14.7624 10.9884C12.9961 11.5334 12.2949 13.3022 12.2736 15.0138C12.2273 15.1087 12.1771 15.2016 12.1288 15.2954C12.1452 15.297 12.1617 15.2966 12.1782 15.2985C14.0601 15.515 14.7099 17.4637 15.2255 19.0152C15.5423 19.9683 15.9379 20.8791 16.8576 21.3766C17.8245 21.8715 18.8997 22.1124 19.9836 22.077C20.4867 22.0807 20.978 21.9238 21.3873 21.6287C21.7965 21.3336 22.1027 20.9155 22.2619 20.4343C22.5963 19.4678 22.7938 18.2987 22.4701 17.3099C22.2913 16.7641 23.1436 16.5324 23.3208 17.0734C23.6665 18.1291 23.496 19.3159 23.2057 20.367C23.1008 20.8494 22.8903 21.302 22.5898 21.6919C22.2892 22.0818 21.9061 22.3992 21.4684 22.6208C20.5746 22.9869 19.5909 23.0679 18.6499 22.853C17.6934 22.7326 16.7769 22.3928 15.971 21.8597C14.4651 20.732 14.4949 18.7442 13.5633 17.2501C13.3391 16.8344 12.98 16.5091 12.5462 16.3287C12.1125 16.1483 11.6303 16.1237 11.1807 16.259C10.3474 16.488 9.6351 17.0346 9.19424 17.7833C8.02721 19.7579 9.36946 21.9683 10.5936 23.5351C10.9413 23.9801 10.3208 24.6134 9.96969 24.164C8.88174 22.7715 7.7937 21.0445 7.87127 19.2454C7.72493 20.4699 7.92866 21.7111 8.45848 22.8227C8.52145 22.9497 8.59133 23.073 8.66782 23.1922C8.63668 23.2207 8.60873 23.2531 8.57857 23.2828C8.95256 23.2158 9.32472 23.7019 8.97905 24.0265C8.37657 24.5924 8.28259 25.4583 8.35506 26.2452C8.45592 27.2015 8.78397 28.1193 9.31142 28.9206C9.62155 29.4028 8.8574 29.8482 8.54959 29.3696C7.92936 28.4087 7.55688 27.3069 7.46593 26.1642C7.46167 26.1083 7.46196 26.0515 7.45961 25.9951C7.42661 26.5886 7.48048 27.1838 7.61947 27.7615C7.87024 28.738 8.31819 29.6519 8.93532 30.4459C8.96428 30.4843 8.99468 30.5213 9.02457 30.5587C9.19777 29.9348 9.55108 29.3769 10.0396 28.956C10.4691 28.5856 11.0956 29.2123 10.6635 29.585C8.91541 31.0922 9.94297 33.6934 11.3402 35.0471C11.7046 35.4078 12.1582 35.6633 12.6539 35.7872C13.124 35.9062 13.7146 36.0471 14.1657 35.8169C14.9379 35.3896 15.5615 34.7338 15.9523 33.938C16.3294 33.2041 16.7064 32.0363 16.166 31.299C15.665 30.6156 14.7551 30.3649 14.0447 29.978C13.6759 29.797 13.3461 29.5444 13.0742 29.2348C12.8023 28.9251 12.5937 28.5644 12.4602 28.1734C12.1983 27.335 12.2674 26.427 12.6529 25.6387C12.8627 25.2703 13.154 24.9556 13.5041 24.7193C13.8542 24.4829 14.2536 24.3311 14.6714 24.2757C15.5071 24.101 16.4101 23.937 17.1864 24.3902C17.2832 24.4518 17.3525 24.5489 17.3796 24.661C17.4068 24.7732 17.3897 24.8915 17.3319 24.9912C17.2741 25.0908 17.1802 25.1639 17.07 25.1951C16.9598 25.2263 16.8419 25.2131 16.7411 25.1583C16.2113 24.849 15.5533 25.0036 14.9855 25.117C14.7031 25.1409 14.4284 25.2217 14.1775 25.3547C13.9267 25.4876 13.7049 25.67 13.5252 25.8909C13.219 26.385 13.1087 26.9773 13.2165 27.5498C13.3242 28.1222 13.642 28.6327 14.1064 28.9794C14.8663 29.504 15.7811 29.7317 16.4848 30.3517C16.8054 30.6379 17.0459 31.004 17.182 31.4134C17.3182 31.8228 17.3453 32.261 17.2605 32.6843C17.1505 33.4435 16.8782 34.1697 16.4627 34.8125C16.5048 34.8078 16.5472 34.8054 16.5896 34.8053L16.4591 34.8208L16.4573 34.8211C16.3772 34.9456 16.2939 35.0682 16.204 35.1862C15.7053 35.8402 14.9565 36.5727 14.1371 36.777C13.8849 36.8348 13.6256 36.8548 13.3676 36.8365C13.1196 37.2032 12.9877 37.6372 12.9895 38.081C12.9998 40.2285 15.0038 41.5237 16.9575 41.1868C16.9567 41.229 16.9487 41.2699 16.9506 41.3126C16.9945 42.302 17.6416 43.396 18.6779 43.5998C19.1588 43.6945 19.6398 43.7891 20.1208 43.8836L20.4147 43.9415C20.511 44.0908 20.621 44.2307 20.7433 44.3591C21.0358 44.8725 21.5076 45.2576 22.0666 45.4392C21.6477 45.2852 21.2755 45.0248 20.9858 44.6831C20.6962 44.3415 20.499 43.9302 20.4133 43.4892ZM16.1539 11.8308C15.4367 11.9135 14.7682 12.2377 14.2565 12.751C13.7448 13.2643 13.4199 13.9366 13.3343 14.6592C13.3315 14.7762 13.2841 14.8877 13.202 14.9705C13.1198 15.0533 13.0093 15.1011 12.8932 15.1039C12.7763 15.1033 12.6645 15.0563 12.5819 14.973C12.4993 14.8897 12.4526 14.7769 12.452 14.6592C12.5567 13.7022 12.9699 12.8062 13.6282 12.1088C14.3005 11.4218 15.1988 11.0066 16.1539 10.9413C16.2706 10.9423 16.3822 10.9895 16.4647 11.0727C16.5472 11.1559 16.594 11.2684 16.595 11.3861C16.5923 11.5032 16.545 11.6147 16.4628 11.6976C16.3807 11.7804 16.27 11.8281 16.1539 11.8308V11.8308ZM19.157 19.3211C19.1416 19.3774 19.1154 19.4301 19.0798 19.4762C19.0442 19.5223 18.9999 19.5609 18.9495 19.5897C18.8991 19.6185 18.8436 19.6371 18.7861 19.6443C18.7286 19.6515 18.6703 19.6472 18.6144 19.6317C18.5585 19.6162 18.5062 19.5897 18.4605 19.5538C18.4148 19.5179 18.3766 19.4733 18.3479 19.4225C18.3193 19.3717 18.3009 19.3157 18.2938 19.2577C18.2866 19.1998 18.2909 19.1409 18.3063 19.0846C18.3906 18.7476 18.4648 18.4083 18.5289 18.0666C18.5608 17.8959 18.59 17.7246 18.6165 17.5529C18.6287 17.4737 18.6404 17.3943 18.6515 17.3149L18.659 17.2604L18.6598 17.2543C18.6654 17.2079 18.6716 17.1615 18.6772 17.1151C18.6805 16.9982 18.7281 16.887 18.8101 16.8044C18.8921 16.7217 19.0024 16.6737 19.1183 16.6703C19.2353 16.6706 19.3474 16.7175 19.43 16.8008C19.5127 16.8842 19.5593 16.9972 19.5595 17.1151C19.471 17.8582 19.3366 18.5949 19.157 19.3211V19.3211ZM22.7636 13.1821C22.6488 13.2129 22.5267 13.1968 22.4237 13.1373C22.3324 13.0798 22.264 12.9921 22.23 12.8892L22.2477 12.9316C22.2258 12.8848 22.2 12.8401 22.1704 12.7979C22.1423 12.7659 22.1122 12.7356 22.0803 12.7074C21.9986 12.6448 21.902 12.6049 21.8002 12.592C21.7585 12.5894 21.7166 12.5896 21.6749 12.5924C21.6256 12.6013 21.5772 12.6144 21.5301 12.6315L21.5795 12.6105C21.4779 12.6621 21.3617 12.6767 21.2507 12.6518C21.1399 12.6206 21.0454 12.5473 20.987 12.4474C20.928 12.3435 20.9121 12.2204 20.9426 12.1047C20.9735 11.993 21.0461 11.8977 21.1453 11.8389C21.3144 11.753 21.4997 11.7043 21.6889 11.696C21.8782 11.6877 22.0669 11.72 22.2428 11.7908C22.4336 11.8637 22.6077 11.975 22.7545 12.1178C22.8973 12.2641 23.0057 12.4409 23.0717 12.6351C23.1014 12.7488 23.0857 12.8696 23.0282 12.9719C22.9706 13.0741 22.8756 13.1496 22.7636 13.1821L22.7636 13.1821ZM22.588 25.0655C22.7007 25.0359 22.8205 25.0518 22.9219 25.1098C23.0232 25.1678 23.0981 25.2633 23.1306 25.3762C23.3808 26.3708 23.4603 27.4012 23.3658 28.4228C23.3628 28.5398 23.3153 28.6512 23.2332 28.7339C23.1511 28.8167 23.0407 28.8645 22.9246 28.8675C22.8077 28.8671 22.6958 28.8201 22.6131 28.7368C22.5305 28.6535 22.4839 28.5406 22.4835 28.4228C22.5771 27.4812 22.5083 26.5305 22.2799 25.6126C22.2506 25.499 22.2664 25.3783 22.3239 25.2761C22.3814 25.174 22.4761 25.0985 22.588 25.0656V25.0655ZM12.5431 19.7772C12.5426 19.7559 12.5397 19.7347 12.5344 19.714C12.541 19.7336 12.5443 19.7542 12.5443 19.7749L12.5431 19.7772ZM12.5554 19.752C12.6012 19.6308 12.6543 19.5515 12.5554 19.752V19.752ZM16.9481 40.9887C16.2557 41.0897 15.5496 40.963 14.9344 40.6273C13.9228 40.0066 12.6254 38.6582 13.1609 37.3558C13.1945 37.2437 13.2696 37.1489 13.3706 37.0911C13.4716 37.0333 13.5908 37.0168 13.7035 37.0452C13.816 37.0772 13.9114 37.1525 13.9691 37.2549C14.0268 37.3573 14.0421 37.4786 14.0117 37.5923C13.9355 37.8162 13.9236 38.0572 13.9776 38.2876C14.0316 38.518 14.1491 38.7283 14.3166 38.8941C14.6174 39.2712 14.9763 39.597 15.3796 39.8592C15.8321 40.099 16.3492 40.1856 16.8542 40.1062C17.1356 40.0863 17.4165 40.0582 17.6967 40.0219C17.9089 40.0228 18.1186 39.9748 18.3097 39.8815C18.3938 39.8008 18.5055 39.7558 18.6216 39.7558C18.7378 39.7558 18.8494 39.8008 18.9336 39.8815C19.0157 39.9652 19.0618 40.0783 19.0618 40.196C19.0618 40.3138 19.0157 40.4268 18.9336 40.5105C18.3887 40.9363 17.6108 40.9369 16.948 40.9887L16.9481 40.9887ZM19.6442 43.3071C19.6119 43.4201 19.537 43.5159 19.4356 43.5739C19.3342 43.632 19.2143 43.6477 19.1015 43.6178C18.2046 43.3655 17.6287 42.5944 17.1226 41.8594C17.0934 41.809 17.0743 41.7532 17.0664 41.6954C17.0585 41.6375 17.0621 41.5786 17.0767 41.5221C17.1064 41.408 17.1799 41.3104 17.2809 41.2509C17.3819 41.1914 17.5023 41.1747 17.6154 41.2047C17.7286 41.2346 17.8254 41.3086 17.8845 41.4105C17.9954 41.5716 18.1175 41.7259 18.2266 41.888C18.15 41.7742 18.2433 41.9081 18.2653 41.9353C18.2961 41.9735 18.3275 42.0113 18.3594 42.0486C18.4198 42.1192 18.4823 42.1881 18.5474 42.2544C18.6147 42.323 18.6847 42.3888 18.7579 42.4508C18.7717 42.4624 18.7856 42.4737 18.7995 42.4852L18.8004 42.4857C18.8354 42.5104 18.8699 42.5357 18.9057 42.5592C18.9842 42.6109 19.0661 42.657 19.1509 42.6972L19.1607 42.7017C19.1739 42.7069 19.1875 42.7122 19.1998 42.7167C19.2447 42.733 19.2901 42.7471 19.336 42.7601C19.4477 42.7933 19.5421 42.8689 19.5996 42.9709C19.6571 43.073 19.673 43.1935 19.6442 43.3071L19.6442 43.3071ZM19.9288 42.6374L19.9258 42.6321C19.8956 42.2161 19.8892 42.1048 19.9065 42.2985C19.9115 42.3577 19.9215 42.4164 19.9288 42.4754V42.6374ZM20.0087 35.8902C19.802 36.226 19.5467 36.5286 19.2512 36.7882C18.5949 37.284 17.8588 37.6621 17.0751 37.906C16.9623 37.9363 16.8423 37.9207 16.7408 37.8626C16.6393 37.8045 16.5645 37.7086 16.5324 37.5954C16.5041 37.4818 16.5204 37.3615 16.5778 37.2596C16.6351 37.1577 16.7293 37.082 16.8406 37.0483C17.5003 36.8491 18.1204 36.5355 18.6732 36.1214C18.9261 35.8911 19.1443 35.6248 19.3207 35.3309C19.5412 35.0013 19.7618 34.6717 19.9823 34.3421C20.0413 34.2403 20.1381 34.1663 20.2513 34.1363C20.3645 34.1064 20.4848 34.1231 20.5858 34.1826C20.6869 34.2421 20.7603 34.3397 20.79 34.4538C20.8196 34.5679 20.8031 34.6892 20.7441 34.7911C20.4989 35.1575 20.2538 35.5239 20.0086 35.8902H20.0087Z" fill="white"/>
<path d="M21.6973 17.2567C21.696 17.2498 21.6962 17.2427 21.6979 17.2359C21.6997 17.2291 21.7028 17.2227 21.7072 17.2173C21.775 17.0805 21.9646 16.8667 22.2504 17.1471C22.2623 17.1599 22.272 17.1747 22.2793 17.1907C22.3156 17.5182 22.3468 17.8494 22.3623 18.1849C22.4119 18.8514 22.3452 19.5215 22.1652 20.1648C21.9668 20.8408 21.5442 21.4275 20.9681 21.8269C20.3914 22.2087 19.7146 22.4078 19.0247 22.3987C18.3398 22.4021 17.6679 22.2107 17.0862 21.8464C15.9605 21.1005 15.1682 19.941 14.878 18.6148C14.7812 18.0082 14.6324 17.4111 14.4333 16.8304C14.3173 16.5756 14.1524 16.3464 13.9482 16.1561C13.744 15.9658 13.5044 15.818 13.2434 15.7214C12.7008 15.5069 12.1155 15.425 11.5355 15.4823C10.9555 15.5397 10.3972 15.7346 9.90624 16.0512C9.41596 16.38 8.99787 16.8069 8.67785 17.3052C8.35784 17.8036 8.14271 18.3629 8.04581 18.9485C7.84784 20.1413 8.06439 21.3665 8.65886 22.417L8.77214 22.6173L8.80808 22.6757L8.87988 22.7926L9.0323 23.0207C9.0323 23.0207 9.14115 23.2052 9.30607 23.4464C9.46443 23.7088 9.67273 23.937 9.91898 24.1179C10.05 24.2053 10.2071 24.2442 10.3635 24.2277C10.4568 24.2143 10.4992 24.2172 10.4915 24.2581C10.471 24.3001 10.4417 24.3372 10.4056 24.3666C10.3695 24.3961 10.3274 24.4173 10.2824 24.4288C10.114 24.4796 9.93352 24.4721 9.76979 24.4075C9.50254 24.308 9.26331 24.1445 9.07271 23.931C8.87336 23.7299 8.68591 23.5171 8.51132 23.2938C8.45656 23.2121 8.40003 23.1315 8.34983 23.0467L8.27248 22.9209L8.25327 22.8894L8.15781 22.7187C8.08035 22.5762 8.00533 22.4319 7.93976 22.2832C7.37318 21.0885 7.23846 19.7319 7.5589 18.4477C7.7157 17.802 8.00368 17.1961 8.40464 16.6684C8.8056 16.1406 9.31082 15.7025 9.88834 15.3816C10.475 15.0629 11.1282 14.889 11.7944 14.8741C12.4606 14.8592 13.1208 15.0037 13.7209 15.2958C14.0284 15.4518 14.3055 15.6622 14.5391 15.9172C14.7684 16.1801 14.9447 16.4857 15.0579 16.8167C15.2822 17.4549 15.332 18.0879 15.4922 18.6507C15.778 19.7954 16.4948 20.7829 17.4907 21.4036C17.981 21.6857 18.5389 21.8259 19.1032 21.8089C19.6674 21.7919 20.2161 21.6184 20.6889 21.3074C21.1381 20.9752 21.4642 20.501 21.615 19.9602C21.7676 19.3912 21.8226 18.8002 21.7777 18.2125C21.763 17.8962 21.733 17.5775 21.6973 17.2567Z" fill="#2C2C2E"/>
<path d="M10.7774 20.4073C10.7718 20.4065 10.7698 20.4063 10.7638 20.3913C10.7209 20.3041 10.7024 20.2068 10.7103 20.1098C10.7182 20.0129 10.7522 19.9199 10.8086 19.841C10.8155 19.8322 10.824 19.8249 10.8338 19.8196C10.9843 19.8329 11.1333 19.8601 11.2789 19.9009C11.5856 19.9837 11.8769 20.1165 12.1412 20.294C12.4024 20.4685 12.6364 20.681 12.8355 20.9247C12.9256 21.0356 13.0076 21.1528 13.0811 21.2754C13.1168 21.3562 13.1468 21.4394 13.1707 21.5246C13.2187 21.6837 13.2438 21.8491 13.245 22.0155C13.2381 22.5387 13.0631 22.3369 12.9316 22.098C12.9294 22.1136 12.8588 21.9622 12.7676 21.8226C12.7222 21.7526 12.67 21.6863 12.635 21.6353L12.5669 21.5555C12.5076 21.4582 12.4409 21.3657 12.3675 21.2787C12.2068 21.0841 12.0179 20.915 11.8072 20.7771C11.5971 20.6379 11.366 20.534 11.1229 20.4695C11.0099 20.4381 10.8942 20.4173 10.7774 20.4073V20.4073Z" fill="#2C2C2E"/>
<path d="M8.19275 22.8274C8.19695 22.8213 8.20235 22.8161 8.20861 22.8122C8.21487 22.8083 8.22186 22.8058 8.22914 22.8047C8.3832 22.7447 8.653 22.7482 8.66401 23.1404C8.6639 23.1571 8.66102 23.1736 8.65549 23.1893C8.20186 23.7796 7.88081 24.4621 7.71454 25.1898C7.54826 25.9175 7.54072 26.6728 7.69245 27.4037C7.72683 27.5724 7.77301 27.7384 7.82322 27.903C7.82322 27.903 7.87115 28.1103 7.95889 28.3872C8.05944 28.6941 8.17965 28.994 8.31877 29.2852C8.5595 29.7488 8.63479 29.9036 8.55054 29.9009C8.34439 29.7959 8.16788 29.6402 8.03739 29.4481C7.86855 29.243 7.72108 29.0208 7.59729 28.7853C7.46186 28.5335 7.34398 28.2725 7.24449 28.0042C7.19626 27.8471 7.15562 27.6876 7.12189 27.5267C6.95201 26.712 6.95979 25.8697 7.1447 25.0583C7.32961 24.2469 7.68722 23.4857 8.19279 22.8274H8.19275Z" fill="#2C2C2E"/>
<path d="M9.99429 28.671C10.0004 28.6664 10.0073 28.6629 10.0147 28.661C10.0221 28.659 10.0298 28.6586 10.0373 28.6596C10.2116 28.6441 10.454 28.7396 10.3525 29.1114C10.3479 29.1267 10.3407 29.141 10.3313 29.1539C10.0912 29.3244 9.87972 29.5325 9.70489 29.7704C9.36277 30.2387 9.14332 30.7865 9.06683 31.363C8.99285 31.945 9.05033 32.5363 9.23496 33.0928C9.6189 34.2297 10.3577 35.2108 11.3408 35.8892C11.8152 36.2236 12.3631 36.4368 12.9373 36.5107C13.5021 36.5702 14.071 36.4456 14.5604 36.1551C15.5598 35.5761 16.2671 34.5058 16.7336 33.4081C16.9745 32.8827 17.0736 32.3024 17.0208 31.726C16.9728 31.4532 16.8704 31.1929 16.7199 30.961C16.5694 30.7291 16.3739 30.5304 16.1452 30.3767C15.6413 30.0329 15.1109 29.7305 14.559 29.4723C13.9553 29.1788 13.4244 28.7528 13.0051 28.2257C12.7913 27.9318 12.6538 27.5887 12.605 27.2276C12.562 26.8615 12.617 26.4905 12.7644 26.1531C13.0633 25.5156 13.5757 25.0049 14.2114 24.7109C14.2494 24.6909 14.2884 24.673 14.3283 24.6574L14.4157 24.6212L14.452 24.6062C14.4762 24.5958 14.5009 24.5868 14.526 24.5791L14.676 24.5298C14.7765 24.4996 14.8784 24.4747 14.9814 24.4552C15.1716 24.4305 15.3638 24.4253 15.555 24.4398C15.9187 24.4614 16.2711 24.5754 16.5794 24.7712C16.7475 24.8695 16.8865 25.0113 16.9821 25.1818C17.0298 25.2782 17.0213 25.3162 16.982 25.3137C16.9007 25.3105 16.7021 25.1466 16.4189 25.0555C16.2019 24.9848 15.9756 24.947 15.7476 24.9434C15.5025 24.9436 15.2587 24.9783 15.0232 25.0464C14.941 25.0642 14.86 25.0867 14.7804 25.1139C14.7409 25.128 14.7002 25.1379 14.6616 25.1551L14.4798 25.2332C14.3549 25.2927 14.2346 25.3618 14.12 25.4398C13.6595 25.7283 13.3286 26.1865 13.1978 26.717C13.1518 26.9698 13.1733 27.2303 13.2602 27.472C13.3583 27.7217 13.5057 27.9488 13.6935 28.1394C14.1177 28.5403 14.6046 28.8678 15.1346 29.1089C15.7181 29.3735 16.2642 29.715 16.7587 30.1243C17.0223 30.3516 17.2357 30.6322 17.385 30.9479C17.5343 31.2636 17.6161 31.6074 17.6253 31.957C17.6192 32.6226 17.4634 33.2782 17.1697 33.8743C16.9063 34.4612 16.5699 35.0119 16.1686 35.5132C15.7622 36.0332 15.2506 36.4599 14.6679 36.7649C14.0623 37.0724 13.3763 37.1803 12.7066 37.0736C12.0559 36.9593 11.44 36.6956 10.9065 36.3031C9.84784 35.541 9.05953 34.4568 8.65736 33.2096C8.44926 32.5761 8.39328 31.9019 8.49406 31.2424C8.59483 30.5829 8.84946 29.9569 9.23701 29.416C9.44852 29.1286 9.70416 28.8772 9.99429 28.671Z" fill="#2C2C2E"/>
<path d="M12.271 31.4773C12.27 31.4711 12.2695 31.4688 12.2819 31.4583C12.3564 31.3979 12.4447 31.3572 12.5387 31.3397C12.6327 31.3222 12.7295 31.3286 12.8204 31.3583C12.8298 31.3605 12.8387 31.3643 12.8468 31.3696C12.8644 31.4719 12.8901 31.5726 12.9237 31.6707C12.9934 31.8815 13.0927 32.0812 13.2186 32.2636C13.3438 32.4459 13.4921 32.6109 13.6599 32.7542C13.736 32.8186 13.8159 32.8782 13.8992 32.9326C13.8992 32.9326 13.9544 32.9892 14.0354 33.0631C14.1153 33.1383 14.223 33.2288 14.3162 33.3101C14.6523 33.5464 14.4907 33.6365 14.1981 33.6138C14.089 33.6045 13.9817 33.58 13.8793 33.541C13.7681 33.5031 13.6593 33.4584 13.5535 33.407C13.4519 33.3398 13.3549 33.2658 13.2631 33.1856C13.0592 33.0102 12.8793 32.8084 12.7282 32.5853C12.5745 32.3599 12.4531 32.1138 12.3674 31.8543C12.3257 31.7313 12.2935 31.6053 12.271 31.4773V31.4773Z" fill="#2C2C2E"/>
<path d="M12.7402 37.349C12.7415 37.3415 12.7443 37.3343 12.7484 37.3279C12.7526 37.3215 12.7579 37.316 12.7642 37.3118C12.8881 37.186 13.137 37.1028 13.294 37.4509C13.3008 37.4656 13.3052 37.4814 13.307 37.4976C13.2337 37.7828 13.2076 38.0783 13.2296 38.3721C13.2553 38.7618 13.3664 39.1409 13.5547 39.4822C13.7431 39.8234 14.0041 40.1184 14.319 40.3458C14.6383 40.5735 15.0011 40.7318 15.3842 40.8106C15.7674 40.8894 16.1627 40.887 16.5449 40.8035C16.7118 40.7726 16.8787 40.736 17.045 40.6889C17.045 40.6889 17.2542 40.6479 17.5402 40.5764L18.4947 40.3252C18.9959 40.1973 19.1247 40.0982 19.1283 40.1851C19.1315 40.2702 18.8989 40.4887 18.5968 40.6356C18.3716 40.7596 18.1402 40.872 17.9037 40.9722C17.531 41.1421 17.1223 41.2767 17.1223 41.2767C16.966 41.3191 16.806 41.3533 16.6446 41.3831C16.1875 41.469 15.7187 41.4706 15.2611 41.3878C14.7975 41.2956 14.3594 41.1031 13.9769 40.8234C13.593 40.5455 13.2746 40.1855 13.0445 39.7692C12.8145 39.3529 12.6784 38.8906 12.6459 38.4152C12.6191 38.057 12.651 37.6967 12.7402 37.349V37.349Z" fill="#2C2C2E"/>
<path d="M17.0774 38.5009C17.072 38.5044 17.0658 38.5067 17.0593 38.5074C17.0529 38.5082 17.0463 38.5074 17.0402 38.5052C16.911 38.4888 16.6085 38.4299 16.7531 38.0348C16.7613 38.018 16.772 38.0027 16.785 37.9893C17.0858 37.8241 17.4018 37.6886 17.7286 37.5848C18.3457 37.4407 18.9157 37.1391 19.3839 36.709C19.498 36.5886 19.6028 36.4596 19.6975 36.3232C19.6975 36.3232 19.8299 36.1637 19.9905 35.9224C20.1514 35.6817 20.3348 35.3556 20.4879 35.0813C20.9683 34.1301 20.9516 34.5656 20.7816 35.2195C20.7149 35.4735 20.6287 35.722 20.5238 35.9626C20.4127 36.2286 20.2798 36.4848 20.1265 36.7286C20.0273 36.8657 19.9192 36.996 19.8027 37.1185C19.5426 37.3889 19.2359 37.6095 18.8976 37.7696C18.5787 37.9131 18.2517 38.0377 17.9184 38.1429C17.6273 38.2348 17.3457 38.3547 17.0774 38.5009V38.5009Z" fill="#2C2C2E"/>
<path d="M21.3164 37.7957C21.3131 37.7897 21.3111 37.783 21.3105 37.7761C21.31 37.7692 21.3109 37.7622 21.3132 37.7557C21.3327 37.6068 21.4381 37.3376 21.8022 37.5072C21.8179 37.5155 21.832 37.5264 21.844 37.5394C21.9945 37.8455 22.1213 38.1628 22.2232 38.4886C22.3515 38.8751 22.395 39.2852 22.3505 39.6904C22.2923 40.117 22.0943 40.5118 21.7879 40.812C21.5032 41.1011 21.1934 41.3042 20.94 41.5271C20.694 41.7228 20.5054 41.9823 20.3944 42.2777C20.2944 42.5807 20.2637 42.9025 20.3047 43.2192C20.3456 43.5358 20.4572 43.839 20.6308 44.1061C21.0107 44.6485 21.5716 45.035 22.2109 45.1946C22.8526 45.3806 23.5348 45.3694 24.1702 45.1625C24.4732 45.0731 24.7477 44.9052 24.9664 44.6756C25.1851 44.4459 25.3403 44.1626 25.4166 43.8537C25.4966 43.5126 25.5542 43.1667 25.5892 42.818L25.7176 41.7394C25.7967 41.0196 25.8629 40.2985 25.9163 39.5762C26.0224 38.1317 26.077 36.6846 26.0801 35.2349C26.1174 34.5384 26.0438 33.8404 25.8623 33.1674C25.7775 32.8594 25.6238 32.5752 25.4129 32.3366C25.202 32.0981 24.9396 31.9115 24.6459 31.7913C24.0555 31.5921 23.3383 31.7395 22.5814 31.7283C21.8055 31.7457 21.0383 31.5608 20.3542 31.1914L20.2277 31.1119C20.1912 31.0909 20.1261 31.0412 20.137 31.0496L20.1044 31.0257L20.0395 30.9779L19.9167 30.8743C19.8364 30.8037 19.7607 30.728 19.69 30.6476C19.5676 30.4952 19.4646 30.328 19.3833 30.1499C19.2229 29.8187 19.1512 29.451 19.1755 29.0833C19.1814 28.8884 19.2357 28.6982 19.3335 28.53C19.3913 28.44 19.4282 28.428 19.446 28.4635C19.4837 28.5358 19.4466 28.793 19.4991 29.0885C19.5426 29.3137 19.6184 29.5313 19.7239 29.7345C19.8401 29.948 19.9903 30.1407 20.1686 30.305C20.2261 30.3644 20.2866 30.4207 20.35 30.4736C20.3808 30.5009 20.4132 30.5262 20.447 30.5495L20.4717 30.5677L20.4809 30.5745C20.4964 30.5865 20.5124 30.5978 20.529 30.6082L20.6302 30.6723C20.7691 30.754 20.9141 30.8245 21.0639 30.8833C21.7 31.101 22.3734 31.1853 23.0429 31.1309C23.4075 31.1021 23.7734 31.0938 24.139 31.106C24.5438 31.1205 24.9383 31.2386 25.2854 31.4493C25.6108 31.675 25.8884 31.9638 26.102 32.2988C26.3157 32.6338 26.461 33.0083 26.5296 33.4004C26.6521 34.128 26.6966 34.8667 26.6623 35.6039C26.6516 37.042 26.5895 38.4784 26.4763 39.9132C26.42 40.63 26.3512 41.3457 26.2698 42.0602L26.1384 43.1306C26.1006 43.5075 26.0235 43.8794 25.9083 44.24C25.774 44.6299 25.5368 44.9754 25.2221 45.2394C24.9131 45.491 24.5555 45.6748 24.172 45.7791C23.426 45.9796 22.6384 45.9582 21.9042 45.7175C21.1474 45.4921 20.498 44.9963 20.0776 44.3229C19.8717 43.9757 19.7464 43.5859 19.7111 43.1829C19.6759 42.7799 19.7316 42.374 19.8741 41.9958C20.033 41.6213 20.2833 41.2934 20.6018 41.0426C20.8767 40.8337 21.1409 40.6107 21.3933 40.3746C21.6037 40.1656 21.7375 39.8908 21.7728 39.5951C21.8018 39.279 21.7644 38.9603 21.6632 38.6597C21.5698 38.3631 21.4538 38.0743 21.3164 37.7957V37.7957Z" fill="#2C2C2E"/>
<path d="M16.7118 41.7679C16.7092 41.7606 16.7082 41.7528 16.7086 41.7451C16.709 41.7374 16.711 41.7298 16.7143 41.7229C16.7533 41.5496 16.9191 41.35 17.2383 41.562C17.2513 41.571 17.2626 41.5822 17.2718 41.5952C17.3584 41.8758 17.4909 42.1398 17.6638 42.3764C17.6908 42.4184 17.7207 42.4584 17.7533 42.496C17.8561 42.6249 17.9705 42.7438 18.095 42.8514C18.2061 42.9682 18.3268 43.0751 18.4559 43.1711C18.7049 43.3597 18.9781 43.5134 19.268 43.6282C19.5062 43.7176 19.6722 43.7559 19.7679 43.7906C19.8641 43.8269 19.8912 43.8567 19.8631 43.885C19.6441 43.9739 19.4034 43.9934 19.1731 43.9409C18.9028 43.905 18.64 43.8259 18.3944 43.7067C18.1271 43.5837 17.8765 43.4267 17.6489 43.2395C17.5242 43.1243 17.408 43.0001 17.3012 42.8679C17.2616 42.8226 17.2249 42.7747 17.1914 42.7247C16.9797 42.4349 16.8176 42.1115 16.7118 41.7679Z" fill="#2C2C2E"/>
<path d="M19.3393 17.1535C19.3401 17.1486 19.3404 17.1468 19.3553 17.1423C19.4455 17.1137 19.5408 17.1053 19.6345 17.1175C19.7283 17.1297 19.8183 17.1624 19.8983 17.2132C19.9066 17.2182 19.9138 17.2247 19.9197 17.2324L19.876 17.5469C19.8495 17.7308 19.8117 17.9754 19.7615 18.2203C19.7163 18.4471 19.6587 18.6711 19.5889 18.8915C19.53 19.0733 19.4807 19.1922 19.4807 19.1922C19.3764 19.3566 19.249 19.5049 19.1025 19.6324C18.7918 19.8928 18.777 19.6762 18.8269 19.4611C18.817 19.4763 18.9618 18.9538 18.9483 18.9505C19.0525 18.6707 19.1338 18.3828 19.1915 18.0897C19.2367 17.8652 19.2723 17.6348 19.2974 17.4582L19.3393 17.1535Z" fill="#2C2C2E"/>
<path d="M19.1004 14.276C19.1059 14.2803 19.1103 14.2858 19.1134 14.2921C19.1166 14.2983 19.1183 14.3052 19.1186 14.3122C19.1564 14.4599 19.1535 14.7472 18.7551 14.7251C18.7377 14.7233 18.7207 14.7186 18.7048 14.7113C18.4636 14.4882 18.2245 14.2584 17.9948 14.0152C17.3712 13.409 16.908 12.6551 16.6477 11.8222C16.534 11.3839 16.5126 10.9265 16.5848 10.4794C16.6618 10.0385 16.8196 9.61597 17.0501 9.23334C17.5063 8.47625 18.1818 7.87843 18.9855 7.52054C19.7711 7.17875 20.6177 7.00254 21.4733 7.00277C22.321 6.98053 23.167 7.09247 23.9803 7.33448C24.4094 7.47238 24.803 7.70404 25.133 8.01294C25.4577 8.33011 25.7057 8.7183 25.8579 9.14751C26.1156 9.96331 26.2306 10.8181 26.1976 11.6736L26.2047 14.1336L26.2304 23.9707C26.2691 25.6311 26.1374 27.2911 25.8376 28.9242L25.7194 29.4396C25.6949 29.5367 25.6673 29.6336 25.6386 29.7303C25.5743 29.906 25.4968 30.0765 25.407 30.2404C25.2431 30.5638 25.0087 30.8456 24.7213 31.0647C24.5697 31.188 24.3873 31.2669 24.1941 31.2925C24.0876 31.3013 24.0559 31.279 24.073 31.2433C24.1066 31.1684 24.3302 31.0442 24.5163 30.811C24.6603 30.6298 24.7802 30.4302 24.8727 30.2175C24.9709 29.9816 25.0475 29.7371 25.1015 29.487C25.1271 29.4011 25.1494 29.315 25.1709 29.2256L25.2023 29.0909L25.2616 28.8281C25.3023 28.6353 25.3396 28.4417 25.3718 28.2468C25.5975 26.6672 25.6894 25.0711 25.6466 23.4758L25.6196 13.8053L25.6098 11.3926C25.6336 10.6257 25.5026 9.86193 25.2246 9.14769C25.0794 8.82068 24.8593 8.53311 24.5823 8.30863C24.2918 8.08926 23.9619 7.92873 23.6108 7.83593C22.8642 7.64694 22.0947 7.56653 21.3255 7.59714C20.564 7.61163 19.8138 7.78492 19.122 8.1061C18.4487 8.42987 17.8883 8.9514 17.5144 9.60216C17.3273 9.91506 17.2051 10.263 17.1553 10.6249C17.1054 10.9867 17.129 11.355 17.2244 11.7075C17.4633 12.4295 17.8731 13.0819 18.4185 13.6082C18.6352 13.8374 18.8647 14.0582 19.1004 14.276Z" fill="#2C2C2E"/>
<path d="M22.9227 25.4855C22.9214 25.4793 22.9209 25.4771 22.9327 25.4656C22.9993 25.3946 23.0846 25.3441 23.1787 25.3201C23.2727 25.2962 23.3716 25.2997 23.4637 25.3303C23.4741 25.3338 23.4837 25.3394 23.4919 25.3467C23.4942 25.3556 23.5376 25.5261 23.5789 25.7808C23.6292 26.0893 23.655 26.4013 23.6563 26.7139C23.6569 27.1646 23.6093 27.6141 23.5142 28.0545C23.4252 28.2895 23.3097 28.5134 23.1699 28.7218C22.8729 29.152 22.8316 28.902 22.8681 28.6035C22.8591 28.6287 22.9686 27.8955 22.9517 27.8949C23.0333 27.5022 23.0737 27.1019 23.072 26.7006C23.0697 26.4226 23.0458 26.1452 23.0005 25.8709C22.9633 25.6447 22.9249 25.4936 22.9227 25.4855Z" fill="#2C2C2E"/>
<path d="M12.5666 14.9377C12.5668 14.9446 12.5655 14.9514 12.5628 14.9577C12.5601 14.964 12.556 14.9697 12.5509 14.9742C12.4646 15.0936 12.2482 15.2872 12.0034 14.9637C11.9935 14.9489 11.9861 14.9325 11.9814 14.9152C11.9943 14.578 12.0261 14.2418 12.0766 13.9083C12.1311 13.3686 12.3016 12.8474 12.5763 12.3809C12.8809 11.9363 13.2703 11.5573 13.7218 11.266C13.8817 11.1593 14.0478 11.0622 14.2191 10.9751C14.3889 10.9007 14.5637 10.8384 14.7421 10.7888C15.0762 10.6938 15.4211 10.6428 15.7682 10.6369C16.3191 10.6328 16.4744 10.7227 16.4193 10.7731C16.2195 10.8621 16.0097 10.9259 15.7944 10.963C15.8282 10.9648 15.4567 11.0425 15.1028 11.1873C14.8659 11.2838 14.637 11.3992 14.4184 11.5325C14.2901 11.6007 14.1655 11.6753 14.0446 11.756C13.6599 12.0036 13.3274 12.3251 13.066 12.7022C12.8377 13.0988 12.6976 13.5406 12.6552 13.9971C12.608 14.3087 12.5785 14.6227 12.5666 14.9377V14.9377Z" fill="#2C2C2E"/>
<path d="M21.0468 12.0118C21.0434 12.0142 21.0423 12.0151 21.0295 12.007C20.9454 11.963 20.8722 11.9007 20.815 11.8245C20.7578 11.7484 20.7182 11.6604 20.699 11.5669C20.6975 11.5563 20.6982 11.5456 20.701 11.5353L20.7965 11.4697C20.8761 11.419 20.9595 11.375 21.0462 11.338C21.3033 11.227 21.5824 11.1769 21.8617 11.1918C22.1417 11.2069 22.4139 11.2903 22.6549 11.4347C22.7631 11.4987 22.8639 11.5745 22.9557 11.6607C23.0039 11.7213 23.0466 11.786 23.0833 11.8543C23.1537 11.98 23.2004 12.1178 23.2209 12.2608C23.2563 12.4842 23.1988 12.5581 23.1423 12.5547C23.0811 12.5518 23.0077 12.4787 22.9281 12.3999C22.9281 12.4124 22.8467 12.3097 22.7498 12.2265C22.6864 12.1705 22.6178 12.1208 22.5448 12.0783C22.4829 12.0211 22.4143 11.9718 22.3406 11.9313C22.1817 11.8388 22.003 11.7866 21.8197 11.7793C21.6324 11.7714 21.4458 11.8064 21.2737 11.8816C21.1933 11.9157 21.1171 11.9594 21.0468 12.0118V12.0118Z" fill="#2C2C2E"/>
<g opacity="0.5">
<path opacity="0.5" d="M43.2611 21.0869C43.0853 21.1631 42.9161 21.2536 42.755 21.3575C42.6813 21.4155 42.6047 21.4695 42.5255 21.5194C42.6158 21.4742 42.5643 21.489 42.5308 21.5162C42.5135 21.5303 42.4964 21.5446 42.4794 21.5591C42.4419 21.5908 42.4052 21.6233 42.369 21.6566C42.2319 21.7845 42.1042 21.9224 41.9871 22.0691C41.9264 22.1441 42.0472 21.9858 41.9909 22.0643C41.9779 22.0825 41.9646 22.1003 41.9516 22.1186C41.9231 22.1586 41.8955 22.1993 41.8687 22.2406C41.8151 22.3231 41.7654 22.4081 41.7187 22.4948C41.659 22.5958 41.5622 22.6692 41.4493 22.699C41.3364 22.7289 41.2164 22.7128 41.1152 22.6543C41.016 22.5931 40.9441 22.4956 40.9146 22.3822C40.8851 22.2688 40.9003 22.1483 40.9569 22.0458C41.3703 21.279 42.024 20.6717 42.8158 20.3188C42.9198 20.2625 43.0407 20.2465 43.1557 20.274C43.2393 20.2972 43.3143 20.3449 43.3713 20.4109C43.4283 20.4769 43.4646 20.5584 43.4759 20.6452C43.4871 20.732 43.4727 20.8201 43.4345 20.8987C43.3963 20.9773 43.336 21.0427 43.2611 21.0869V21.0869Z" fill="white"/>
</g>
<g opacity="0.5">
<path opacity="0.5" d="M41.291 31.7312C40.9736 32.4323 40.4777 33.0363 39.8538 33.4816C39.8029 33.5114 39.7466 33.5307 39.6883 33.5384C39.6299 33.5461 39.5707 33.542 39.5139 33.5264C39.4302 33.5032 39.3552 33.4556 39.2982 33.3895C39.2413 33.3235 39.2049 33.242 39.1937 33.1553C39.1824 33.0685 39.1968 32.9803 39.235 32.9017C39.2732 32.8232 39.3336 32.7577 39.4085 32.7136C39.4258 32.7009 39.4431 32.6882 39.4603 32.6753C39.5157 32.6337 39.4673 32.6658 39.4425 32.6899C39.4728 32.6604 39.51 32.6358 39.5424 32.6084C39.6047 32.5558 39.6654 32.5011 39.7244 32.4445C39.8453 32.3284 39.9588 32.2045 40.064 32.0737C40.0748 32.0603 40.0854 32.0467 40.0961 32.0333C40.1525 31.9621 40.0507 32.0953 40.0819 32.0514C40.1069 32.0164 40.1328 31.982 40.1575 31.9467C40.2042 31.8795 40.2488 31.811 40.2913 31.741C40.3805 31.5935 40.4599 31.4403 40.5292 31.2823C40.5873 31.1821 40.6819 31.1088 40.7929 31.0779C40.9076 31.0471 41.0298 31.0632 41.1328 31.1227C41.2319 31.1816 41.3045 31.2769 41.3355 31.3885C41.3604 31.5045 41.3447 31.6256 41.291 31.7312V31.7312Z" fill="white"/>
</g>
<g opacity="0.5">
<path opacity="0.5" d="M31.7202 25.6974C31.4918 26.6153 31.4229 27.5661 31.5166 28.5076C31.5162 28.6254 31.4696 28.7383 31.3869 28.8216C31.3043 28.905 31.1923 28.9519 31.0754 28.9523C30.9594 28.9493 30.8489 28.9015 30.7668 28.8187C30.6847 28.736 30.6373 28.6246 30.6343 28.5076C30.5397 27.486 30.6193 26.4556 30.8694 25.461C30.9008 25.3476 30.9755 25.2513 31.0771 25.1933C31.1788 25.1353 31.2991 25.1203 31.4117 25.1516C31.5243 25.1829 31.62 25.258 31.6778 25.3603C31.7357 25.4626 31.7509 25.5838 31.7202 25.6974Z" fill="white"/>
</g>
<g opacity="0.5">
<path opacity="0.5" d="M35.3227 17.1999C35.3284 17.2463 35.3345 17.2927 35.3401 17.3391C35.3444 17.3719 35.3435 17.3656 35.3375 17.3202C35.341 17.3467 35.3447 17.3732 35.3484 17.3997C35.3595 17.4791 35.3712 17.5584 35.3834 17.6377C35.41 17.8094 35.4392 17.9806 35.471 18.1514C35.5347 18.493 35.6089 18.8323 35.6936 19.1694C35.7243 19.283 35.7091 19.4043 35.6513 19.5066C35.5935 19.6089 35.4978 19.6839 35.3852 19.7152C35.2726 19.7465 35.1523 19.7315 35.0506 19.6735C34.9489 19.6156 34.8742 19.5193 34.8429 19.4059C34.6633 18.6797 34.5289 17.9429 34.4404 17.1999C34.4406 17.082 34.4872 16.969 34.5699 16.8856C34.6525 16.8023 34.7646 16.7553 34.8816 16.7551C34.9975 16.7585 35.1078 16.8065 35.1898 16.8891C35.2718 16.9718 35.3194 17.083 35.3227 17.1999V17.1999Z" fill="white"/>
</g>
<g opacity="0.5">
<path opacity="0.5" d="M32.4095 12.6917C32.3947 12.6846 32.3798 12.6779 32.3647 12.6714L32.4701 12.7162C32.4048 12.69 32.3366 12.6716 32.2671 12.6614L32.3843 12.6773C32.3038 12.667 32.2224 12.6667 32.1419 12.6765L32.2591 12.6606C32.1673 12.6732 32.0775 12.6976 31.9919 12.7332L32.0973 12.6884C32.0171 12.723 31.9414 12.7673 31.8719 12.8202L31.9611 12.7507C31.8971 12.8009 31.8394 12.8588 31.7894 12.9233L31.8584 12.8333C31.8161 12.8899 31.7805 12.9513 31.7525 13.0163L31.7969 12.91C31.7907 12.9254 31.7848 12.9407 31.7792 12.9562C31.7458 13.0666 31.6738 13.1611 31.5765 13.222C31.5008 13.2667 31.4135 13.2875 31.326 13.282C31.2384 13.2764 31.1545 13.2446 31.0849 13.1907C31.0153 13.1368 30.9633 13.0632 30.9354 12.9793C30.9076 12.8954 30.9051 12.8051 30.9285 12.7198C30.9944 12.5256 31.1029 12.3488 31.2457 12.2025C31.3925 12.0597 31.5666 11.9484 31.7573 11.8755C31.9332 11.8047 32.122 11.7724 32.3112 11.7807C32.5004 11.789 32.6857 11.8377 32.8548 11.9236C32.954 11.9824 33.0267 12.0777 33.0576 12.1894C33.0881 12.3051 33.0721 12.4282 33.0131 12.5321C32.9547 12.632 32.8602 12.7053 32.7495 12.7365C32.6345 12.7627 32.514 12.7468 32.4095 12.6917V12.6917Z" fill="white"/>
</g>
<g opacity="0.5">
<path opacity="0.5" d="M36.8773 41.9442C36.3711 42.6792 35.7953 43.4503 34.8984 43.7026C34.7856 43.7339 34.665 43.7188 34.5632 43.6606C34.4615 43.6023 34.3868 43.5057 34.3557 43.392C34.3246 43.2782 34.3396 43.1567 34.3974 43.0541C34.4552 42.9515 34.551 42.8762 34.6638 42.8449C34.7098 42.8319 34.7552 42.8178 34.8001 42.8015C34.8194 42.7921 34.8396 42.7843 34.8603 42.7784C34.7984 42.8052 34.783 42.8118 34.814 42.798C34.8257 42.7929 34.8373 42.7875 34.8489 42.782C34.9338 42.7418 35.0157 42.6957 35.0941 42.644C35.13 42.6205 35.1644 42.5951 35.1995 42.5705C35.276 42.5167 35.1198 42.6368 35.192 42.5769C35.2086 42.563 35.2254 42.5495 35.2419 42.5356C35.3152 42.4736 35.3852 42.4077 35.4525 42.3392C35.5176 42.2729 35.5801 42.204 35.6405 42.1334C35.6724 42.0961 35.7038 42.0584 35.7346 42.0201C35.7566 41.9929 35.8499 41.859 35.7733 41.9728C35.8824 41.8107 36.0045 41.6564 36.1154 41.4953C36.1447 41.4448 36.1835 41.4007 36.2296 41.3654C36.2758 41.3301 36.3284 41.3043 36.3844 41.2894C36.4405 41.2746 36.4989 41.2711 36.5563 41.279C36.6137 41.287 36.669 41.3062 36.719 41.3357C36.769 41.3652 36.8128 41.4043 36.8478 41.4508C36.8828 41.4974 36.9084 41.5504 36.9231 41.6069C36.9378 41.6634 36.9413 41.7223 36.9335 41.7802C36.9256 41.838 36.9065 41.8938 36.8773 41.9442V41.9442Z" fill="white"/>
</g>
<g opacity="0.5">
<path opacity="0.5" d="M32.3212 37.6209C32.0772 38.1875 31.9422 38.7957 31.9234 39.4131C31.9513 40.0585 32.3309 40.4866 32.728 40.9498C33.3826 41.7135 33.7874 42.5436 33.5866 43.5739C33.4938 44.0192 33.2901 44.4332 32.9946 44.7771C32.6991 45.1209 32.3216 45.3831 31.8976 45.5391C31.4737 45.695 31.0174 45.7395 30.5717 45.6684C30.126 45.5972 29.7056 45.4127 29.3503 45.1323C28.516 44.4713 28.2659 43.3985 28.1131 42.3926C27.9225 41.1381 27.728 39.8791 27.6068 38.6155C27.4727 37.423 27.482 36.2185 27.6342 35.0282C27.7834 33.9937 28.0706 32.752 28.7569 31.9315C29.7089 30.7934 31.2664 31.4599 32.5131 31.2606C33.0712 31.1617 33.5896 30.9039 34.007 30.5176C34.4244 30.1313 34.7235 29.6327 34.8689 29.0805C34.9032 28.9705 34.9786 28.8782 35.079 28.8231C35.1795 28.768 35.2972 28.7543 35.4075 28.7849C35.5177 28.8156 35.6119 28.8882 35.6702 28.9874C35.7284 29.0867 35.7461 29.2048 35.7197 29.317C35.4825 30.1755 34.9623 30.927 34.2448 31.4474C33.5272 31.9679 32.6552 32.2264 31.7724 32.1802C31.2306 32.1268 30.6856 32.116 30.1422 32.1479C29.4977 32.2328 29.231 32.731 29.0023 33.286C28.602 34.3162 28.3963 35.4127 28.3958 36.5191C28.3897 37.6102 28.4658 38.7001 28.6235 39.7796C28.7336 40.8604 28.899 41.9347 29.1188 42.9983C29.3407 43.9288 29.8687 44.738 30.8914 44.8148C31.3274 44.8508 31.7607 44.7181 32.1033 44.4437C32.4458 44.1694 32.672 43.7738 32.7358 43.3375C32.9263 42.1996 31.9855 41.6002 31.4459 40.7504C30.7753 39.6943 31.0849 38.4828 31.4704 37.3845C31.6585 36.8485 32.5113 37.0793 32.3212 37.6209H32.3212Z" fill="white"/>
</g>
<g opacity="0.5">
<path opacity="0.5" d="M43.9605 29.0407C45.4397 30.3161 45.376 32.4696 44.5244 34.0839C44.0994 34.9283 43.4837 35.6604 42.727 36.2213C41.8863 36.7907 40.8636 37.0194 39.863 36.8618C39.0436 36.6574 38.2949 35.9249 37.7962 35.2709C37.2361 34.5426 36.8722 33.6808 36.7396 32.769C36.6549 32.3458 36.682 31.9075 36.8181 31.4982C36.9543 31.0888 37.1947 30.7227 37.5153 30.4364C38.219 29.8164 39.1339 29.5887 39.8937 29.0641C40.3582 28.7174 40.676 28.2069 40.7837 27.6345C40.8914 27.0621 40.7812 26.4698 40.4749 25.9756C40.2953 25.7547 40.0735 25.5723 39.8226 25.4394C39.5718 25.3065 39.297 25.2257 39.0146 25.2018C38.4468 25.0883 37.7889 24.9337 37.259 25.243C37.1583 25.2978 37.0403 25.311 36.9301 25.2798C36.8199 25.2487 36.726 25.1755 36.6682 25.0759C36.6105 24.9763 36.5934 24.8579 36.6205 24.7458C36.6476 24.6337 36.7169 24.5366 36.8137 24.4749C37.59 24.0218 38.4931 24.1858 39.3288 24.3604C39.7465 24.4158 40.146 24.5676 40.4961 24.804C40.8461 25.0404 41.1374 25.355 41.3472 25.7234C41.7328 26.5118 41.8018 27.4197 41.54 28.2581C41.4065 28.6491 41.1978 29.0098 40.9259 29.3195C40.654 29.6292 40.3242 29.8818 39.9554 30.0628C39.245 30.4496 38.3351 30.7003 37.8342 31.3837C37.2938 32.121 37.6707 33.2888 38.0478 34.0227C38.4387 34.8186 39.0623 35.4744 39.8345 35.9016C40.2856 36.1318 40.8761 35.991 41.3463 35.872C41.8419 35.7481 42.2955 35.4925 42.66 35.1319C44.0572 33.7782 45.0847 31.177 43.3367 29.6697C42.9045 29.297 43.531 28.6704 43.9605 29.0407L43.9605 29.0407Z" fill="white"/>
</g>
<g opacity="0.5">
<path opacity="0.5" d="M40.8389 37.4407C41.3744 38.743 40.077 40.0915 39.0655 40.7121C38.4503 41.0479 37.7441 41.1746 37.0518 41.0735C36.389 41.0217 35.6111 41.0211 35.0663 40.5954C34.9841 40.5117 34.938 40.3987 34.938 40.2809C34.938 40.1631 34.9841 40.0501 35.0663 39.9664C35.1504 39.8857 35.2621 39.8407 35.3782 39.8407C35.4943 39.8407 35.606 39.8857 35.6901 39.9664C35.8812 40.0596 36.0909 40.1076 36.3031 40.1067C36.5829 40.1433 36.8637 40.1714 37.1456 40.1911C37.6507 40.2705 38.1677 40.1839 38.6202 39.9441C39.0235 39.6819 39.3825 39.356 39.6832 38.979C39.8507 38.8131 39.9683 38.6028 40.0222 38.3725C40.0762 38.1421 40.0644 37.901 39.9882 37.6771C39.9578 37.5634 39.9731 37.4422 40.0307 37.3398C40.0884 37.2374 40.1838 37.162 40.2963 37.13C40.409 37.1017 40.5282 37.1181 40.6292 37.1759C40.7303 37.2338 40.8053 37.3285 40.8389 37.4407V37.4407Z" fill="white"/>
</g>
<g opacity="0.5">
<path opacity="0.5" d="M45.6446 23.4823C45.9877 23.8477 46.2456 24.2857 46.3994 24.7643C46.5533 25.2429 46.5992 25.7501 46.5339 26.2489C46.4429 27.3917 46.0704 28.4935 45.4502 29.4543C45.1424 29.933 44.3783 29.4876 44.6884 29.0054C45.2158 28.204 45.5439 27.2863 45.6447 26.3299C45.7172 25.5431 45.6232 24.6772 45.0207 24.1113C44.6044 23.7203 45.2294 23.0923 45.6446 23.4824V23.4823Z" fill="white"/>
</g>
<g opacity="0.5">
<path opacity="0.5" d="M43.4065 23.6199C44.6306 22.0532 45.9729 19.8427 44.8058 17.8682C44.365 17.1195 43.6527 16.5729 42.8194 16.3439C42.3698 16.2086 41.8876 16.2332 41.4538 16.4136C41.02 16.594 40.661 16.9193 40.4368 17.3349C39.5052 18.8291 39.535 20.8169 38.0291 21.9446C37.2232 22.4777 36.3067 22.8175 35.3502 22.9379C34.4092 23.1528 33.4255 23.0718 32.5317 22.7057C32.094 22.4841 31.7109 22.1667 31.4103 21.7768C31.1098 21.3869 30.8993 20.9343 30.7944 20.4519C30.5041 19.4007 30.3336 18.214 30.6793 17.1583C30.8564 16.6173 31.7087 16.849 31.53 17.3948C31.2063 18.3835 31.4038 19.5527 31.7383 20.5192C31.8974 21.0004 32.2036 21.4185 32.6128 21.7135C33.0221 22.0086 33.5134 22.1656 34.0166 22.1619C35.1004 22.1973 36.1756 21.9564 37.1425 21.4614C38.0622 20.964 38.4578 20.0532 38.7746 19.1001C39.2902 17.5486 39.94 15.5999 41.8219 15.3834C43.5354 15.1863 45.2049 16.4121 45.8357 17.9696C46.7567 20.2439 45.3908 22.5077 44.0304 24.2489C43.6793 24.6983 43.0589 24.065 43.4066 23.6199H43.4065Z" fill="white"/>
</g>
<g opacity="0.5">
<path opacity="0.5" d="M40.6655 14.7439C40.5799 14.0214 40.2549 13.349 39.7433 12.8358C39.2316 12.3225 38.5631 11.9983 37.8459 11.9156C37.7298 11.9129 37.6191 11.8652 37.537 11.7824C37.4548 11.6995 37.4075 11.588 37.4048 11.4709C37.4058 11.3532 37.4525 11.2407 37.5351 11.1575C37.6176 11.0743 37.7292 11.0271 37.8459 11.0261C38.801 11.0913 39.6993 11.5066 40.3716 12.1936C41.0299 12.891 41.4431 13.787 41.5478 14.7439C41.5472 14.8617 41.5005 14.9745 41.4179 15.0578C41.3353 15.141 41.2235 15.1881 41.1066 15.1887C40.9905 15.1859 40.88 15.1381 40.7978 15.0553C40.7157 14.9725 40.6683 14.861 40.6655 14.7439V14.7439Z" fill="white"/>
</g>
<g opacity="0.5">
<path opacity="0.5" d="M34.4514 13.9542C35.1945 13.2189 35.8907 12.3233 35.9832 11.2377C36.0272 10.7452 35.9186 10.2511 35.6723 9.82354C35.426 9.39595 35.0542 9.05593 34.6081 8.85037C33.6651 8.42736 32.6251 8.27305 31.6012 8.40421C30.7749 8.48077 29.8737 8.76211 29.4136 9.51169C28.8784 10.3834 29.0531 11.5487 29.0977 12.5191C29.1521 13.6996 29.1781 14.8813 29.1892 16.063C29.2116 18.4543 29.1856 20.8463 29.1745 23.2376C29.1682 24.5937 29.1349 25.9528 29.1602 27.3088C29.1825 28.5088 29.3678 29.7557 30.3431 30.5572C30.7834 30.919 30.1559 31.545 29.7192 31.1861C28.8224 30.4491 28.4451 29.3296 28.327 28.2023C28.2389 26.8122 28.2261 25.4183 28.2885 24.0267C28.3019 21.1756 28.3396 18.3231 28.3 15.4721C28.2809 14.0972 28.1821 12.7235 28.167 11.3495C28.1554 10.2947 28.3435 9.1824 29.1588 8.44332C29.9312 7.82174 30.8924 7.48731 31.8806 7.49628C33.02 7.40464 34.1624 7.63167 35.182 8.15239C35.7275 8.44859 36.1766 8.89732 36.4752 9.44464C36.7739 9.99196 36.9094 10.6146 36.8655 11.2377C36.7664 12.5686 35.9931 13.6749 35.0753 14.5832C34.6697 14.9845 34.0454 14.356 34.4514 13.9542V13.9542Z" fill="white"/>
</g>
<g opacity="0.5">
<path opacity="0.5" d="M36.9251 37.9908C36.1414 37.7469 35.4053 37.3687 34.749 36.8729C34.4535 36.6134 34.1981 36.3107 33.9915 35.975C33.746 35.6089 33.5009 35.2425 33.2561 34.8758C33.1971 34.774 33.1805 34.6527 33.2102 34.5385C33.2399 34.4244 33.3133 34.3269 33.4144 34.2673C33.5154 34.2078 33.6357 34.1912 33.7489 34.2211C33.8621 34.251 33.9589 34.325 34.0179 34.4269L34.6794 35.4156C34.8559 35.7096 35.074 35.9759 35.327 36.2061C35.8797 36.6202 36.4999 36.9339 37.1596 37.1331C37.2709 37.1668 37.365 37.2425 37.4224 37.3444C37.4798 37.4463 37.496 37.5665 37.4677 37.6802C37.4357 37.7933 37.3609 37.8892 37.2594 37.9473C37.1579 38.0054 37.0379 38.021 36.9251 37.9908L36.9251 37.9908Z" fill="white"/>
</g>
<g opacity="0.5">
<path opacity="0.5" d="M43.2611 21.0869C43.0853 21.1631 42.9161 21.2536 42.755 21.3575C42.6813 21.4155 42.6047 21.4695 42.5255 21.5194C42.6158 21.4742 42.5643 21.489 42.5308 21.5162C42.5135 21.5303 42.4964 21.5446 42.4794 21.5591C42.4419 21.5908 42.4052 21.6233 42.369 21.6566C42.2319 21.7845 42.1042 21.9224 41.9871 22.0691C41.9264 22.1441 42.0472 21.9858 41.9909 22.0643C41.9779 22.0825 41.9646 22.1003 41.9516 22.1186C41.9231 22.1586 41.8955 22.1993 41.8687 22.2406C41.8151 22.3231 41.7654 22.4081 41.7187 22.4948C41.659 22.5958 41.5622 22.6692 41.4493 22.699C41.3364 22.7289 41.2164 22.7128 41.1152 22.6543C41.016 22.5931 40.9441 22.4956 40.9146 22.3822C40.8851 22.2688 40.9003 22.1483 40.9569 22.0458C41.3703 21.279 42.024 20.6717 42.8158 20.3188C42.9198 20.2625 43.0407 20.2465 43.1557 20.274C43.2393 20.2972 43.3143 20.3449 43.3713 20.4109C43.4283 20.4769 43.4646 20.5584 43.4759 20.6452C43.4871 20.732 43.4727 20.8201 43.4345 20.8987C43.3963 20.9773 43.336 21.0427 43.2611 21.0869V21.0869Z" fill="#D8C9FE"/>
</g>
<g opacity="0.5">
<path opacity="0.5" d="M41.291 31.7312C40.9736 32.4323 40.4777 33.0363 39.8538 33.4816C39.8029 33.5114 39.7466 33.5307 39.6883 33.5384C39.6299 33.5461 39.5707 33.542 39.5139 33.5264C39.4302 33.5032 39.3552 33.4556 39.2982 33.3895C39.2413 33.3235 39.2049 33.242 39.1937 33.1553C39.1824 33.0685 39.1968 32.9803 39.235 32.9017C39.2732 32.8232 39.3336 32.7577 39.4085 32.7136C39.4258 32.7009 39.4431 32.6882 39.4603 32.6753C39.5157 32.6337 39.4673 32.6658 39.4425 32.6899C39.4728 32.6604 39.51 32.6358 39.5424 32.6084C39.6047 32.5558 39.6654 32.5011 39.7244 32.4445C39.8453 32.3284 39.9588 32.2045 40.064 32.0737C40.0748 32.0603 40.0854 32.0467 40.0961 32.0333C40.1525 31.9621 40.0507 32.0953 40.0819 32.0514C40.1069 32.0164 40.1328 31.982 40.1575 31.9467C40.2042 31.8795 40.2488 31.811 40.2913 31.741C40.3805 31.5935 40.4599 31.4403 40.5292 31.2823C40.5873 31.1821 40.6819 31.1088 40.7929 31.0779C40.9076 31.0471 41.0298 31.0632 41.1328 31.1227C41.2319 31.1816 41.3045 31.2769 41.3355 31.3885C41.3604 31.5045 41.3447 31.6256 41.291 31.7312V31.7312Z" fill="#D8C9FE"/>
</g>
<path d="M28.3018 21.8593C28.2958 20.8863 28.2898 19.9134 28.2838 18.9404L28.2529 13.9305C28.2738 14.4443 28.293 14.9581 28.3001 15.4721C28.3297 17.6007 28.3161 19.7302 28.3018 21.8593Z" fill="white"/>
<path d="M28.8921 30.1677C29.0993 30.5583 29.3802 30.9042 29.719 31.1861C29.7838 31.2401 29.8621 31.2749 29.9452 31.2868C29.8966 31.2945 29.8476 31.3011 29.7999 31.3115C29.388 31.0332 29.071 30.6339 28.8921 30.1677V30.1677Z" fill="white"/>
<path d="M28.6089 32.1333C28.1157 32.9176 27.7995 33.8015 27.6826 34.7226L27.6801 34.7084C27.5767 34.3037 27.578 33.879 27.6839 33.4749C27.7899 33.0709 27.9969 32.701 28.2852 32.4006C28.3848 32.3017 28.4931 32.2123 28.6089 32.1333V32.1333Z" fill="white"/>
<path d="M42.7266 36.2213C43.4834 35.6604 44.099 34.9283 44.5241 34.0838C45.0588 33.1053 45.2388 31.9695 45.0332 30.8717C45.2312 31.3614 45.2723 31.9012 45.1507 32.4156C44.8169 34.08 43.9632 35.7339 42.4331 36.4017C42.534 36.3468 42.632 36.2866 42.7266 36.2213Z" fill="white"/>
<path d="M28.0645 42.0729C28.0806 42.1794 28.0967 42.2859 28.1128 42.3924C28.1453 42.606 28.184 42.8224 28.2299 43.0374C28.1562 42.7194 28.101 42.3973 28.0645 42.0729V42.0729Z" fill="white"/>
<path d="M31.9334 45.5239C32.4923 45.3423 32.9641 44.9573 33.2566 44.4439C33.3789 44.3154 33.4889 44.1755 33.5852 44.0262L33.8792 43.9684C34.3601 43.8738 34.8411 43.7792 35.322 43.6846C36.3583 43.4807 37.0054 42.3868 37.0493 41.3973C37.0512 41.3546 37.0433 41.3138 37.0424 41.2715C38.9961 41.6084 41.0001 40.3133 41.0104 38.1658C41.0122 37.7219 40.8804 37.2879 40.6323 36.9212C40.3743 36.9395 40.115 36.9195 39.8628 36.8618C39.0434 36.6574 38.2947 35.9249 37.796 35.2709C37.706 35.1529 37.6227 35.0303 37.5426 34.9058L37.5409 34.9055L37.4103 34.89C37.4527 34.8901 37.4951 34.8925 37.5373 34.8972C37.1217 34.2544 36.8495 33.5282 36.7394 32.769C36.6547 32.3457 36.6817 31.9075 36.8179 31.4981C36.954 31.0887 37.1945 30.7226 37.5151 30.4364C38.2188 29.8164 39.1337 29.5887 39.8935 29.0641C40.358 28.7174 40.6757 28.2069 40.7834 27.6345C40.8912 27.0621 40.7809 26.4697 40.4747 25.9756C40.2951 25.7547 40.0732 25.5723 39.8224 25.4394C39.5716 25.3065 39.2968 25.2256 39.0144 25.2017C38.4466 25.0883 37.7886 24.9337 37.2588 25.243C37.158 25.2978 37.0401 25.311 36.9299 25.2798C36.8197 25.2486 36.7258 25.1755 36.668 25.0759C36.6102 24.9762 36.5931 24.8579 36.6203 24.7458C36.6474 24.6336 36.7167 24.5365 36.8135 24.4749C37.5898 24.0217 38.4928 24.1858 39.3285 24.3604C39.7463 24.4158 40.1457 24.5676 40.4958 24.804C40.8459 25.0404 41.1372 25.355 41.347 25.7234C41.7326 26.5117 41.8016 27.4197 41.5397 28.2581C41.4063 28.6491 41.1976 29.0098 40.9257 29.3195C40.6538 29.6292 40.324 29.8817 39.9552 30.0627C39.2448 30.4496 38.3349 30.7003 37.834 31.3837C37.2935 32.121 37.6705 33.2888 38.0476 34.0227C38.4385 34.8185 39.0621 35.4743 39.8343 35.9016C40.2854 36.1318 40.8759 35.9909 41.346 35.872C41.8417 35.748 42.2953 35.4925 42.6597 35.1319C44.057 33.7781 45.0845 31.1769 43.3365 29.6697C42.9043 29.297 43.5308 28.6704 43.9603 29.0407C44.4488 29.4616 44.8021 30.0195 44.9753 30.6434C45.0052 30.606 45.0356 30.569 45.0646 30.5306C45.6817 29.7366 46.1297 28.8227 46.3805 27.8462C46.5195 27.2685 46.5733 26.6733 46.5403 26.0798C46.538 26.1362 46.5383 26.193 46.534 26.2489C46.4431 27.3916 46.0706 28.4934 45.4503 29.4543C45.1425 29.9329 44.3784 29.4875 44.6885 29.0053C45.216 28.204 45.544 27.2862 45.6449 26.3299C45.7173 25.543 45.6233 24.6772 45.0209 24.1112C44.6752 23.7866 45.0474 23.3005 45.4213 23.3675C45.3912 23.3378 45.3632 23.3054 45.3321 23.2769C45.4086 23.1577 45.4785 23.0344 45.5414 22.9074C46.0713 21.7958 46.275 20.5546 46.1287 19.3302C46.2062 21.1292 45.1182 22.8562 44.0302 24.2487C43.6792 24.6981 43.0587 24.0648 43.4064 23.6198C44.6305 22.053 45.9727 19.8426 44.8057 17.868C44.3648 17.1193 43.6525 16.5727 42.8193 16.3437C42.3696 16.2084 41.8875 16.233 41.4537 16.4134C41.0199 16.5938 40.6608 16.9191 40.4366 17.3348C39.505 18.8289 39.5349 20.8167 38.029 21.9444C37.223 22.4775 36.3065 22.8173 35.35 22.9377C34.4091 23.1526 33.4254 23.0716 32.5315 22.7055C32.0938 22.4839 31.7107 22.1665 31.4102 21.7766C31.1096 21.3867 30.8992 20.9341 30.7942 20.4518C30.5039 19.4006 30.3334 18.2138 30.6791 17.1581C30.8563 16.6171 31.7086 16.8488 31.5299 17.3946C31.2061 18.3834 31.4036 19.5525 31.7381 20.519C31.8972 21.0002 32.2034 21.4183 32.6126 21.7134C33.0219 22.0084 33.5133 22.1654 34.0164 22.1617C35.1002 22.1971 36.1754 21.9562 37.1424 21.4613C38.0621 20.9638 38.4576 20.053 38.7744 19.0999C39.29 17.5484 39.9399 15.5997 41.8218 15.3832C41.8383 15.3813 41.8547 15.3817 41.8712 15.3801C41.8228 15.2863 41.7727 15.1934 41.7264 15.0986C41.7051 13.3869 41.0038 11.6182 39.2376 11.0731C38.5355 10.8995 37.8054 10.8737 37.0929 10.9973C37.0877 10.9732 37.086 10.9488 37.0803 10.9247C37.0119 10.6369 36.9119 10.3576 36.7823 10.092C36.7343 9.89488 36.6486 9.70907 36.5301 9.54496C36.524 9.53697 36.5174 9.52983 36.5113 9.52189C36.7876 10.0486 36.9104 10.6435 36.8655 11.2376C36.7664 12.5685 35.9931 13.6748 35.0752 14.5831C34.6697 14.9845 34.0453 14.356 34.4514 13.9542C35.1945 13.2188 35.8907 12.3233 35.9832 11.2376C36.0272 10.7452 35.9186 10.2511 35.6723 9.8235C35.426 9.39591 35.0542 9.0559 34.6081 8.85034C33.6651 8.42732 32.6251 8.27301 31.6012 8.40416C30.7749 8.48073 29.8737 8.76208 29.4135 9.51165C28.8784 10.3833 29.053 11.5486 29.0977 12.5191C29.1521 13.6996 29.178 14.8813 29.1891 16.0629C29.2116 18.4543 29.1855 20.8462 29.1744 23.2376C29.1681 24.5937 29.1349 25.9528 29.1601 27.3087C29.1825 28.5088 29.3678 29.7556 30.3431 30.5571C30.3996 30.6054 30.4417 30.6685 30.4649 30.7394C30.488 30.8103 30.4913 30.8863 30.4742 30.959C30.4572 31.0317 30.4205 31.0982 30.3683 31.1511C30.316 31.2041 30.2503 31.2414 30.1783 31.259C30.9401 31.1976 31.78 31.3777 32.5132 31.2605C33.0712 31.1616 33.5896 30.9038 34.007 30.5175C34.4244 30.1312 34.7235 29.6326 34.8689 29.0805C34.9033 28.9705 34.9786 28.8782 35.079 28.8231C35.1795 28.7679 35.2972 28.7543 35.4075 28.7849C35.5177 28.8156 35.6119 28.8881 35.6701 28.9874C35.7284 29.0866 35.7462 29.2048 35.7197 29.3169C35.4826 30.1755 34.9623 30.9269 34.2448 31.4474C33.5272 31.9679 32.6552 32.2263 31.7724 32.1801C31.2307 32.1267 30.6856 32.1159 30.1422 32.1478C29.4977 32.2327 29.231 32.7309 29.0023 33.2859C28.602 34.3161 28.3963 35.4127 28.3959 36.5191C28.3897 37.6101 28.4658 38.7001 28.6235 39.7795C28.7336 40.8603 28.899 41.9346 29.1188 42.9983C29.3407 43.9288 29.8687 44.738 30.8914 44.8148C31.3274 44.8507 31.7607 44.7181 32.1033 44.4437C32.4459 44.1693 32.672 43.7738 32.7359 43.3374C32.9263 42.1995 31.9855 41.6002 31.4459 40.7504C30.7754 39.6942 31.0849 38.4828 31.4704 37.3844C31.6586 36.8485 32.5113 37.0793 32.3212 37.6209C32.0772 38.1875 31.9422 38.7957 31.9235 39.4131C31.9514 40.0584 32.3309 40.4865 32.7281 40.9498C33.3826 41.7134 33.7874 42.5435 33.5866 43.5739C33.501 44.015 33.3037 44.4262 33.0141 44.7679C32.7244 45.1095 32.3522 45.3699 31.9334 45.5239ZM37.4049 11.4708C37.4059 11.3532 37.4527 11.2406 37.5352 11.1574C37.6177 11.0742 37.7294 11.0271 37.8461 11.0261C38.8011 11.0913 39.6995 11.5066 40.3718 12.1935C41.0301 12.891 41.4432 13.7869 41.5479 14.7439C41.5473 14.8617 41.5007 14.9745 41.4181 15.0577C41.3355 15.141 41.2236 15.1881 41.1068 15.1887C40.9907 15.1858 40.8801 15.1381 40.798 15.0553C40.7159 14.9725 40.6685 14.861 40.6656 14.7439C40.58 14.0213 40.2551 13.349 39.7434 12.8357C39.2317 12.3225 38.5632 11.9983 37.8461 11.9156C37.7299 11.9129 37.6193 11.8651 37.5371 11.7823C37.455 11.6995 37.4076 11.5879 37.4049 11.4708ZM34.4405 17.1999C34.4407 17.082 34.4872 16.969 34.5699 16.8856C34.6526 16.8022 34.7647 16.7553 34.8816 16.7551C34.9975 16.7585 35.1078 16.8064 35.1898 16.8891C35.2718 16.9718 35.3194 17.083 35.3228 17.1999C35.3284 17.2463 35.3345 17.2927 35.3401 17.3391L35.3409 17.3452L35.3484 17.3997C35.3595 17.4791 35.3712 17.5584 35.3835 17.6377C35.41 17.8094 35.4392 17.9806 35.471 18.1514C35.5348 18.493 35.609 18.8323 35.6937 19.1694C35.7248 19.2831 35.7098 19.4047 35.652 19.5073C35.5942 19.6099 35.4984 19.6851 35.3855 19.7165C35.2727 19.7478 35.1522 19.7327 35.0504 19.6745C34.9486 19.6162 34.874 19.5196 34.8429 19.4058C34.6633 18.6797 34.5289 17.9429 34.4405 17.1999V17.1999ZM30.9283 12.7198C30.9942 12.5256 31.1026 12.3488 31.2455 12.2025C31.3923 12.0597 31.5664 11.9485 31.7571 11.8755C31.933 11.8047 32.1218 11.7724 32.311 11.7807C32.5002 11.789 32.6855 11.8377 32.8546 11.9237C32.9538 11.9824 33.0265 12.0777 33.0574 12.1894C33.0879 12.3051 33.0719 12.4283 33.0129 12.5321C32.9545 12.632 32.8601 12.7053 32.7493 12.7365C32.6382 12.7614 32.5221 12.7468 32.4205 12.6952L32.4699 12.7163C32.4228 12.6991 32.3743 12.686 32.325 12.6771C32.2833 12.6743 32.2415 12.6742 32.1998 12.6767C32.098 12.6897 32.0013 12.7295 31.9197 12.7922C31.8877 12.8204 31.8577 12.8506 31.8296 12.8827C31.8 12.9249 31.7741 12.9696 31.7523 13.0163L31.77 12.974C31.736 13.0768 31.6675 13.1646 31.5763 13.222C31.5006 13.2667 31.4133 13.2875 31.3258 13.282C31.2382 13.2764 31.1543 13.2446 31.0847 13.1907C31.0151 13.1368 30.9631 13.0632 30.9352 12.9793C30.9074 12.8954 30.9049 12.805 30.9283 12.7198L30.9283 12.7198ZM31.7201 25.6974C31.4917 26.6152 31.4228 27.566 31.5165 28.5075C31.5161 28.6254 31.4695 28.7383 31.3868 28.8216C31.3042 28.9049 31.1922 28.9519 31.0753 28.9523C30.9593 28.9492 30.8488 28.9014 30.7667 28.8187C30.6846 28.7359 30.6372 28.6245 30.6342 28.5075C30.5396 27.4859 30.6192 26.4555 30.8693 25.4609C30.9004 25.3472 30.9751 25.2506 31.0768 25.1923C31.1786 25.134 31.2991 25.1189 31.412 25.1503C31.5248 25.1816 31.6206 25.2569 31.6784 25.3595C31.7362 25.4621 31.7512 25.5836 31.7201 25.6974V25.6974ZM41.4557 19.8596C41.4556 19.8389 41.459 19.8184 41.4656 19.7987C41.4603 19.8194 41.4573 19.8406 41.4568 19.862L41.4557 19.8596ZM41.4445 19.8368C41.3456 19.6362 41.3987 19.7155 41.4445 19.8368V19.8368ZM35.0664 40.5953C34.9842 40.5116 34.9381 40.3986 34.9381 40.2808C34.9381 40.163 34.9842 40.05 35.0664 39.9663C35.1505 39.8856 35.2622 39.8406 35.3783 39.8406C35.4944 39.8406 35.6061 39.8856 35.6902 39.9663C35.8813 40.0595 36.091 40.1075 36.3033 40.1067C36.583 40.1432 36.8638 40.1713 37.1457 40.191C37.6508 40.2704 38.1678 40.1838 38.6203 39.944C39.0237 39.6818 39.3826 39.3559 39.6833 38.9789C39.8508 38.813 39.9684 38.6027 40.0223 38.3724C40.0763 38.142 40.0645 37.9009 39.9883 37.677C39.9579 37.5633 39.9732 37.4421 40.0309 37.3397C40.0885 37.2373 40.1839 37.1619 40.2964 37.13C40.4091 37.1016 40.5283 37.118 40.6293 37.1758C40.7304 37.2337 40.8054 37.3285 40.839 37.4406C41.3745 38.7429 40.0771 40.0914 39.0656 40.712C38.4504 41.0478 37.7442 41.1745 37.0519 41.0734C36.3892 41.0216 35.6112 41.021 35.0664 40.5953ZM34.6639 42.8448C34.7098 42.8319 34.7553 42.8177 34.8001 42.8014C34.8124 42.797 34.826 42.7917 34.8393 42.7864L34.849 42.782C34.9338 42.7418 35.0158 42.6956 35.0942 42.6439C35.1301 42.6204 35.1645 42.5951 35.1996 42.5704L35.2004 42.5699C35.2143 42.5584 35.2282 42.5471 35.242 42.5355C35.3153 42.4735 35.3853 42.4077 35.4525 42.3391C35.5176 42.2728 35.5801 42.204 35.6406 42.1333C35.6725 42.096 35.7038 42.0583 35.7346 42.0201C35.7566 41.9928 35.85 41.8589 35.7734 41.9727C35.8824 41.8106 36.0045 41.6563 36.1155 41.4952C36.1447 41.4447 36.1835 41.4006 36.2297 41.3653C36.2758 41.33 36.3284 41.3042 36.3845 41.2894C36.4405 41.2746 36.4989 41.271 36.5563 41.279C36.6137 41.2869 36.669 41.3061 36.719 41.3356C36.7691 41.3651 36.8128 41.4042 36.8479 41.4508C36.8829 41.4973 36.9085 41.5503 36.9232 41.6068C36.9379 41.6633 36.9414 41.7222 36.9335 41.7801C36.9257 41.8379 36.9065 41.8937 36.8773 41.9441C36.3712 42.6792 35.7953 43.4502 34.8984 43.7025C34.7856 43.7339 34.6651 43.7187 34.5633 43.6605C34.4615 43.6022 34.3869 43.5056 34.3558 43.3919C34.3247 43.2781 34.3397 43.1566 34.3974 43.054C34.4552 42.9514 34.5511 42.8761 34.6639 42.8448V42.8448ZM34.0711 42.5602C34.0784 42.5012 34.0884 42.4425 34.0935 42.3832C34.1108 42.1896 34.1043 42.3008 34.0741 42.7169L34.0711 42.7222V42.5602ZM33.2559 34.8759C33.1968 34.774 33.1803 34.6527 33.21 34.5386C33.2397 34.4245 33.3131 34.3269 33.4141 34.2674C33.5152 34.2078 33.6355 34.1912 33.7487 34.2211C33.8619 34.251 33.9587 34.3251 34.0177 34.4269C34.2382 34.7565 34.4587 35.0861 34.6793 35.4156C34.8557 35.7096 35.0738 35.9759 35.3268 36.2062C35.8795 36.6202 36.4997 36.9339 37.1594 37.1331C37.2707 37.1668 37.3648 37.2425 37.4222 37.3444C37.4796 37.4463 37.4958 37.5666 37.4675 37.6802C37.4355 37.7933 37.3607 37.8893 37.2592 37.9474C37.1577 38.0055 37.0376 38.0211 36.9249 37.9908C36.1412 37.7469 35.4051 37.3687 34.7487 36.8729C34.4532 36.6134 34.1979 36.3107 33.9913 35.975C33.7458 35.6089 33.5006 35.2425 33.2559 34.8758V34.8759Z" fill="white"/>
<path d="M32.3025 17.3416C32.3038 17.3347 32.3035 17.3276 32.3018 17.3208C32.3001 17.314 32.2969 17.3077 32.2925 17.3023C32.2248 17.1655 32.0352 16.9516 31.7494 17.232C31.7375 17.2449 31.7277 17.2596 31.7205 17.2756C31.6842 17.6031 31.653 17.9344 31.6375 18.2698C31.5879 18.9364 31.6545 19.6065 31.8345 20.2498C32.033 20.9257 32.4556 21.5124 33.0316 21.9119C33.6084 22.2937 34.2852 22.4928 34.9751 22.4837C35.6599 22.4871 36.3318 22.2957 36.9136 21.9313C38.0393 21.1855 38.8316 20.0259 39.1218 18.6998C39.2186 18.0931 39.3674 17.4961 39.5665 16.9154C39.6825 16.6605 39.8473 16.4314 40.0516 16.241C40.2558 16.0507 40.4953 15.903 40.7564 15.8063C41.299 15.5919 41.8842 15.51 42.4642 15.5673C43.0442 15.6246 43.6026 15.8196 44.0935 16.1362C44.5838 16.465 45.0019 16.8918 45.3219 17.3902C45.6419 17.8885 45.857 18.4478 45.954 19.0334C46.1519 20.2263 45.9354 21.4515 45.3409 22.502L45.2276 22.7022L45.1917 22.7606L45.1199 22.8775L44.9675 23.1056C44.9675 23.1056 44.8586 23.2902 44.6937 23.5313C44.5353 23.7938 44.327 24.022 44.0808 24.2029C43.9497 24.2903 43.7926 24.3291 43.6363 24.3127C43.5429 24.2993 43.5005 24.3022 43.5083 24.343C43.5287 24.3851 43.5581 24.4221 43.5942 24.4516C43.6303 24.4811 43.6723 24.5023 43.7174 24.5138C43.8858 24.5645 44.0662 24.557 44.23 24.4925C44.4972 24.393 44.7365 24.2294 44.9271 24.0159C45.1264 23.8148 45.3138 23.6021 45.4884 23.3788C45.5432 23.297 45.5997 23.2165 45.6499 23.1317L45.7273 23.0059L45.7465 22.9744L45.8419 22.8037C45.9194 22.6612 45.9944 22.5169 46.06 22.3681C46.6266 21.1735 46.7613 19.8169 46.4409 18.5327C46.2841 17.887 45.9961 17.2811 45.5951 16.7533C45.1942 16.2256 44.6889 15.7874 44.1114 15.4666C43.5248 15.1479 42.8716 14.974 42.2054 14.9591C41.5392 14.9441 40.879 15.0887 40.2789 15.3808C39.9714 15.5367 39.6942 15.7472 39.4607 16.0021C39.2313 16.2651 39.0551 16.5707 38.9418 16.9017C38.7175 17.5399 38.6677 18.1728 38.5076 18.7357C38.2218 19.8804 37.5049 20.8678 36.5091 21.4886C36.0188 21.7706 35.4608 21.9108 34.8966 21.8939C34.3323 21.8769 33.7837 21.7033 33.3109 21.3923C32.8616 21.0602 32.5356 20.5859 32.3848 20.0451C32.2322 19.4762 32.1771 18.8851 32.222 18.2974C32.2368 17.9812 32.2667 17.6625 32.3025 17.3416Z" fill="#2C2C2E"/>
<path d="M43.2224 20.492C43.228 20.4912 43.23 20.491 43.2361 20.476C43.279 20.3888 43.2975 20.2915 43.2896 20.1946C43.2817 20.0976 43.2477 20.0046 43.1913 19.9257C43.1844 19.9169 43.1758 19.9096 43.1661 19.9043C43.0156 19.9176 42.8666 19.9449 42.721 19.9856C42.4142 20.0684 42.1229 20.2012 41.8586 20.3788C41.5975 20.5532 41.3635 20.7657 41.1643 21.0094C41.0743 21.1203 40.9923 21.2375 40.9188 21.3601C40.883 21.4409 40.8531 21.5242 40.8292 21.6093C40.7811 21.7685 40.7561 21.9338 40.7549 22.1002C40.7618 22.6234 40.9368 22.4216 41.0683 22.1828C41.0705 22.1983 41.1411 22.0469 41.2323 21.9073C41.2776 21.8373 41.3299 21.771 41.3649 21.72L41.433 21.6402C41.4923 21.5429 41.559 21.4504 41.6324 21.3634C41.7931 21.1688 41.982 20.9997 42.1927 20.8618C42.4028 20.7226 42.6339 20.6187 42.877 20.5542C42.99 20.5228 43.1056 20.502 43.2224 20.492V20.492Z" fill="#2C2C2E"/>
<path d="M45.8072 22.9122C45.803 22.9061 45.7976 22.901 45.7913 22.8971C45.785 22.8932 45.7781 22.8906 45.7708 22.8895C45.6167 22.8295 45.3469 22.833 45.3359 23.2253C45.336 23.2419 45.3389 23.2584 45.3445 23.2741C45.7981 23.8644 46.1191 24.547 46.2854 25.2746C46.4517 26.0023 46.4592 26.7577 46.3075 27.4886C46.2731 27.6572 46.2269 27.8232 46.1767 27.9878C46.1767 27.9878 46.1288 28.1951 46.0411 28.4721C45.9405 28.7789 45.8203 29.0789 45.6812 29.37C45.4404 29.8336 45.3652 29.9884 45.4494 29.9857C45.6556 29.8808 45.8321 29.725 45.9626 29.533C46.1314 29.3278 46.2789 29.1057 46.4027 28.8701C46.5381 28.6183 46.656 28.3573 46.7555 28.089C46.8037 27.932 46.8443 27.7725 46.8781 27.6116C47.0479 26.7968 47.0402 25.9546 46.8552 25.1431C46.6703 24.3317 46.3127 23.5705 45.8072 22.9122H45.8072Z" fill="#2C2C2E"/>
<path d="M44.0059 28.7558C43.9999 28.7512 43.9929 28.7478 43.9855 28.7458C43.9781 28.7439 43.9705 28.7434 43.9629 28.7445C43.7886 28.7289 43.5462 28.8245 43.6478 29.1962C43.6523 29.2115 43.6595 29.2259 43.6689 29.2387C43.909 29.4092 44.1205 29.6173 44.2953 29.8552C44.6374 30.3235 44.8569 30.8713 44.9334 31.4478C45.0074 32.0298 44.9499 32.6211 44.7653 33.1776C44.3813 34.3146 43.6425 35.2957 42.6594 35.974C42.185 36.3084 41.6371 36.5216 41.0629 36.5955C40.4981 36.655 39.9292 36.5304 39.4398 36.2399C38.4404 35.6609 37.7331 34.5906 37.2666 33.4929C37.0257 32.9675 36.9266 32.3873 36.9794 31.8108C37.0275 31.538 37.1298 31.2778 37.2803 31.0459C37.4308 30.814 37.6263 30.6152 37.855 30.4615C38.3589 30.1178 38.8893 29.8153 39.4412 29.5572C40.0449 29.2636 40.5758 28.8377 40.9951 28.3105C41.2089 28.0166 41.3465 27.6735 41.3953 27.3124C41.4382 26.9463 41.3832 26.5753 41.2358 26.2379C40.9369 25.6004 40.4245 25.0897 39.7888 24.7958C39.7509 24.7757 39.7118 24.7579 39.6719 24.7423L39.5845 24.706L39.5482 24.691C39.524 24.6807 39.4993 24.6716 39.4742 24.6639L39.3242 24.6146C39.2237 24.5845 39.1218 24.5596 39.0188 24.54C38.8286 24.5153 38.6364 24.5101 38.4452 24.5246C38.0815 24.5463 37.7291 24.6603 37.4208 24.856C37.2527 24.9543 37.1137 25.0961 37.0181 25.2667C36.9704 25.363 36.9789 25.401 37.0182 25.3985C37.0995 25.3954 37.2981 25.2314 37.5813 25.1403C37.7984 25.0697 38.0246 25.0319 38.2526 25.0282C38.4977 25.0284 38.7415 25.0631 38.9771 25.1313C39.0592 25.149 39.1403 25.1715 39.2198 25.1988C39.2593 25.2129 39.3 25.2227 39.3386 25.2399L39.5204 25.318C39.6454 25.3776 39.7657 25.4467 39.8802 25.5247C40.3408 25.8132 40.6716 26.2713 40.8024 26.8018C40.8484 27.0546 40.8269 27.3152 40.7401 27.5568C40.642 27.8066 40.4946 28.0336 40.3068 28.2242C39.8826 28.6251 39.3956 28.9527 38.8656 29.1937C38.2821 29.4584 37.736 29.7998 37.2416 30.2092C36.978 30.4365 36.7646 30.717 36.6153 31.0328C36.466 31.3485 36.3841 31.6923 36.375 32.0419C36.3811 32.7075 36.5368 33.363 36.8305 33.9592C37.0939 34.546 37.4304 35.0967 37.8317 35.598C38.238 36.118 38.7496 36.5447 39.3324 36.8498C39.938 37.1572 40.624 37.2652 41.2937 37.1585C41.9444 37.0441 42.5603 36.7804 43.0938 36.3879C44.1524 35.6259 44.9408 34.5416 45.3429 33.2944C45.551 32.661 45.607 31.9868 45.5062 31.3273C45.4054 30.6677 45.1508 30.0418 44.7633 29.5008C44.5517 29.2135 44.2961 28.962 44.0059 28.7558V28.7558Z" fill="#2C2C2E"/>
<path d="M41.7288 31.5621C41.7298 31.5559 41.7302 31.5537 41.7178 31.5431C41.6433 31.4827 41.5551 31.442 41.4611 31.4245C41.3671 31.4071 41.2702 31.4135 41.1793 31.4431C41.1699 31.4453 41.161 31.4492 41.153 31.4545C41.1353 31.5568 41.1096 31.6574 41.076 31.7556C41.0064 31.9664 40.907 32.166 40.7811 32.3484C40.656 32.5307 40.5076 32.6957 40.3398 32.8391C40.2638 32.9034 40.1838 32.963 40.1005 33.0174C40.1005 33.0174 40.0453 33.0741 39.9644 33.1479C39.8844 33.2231 39.7767 33.3137 39.6835 33.3949C39.3474 33.6312 39.509 33.7213 39.8017 33.6986C39.9108 33.6894 40.018 33.6649 40.1204 33.6258C40.2317 33.5879 40.3405 33.5432 40.4462 33.4918C40.5478 33.4246 40.6448 33.3507 40.7366 33.2704C40.9405 33.0951 41.1204 32.8932 41.2716 32.6701C41.4252 32.4447 41.5467 32.1986 41.6324 31.9391C41.674 31.8161 41.7062 31.6901 41.7288 31.5621Z" fill="#2C2C2E"/>
<path d="M41.2597 37.4339C41.2584 37.4264 41.2556 37.4192 41.2515 37.4129C41.2474 37.4065 41.242 37.401 41.2357 37.3968C41.1118 37.271 40.863 37.1877 40.706 37.5359C40.6991 37.5506 40.6947 37.5664 40.6929 37.5826C40.7662 37.8678 40.7923 38.1632 40.7704 38.457C40.7446 38.8467 40.6336 39.2258 40.4452 39.5671C40.2568 39.9084 39.9958 40.2033 39.6809 40.4308C39.3616 40.6585 38.9989 40.8168 38.6157 40.8955C38.2325 40.9743 37.8372 40.9719 37.455 40.8885C37.2882 40.8576 37.1213 40.821 36.9549 40.7739C36.9549 40.7739 36.7458 40.7328 36.4598 40.6614L35.5052 40.4102C35.004 40.2823 34.8753 40.1832 34.8716 40.27C34.8684 40.3551 35.1011 40.5737 35.4032 40.7205C35.6284 40.8446 35.8597 40.9569 36.0963 41.0571C36.4689 41.227 36.8777 41.3617 36.8777 41.3617C37.0339 41.404 37.1939 41.4382 37.3553 41.468C37.8124 41.554 38.2812 41.5556 38.7388 41.4727C39.2024 41.3806 39.6405 41.1881 40.023 40.9084C40.407 40.6304 40.7253 40.2705 40.9554 39.8542C41.1855 39.4379 41.3216 38.9755 41.354 38.5001C41.3808 38.1419 41.349 37.7817 41.2597 37.4339V37.4339Z" fill="#2C2C2E"/>
<path d="M36.9226 38.5856C36.9281 38.5892 36.9343 38.5914 36.9407 38.5921C36.9472 38.5929 36.9537 38.5921 36.9598 38.5899C37.089 38.5735 37.3916 38.5146 37.2469 38.1195C37.2388 38.1028 37.228 38.0874 37.2151 38.074C36.9142 37.9088 36.5982 37.7733 36.2714 37.6695C35.6543 37.5254 35.0843 37.2238 34.6161 36.7937C34.502 36.6733 34.3972 36.5443 34.3026 36.4079C34.3026 36.4079 34.1701 36.2485 34.0096 36.0071C33.8486 35.7664 33.6653 35.4403 33.5121 35.166C33.0317 34.2149 33.0484 34.6503 33.2184 35.3042C33.2851 35.5583 33.3713 35.8067 33.4762 36.0474C33.5874 36.3133 33.7203 36.5695 33.8735 36.8133C33.9727 36.9504 34.0809 37.0807 34.1973 37.2032C34.4575 37.4736 34.7641 37.6942 35.1024 37.8543C35.4214 37.9978 35.7484 38.1224 36.0817 38.2276C36.3727 38.3196 36.6543 38.4394 36.9226 38.5856V38.5856Z" fill="#2C2C2E"/>
<path d="M32.6833 37.8804C32.6866 37.8744 32.6886 37.8677 32.6892 37.8608C32.6897 37.8539 32.6888 37.847 32.6864 37.8405C32.667 37.6915 32.5616 37.4223 32.1975 37.5919C32.1818 37.6002 32.1677 37.6111 32.1557 37.6241C32.0052 37.9302 31.8784 38.2475 31.7765 38.5733C31.6482 38.9599 31.6047 39.3699 31.6491 39.7751C31.7074 40.2018 31.9054 40.5966 32.2117 40.8967C32.4965 41.1858 32.8062 41.3889 33.0597 41.6118C33.3057 41.8075 33.4943 42.067 33.6053 42.3624C33.7053 42.6654 33.7359 42.9873 33.695 43.3039C33.654 43.6206 33.5425 43.9238 33.3688 44.1908C32.989 44.7333 32.4281 45.1197 31.7888 45.2794C31.1471 45.4653 30.4649 45.4541 29.8295 45.2472C29.5265 45.1578 29.252 44.9899 29.0333 44.7603C28.8146 44.5307 28.6594 44.2473 28.5831 43.9384C28.5031 43.5974 28.4454 43.2514 28.4105 42.9027L28.2821 41.8241C28.203 41.1043 28.1368 40.3832 28.0834 39.6609C27.9773 38.2164 27.9227 36.7693 27.9196 35.3196C27.8823 34.6232 27.9558 33.9251 28.1374 33.2521C28.2222 32.9441 28.3759 32.6599 28.5868 32.4214C28.7977 32.1828 29.0601 31.9962 29.3538 31.876C29.9442 31.6769 30.6614 31.8242 31.4183 31.813C32.1942 31.8305 32.9614 31.6455 33.6455 31.2761L33.772 31.1966C33.8085 31.1756 33.8735 31.1259 33.8627 31.1343L33.8952 31.1105L33.9602 31.0626L34.083 30.959C34.1633 30.8884 34.239 30.8127 34.3097 30.7323C34.4321 30.5799 34.5351 30.4127 34.6164 30.2346C34.7768 29.9035 34.8485 29.5357 34.8241 29.168C34.8183 28.9732 34.764 28.7829 34.6662 28.6147C34.6084 28.5248 34.5714 28.5127 34.5537 28.5482C34.516 28.6205 34.5531 28.8778 34.5005 29.1733C34.457 29.3984 34.3813 29.616 34.2757 29.8192C34.1596 30.0327 34.0094 30.2255 33.8311 30.3898C33.7736 30.4491 33.713 30.5054 33.6497 30.5583C33.6189 30.5856 33.5865 30.6109 33.5527 30.6343L33.5279 30.6524L33.5188 30.6592C33.5033 30.6712 33.4873 30.6825 33.4707 30.6929L33.3695 30.757C33.2306 30.8387 33.0856 30.9092 32.9357 30.968C32.2997 31.1857 31.6263 31.27 30.9568 31.2156C30.5922 31.1868 30.2262 31.1785 29.8607 31.1907C29.4559 31.2052 29.0614 31.3233 28.7143 31.534C28.3889 31.7597 28.1113 32.0485 27.8976 32.3835C27.684 32.7185 27.5387 33.093 27.4701 33.4852C27.3476 34.2127 27.3031 34.9515 27.3373 35.6886C27.3481 37.1267 27.4101 38.5632 27.5234 39.9979C27.5796 40.7148 27.6485 41.4304 27.7299 42.1449L27.8613 43.2153C27.8991 43.5923 27.9762 43.9641 28.0914 44.3247C28.2257 44.7146 28.4629 45.0602 28.7776 45.3241C29.0866 45.5757 29.4442 45.7595 29.8276 45.8639C30.5737 46.0643 31.3613 46.0429 32.0955 45.8022C32.8523 45.5768 33.5017 45.081 33.922 44.4077C34.128 44.0604 34.2533 43.6707 34.2886 43.2676C34.3238 42.8646 34.2681 42.4588 34.1256 42.0805C33.9667 41.706 33.7163 41.3781 33.3979 41.1273C33.123 40.9184 32.8588 40.6955 32.6064 40.4593C32.396 40.2504 32.2621 39.9755 32.2268 39.6799C32.1979 39.3637 32.2353 39.045 32.3365 38.7444C32.4299 38.4479 32.5459 38.159 32.6833 37.8804V37.8804Z" fill="#2C2C2E"/>
<path d="M37.2883 41.8526C37.2909 41.8453 37.292 41.8375 37.2915 41.8298C37.2911 41.8221 37.2891 41.8145 37.2858 41.8076C37.2468 41.6343 37.081 41.4347 36.7618 41.6467C36.7488 41.6557 36.7375 41.667 36.7283 41.6799C36.6417 41.9605 36.5093 42.2246 36.3363 42.4611C36.3093 42.5031 36.2794 42.5431 36.2468 42.5808C36.144 42.7096 36.0296 42.8286 35.9051 42.9362C35.794 43.0529 35.6733 43.1598 35.5442 43.2558C35.2952 43.4444 35.022 43.5982 34.7321 43.7129C34.4939 43.8023 34.328 43.8406 34.2323 43.8753C34.136 43.9117 34.1089 43.9415 34.137 43.9698C34.356 44.0586 34.5967 44.0781 34.827 44.0257C35.0973 43.9897 35.3601 43.9107 35.6057 43.7914C35.873 43.6685 36.1236 43.5115 36.3512 43.3243C36.4759 43.209 36.5921 43.0848 36.6989 42.9526C36.7385 42.9073 36.7752 42.8595 36.8087 42.8094C37.0204 42.5197 37.1825 42.1962 37.2883 41.8526V41.8526Z" fill="#2C2C2E"/>
<path d="M34.6605 17.2383C34.6597 17.2334 34.6594 17.2316 34.6445 17.227C34.5543 17.1985 34.459 17.19 34.3653 17.2022C34.2715 17.2144 34.1815 17.2471 34.1014 17.2979C34.0932 17.3029 34.086 17.3094 34.0801 17.3171L34.1238 17.6316C34.1503 17.8155 34.1881 18.0601 34.2383 18.305C34.2835 18.5318 34.3411 18.7559 34.4109 18.9762C34.4698 19.158 34.5191 19.2769 34.5191 19.2769C34.6234 19.4414 34.7507 19.5896 34.8973 19.7172C35.208 19.9776 35.2228 19.7609 35.1729 19.5459C35.1828 19.561 35.038 19.0386 35.0514 19.0352C34.9473 18.7554 34.866 18.4675 34.8083 18.1744C34.7631 17.9499 34.7275 17.7195 34.7024 17.5429L34.6605 17.2383Z" fill="#2C2C2E"/>
<path d="M34.8993 14.3608C34.8938 14.3652 34.8894 14.3707 34.8862 14.3769C34.8831 14.3832 34.8814 14.39 34.8811 14.397C34.8433 14.5447 34.8462 14.832 35.2446 14.81C35.262 14.8081 35.279 14.8035 35.2949 14.7962C35.5361 14.573 35.7752 14.3432 36.0049 14.1C36.6285 13.4939 37.0916 12.7399 37.352 11.907C37.4657 11.4687 37.4871 11.0113 37.4148 10.5642C37.3378 10.1234 37.18 9.70081 36.9496 9.31818C36.4934 8.56109 35.8179 7.96327 35.0141 7.60538C34.2286 7.26358 33.382 7.08738 32.5264 7.0876C31.6786 7.06537 30.8327 7.17731 30.0194 7.41932C29.5903 7.55722 29.1967 7.78887 28.8667 8.09777C28.542 8.41495 28.294 8.80314 28.1418 9.23235C27.8841 10.0482 27.7691 10.9029 27.8021 11.7585L27.795 14.2184L27.7693 24.0555C27.7306 25.7159 27.8622 27.3759 28.1621 29.0091L28.2803 29.5244C28.3048 29.6215 28.3324 29.7184 28.3611 29.8152C28.4254 29.9908 28.5028 30.1614 28.5927 30.3253C28.7566 30.6487 28.991 30.9305 29.2783 31.1495C29.43 31.2729 29.6124 31.3517 29.8055 31.3774C29.9121 31.3862 29.9438 31.3639 29.9267 31.3281C29.8931 31.2532 29.6695 31.129 29.4834 30.8959C29.3393 30.7146 29.2195 30.5151 29.127 30.3024C29.0288 30.0664 28.9521 29.8219 28.8981 29.5719C28.8726 29.4859 28.8503 29.3998 28.8288 29.3104L28.7973 29.1757L28.7381 28.9129C28.6974 28.7202 28.6601 28.5265 28.6278 28.3316C28.4022 26.7521 28.3103 25.156 28.3531 23.5607L28.3801 13.8902L28.3899 11.4774C28.366 10.7105 28.4971 9.94677 28.775 9.23253C28.9203 8.90552 29.1404 8.61795 29.4174 8.39346C29.7079 8.17409 30.0378 8.01357 30.3889 7.92076C31.1355 7.73178 31.905 7.65137 32.6742 7.68197C33.4357 7.69647 34.1859 7.86975 34.8777 8.19093C35.551 8.51471 36.1114 9.03623 36.4853 9.687C36.6724 9.99989 36.7946 10.3478 36.8444 10.7097C36.8942 11.0716 36.8707 11.4399 36.7753 11.7923C36.5364 12.5144 36.1265 13.1668 35.5811 13.6931C35.3645 13.9223 35.135 14.143 34.8993 14.3608Z" fill="#2C2C2E"/>
<path d="M31.0774 25.5702C31.0786 25.564 31.0792 25.5618 31.0673 25.5503C31.0007 25.4793 30.9154 25.4288 30.8214 25.4048C30.7273 25.3809 30.6285 25.3844 30.5364 25.4151C30.526 25.4185 30.5164 25.4241 30.5081 25.4314C30.5058 25.4404 30.4624 25.6108 30.4211 25.8656C30.3708 26.174 30.345 26.486 30.3438 26.7986C30.3431 27.2494 30.3907 27.6988 30.4858 28.1392C30.5748 28.3742 30.6903 28.5981 30.8301 28.8065C31.1271 29.2367 31.1684 28.9867 31.1319 28.6882C31.1408 28.7134 31.0314 27.9802 31.0483 27.9796C30.9667 27.5869 30.9263 27.1866 30.928 26.7853C30.9303 26.5073 30.9542 26.2299 30.9994 25.9556C31.0368 25.7294 31.0751 25.5783 31.0774 25.5702Z" fill="#2C2C2E"/>
<path d="M41.4334 15.0225C41.4332 15.0294 41.4345 15.0362 41.4372 15.0426C41.44 15.0489 41.444 15.0545 41.4491 15.0591C41.5355 15.1784 41.7519 15.3721 41.9967 15.0486C42.0066 15.0337 42.014 15.0173 42.0186 15C42.0058 14.6628 41.974 14.3267 41.9234 13.9931C41.869 13.4534 41.6985 12.9322 41.4238 12.4657C41.1191 12.0211 40.7297 11.6422 40.2783 11.3509C40.1183 11.2441 39.9523 11.147 39.781 11.06C39.6112 10.9856 39.4364 10.9233 39.2579 10.8736C38.9238 10.7787 38.579 10.7276 38.2319 10.7217C37.6809 10.7176 37.5257 10.8075 37.5808 10.8579C37.7805 10.9469 37.9904 11.0107 38.2057 11.0479C38.1719 11.0497 38.5433 11.1273 38.8972 11.2722C39.1341 11.3686 39.363 11.484 39.5816 11.6173C39.7099 11.6856 39.8346 11.7601 39.9555 11.8409C40.3401 12.0884 40.6726 12.41 40.934 12.7871C41.1623 13.1836 41.3025 13.6254 41.3449 14.0819C41.392 14.3935 41.4216 14.7076 41.4334 15.0225V15.0225Z" fill="#2C2C2E"/>
<path d="M32.9525 12.0967C32.9559 12.0992 32.9571 12.1001 32.9699 12.092C33.0539 12.048 33.1272 11.9856 33.1844 11.9095C33.2415 11.8334 33.2812 11.7454 33.3004 11.6519C33.3018 11.6413 33.3011 11.6305 33.2984 11.6202L33.2029 11.5546C33.1233 11.504 33.0398 11.46 32.9532 11.4229C32.696 11.3119 32.417 11.2619 32.1376 11.2767C31.8576 11.2919 31.5855 11.3752 31.3444 11.5197C31.2363 11.5837 31.1354 11.6595 31.0437 11.7457C30.9955 11.8062 30.9528 11.871 30.9161 11.9392C30.8456 12.0649 30.799 12.2028 30.7785 12.3457C30.7431 12.5692 30.8005 12.643 30.8571 12.6397C30.9182 12.6368 30.9916 12.5637 31.0712 12.4848C31.0713 12.4973 31.1527 12.3947 31.2496 12.3114C31.3129 12.2554 31.3816 12.2058 31.4545 12.1632C31.5164 12.1061 31.585 12.0567 31.6588 12.0163C31.8176 11.9238 31.9964 11.8716 32.1797 11.8642C32.367 11.8564 32.5536 11.8914 32.7256 11.9666C32.8061 12.0007 32.8823 12.0444 32.9525 12.0967V12.0967Z" fill="#2C2C2E"/>
</svg>
