<svg width="54" height="54" viewBox="0 0 54 54" fill="none" xmlns="http://www.w3.org/2000/svg">
<path fill-rule="evenodd" clip-rule="evenodd" d="M26.5932 2.29052C32.1812 0.894486 37.7575 4.80671 42.3332 8.12181C46.8017 11.3593 51.7398 15.4046 51.9937 20.6932C52.2417 25.8592 45.0775 28.6254 43.5563 33.5961C41.9336 38.8986 47.1203 45.7009 43.1061 49.7346C39.2507 53.6088 32.165 51.5312 26.5932 50.6417C21.8119 49.8784 17.7247 47.6031 13.7168 45.0427C9.57406 42.3962 4.80935 40.0007 3.04892 35.6006C1.25735 31.1226 1.80343 25.7964 4.36104 21.6582C6.71881 17.8433 12.5147 17.7119 15.9599 14.7105C20.2122 11.0062 20.984 3.69185 26.5932 2.29052Z" fill="#EE719E" stroke="#0375D7" stroke-width="4"/>
<g opacity="0.5">
<path opacity="0.5" d="M34.976 25.449C34.7174 25.5006 34.6958 25.5428 34.7703 25.5321C34.8273 25.5087 34.8863 25.4854 34.9452 25.4647C34.9556 25.4597 34.9656 25.454 34.976 25.449Z" fill="white"/>
<path opacity="0.5" d="M40.7925 26.0961C40.6188 25.5384 40.2775 25.0478 39.8149 24.6912C39.3523 24.3346 38.7909 24.1293 38.2074 24.1033C37.4481 24.109 36.7108 24.3587 36.1042 24.8153C35.7434 25.0524 35.3665 25.2642 34.9762 25.449C34.9912 25.446 35.0019 25.4432 35.0184 25.4402C34.9935 25.4466 34.9691 25.4548 34.9454 25.4647C34.9263 25.4739 34.9081 25.4845 34.8889 25.4936C34.8515 25.5121 34.8116 25.5251 34.7705 25.5321C34.7574 25.5375 34.7427 25.5444 34.7304 25.5489C34.4883 25.636 34.2431 25.714 33.9949 25.7828C33.5441 25.9074 33.087 26.0075 32.6254 26.0826C32.6295 26.082 32.5774 26.093 32.5151 26.1048C32.4981 26.1062 32.4864 26.1067 32.4623 26.1091C32.1991 26.1355 31.9366 26.1646 31.6729 26.1848C30.6936 26.2602 29.7105 26.271 28.7287 26.2669C28.2374 26.2648 27.7458 26.263 27.2547 26.25C26.9782 26.2427 26.7018 26.2317 26.4258 26.2125C26.3033 26.204 26.1809 26.1938 26.0587 26.182C26.0283 26.1793 25.998 26.1753 25.9677 26.1722L25.945 26.1684C24.5892 25.82 23.1849 25.7 21.7897 25.8133C20.4086 25.9642 19.0382 26.2131 17.6702 26.4509C17.0509 26.5586 16.4315 26.666 15.8106 26.7643C15.5008 26.8134 15.1905 26.86 14.88 26.9043L14.8299 26.9116C14.6804 26.9333 14.5285 26.9468 14.3791 26.9634C13.0767 27.1174 11.7635 27.1591 10.4539 27.0882C9.8395 27.0918 9.25129 27.3375 8.81683 27.772C8.38238 28.2064 8.13671 28.7946 8.13311 29.409C8.14511 29.6269 8.18457 29.8423 8.25055 30.0503C8.20366 30.1498 8.16395 30.2526 8.13174 30.3578C7.5918 32.3263 9.06477 34.3659 10.3404 35.8514C10.3489 36.0156 10.3715 36.1787 10.4081 36.339C10.6185 37.0982 11.0024 37.7981 11.5297 38.3835C11.8743 38.7992 12.2777 39.1624 12.7271 39.4616C12.863 39.9617 13.1287 40.417 13.4972 40.7813C14.2062 41.4902 15.1746 41.8674 16.0737 42.27C17.7971 43.1026 19.6265 43.6951 21.5107 44.031C21.7972 44.0738 22.0817 44.1079 22.3651 44.1379C22.4786 44.2051 22.5964 44.2649 22.7176 44.3169C23.3461 44.5649 24.0178 44.6846 24.6932 44.6691C25.3687 44.6536 26.0342 44.5031 26.6506 44.2265C26.767 44.1774 26.8788 44.1215 26.9906 44.0659C27.0377 44.0596 27.0844 44.0552 27.1315 44.0486C30.9486 43.4965 34.4875 41.7334 37.2273 39.0189C37.4388 38.8052 37.6058 38.5515 37.7184 38.2727C37.8311 37.9939 37.8873 37.6955 37.8837 37.3948C39.4197 35.999 40.699 34.1045 40.5169 31.945C40.4941 31.6374 40.426 31.3349 40.3146 31.0473C40.6191 30.3571 40.8148 29.6239 40.8949 28.8737C41.0586 27.9511 41.0237 27.0042 40.7925 26.0961V26.0961ZM36.119 29.0871C36.1228 29.0839 36.1269 29.0814 36.1309 29.0783L36.1284 29.0857L36.1263 29.0887L36.1273 29.0886L36.1274 29.0885L36.1274 29.0886L36.1389 29.0872L36.1234 29.1005L36.1192 29.1129L36.1112 29.1203L36.1135 29.109L36.1114 29.1109C36.1056 29.1194 36.1005 29.1267 36.0947 29.1356C36.0803 29.1484 36.0676 29.1598 36.0585 29.167C36.0598 29.1631 36.0608 29.1585 36.0622 29.1547C36.0514 29.1646 36.0402 29.1747 36.0308 29.1841L36.0309 29.1834C36.0408 29.1727 36.0517 29.1614 36.0638 29.1494C36.0656 29.1445 36.0668 29.1381 36.0687 29.1334C36.0823 29.1194 36.0977 29.1047 36.115 29.0901L36.1182 29.0897L36.119 29.0871ZM36.1891 29.0411L36.1978 29.0373C36.1907 29.0445 36.1826 29.0526 36.1725 29.0625L36.1657 29.0644L36.1531 29.0751L36.1416 29.0757L36.1487 29.0693L36.1397 29.0718C36.1503 29.0639 36.1606 29.0554 36.1712 29.0489C36.1949 29.0279 36.2114 29.0144 36.2213 29.0073C36.2113 29.0192 36.2005 29.0304 36.1891 29.041V29.0411ZM36.135 29.076L36.1339 29.0761L36.1359 29.0746L36.135 29.076ZM33.6458 33.7467L33.6599 33.7455C33.5553 33.8237 33.3997 33.8077 33.4341 33.7817C33.5056 33.7766 33.5764 33.7649 33.6458 33.7467H33.6458ZM32.0631 35.8064L32.0459 35.8055L32.07 35.8049L32.0631 35.8064ZM21.9106 39.4069C21.9593 39.4107 22.0079 39.4176 22.0566 39.4212L22.0487 39.4338C22.0026 39.4248 21.9565 39.4164 21.9106 39.4069V39.4069ZM36.1896 28.9076C36.1795 28.9362 36.1697 28.9647 36.1595 28.9932C36.171 28.9821 36.1839 28.9725 36.1979 28.9648C36.1888 28.9907 36.1764 29.0154 36.1611 29.0382C36.1571 29.0442 36.148 29.0572 36.1374 29.0725L36.1324 29.0739L36.1316 29.0762L36.1228 29.0766L36.122 29.0768L36.122 29.0766C36.1139 29.0772 36.1058 29.0773 36.0977 29.0778C36.1096 29.0564 36.1235 29.0362 36.1392 29.0174C36.1488 28.9779 36.1659 28.9407 36.1896 28.9076H36.1896Z" fill="white"/>
<path opacity="0.5" d="M36.1489 29.0692L36.1659 29.0644L36.1719 29.0593C36.1799 29.0522 36.1828 29.0474 36.1893 29.041C36.1832 29.0441 36.1777 29.0451 36.1714 29.0489C36.1645 29.055 36.1565 29.0624 36.1489 29.0692Z" fill="white"/>
<path opacity="0.5" d="M36.0636 29.1494L36.062 29.1547C36.0788 29.1393 36.0946 29.125 36.1112 29.1109L36.1137 29.1071L36.1133 29.109L36.1232 29.1005L36.1272 29.0886H36.1271L36.1248 29.0907L36.1262 29.0887L36.118 29.0897L36.1152 29.0998C36.0974 29.1163 36.08 29.133 36.0636 29.1494Z" fill="white"/>
<path opacity="0.5" d="M36.1228 29.0766L36.1324 29.0739C36.1413 29.0471 36.15 29.0202 36.1596 28.9933C36.153 28.9996 36.1461 29.0095 36.1392 29.0175C36.1336 29.035 36.1279 29.0544 36.1221 29.0767L36.1228 29.0766Z" fill="white"/>
</g>
<path d="M40.6268 23.5981C40.3239 22.8351 39.9928 22.0809 39.6234 21.3476C39.0121 20.1239 38.2894 18.9591 37.4645 17.868C36.4963 16.553 35.2482 15.4693 33.8104 14.6952C32.417 13.9626 30.9228 13.5306 29.4472 13.0093C29.4107 12.9964 29.3836 12.9874 29.3606 12.9801C29.3393 12.9667 29.3134 12.951 29.2761 12.9295C29.177 12.8724 29.0797 12.8169 28.9831 12.7588C28.9125 12.6907 28.8381 12.6268 28.7603 12.5672L28.7529 12.5588C28.736 12.5272 28.7238 12.5053 28.7128 12.4862C28.6927 12.3445 28.7077 12.2027 28.6939 12.4555L28.6936 12.4551C28.7058 12.2746 28.705 12.0935 28.691 11.9132C28.666 11.3243 28.4235 10.7656 28.0104 10.3453C27.2803 9.64688 26.12 9.6036 25.1613 9.58984C24.2883 9.58442 23.418 9.68861 22.5709 9.89994C22.3565 9.60594 22.0433 9.39913 21.6887 9.31745C20.8159 9.11864 19.748 9.5803 19.5476 10.5332C19.4617 10.9349 19.4179 11.3444 19.4167 11.7552C19.4168 11.91 19.425 12.0648 19.4245 12.2196L19.4238 12.3259C19.1892 12.4465 18.9547 12.5647 18.7154 12.6789C17.6992 13.165 16.7326 13.7488 15.8293 14.4218C13.8304 15.8953 12.1126 17.7161 10.7577 19.7972C9.446 21.7626 8.53637 23.9683 8.08126 26.287C7.88328 27.4348 8.38052 28.5966 9.60362 28.8951C10.3559 29.0313 11.1248 29.0501 11.8829 28.9509C13.3434 28.8052 14.7903 28.5453 16.2103 28.1736C16.8246 28.0243 17.4378 27.8708 18.0547 27.7322C18.3899 27.6569 18.726 27.5855 19.0637 27.5218C19.2039 27.4954 19.3444 27.4702 19.4852 27.4465C19.5337 27.4383 19.8452 27.3934 19.8833 27.3856C20.531 27.3058 21.1839 27.2773 21.8361 27.3004C22.1285 27.312 22.4187 27.3412 22.7101 27.366C22.7615 27.3703 22.7973 27.373 22.8268 27.3751C22.856 27.3801 22.8917 27.386 22.9431 27.3941C23.1747 27.4303 23.4059 27.4683 23.6364 27.5105C26.4811 28.0317 29.2308 28.8746 32.1565 28.5502C33.6687 28.3825 35.1691 28.1055 36.6699 27.8597C38.2407 27.6025 40.3354 27.5893 40.8451 25.7047C41.0017 24.9973 40.9251 24.2583 40.6268 23.5981V23.5981ZM33.698 22.855C33.7079 22.8764 33.7179 22.8978 33.7278 22.9191C33.7053 22.9215 33.6829 22.9246 33.6603 22.9268C33.6725 22.9028 33.6868 22.8794 33.698 22.855V22.855ZM34.288 24.1132C34.2991 24.1369 34.3103 24.1606 34.3214 24.1844C34.454 24.4688 34.3276 24.262 34.288 24.1132ZM37.4636 25.0913C37.4737 25.1262 37.4818 25.1617 37.4879 25.1975C37.4712 25.1981 37.4651 25.1497 37.4636 25.0913Z" fill="white"/>
<path d="M44.5738 21.5573C44.5543 21.1163 44.5414 20.6751 44.5352 20.2337C44.5218 19.2858 44.5392 18.3382 44.5872 17.3908C44.6352 16.4441 44.7138 15.4995 44.8229 14.5572C44.8425 14.3882 44.8632 14.2192 44.885 14.0504C44.882 14.0874 44.9375 13.7143 44.9455 13.6745C44.969 13.557 44.9985 13.4394 45.0333 13.3237C45.049 13.3093 45.064 13.2956 45.0887 13.271C46.1972 12.2756 45.3367 10.2348 43.8579 10.2997C43.8033 10.302 43.4016 10.2869 43.3877 10.3015C43.2061 10.2665 43.0271 10.2192 42.8519 10.1601C42.448 10.0456 42.0162 10.0821 41.6372 10.2626C41.2582 10.4432 40.9578 10.7555 40.7922 11.1412C40.6265 11.527 40.6068 11.9599 40.7369 12.359C40.867 12.7582 41.1378 13.0964 41.4989 13.3105C41.4452 13.6645 41.4058 14.0212 41.3639 14.369C41.213 15.6238 41.1164 16.8837 41.0742 18.1485C41.033 19.3798 41.0414 20.6139 41.1063 21.8443C41.1185 22.0758 41.1391 22.2991 41.1718 22.5164C41.1253 22.8577 41.1787 23.2052 41.3255 23.5168C41.4722 23.8284 41.7061 24.0909 41.9989 24.2725C42.0047 24.2763 42.011 24.2793 42.0168 24.2831C42.3189 24.5717 42.6919 24.7753 43.0981 24.8733C43.5042 24.9714 43.929 24.9603 44.3295 24.8413C44.6939 24.7348 45.0146 24.5144 45.2446 24.2123C45.4745 23.9103 45.6017 23.5425 45.6074 23.1629C45.5979 22.8265 45.4965 22.4991 45.3143 22.2161C45.1322 21.9331 44.8761 21.7053 44.5738 21.5573V21.5573Z" fill="white"/>
<g opacity="0.5">
<path opacity="0.5" d="M20.2753 10.6565C20.2909 10.6573 20.3067 10.6529 20.3136 10.6611C20.3275 10.6869 20.2739 10.7046 20.2876 10.7302L20.3128 10.7333L20.2729 10.7915C20.2745 10.8297 20.2782 10.8678 20.284 10.9056C20.2933 10.9053 20.3018 10.9054 20.3049 10.9093C20.3105 10.9254 20.3003 10.9465 20.296 10.9687L20.2996 10.9789C20.3057 10.9816 20.3123 10.9834 20.319 10.9841C20.3174 10.9934 20.3146 11.0024 20.3109 11.0111L20.4428 11.373C20.4628 11.3984 20.4789 11.4267 20.4904 11.4569C20.4884 11.498 20.4799 11.5385 20.4652 11.5769C20.5545 11.5829 20.5852 11.6784 20.677 11.6733C20.6718 11.6977 20.6632 11.7343 20.6879 11.7399C20.7271 11.7446 20.7648 11.7581 20.7981 11.7793C20.8313 11.8006 20.8594 11.829 20.8802 11.8626C20.8865 11.8905 20.8487 11.9256 20.8623 11.9373C20.8839 11.9558 20.9204 11.9119 20.942 11.9303C20.9851 11.7383 21.0097 11.5426 21.0154 11.3459C20.9942 11.1315 20.9971 10.9155 21.0239 10.7018L21.0232 10.6911C21.034 10.6242 21.0237 10.5555 20.9939 10.4945C20.9734 10.4693 20.9483 10.4437 20.9242 10.4184L20.8797 10.4491C20.8821 10.4239 20.8845 10.3987 20.8685 10.3888C20.8309 10.3347 20.786 10.3648 20.725 10.3842C20.6983 10.3985 20.6578 10.3782 20.6303 10.4006L20.6341 10.3596C20.6089 10.3574 20.6464 10.4103 20.6051 10.3983C20.6151 10.3827 20.5997 10.3649 20.6012 10.3486C20.5669 10.3539 20.5877 10.405 20.554 10.4019C20.5465 10.3931 20.6004 10.3568 20.5584 10.3531C20.55 10.3524 20.5486 10.3687 20.5479 10.3768C20.5354 10.3265 20.4956 10.299 20.4493 10.3439C20.4507 10.3282 20.4687 10.3061 20.4631 10.2894L20.4624 10.2896C20.4609 10.2978 20.4521 10.3121 20.4514 10.3197L20.454 10.2915L20.4364 10.2963C20.4311 10.3024 20.4276 10.3098 20.4262 10.3177L20.4279 10.299L20.3884 10.3146C20.3611 10.3367 20.3211 10.3573 20.32 10.3692C20.2981 10.4637 20.2832 10.5598 20.2753 10.6565Z" fill="#C7C7CC"/>
</g>
<path d="M43.5888 32.0442C43.7392 32.039 43.8817 31.9756 43.9862 31.8673C44.0908 31.7591 44.1492 31.6145 44.1492 31.464C44.1492 31.3135 44.0908 31.1689 43.9862 31.0607C43.8817 30.9524 43.7392 30.889 43.5888 30.8838C43.4384 30.889 43.2959 30.9524 43.1913 31.0607C43.0868 31.1689 43.0283 31.3135 43.0283 31.464C43.0283 31.6145 43.0868 31.7591 43.1913 31.8673C43.2959 31.9756 43.4384 32.039 43.5888 32.0442V32.0442Z" fill="white"/>
<path d="M42.9981 27.2245C43.0357 27.2233 43.0713 27.2074 43.0975 27.1804C43.1236 27.1533 43.1382 27.1171 43.1382 27.0795C43.1382 27.0419 43.1236 27.0057 43.0975 26.9786C43.0713 26.9516 43.0357 26.9357 42.9981 26.9344C42.9605 26.9357 42.9248 26.9516 42.8987 26.9786C42.8725 27.0057 42.8579 27.0419 42.8579 27.0795C42.8579 27.1171 42.8725 27.1533 42.8987 27.1804C42.9248 27.2074 42.9605 27.2233 42.9981 27.2245V27.2245Z" fill="white"/>
<path d="M44.2237 29.0847C44.2613 29.0834 44.2969 29.0675 44.3231 29.0405C44.3492 29.0134 44.3638 28.9772 44.3638 28.9396C44.3638 28.902 44.3492 28.8658 44.3231 28.8388C44.2969 28.8117 44.2613 28.7958 44.2237 28.7946C44.186 28.7958 44.1504 28.8117 44.1243 28.8388C44.0981 28.8658 44.0835 28.902 44.0835 28.9396C44.0835 28.9772 44.0981 29.0134 44.1243 29.0405C44.1504 29.0675 44.186 29.0834 44.2237 29.0847V29.0847Z" fill="white"/>
<path d="M44.2681 34.8126C44.3057 34.8113 44.3413 34.7954 44.3675 34.7684C44.3936 34.7413 44.4083 34.7051 44.4083 34.6675C44.4083 34.6299 44.3936 34.5937 44.3675 34.5667C44.3413 34.5396 44.3057 34.5237 44.2681 34.5225C44.2305 34.5237 44.1948 34.5396 44.1687 34.5667C44.1425 34.5937 44.1279 34.6299 44.1279 34.6675C44.1279 34.7051 44.1425 34.7413 44.1687 34.7684C44.1948 34.7954 44.2305 34.8113 44.2681 34.8126V34.8126Z" fill="white"/>
<path d="M42.8545 35.1847C42.865 35.1873 42.8755 35.1898 42.8863 35.1914C42.9087 35.1963 42.9315 35.1985 42.9544 35.1979C42.9691 35.1966 42.984 35.1945 42.9985 35.192L43.0061 35.1905L43.0135 35.1881C43.0275 35.1831 43.0411 35.1773 43.0543 35.1707L43.0592 35.1678C43.0703 35.1602 43.0809 35.152 43.091 35.1432C43.0981 35.1365 43.1043 35.129 43.1098 35.1209C43.1159 35.1139 43.1214 35.1063 43.1261 35.0984C43.1297 35.0916 43.1326 35.0833 43.1354 35.0768C43.1388 35.0695 43.1419 35.062 43.1445 35.0544C43.1504 35.0358 43.1528 35.0162 43.1517 34.9967C43.1512 34.9651 43.1424 34.9343 43.1261 34.9073C43.1225 34.9021 43.1149 34.8928 43.1139 34.8916C43.114 34.8916 43.1059 34.8803 43.1017 34.8758L43.0981 34.8725C43.0924 34.8676 43.0745 34.8536 43.0682 34.8494L43.0658 34.8478L43.0638 34.8467C43.0519 34.8408 43.0397 34.8356 43.0271 34.8311L43.0211 34.8293C43.0068 34.8264 42.9924 34.8244 42.9779 34.8233C42.9738 34.8229 42.9696 34.8229 42.9655 34.8231C42.9438 34.8244 42.9222 34.8287 42.9006 34.8317L42.9392 34.8265C42.9325 34.8276 42.9258 34.8279 42.9191 34.8274L42.9576 34.8326L42.9498 34.8306L42.9844 34.8452L42.9798 34.8427L43.0092 34.8654L43.0052 34.8616L43.0279 34.891L43.0254 34.8873L42.9387 35.1003C42.9553 35.0949 42.9723 35.0909 42.9896 35.0885L42.9511 35.0937C42.9758 35.0904 43.0008 35.0904 43.0256 35.0936L42.987 35.0884L42.9895 35.0887C43.0082 35.0948 43.0281 35.0957 43.0473 35.0913C43.0665 35.0905 43.0851 35.0846 43.1012 35.0741C43.1328 35.0538 43.1564 35.0232 43.1679 34.9874L43.1731 34.9489C43.1731 34.9231 43.1663 34.8979 43.1533 34.8757L43.1306 34.8463C43.1129 34.8285 43.0908 34.8157 43.0666 34.809C43.0326 34.8028 42.998 34.8005 42.9634 34.8022C42.9289 34.8045 42.8947 34.8106 42.8616 34.8206C42.8374 34.8273 42.8154 34.8401 42.7976 34.8579C42.7718 34.886 42.7567 34.9223 42.7551 34.9605C42.7551 34.9862 42.7619 35.0115 42.7749 35.0337L42.7774 35.0374L42.8001 35.0667L42.8015 35.0683C42.8118 35.0783 42.8233 35.0872 42.8356 35.0946C42.8482 35.1019 42.8617 35.1076 42.8758 35.1114L42.8791 35.1121C42.8928 35.1147 42.9066 35.1165 42.9205 35.1176C42.9262 35.1179 42.9319 35.1176 42.9376 35.1168C42.9561 35.1146 42.9745 35.1118 42.993 35.1092L42.9544 35.1144C42.9627 35.113 42.9711 35.1128 42.9795 35.1136L42.9409 35.1084C42.944 35.1089 42.9471 35.1097 42.95 35.1109L42.9153 35.0962L42.9218 35.0999L42.8925 35.0772L42.8975 35.082L42.8748 35.0526L42.8789 35.0597L42.8643 35.025C42.8655 35.0281 42.8663 35.0313 42.8668 35.0345L42.8616 34.9959C42.862 34.9998 42.8619 35.0038 42.8614 35.0077L42.8666 34.9691C42.8659 34.9737 42.8647 34.9781 42.863 34.9824L42.8776 34.9477C42.8758 34.952 42.8735 34.956 42.8707 34.9598L42.8934 34.9304C42.8909 34.9336 42.888 34.9365 42.8847 34.939L42.9141 34.9163C42.9106 34.9188 42.9068 34.9209 42.9028 34.9225L42.9375 34.9079C42.932 34.91 42.9262 34.9116 42.9203 34.9125L42.9589 34.9073C42.9484 34.9085 42.9377 34.9083 42.9272 34.9068L42.9658 34.912C42.9543 34.9102 42.9429 34.9079 42.9316 34.9049C42.9129 34.8989 42.893 34.898 42.8738 34.9023C42.8546 34.9032 42.836 34.9091 42.8199 34.9196C42.7883 34.9399 42.7648 34.9705 42.7532 35.0062L42.748 35.0448C42.748 35.0705 42.7548 35.0958 42.7679 35.118L42.7905 35.1474C42.8083 35.1651 42.8303 35.178 42.8545 35.1847L42.8545 35.1847Z" fill="white"/>
<path d="M40.8555 13.2267C40.8119 18.2582 40.7685 23.2897 40.7251 28.3212C40.7055 30.7873 40.6947 33.2538 40.7445 35.7196C40.7269 36.8929 40.8073 38.0655 40.9848 39.2254C41.1488 40.089 41.6213 40.9626 42.5443 41.1742C42.9815 41.255 43.4324 41.2138 43.8477 41.0551C44.263 40.8964 44.6266 40.6264 44.8985 40.2747C45.5073 39.4385 45.8151 38.4209 45.7718 37.3875C45.7936 34.9405 45.8208 32.4922 45.7853 30.0452C45.7488 27.5344 45.5999 25.0271 45.5617 22.5161C45.5232 19.9793 45.5488 17.4427 45.6385 14.9062C45.6063 14.2617 45.6465 13.6156 45.7582 12.9801C45.8922 12.4975 46.4041 12.4011 46.6698 12.0093C47.3282 11.038 46.2861 10.3286 45.4071 10.2567C44.0963 10.1494 42.7581 10.1835 41.4432 10.1487C40.9048 10.1344 40.2857 10.1105 39.9142 10.5759C39.7573 10.7624 39.6757 11.0007 39.6853 11.2442C39.695 11.4877 39.7952 11.7188 39.9663 11.8923C40.489 12.4274 41.3093 11.6065 40.7869 11.0717C40.882 11.1692 40.7773 11.2493 40.8693 11.3047C40.9665 11.3118 41.0642 11.3108 41.1612 11.3016C41.4431 11.304 41.7253 11.3166 42.007 11.324L43.6046 11.3663C44.1371 11.3804 44.6699 11.3899 45.2023 11.4086C45.3552 11.414 45.5037 11.4656 45.6507 11.4725C45.7278 11.4761 45.806 11.6146 45.7448 11.4326C45.6893 11.2675 45.7255 11.3889 45.6208 11.4326C44.8355 11.7606 44.5899 12.6502 44.5393 13.412C44.4679 14.4848 44.4523 15.5648 44.4267 16.6396C44.3747 18.8228 44.3702 21.0063 44.413 23.1904C44.4557 25.3514 44.5808 27.5094 44.6188 29.6704C44.6563 31.8 44.635 33.9301 44.6197 36.0599C44.6128 37.0135 44.7336 38.0663 44.3446 38.9657C44.0934 39.5463 43.3637 40.3881 42.6379 39.9784C41.9575 39.5943 42.0001 38.2376 41.9631 37.5856C41.9027 36.5231 41.8964 35.4558 41.8836 34.3919C41.8579 32.2419 41.8708 30.0918 41.8886 27.9418C41.9293 23.0367 41.9717 18.1317 42.0158 13.2267C42.0106 13.0763 41.9472 12.9338 41.839 12.8292C41.7307 12.7247 41.5861 12.6663 41.4356 12.6663C41.2851 12.6663 41.1405 12.7247 41.0323 12.8292C40.9241 12.9338 40.8606 13.0763 40.8554 13.2267H40.8555Z" fill="white"/>
<path d="M42.1525 24.8884C42.4172 24.6065 42.8488 24.8429 43.1428 24.9375C43.5061 25.054 43.8994 25.0341 44.2491 24.8815C44.3861 24.8232 44.268 24.6232 44.1319 24.6811C43.9447 24.7597 43.7419 24.7939 43.5393 24.7811C43.3377 24.7569 43.1405 24.704 42.9539 24.6242C42.8008 24.5443 42.6277 24.5112 42.456 24.529C42.2844 24.5468 42.1217 24.6147 41.9884 24.7243C41.8862 24.8331 42.05 24.9975 42.1525 24.8884V24.8884Z" fill="#1C1C1E"/>
<path d="M42.8295 26.9227C42.802 26.9541 42.7831 26.9921 42.7746 27.033C42.7661 27.0739 42.7683 27.1163 42.781 27.156C42.7916 27.1947 42.8102 27.2308 42.8356 27.2619C42.8609 27.2929 42.8925 27.3184 42.9283 27.3365C42.9665 27.3545 43.009 27.3612 43.0509 27.3558C43.0927 27.3505 43.1322 27.3333 43.1646 27.3063C43.1931 27.281 43.2164 27.2504 43.2329 27.2161C43.2495 27.1818 43.2591 27.1445 43.2611 27.1065C43.2655 27.0629 43.2581 27.019 43.2396 26.9793C43.2212 26.9396 43.1924 26.9056 43.1562 26.8809C43.1429 26.8733 43.1271 26.8712 43.1123 26.8751C43.0974 26.879 43.0847 26.8886 43.0768 26.9018C43.0694 26.9151 43.0674 26.9308 43.0713 26.9456C43.0752 26.9604 43.0846 26.9731 43.0977 26.9811L43.1072 26.9878C43.0944 26.9786 43.1047 26.9862 43.1072 26.9885C43.1118 26.9927 43.1159 26.9974 43.1202 27.0019C43.1277 27.0098 43.1175 26.9994 43.1181 26.9989L43.1244 27.008C43.1284 27.0142 43.1316 27.0207 43.1351 27.0273C43.1411 27.0388 43.1309 27.0147 43.135 27.0271L43.1375 27.0341C43.1396 27.0406 43.1414 27.0472 43.1429 27.0539L43.1447 27.0631C43.1475 27.0761 43.1437 27.0492 43.1447 27.0626C43.1452 27.0702 43.1459 27.0777 43.1459 27.0854C43.1459 27.0918 43.1457 27.0982 43.1452 27.1045L43.1443 27.1141C43.1439 27.1226 43.1471 27.0993 43.1445 27.112C43.1417 27.1266 43.138 27.1409 43.1332 27.1549L43.1298 27.1639L43.1326 27.1571L43.1294 27.164C43.1267 27.1698 43.1237 27.1754 43.1205 27.1809C43.1173 27.1863 43.1137 27.1914 43.1102 27.1967C43.1031 27.2077 43.1188 27.1871 43.1102 27.1969L43.1028 27.2053C43.0986 27.2099 43.0942 27.2142 43.0896 27.2183C43.0795 27.2272 43.0886 27.2175 43.0899 27.2185L43.0824 27.2238C43.0768 27.2276 43.0709 27.231 43.0648 27.234L43.0581 27.2372C43.0663 27.2338 43.0675 27.2333 43.0616 27.2355L43.0545 27.2379C43.0483 27.2398 43.0422 27.241 43.0359 27.2424C43.0228 27.2452 43.0494 27.2421 43.0353 27.2423L43.0271 27.2427C43.0231 27.2428 43.019 27.2427 43.015 27.2425C43.0138 27.2424 43.0004 27.2416 43.0107 27.2424C43.0207 27.2431 43.0081 27.2417 43.0067 27.2414L42.9933 27.238L42.9839 27.2349C42.9711 27.2309 42.9952 27.241 42.9833 27.2347C42.9774 27.2316 42.9716 27.2287 42.9659 27.2252C42.9629 27.2234 42.9454 27.2102 42.9581 27.2206C42.9518 27.2155 42.9457 27.2102 42.94 27.2045C42.9352 27.1998 42.9306 27.1948 42.9262 27.1896C42.9242 27.1871 42.9167 27.176 42.9252 27.1884L42.9181 27.1783C42.9144 27.1726 42.9108 27.1667 42.9075 27.1607C42.9055 27.1569 42.8951 27.1332 42.901 27.1485C42.8949 27.1333 42.8903 27.1175 42.8872 27.1014L42.8865 27.0974C42.8855 27.091 42.8857 27.0921 42.8869 27.1008L42.886 27.0888C42.8856 27.0809 42.8856 27.0729 42.8862 27.0649C42.8871 27.0511 42.8846 27.0637 42.8858 27.0646L42.888 27.053C42.8899 27.0453 42.8922 27.0378 42.8948 27.0304C42.8991 27.0177 42.8886 27.0414 42.8953 27.0297L42.901 27.0192L42.9076 27.0091C42.9113 27.004 42.9108 27.0047 42.906 27.0111L42.9115 27.0048C42.9169 26.9994 42.9212 26.993 42.9241 26.986C42.927 26.9789 42.9285 26.9714 42.9285 26.9638C42.9285 26.9561 42.927 26.9486 42.9241 26.9416C42.9212 26.9345 42.9169 26.9281 42.9115 26.9227C42.9061 26.9173 42.8997 26.9131 42.8927 26.9102C42.8857 26.9072 42.8781 26.9057 42.8705 26.9057C42.8629 26.9057 42.8553 26.9072 42.8483 26.9102C42.8413 26.9131 42.8349 26.9174 42.8295 26.9227V26.9227Z" fill="#1C1C1E"/>
<path d="M43.5252 31.0488C43.4115 31.0374 43.2972 31.0645 43.2007 31.1258C43.1042 31.187 43.031 31.2789 42.9929 31.3866C42.9566 31.4985 42.9597 31.6194 43.0016 31.7293C43.0434 31.8392 43.1215 31.9316 43.223 31.991C43.584 32.2082 44.2125 32.0494 44.2627 31.578C44.2769 31.4699 44.253 31.3601 44.1952 31.2677C44.1373 31.1752 44.0491 31.1058 43.9456 31.0712C43.931 31.0677 43.9156 31.0701 43.9026 31.0777C43.8896 31.0854 43.8802 31.0978 43.8762 31.1123C43.8722 31.1268 43.8739 31.1423 43.8811 31.1555C43.8884 31.1687 43.9004 31.1786 43.9148 31.1831C43.9844 31.2067 44.0446 31.2519 44.0868 31.312C44.129 31.3722 44.1509 31.4442 44.1493 31.5177C44.1471 31.6002 44.1215 31.6803 44.0755 31.7488C44.0295 31.8173 43.965 31.8714 43.8895 31.9046C43.5812 32.0625 43.0451 31.9338 43.0848 31.5088C43.0908 31.4572 43.1071 31.4073 43.1325 31.362C43.158 31.3167 43.1922 31.2769 43.2332 31.2449C43.2741 31.2129 43.321 31.1893 43.3712 31.1756C43.4213 31.1618 43.4737 31.1582 43.5252 31.1648C43.5994 31.1728 43.5988 31.0567 43.5252 31.0488H43.5252Z" fill="#1C1C1E"/>
<path d="M44.1561 29.0726C44.1625 29.0797 44.1698 29.0859 44.1779 29.091C44.1859 29.0961 44.1945 29.1001 44.2036 29.1029C44.2128 29.1057 44.2224 29.1074 44.232 29.108C44.237 29.1085 44.2419 29.1085 44.2468 29.108C44.2663 29.1064 44.2852 29.1011 44.3026 29.0921C44.3175 29.0841 44.3305 29.073 44.3406 29.0594C44.3547 29.0413 44.3627 29.0192 44.3636 28.9962C44.3636 28.9848 44.3602 28.9736 44.3539 28.964C44.3475 28.9545 44.3384 28.947 44.3278 28.9427C44.3172 28.9383 44.3055 28.9371 44.2943 28.9393C44.283 28.9416 44.2727 28.9471 44.2646 28.9552C44.2542 28.9664 44.2481 28.981 44.2476 28.9962L44.2472 29.0009L44.2492 28.9855C44.2486 28.9896 44.2475 28.9936 44.2459 28.9974L44.2517 28.9835C44.2499 28.9876 44.2477 28.9914 44.245 28.995L44.2541 28.9832C44.2508 28.9873 44.247 28.9911 44.2429 28.9943L44.2546 28.9852C44.2497 28.9889 44.2444 28.992 44.2388 28.9944L44.2526 28.9885C44.2465 28.991 44.2402 28.9928 44.2337 28.9938L44.2491 28.9917C44.2431 28.9925 44.237 28.9925 44.2309 28.9918L44.2464 28.9939C44.2412 28.9932 44.2361 28.9918 44.2313 28.9898L44.2452 28.9956C44.2414 28.994 44.2379 28.9919 44.2346 28.9895L44.2464 28.9985C44.2434 28.9962 44.2406 28.9935 44.2382 28.9905C44.2273 28.9796 44.2126 28.9735 44.1972 28.9735C44.1818 28.9736 44.1671 28.9797 44.1561 28.9905C44.1453 29.0014 44.1392 29.0162 44.1392 29.0315L44.1412 29.047C44.1439 29.0566 44.149 29.0655 44.1561 29.0726L44.1561 29.0726Z" fill="#1C1C1E"/>
<path d="M42.8311 34.9046C42.734 34.8649 42.6395 34.9659 42.6377 35.0582C42.6358 35.1612 42.7329 35.2323 42.8216 35.2594C42.8636 35.2759 42.9085 35.2833 42.9535 35.2813C42.9985 35.2792 43.0426 35.2677 43.0829 35.2475C43.1232 35.2274 43.1587 35.1989 43.1873 35.1641C43.2159 35.1293 43.2368 35.0888 43.2488 35.0454C43.258 34.9984 43.2526 34.9496 43.2332 34.9058C43.2138 34.862 43.1815 34.8251 43.1405 34.8003C43.0747 34.765 43.0161 34.8651 43.082 34.9005C43.0884 34.9038 43.0945 34.9075 43.1004 34.9118C43.0926 34.9059 43.1045 34.9162 43.1066 34.9184C43.1089 34.9207 43.1184 34.9333 43.1126 34.9248C43.1166 34.9306 43.1203 34.9367 43.1235 34.9429L43.1282 34.9524C43.127 34.9497 43.1254 34.9433 43.1282 34.9535C43.1298 34.9596 43.1319 34.9655 43.1333 34.9717C43.1341 34.975 43.1365 34.9914 43.1353 34.9805C43.1361 34.9877 43.1365 34.9951 43.1365 35.0024C43.1366 35.0098 43.1362 35.0171 43.1354 35.0245C43.1364 35.0142 43.1343 35.0305 43.1336 35.0336C43.1322 35.0399 43.1305 35.0462 43.1285 35.0523L43.1248 35.0627C43.1278 35.0551 43.1246 35.0633 43.1229 35.0665C43.1199 35.0722 43.1168 35.0778 43.1133 35.0832L43.1071 35.0923C43.108 35.0911 43.1121 35.0861 43.1072 35.0916C43.098 35.1024 43.0875 35.1122 43.0761 35.1207C43.0263 35.1534 42.9663 35.1671 42.9072 35.159C42.853 35.1561 42.8021 35.1319 42.7657 35.0916C42.7638 35.0887 42.7558 35.0725 42.7578 35.0778C42.7561 35.0733 42.7536 35.0554 42.7538 35.064C42.7528 35.0537 42.7555 35.0433 42.7614 35.0348C42.7663 35.026 42.7736 35.0188 42.7825 35.014C42.7786 35.0162 42.778 35.0182 42.7836 35.0136C42.7911 35.0073 42.7833 35.0143 42.7838 35.0127C42.784 35.012 42.7934 35.0127 42.7843 35.0115C42.7898 35.0125 42.7952 35.0142 42.8003 35.0165C42.8151 35.0205 42.8309 35.0185 42.8443 35.0109C42.8577 35.0033 42.8675 34.9908 42.8717 34.976C42.8754 34.9612 42.8732 34.9455 42.8657 34.9322C42.8581 34.9189 42.8458 34.909 42.8311 34.9046L42.8311 34.9046Z" fill="#1C1C1E"/>
<path d="M44.1254 34.7096C44.1931 34.7437 44.2666 34.7648 44.342 34.7717C44.3509 34.7717 44.3597 34.7696 44.3677 34.7656C44.3757 34.7616 44.3826 34.7559 44.388 34.7488C44.3934 34.7417 44.3971 34.7334 44.3989 34.7247C44.4006 34.7159 44.4003 34.7069 44.398 34.6983L44.3624 34.6013C44.358 34.5869 44.3486 34.5746 44.3358 34.5667C44.3258 34.5608 44.3143 34.5581 44.3028 34.5588C44.2913 34.5596 44.2803 34.5637 44.2711 34.5707C44.262 34.5778 44.2551 34.5874 44.2515 34.5983C44.2478 34.6093 44.2475 34.6211 44.2505 34.6322L44.2861 34.7291L44.342 34.6557L44.3218 34.6534L44.3373 34.6555C44.2914 34.6493 44.2466 34.6371 44.2039 34.6192L44.2177 34.6251C44.2063 34.6202 44.1951 34.615 44.184 34.6094C44.1774 34.6055 44.1701 34.603 44.1626 34.602C44.155 34.6009 44.1474 34.6014 44.14 34.6033C44.1326 34.6053 44.1257 34.6086 44.1196 34.6132C44.1136 34.6178 44.1085 34.6236 44.1046 34.6302C44.1008 34.6368 44.0983 34.644 44.0972 34.6516C44.0962 34.6591 44.0966 34.6668 44.0986 34.6742C44.1005 34.6815 44.1039 34.6885 44.1085 34.6945C44.1131 34.7006 44.1188 34.7057 44.1254 34.7095V34.7096Z" fill="#1C1C1E"/>
<g opacity="0.55">
<path opacity="0.55" d="M42.3398 26.1116C42.6304 26.2521 42.9479 26.3281 43.2705 26.3345C43.4307 26.3339 43.5903 26.3168 43.7469 26.2836C43.9046 26.2471 44.0578 26.1935 44.2039 26.1238C44.3346 26.0474 44.4303 25.923 44.4705 25.7771C44.5107 25.6262 44.4896 25.4655 44.412 25.33C44.3352 25.1997 44.211 25.1041 44.0653 25.0634L43.911 25.0426C43.8081 25.0425 43.707 25.0698 43.6182 25.1219L43.5984 25.1305L43.737 25.0721C43.6108 25.1251 43.4782 25.1616 43.3426 25.1807L43.4968 25.16C43.3538 25.1784 43.2089 25.178 43.0659 25.1588L43.2202 25.1795C43.0918 25.1607 42.9662 25.1264 42.8462 25.0774L42.9848 25.1359C42.9649 25.1274 42.9451 25.1186 42.9255 25.1096C42.7889 25.0353 42.6296 25.0145 42.4784 25.0511C42.333 25.0924 42.209 25.1878 42.1317 25.3177C42.0929 25.3847 42.0677 25.4587 42.0577 25.5354C42.0476 25.6122 42.0529 25.6901 42.0732 25.7648C42.0925 25.8374 42.126 25.9054 42.1718 25.9649C42.2175 26.0244 42.2746 26.0743 42.3398 26.1116L42.3398 26.1116Z" fill="white"/>
</g>
<path d="M40.846 12.7242C40.6415 13.4481 40.5384 14.1969 40.5396 14.9491C40.5348 17.0457 40.5207 23.3441 40.5077 29.1184C40.5039 30.985 40.5002 32.8091 40.4968 34.4954C40.4952 35.3386 40.4936 36.1473 40.492 36.9096C40.4659 37.6406 40.5113 38.3725 40.6276 39.0947C40.7387 39.7415 41.0338 40.3426 41.4776 40.826C41.8331 41.2168 42.3129 41.4726 42.8356 41.5499C43.1734 41.5909 43.5161 41.5499 43.8347 41.4303C43.944 41.3904 44.05 41.3419 44.1517 41.2854C44.2535 41.2321 44.3511 41.1711 44.4438 41.1031C44.7052 40.9142 44.9354 40.6854 45.1258 40.425C45.4142 40.0205 45.6169 39.5613 45.7215 39.0756C45.8486 38.4705 45.9074 37.8531 45.897 37.2349C45.8917 34.6045 45.8846 31.0407 45.8772 27.3075C45.865 22.3109 45.8517 16.8608 45.8473 15.0466C45.8482 14.2936 45.745 13.544 45.5405 12.8193C45.3394 13.545 45.2396 14.295 45.2439 15.0479C45.2477 16.8622 45.2593 22.3123 45.2699 27.3089C45.2783 31.0398 45.2862 34.6013 45.2921 37.2302C45.3029 37.8032 45.2496 38.3757 45.1333 38.9369C45.0477 39.3435 44.8795 39.7283 44.6393 40.0673C44.4865 40.2766 44.3018 40.4606 44.092 40.6127C44.0201 40.6656 43.9443 40.7129 43.8652 40.7543C43.7884 40.7969 43.7084 40.8335 43.6259 40.8639C43.3986 40.9497 43.1541 40.9795 42.9128 40.951C42.5274 40.8914 42.1747 40.6998 41.915 40.409C41.5498 40.0082 41.3087 39.5103 41.2206 38.9753C41.1128 38.2908 41.0716 37.5975 41.0975 36.9051C41.0993 36.1431 41.1011 35.3348 41.1029 34.4921L41.1149 29.1177C41.1264 23.3462 41.1388 17.0508 41.143 14.9552C41.147 14.2014 41.047 13.4507 40.846 12.7242V12.7242Z" fill="#2C2C2E"/>
<path d="M45.4577 12.5132C45.6505 12.5469 45.8481 12.5411 46.0386 12.4961C46.2291 12.4511 46.4084 12.3678 46.5658 12.2514C46.7431 12.1093 46.8749 11.9183 46.9449 11.7021C46.9902 11.5665 47.0079 11.4232 46.9967 11.2807C46.9856 11.1382 46.946 10.9994 46.8802 10.8725C46.8106 10.7425 46.7182 10.626 46.6074 10.5287C46.417 10.3623 46.1902 10.2431 45.9452 10.1807C45.7135 10.1224 45.4761 10.0894 45.2373 10.0824L44.8621 10.066L44.6777 10.053L44.4606 10.0296L42.7924 9.96315L42.3987 9.94776L42.3511 9.9459C42.3263 9.94495 42.3014 9.94532 42.2765 9.947L42.1902 9.95039L42.02 9.9523L41.4032 9.93445C41.0395 9.92058 40.7968 9.93621 40.7968 9.93621L40.6551 9.94633C40.5185 9.95682 40.3831 9.97881 40.2502 10.0121C40.0222 10.0651 39.8119 10.1767 39.6402 10.3357C39.4243 10.5529 39.3031 10.8467 39.3029 11.1529C39.2977 11.4724 39.4001 11.7843 39.5937 12.0385C39.6904 12.1668 39.8062 12.2795 39.937 12.3728C40.0751 12.4672 40.2296 12.535 40.3926 12.5726C40.6521 12.6171 40.9143 12.6434 41.1774 12.6514C41.2434 12.6604 41.31 12.6643 41.3767 12.663C41.4322 12.6637 41.4865 12.6628 41.5408 12.6664C41.6519 12.6692 41.763 12.6659 41.8737 12.6566C42.2492 12.6381 42.5403 12.5773 42.7529 12.5581C42.9719 12.5391 43.1445 12.534 43.2573 12.5288C43.7202 12.5118 44.0854 12.506 44.4264 12.4587C44.5823 12.4459 44.7392 12.4625 44.889 12.5076C45.0745 12.5613 45.2711 12.5632 45.4576 12.5132C45.2849 12.4686 45.119 12.4007 44.9646 12.3114C44.7968 12.2289 44.6125 12.1856 44.4256 12.1846C44.0782 12.1448 43.7168 12.1503 43.2525 12.1454L42.7398 12.1316C42.4987 12.1226 42.2179 12.1323 41.8839 12.0977C41.7833 12.087 41.6874 12.0701 41.569 12.0605C41.511 12.0544 41.4506 12.0562 41.3898 12.0547C41.3383 12.0561 41.2867 12.0528 41.2358 12.0449C41.0011 12.0365 40.7671 12.0138 40.5351 11.9769C40.3516 11.9328 40.1908 11.8224 40.0837 11.6669C39.9744 11.5229 39.9166 11.3464 39.9195 11.1657C39.9182 11.0298 39.9669 10.8982 40.0563 10.7958C40.1458 10.6935 40.2697 10.6277 40.4045 10.6108C40.5048 10.5862 40.6069 10.57 40.7098 10.5625L40.8299 10.5539C40.8299 10.5539 41.0319 10.5406 41.3823 10.5547C41.5576 10.5606 41.7707 10.5726 42.0165 10.5749L42.2069 10.5732L42.3065 10.5696C42.3313 10.5685 42.3261 10.5688 42.3261 10.5688L42.3737 10.5708L42.7673 10.587L44.4355 10.6545L44.6203 10.6756L44.8298 10.6901L45.2063 10.7059C45.4002 10.7103 45.5932 10.7354 45.7818 10.7809C45.9347 10.8173 46.0769 10.8895 46.1966 10.9916C46.2529 11.0398 46.3004 11.0975 46.3369 11.1622C46.3909 11.2882 46.411 11.4261 46.395 11.5623C46.379 11.6985 46.3275 11.828 46.2457 11.9381C46.0495 12.2074 45.774 12.4085 45.4577 12.5132V12.5132Z" fill="#2C2C2E"/>
<path d="M17.2864 10.392C18.333 10.1604 19.4075 10.0811 20.4768 10.1565C21.6531 10.1829 22.8295 10.2099 24.0058 10.2376L30.9683 10.3976C32.0888 10.4233 32.0884 8.6827 30.9683 8.65696L23.815 8.49257C22.6418 8.46561 21.4686 8.43633 20.2953 8.41177C19.1296 8.34619 17.9605 8.44784 16.8236 8.71361C15.7435 9.00551 16.2018 10.6851 17.2864 10.392V10.392Z" fill="white"/>
<path d="M21.6371 40.9915C21.7875 40.9862 21.93 40.9228 22.0346 40.8146C22.1391 40.7064 22.1976 40.5617 22.1976 40.4113C22.1976 40.2608 22.1391 40.1162 22.0346 40.0079C21.93 39.8997 21.7875 39.8363 21.6371 39.8311C21.4867 39.8363 21.3442 39.8997 21.2397 40.0079C21.1351 40.1162 21.0767 40.2608 21.0767 40.4113C21.0767 40.5617 21.1351 40.7064 21.2397 40.8146C21.3442 40.9228 21.4867 40.9862 21.6371 40.9915V40.9915Z" fill="white"/>
<path d="M29.2055 37.0408C29.3559 37.0356 29.4984 36.9721 29.6029 36.8639C29.7075 36.7557 29.7659 36.6111 29.7659 36.4606C29.7659 36.3101 29.7075 36.1655 29.6029 36.0572C29.4984 35.949 29.3559 35.8856 29.2055 35.8804C29.0551 35.8856 28.9126 35.949 28.808 36.0572C28.7035 36.1655 28.645 36.3101 28.645 36.4606C28.645 36.6111 28.7035 36.7557 28.808 36.8639C28.9126 36.9721 29.0551 37.0356 29.2055 37.0408V37.0408Z" fill="white"/>
<path d="M14.3784 33.3318C14.4536 33.3292 14.5248 33.2975 14.5771 33.2434C14.6294 33.1892 14.6586 33.1169 14.6586 33.0417C14.6586 32.9664 14.6294 32.8941 14.5771 32.84C14.5248 32.7859 14.4536 32.7542 14.3784 32.7516C14.3032 32.7542 14.2319 32.7859 14.1796 32.84C14.1274 32.8941 14.0981 32.9664 14.0981 33.0417C14.0981 33.1169 14.1274 33.1892 14.1796 33.2434C14.2319 33.2975 14.3032 33.3292 14.3784 33.3318V33.3318Z" fill="white"/>
<path d="M32.6777 38.0402C32.7529 38.0376 32.8241 38.0058 32.8764 37.9517C32.9287 37.8976 32.9579 37.8253 32.9579 37.7501C32.9579 37.6748 32.9287 37.6025 32.8764 37.5484C32.8241 37.4943 32.7529 37.4626 32.6777 37.46C32.6025 37.4626 32.5312 37.4943 32.479 37.5484C32.4267 37.6025 32.3975 37.6748 32.3975 37.7501C32.3975 37.8253 32.4267 37.8976 32.479 37.9517C32.5312 38.0058 32.6025 38.0376 32.6777 38.0402Z" fill="white"/>
<path d="M34.791 30.8152C34.8662 30.8126 34.9374 30.7809 34.9897 30.7267C35.042 30.6726 35.0712 30.6003 35.0712 30.5251C35.0712 30.4498 35.042 30.3775 34.9897 30.3234C34.9374 30.2693 34.8662 30.2376 34.791 30.235C34.7158 30.2376 34.6445 30.2693 34.5922 30.3234C34.54 30.3775 34.5107 30.4498 34.5107 30.5251C34.5107 30.6003 34.54 30.6726 34.5922 30.7267C34.6445 30.7809 34.7158 30.8126 34.791 30.8152V30.8152Z" fill="white"/>
<path d="M20.8192 34.9631C21.9392 34.9631 21.9411 33.2225 20.8192 33.2225C19.6992 33.2225 19.6974 34.9631 20.8192 34.9631Z" fill="white"/>
<path d="M32.9396 34.7509C33.0457 34.7473 33.1462 34.7025 33.2199 34.6262C33.2937 34.5499 33.3349 34.4479 33.3349 34.3418C33.3349 34.2356 33.2937 34.1337 33.2199 34.0573C33.1462 33.981 33.0457 33.9363 32.9396 33.9326C32.8336 33.9363 32.7331 33.981 32.6594 34.0573C32.5856 34.1337 32.5444 34.2356 32.5444 34.3418C32.5444 34.4479 32.5856 34.5499 32.6594 34.6262C32.7331 34.7025 32.8336 34.7473 32.9396 34.7509V34.7509Z" fill="white"/>
<path d="M19.3022 38.5248C19.415 38.5209 19.5219 38.4734 19.6004 38.3922C19.6788 38.311 19.7226 38.2026 19.7226 38.0897C19.7226 37.9768 19.6788 37.8683 19.6004 37.7872C19.5219 37.706 19.415 37.6584 19.3022 37.6545C19.1894 37.6584 19.0825 37.706 19.0041 37.7872C18.9257 37.8683 18.8818 37.9768 18.8818 38.0897C18.8818 38.2026 18.9257 38.311 19.0041 38.3922C19.0825 38.4734 19.1894 38.5209 19.3022 38.5248V38.5248Z" fill="white"/>
<path d="M14.0959 32.9495C14.0771 32.9836 14.0688 33.0225 14.072 33.0613C14.0751 33.1001 14.0897 33.1371 14.1139 33.1677C14.1504 33.2156 14.1975 33.2543 14.2516 33.2808C14.3056 33.3073 14.3651 33.3209 14.4253 33.3204C14.4747 33.3195 14.5231 33.3071 14.5669 33.2843C14.6106 33.2615 14.6485 33.2288 14.6775 33.1889C14.7075 33.1479 14.7263 33.0997 14.732 33.0492C14.7377 32.9987 14.7301 32.9476 14.7101 32.9009C14.6838 32.8457 14.6444 32.7978 14.5951 32.7616C14.5459 32.7254 14.4885 32.7019 14.428 32.6933C14.3884 32.6861 14.3475 32.6925 14.312 32.7113C14.2765 32.7302 14.2483 32.7605 14.2321 32.7973C14.3131 32.8122 14.3451 32.8351 14.405 32.8424C14.4403 32.8477 14.4738 32.8613 14.5027 32.8821C14.5316 32.903 14.5551 32.9305 14.5712 32.9623C14.581 32.9848 14.5847 33.0094 14.5818 33.0338C14.579 33.0581 14.5697 33.0813 14.555 33.1009C14.5398 33.122 14.5198 33.1392 14.4966 33.151C14.4734 33.1628 14.4477 33.1688 14.4217 33.1687C14.3851 33.1684 14.3491 33.1598 14.3164 33.1436C14.2836 33.1273 14.255 33.1038 14.2327 33.0748C14.1918 33.0283 14.1459 32.9863 14.0959 32.9495V32.9495Z" fill="#2C2C2E"/>
<path d="M19.0243 37.8025C18.9817 37.8342 18.9462 37.8746 18.9202 37.9209C18.8941 37.9671 18.878 38.0184 18.8729 38.0713C18.8678 38.1241 18.8738 38.1775 18.8905 38.2279C18.9073 38.2784 18.9344 38.3247 18.9701 38.364C19.0303 38.4371 19.1117 38.4896 19.203 38.5144C19.2613 38.5304 19.3222 38.5339 19.382 38.5248C19.421 38.5188 19.4589 38.5066 19.4941 38.4886C19.5748 38.444 19.6383 38.3738 19.6747 38.2892C19.7265 38.1687 19.7423 38.0358 19.7202 37.9066C19.7095 37.8469 19.6818 37.7916 19.6406 37.7472C19.5994 37.7028 19.5463 37.6711 19.4876 37.656C19.3957 37.6355 19.3005 37.6347 19.2083 37.6538C19.3903 37.7233 19.5362 37.7665 19.5722 37.9359C19.587 38.0347 19.5744 38.1358 19.5357 38.2279C19.5142 38.281 19.4755 38.3255 19.4258 38.3541C19.3681 38.3791 19.3036 38.384 19.2427 38.368C19.181 38.3509 19.126 38.3154 19.085 38.2662C19.0312 38.2031 18.9968 38.1256 18.986 38.0433C18.9753 37.961 18.9886 37.8774 19.0243 37.8025Z" fill="#2C2C2E"/>
<path d="M20.0658 33.713C19.969 33.8872 19.9405 34.0912 19.986 34.2852C20.0082 34.3684 20.0433 34.4476 20.0899 34.5201C20.1797 34.6636 20.308 34.7789 20.4603 34.8529C20.6412 34.9363 20.8448 34.9565 21.0386 34.9104C21.155 34.8875 21.2646 34.8383 21.3591 34.7665C21.4535 34.6947 21.5302 34.6022 21.5833 34.4961C21.6468 34.3134 21.6818 34.1219 21.6869 33.9285C21.6908 33.8366 21.6761 33.745 21.6437 33.659C21.6114 33.5729 21.562 33.4943 21.4986 33.4278C21.3792 33.3091 21.2297 33.225 21.0663 33.1847C20.9461 33.1527 20.821 33.1436 20.6975 33.1577C20.5957 33.1614 20.4974 33.1956 20.4154 33.256C20.3333 33.3164 20.2714 33.4001 20.2377 33.4963C20.3706 33.3813 20.5385 33.3148 20.7141 33.3077C20.8193 33.2963 20.9258 33.3045 21.0281 33.3317C21.1643 33.3652 21.289 33.4347 21.389 33.5331C21.439 33.5852 21.4777 33.647 21.5029 33.7146C21.5281 33.7823 21.5391 33.8544 21.5354 33.9264C21.5285 34.0517 21.5116 34.1761 21.485 34.2987C21.4768 34.346 21.4633 34.3923 21.4447 34.4366C21.4243 34.4863 21.3937 34.5313 21.3548 34.5685C21.2584 34.6648 21.1369 34.7321 21.0041 34.7627C20.8438 34.8009 20.6753 34.7843 20.5255 34.7157C20.3994 34.654 20.293 34.5583 20.2183 34.4393C20.1796 34.3792 20.1502 34.3136 20.1313 34.2446C20.0935 34.0697 20.0716 33.8918 20.0658 33.713V33.713Z" fill="#2C2C2E"/>
<path d="M21.2217 40.0258C21.1561 40.1017 21.1118 40.1937 21.0933 40.2922C21.0747 40.3908 21.0826 40.4925 21.1162 40.587C21.1421 40.6735 21.1813 40.7554 21.2324 40.8298C21.299 40.8952 21.3789 40.9455 21.4668 40.9771C21.5546 41.0087 21.6483 41.0209 21.7413 41.0128C21.8274 41.008 21.9108 40.9814 21.9838 40.9355C22.0144 40.916 22.0426 40.893 22.0676 40.8668C22.1377 40.7923 22.1886 40.7018 22.2159 40.6033C22.2636 40.4383 22.2616 40.2629 22.2101 40.0991C22.187 40.0359 22.1515 39.9781 22.1056 39.9289C22.0598 39.8797 22.0045 39.8402 21.9431 39.8127C21.8477 39.7654 21.7421 39.742 21.6356 39.7446C21.59 39.7459 21.5446 39.7522 21.5004 39.7633C21.4625 39.7731 21.3903 39.7899 21.387 39.8481C21.4154 39.8049 21.4631 39.8221 21.5031 39.8272C21.5449 39.8349 21.5843 39.8438 21.6236 39.8546C21.7105 39.8775 21.795 39.9087 21.8759 39.9478C21.9197 39.9671 21.9592 39.9949 21.9921 40.0297C22.0249 40.0645 22.0505 40.1056 22.0672 40.1504C22.1073 40.2841 22.1084 40.4266 22.0703 40.5609C22.0509 40.6359 22.013 40.7048 21.9599 40.7612C21.8997 40.8235 21.8173 40.8595 21.7307 40.8615C21.6608 40.8676 21.5904 40.8589 21.5241 40.836C21.4578 40.8132 21.397 40.7767 21.3457 40.7289C21.3108 40.672 21.2827 40.6113 21.2619 40.5479C21.203 40.3804 21.1891 40.2004 21.2217 40.0258Z" fill="#2C2C2E"/>
<path d="M28.739 36.168C28.6668 36.241 28.6185 36.3342 28.6006 36.4352C28.5826 36.5363 28.5959 36.6404 28.6385 36.7337C28.6726 36.8169 28.725 36.8913 28.7919 36.9514C28.8625 37.0139 28.9451 37.0613 29.0348 37.0907C29.1244 37.1201 29.2191 37.1308 29.313 37.1222C29.3992 37.1163 29.4825 37.0883 29.5548 37.041C29.5876 37.0242 29.6185 37.004 29.6471 36.9807C29.6708 36.9592 29.6917 36.9347 29.7093 36.908C29.7508 36.845 29.7793 36.7743 29.7929 36.7001C29.8225 36.529 29.8073 36.3533 29.7487 36.1899C29.7269 36.1264 29.6927 36.0678 29.6483 36.0175C29.6038 35.9672 29.5498 35.9262 29.4894 35.8969C29.3956 35.8523 29.29 35.8392 29.1882 35.8595C29.0864 35.8798 28.9938 35.9324 28.9243 36.0095C29.0879 35.9553 29.2659 35.9635 29.4238 36.0327C29.4669 36.054 29.5053 36.0836 29.5368 36.12C29.5682 36.1564 29.5921 36.1987 29.6069 36.2444C29.6548 36.3812 29.6676 36.5278 29.6442 36.6708C29.6333 36.7467 29.5979 36.817 29.5435 36.871C29.5229 36.8865 29.5009 36.8999 29.4777 36.911C29.4245 36.9469 29.3626 36.9678 29.2984 36.9713C29.2256 36.9777 29.1522 36.9693 29.0827 36.9466C29.0132 36.9239 28.949 36.8874 28.894 36.8392C28.8433 36.7937 28.8035 36.7374 28.7773 36.6746C28.7076 36.5149 28.6941 36.3363 28.739 36.168V36.168Z" fill="#2C2C2E"/>
<path d="M32.4894 37.5487C32.4267 37.584 32.364 37.6042 32.3524 37.7028C32.3482 37.7607 32.3599 37.8187 32.3863 37.8704C32.4127 37.9221 32.4528 37.9656 32.5022 37.9961C32.5567 38.0278 32.6196 38.0423 32.6825 38.0378C32.7102 38.0362 32.7376 38.0303 32.7636 38.0203C32.8058 38.0038 32.8438 37.9783 32.8751 37.9456C32.9064 37.9128 32.9302 37.8737 32.9449 37.8308C32.9631 37.7771 32.9674 37.7196 32.9574 37.6638C32.9473 37.6079 32.9232 37.5556 32.8874 37.5116C32.8647 37.4824 32.833 37.4615 32.7972 37.4522C32.7613 37.443 32.7235 37.4459 32.6895 37.4605C32.7124 37.5108 32.7391 37.5593 32.7694 37.6056C32.7891 37.6297 32.8023 37.6583 32.8079 37.6889C32.8136 37.7195 32.8114 37.7509 32.8017 37.7804C32.7947 37.8024 32.7831 37.8226 32.7675 37.8396C32.7519 37.8566 32.7328 37.8699 32.7115 37.8788C32.6897 37.8861 32.6666 37.8887 32.6438 37.8863C32.6209 37.884 32.5988 37.8767 32.5789 37.8651C32.5541 37.8487 32.534 37.8261 32.5207 37.7995C32.5073 37.7729 32.5012 37.7432 32.5029 37.7135C32.5093 37.6582 32.5047 37.6022 32.4894 37.5487V37.5487Z" fill="#2C2C2E"/>
<path d="M32.7436 33.9844C32.694 34.0036 32.649 34.033 32.6114 34.0706C32.5738 34.1082 32.5444 34.1532 32.5251 34.2027C32.5058 34.2523 32.4971 34.3053 32.4994 34.3585C32.5017 34.4116 32.515 34.4637 32.5385 34.5114C32.5835 34.5879 32.64 34.6571 32.7061 34.7164C32.7685 34.7781 32.8448 34.8238 32.9286 34.8498C32.9851 34.8623 33.0434 34.8633 33.1002 34.8525C33.1666 34.8412 33.2297 34.8154 33.285 34.7767C33.3402 34.7381 33.3861 34.6877 33.4195 34.6292C33.4852 34.5105 33.5025 34.371 33.4678 34.2398C33.4579 34.188 33.4374 34.1388 33.4078 34.0951C33.3781 34.0515 33.3399 34.0144 33.2953 33.9861C33.2508 33.9578 33.201 33.9389 33.1489 33.9305C33.0968 33.9222 33.0435 33.9246 32.9924 33.9376C33.0735 33.9577 33.1473 34.0001 33.2055 34.0601C33.2637 34.12 33.3039 34.1951 33.3215 34.2767C33.3455 34.3703 33.3333 34.4695 33.2873 34.5544C33.2641 34.5928 33.2331 34.6259 33.1964 34.6516C33.1596 34.6774 33.1179 34.6952 33.0739 34.7039C33.0368 34.7106 32.9987 34.7099 32.9619 34.7018C32.9031 34.6957 32.8457 34.6278 32.8068 34.603C32.7564 34.5568 32.7121 34.5043 32.6749 34.4469C32.6416 34.3712 32.6303 34.2876 32.6424 34.2057C32.6546 34.1239 32.6897 34.0471 32.7436 33.9844V33.9844Z" fill="#2C2C2E"/>
<path d="M34.5878 30.369C34.5484 30.3887 34.5149 30.4187 34.491 30.4558C34.467 30.4929 34.4535 30.5358 34.4518 30.5799C34.45 30.6433 34.4708 30.7052 34.5103 30.7548C34.5666 30.8169 34.6407 30.8601 34.7226 30.8783C34.7756 30.8947 34.8318 30.8986 34.8866 30.8897C34.9414 30.8808 34.9935 30.8594 35.0387 30.8271C35.0661 30.8061 35.0898 30.7807 35.1088 30.7518C35.1525 30.6873 35.1742 30.6103 35.1704 30.5324C35.1653 30.4638 35.1442 30.3973 35.1088 30.3382C35.0734 30.2792 35.0247 30.2292 34.9666 30.1924C34.9473 30.1778 34.9251 30.1675 34.9015 30.1624C34.8778 30.1573 34.8534 30.1575 34.8298 30.1629C34.8062 30.1682 34.7841 30.1787 34.7651 30.1936C34.746 30.2085 34.7305 30.2274 34.7195 30.2489C34.8106 30.2498 34.8268 30.2921 34.8886 30.3215C34.925 30.3461 34.9556 30.3785 34.9781 30.4163C35.0006 30.4541 35.0145 30.4963 35.0187 30.5401C35.0221 30.5723 35.017 30.6049 35.004 30.6345C34.9909 30.6642 34.9704 30.6899 34.9444 30.7092C34.9184 30.7285 34.8878 30.7407 34.8556 30.7446C34.8234 30.7485 34.7908 30.7439 34.7609 30.7314C34.6306 30.7013 34.5943 30.6185 34.6026 30.581C34.6045 30.51 34.5995 30.439 34.5878 30.369V30.369Z" fill="#2C2C2E"/>
<path d="M19.0715 12.3577C17.4945 12.6794 16.0142 13.3645 14.7484 14.3586C13.5667 15.2149 12.4978 16.2171 11.5672 17.3413C9.61455 19.6944 8.29694 22.5084 7.73991 25.515C6.62159 31.721 8.90724 38.186 14.0568 41.9334C15.3222 42.8344 16.7135 43.544 18.1858 44.0395C19.8373 44.6598 21.544 45.1217 23.2828 45.419C25.0613 45.675 26.7728 45.3113 28.4987 44.9025C30.1374 44.5143 31.8019 44.09 33.2591 43.2146C34.5944 42.3463 35.7959 41.2879 36.8257 40.0727C37.9405 38.8472 39.1248 37.6065 39.8949 36.1246C40.665 34.6427 41.0511 32.9328 41.3718 31.3041C41.7156 29.5696 41.7136 27.7842 41.3659 26.0505C40.7427 22.8493 39.555 19.6354 37.506 17.0666C36.586 15.9062 35.4719 14.914 34.2131 14.134C33.5654 13.7375 32.8786 13.4089 32.1635 13.1534C31.452 12.9309 30.7269 12.7546 29.9926 12.6257C29.4549 12.5079 28.482 12.1815 28.6712 11.442C28.8564 10.7182 27.7375 10.4094 27.5522 11.1335C27.1594 12.6687 28.6327 13.544 29.9164 13.7919C31.3011 14.0208 32.6276 14.5188 33.8208 15.2577C36.3588 16.8882 38.0617 19.517 39.1028 22.3015C39.6651 23.7887 40.0806 25.3275 40.3431 26.8957C40.5825 28.5902 40.4793 30.3155 40.0396 31.9694C39.6701 33.5314 39.2703 35.0709 38.3675 36.4207C37.4583 37.6926 36.4412 38.8838 35.3274 39.981C34.2848 41.15 33.0169 42.0966 31.5998 42.7639C30.0904 43.3519 28.527 43.7899 26.9319 44.0718C26.0777 44.2728 25.2023 44.3691 24.3249 44.3586C23.4842 44.3093 22.6518 44.1641 21.844 43.9259C20.2346 43.5413 18.6594 43.0261 17.1338 42.3852C11.7523 39.9452 8.52932 34.3248 8.60815 28.4899C8.6862 22.7122 11.9559 16.8989 17.1593 14.2202C17.8558 13.8569 18.6052 13.606 19.38 13.4766C20.1152 13.3564 19.8033 12.2381 19.0716 12.3577L19.0715 12.3577Z" fill="white"/>
<g opacity="0.4">
<path opacity="0.4" d="M19.8507 10.8027L19.73 12.2938C19.7303 12.4476 19.7914 12.595 19.8999 12.7041C20.0087 12.8129 20.1563 12.874 20.3102 12.874C20.4641 12.874 20.6116 12.8129 20.7204 12.7041C20.8237 12.5916 20.8838 12.4463 20.8904 12.2938L21.0111 10.8027C21.0107 10.6489 20.9496 10.5015 20.8411 10.3925C20.7323 10.2837 20.5847 10.2225 20.4309 10.2225C20.277 10.2225 20.1294 10.2837 20.0206 10.3925C19.9174 10.5049 19.8572 10.6502 19.8507 10.8027Z" fill="white"/>
</g>
<path d="M28.9536 11.0425C28.8184 11.4336 28.7553 11.846 28.7672 12.2596L29.0025 12.4603L29.1179 12.4744L29.1767 12.4808L29.2058 12.4838L29.2095 12.4868C29.2379 12.5 29.2674 12.5109 29.2976 12.5193L29.4166 12.5578C29.5784 12.6087 29.7536 12.658 29.9485 12.707C30.0673 12.7396 30.2494 12.7762 30.4687 12.8425L30.8245 12.9605L31.1782 13.0772C31.3337 13.1326 31.4965 13.1729 31.6496 13.2417L32.5903 13.6377C32.8995 13.7899 33.2068 13.9568 33.5215 14.1185C33.8333 14.2855 34.1265 14.4928 34.4357 14.6811C35.6889 15.5231 36.7941 16.5668 37.7063 17.77C38.6711 19.051 39.4381 20.4695 39.9819 21.9782C40.5519 23.5311 40.9305 25.1476 41.1096 26.792C41.2622 28.441 41.1658 30.1035 40.8238 31.7238C40.174 34.829 38.7003 37.702 36.5573 40.0413C35.6055 41.0899 34.5099 41.9982 33.303 42.7392C32.2438 43.4087 31.1073 43.9472 29.9184 44.3429C28.1663 44.9372 26.3251 45.2257 24.4752 45.1958C24.1439 45.1995 23.8497 45.1797 23.5942 45.1585C23.3389 45.1373 23.1211 45.132 22.9468 45.1058L22.4125 45.0356L22.2764 45.0177C22.1865 45.0061 22.0525 44.9911 21.88 44.9544C21.5339 44.8887 21.0233 44.8 20.3835 44.6251C18.5931 44.1511 16.8896 43.3954 15.3366 42.3864C13.083 40.9344 11.2158 38.9567 9.89555 36.6235C8.33229 33.8627 7.5431 30.7312 7.61123 27.5593C7.71025 24.2362 8.85161 21.0284 10.8739 18.3896C11.8442 17.1129 12.9918 15.9814 14.282 15.0293C14.5927 14.7922 14.9263 14.5922 15.2432 14.3741C15.5713 14.1736 15.9061 13.99 16.2332 13.8004C16.5743 13.6377 16.9079 13.4665 17.2457 13.3143L18.1844 12.9392L18.9479 12.6933L19.103 12.643C19.1311 12.634 19.1483 12.6283 19.1417 12.6304L19.2685 12.6107L19.5019 12.5743L19.6036 12.5583L19.6506 12.551L19.6544 12.507L19.6792 12.1997C19.687 12.0983 19.6948 11.9937 19.6947 11.9571C19.6984 11.8499 19.7007 11.7481 19.6976 11.6485C19.6951 11.4589 19.6764 11.27 19.6416 11.0836C19.6073 10.905 19.5529 10.7309 19.4792 10.5646C19.4048 10.3978 19.3456 10.2245 19.3024 10.047C19.2546 10.2314 19.2296 10.4211 19.228 10.6116C19.2269 10.7772 19.2174 10.9426 19.1995 11.1072L19.0909 12.0223C19.0877 12.0311 19.0715 12.0271 19.0595 12.0306L19.0449 12.0327C19.008 12.0381 18.9717 12.0474 18.9367 12.0605L18.7748 12.1121L17.9791 12.3672L17.002 12.7575C16.6505 12.9157 16.3035 13.0933 15.9491 13.2631C15.609 13.4595 15.2612 13.6505 14.9205 13.8589C14.5912 14.0848 14.2453 14.2931 13.9228 14.5388C12.5851 15.5257 11.3953 16.6987 10.3895 18.0223C8.29109 20.7622 7.10689 24.0924 7.00427 27.542C6.93322 30.825 7.75018 34.0662 9.36884 36.9233C10.0956 38.1995 10.9796 39.3794 12.0001 40.4355C12.9058 41.3665 13.9147 42.1913 15.0072 42.8938C16.6139 43.9373 18.3763 44.7187 20.2284 45.2087C20.8904 45.3894 21.419 45.4815 21.7773 45.5492C21.9558 45.5869 22.0945 45.6026 22.1877 45.6147L22.3287 45.6332L22.8819 45.7059C23.0624 45.7327 23.2883 45.7389 23.5528 45.7608C23.8175 45.7826 24.1224 45.8031 24.466 45.7996C26.3847 45.8309 28.2946 45.532 30.1121 44.916C31.3451 44.5056 32.5238 43.9474 33.6225 43.2536C34.8756 42.4842 36.0135 41.5413 37.0023 40.453C39.2205 38.033 40.746 35.0603 41.4185 31.8471C41.773 30.1673 41.8728 28.4437 41.7146 26.7342C41.5309 25.0376 41.1405 23.3697 40.5523 21.7677C39.9877 20.2026 39.1916 18.731 38.1904 17.4021C37.2375 16.1455 36.083 15.0554 34.7738 14.1761C34.4512 13.9788 34.144 13.763 33.8187 13.5884C33.4905 13.4193 33.1695 13.2454 32.8468 13.087L31.8669 12.6745C31.7072 12.6032 31.5385 12.5608 31.3768 12.5033L31.0092 12.382L30.6391 12.2605C30.4111 12.1925 30.2226 12.1551 30.0991 12.1226C29.8965 12.0737 29.7121 12.0344 29.54 12.003L29.2634 11.9573L29.2072 11.9603L29.1768 11.9633L29.1179 11.9697L29.0026 11.9838H29.0025L29.2377 12.1844V12.1844C29.1201 11.8098 29.0252 11.4285 28.9536 11.0425V11.0425Z" fill="#2C2C2E"/>
<path d="M31.3917 10.1364C30.6993 9.83979 29.9655 9.65091 29.2159 9.57637L28.6688 9.51949L28.2868 9.48204L27.7318 9.43579L27.1194 9.39143C25.2743 9.26335 23.423 9.2521 21.5765 9.35774C20.6325 9.41246 19.7115 9.50363 18.8649 9.61159C18.4672 9.66457 18.067 9.69688 17.6659 9.70837C17.3262 9.73889 16.9841 9.68835 16.6677 9.56091C16.5439 9.49407 16.4892 9.41046 16.5059 9.36634C16.5262 9.28354 16.5666 9.20699 16.6234 9.1434C16.6893 9.06105 16.7609 8.98349 16.8377 8.91129C16.8799 8.86516 16.9323 8.8295 16.9907 8.80715C17.0382 8.78957 17.0886 8.7815 17.1392 8.78344L17.3251 8.77655L17.4791 8.77081C17.4791 8.77081 20.894 8.62985 24.6516 8.66753C26.5222 8.68197 28.5118 8.74734 30.1383 8.83637L30.9538 8.88312C31.0956 8.88163 31.2358 8.91357 31.3629 8.97636C31.4959 9.0449 31.6125 9.1413 31.7049 9.25898C31.7972 9.37666 31.8631 9.51287 31.8981 9.65832C31.9298 9.7935 31.9463 9.89192 31.8643 9.98218C31.7282 10.0844 31.562 10.1387 31.3917 10.1364C31.5759 10.2266 31.7864 10.247 31.9844 10.1939C32.0989 10.1502 32.1929 10.0651 32.2475 9.9554C32.2972 9.85387 32.325 9.74307 32.3292 9.63013C32.3427 9.38586 32.2845 9.14296 32.1618 8.93132C32.0391 8.71967 31.8572 8.54851 31.6385 8.43887C31.438 8.33712 31.2173 8.28134 30.9925 8.2756L30.1732 8.22343C28.5391 8.12612 26.54 8.03999 24.6595 8.01378C20.8811 7.94481 17.4506 8.15713 17.4506 8.15713L17.2959 8.16559L17.1093 8.17583C16.9907 8.17898 16.8737 8.2033 16.7637 8.24765C16.6264 8.30505 16.5051 8.39504 16.4104 8.50982C16.3152 8.61787 16.2332 8.73679 16.1659 8.8641C16.0628 9.03872 16.0261 9.24467 16.0626 9.44416C16.0913 9.56486 16.1612 9.67179 16.2601 9.74663C16.3003 9.78344 16.3474 9.81198 16.3986 9.83064C16.4437 9.85385 16.4907 9.87302 16.5391 9.88792C16.9107 9.9679 17.2911 9.99862 17.6706 9.97929C18.063 9.97334 18.4729 9.93135 18.899 9.88208C19.7411 9.77842 20.6541 9.69742 21.5916 9.65963C23.4239 9.59275 25.2586 9.65337 27.0825 9.84107L28.2362 9.96492L28.6138 10.0121L29.1547 10.0808C29.8955 10.1884 30.6465 10.2071 31.3917 10.1364V10.1364Z" fill="#2C2C2E"/>
<path d="M20.3705 10.4453C20.2721 10.8138 20.2494 11.1985 20.3037 11.5761C20.3238 11.7378 20.352 11.8984 20.3884 12.0573L20.4055 12.121C20.4157 12.151 20.4308 12.205 20.449 12.2459C20.4808 12.3294 20.5235 12.4083 20.5761 12.4805L20.702 12.637L20.7512 12.6973C20.7653 12.7198 20.7702 12.6752 20.7757 12.6759L20.8843 12.4722C20.9008 12.4435 20.9146 12.4133 20.9255 12.3821C20.9593 12.295 20.9821 12.204 20.9934 12.1113C21.0098 11.976 21.0142 11.8395 21.0067 11.7034L20.977 11.0145C20.9725 10.8569 20.9561 10.6998 20.9278 10.5447C20.9169 10.4569 20.8741 10.3761 20.8076 10.3177C20.7411 10.2594 20.6554 10.2275 20.5669 10.2282C20.5399 10.2307 20.5139 10.2395 20.4909 10.2539C20.4679 10.2683 20.4486 10.2878 20.4345 10.3109C20.4203 10.334 20.4117 10.3601 20.4094 10.3872C20.4071 10.4142 20.4111 10.4413 20.4211 10.4665C20.4207 10.4485 20.4244 10.4306 20.4322 10.4142C20.4399 10.3979 20.4513 10.3836 20.4656 10.3725C20.4799 10.3614 20.4965 10.3538 20.5143 10.3504C20.532 10.3469 20.5503 10.3476 20.5677 10.3525C20.6068 10.3753 20.6381 10.4094 20.6575 10.4503C20.6769 10.4912 20.6835 10.537 20.6764 10.5817C20.6745 10.6933 20.6675 10.8561 20.6755 11.0271L20.7031 11.7141C20.7082 11.8223 20.7063 11.9307 20.6976 12.0388C20.6972 12.0447 20.6979 12.0422 20.6979 12.0422L20.6978 12.0416L20.6983 12.0406L20.6988 12.0414L20.6824 11.9824C20.6271 11.7428 20.6155 11.6082 20.6026 11.5347C20.5522 11.1663 20.4747 10.8022 20.3705 10.4453V10.4453Z" fill="#2C2C2E"/>
<path d="M10.145 28.8626C10.8605 29.1109 11.6114 29.2417 12.3686 29.2499L12.9237 29.2495L13.312 29.2396C13.6032 29.227 13.984 29.2081 14.3443 29.1674C15.1403 29.0888 15.9248 28.9203 16.6828 28.665C17.4736 28.3964 18.2252 28.036 18.9893 27.8509C20.368 27.5238 21.7948 27.4515 23.1995 27.6375C23.7654 27.6942 24.231 27.7631 24.5557 27.8111L25.0631 27.8885L26.9378 28.1891C27.5116 28.273 28.1882 28.3771 28.9373 28.4355C29.7365 28.5127 30.5411 28.5191 31.3415 28.4544C33.031 28.3321 34.6809 27.7086 36.0476 27.5019C36.6344 27.4041 37.1292 27.3735 37.3769 27.3531C38.131 27.3193 38.8744 27.1615 39.5772 26.886C38.837 26.7576 38.0849 26.7124 37.3347 26.7511C37.0823 26.7695 36.5714 26.7992 35.9486 26.9023C34.5048 27.1262 32.8681 27.741 31.2905 27.8493C30.5239 27.9114 29.7533 27.9054 28.9877 27.8315C28.2625 27.7756 27.5957 27.6736 27.029 27.5912L25.1573 27.2924L24.6445 27.2138C24.3163 27.1651 23.843 27.0946 23.2617 27.0358C21.7836 26.8408 20.2823 26.9183 18.8321 27.2644C18.0031 27.4681 17.2349 27.8376 16.4856 28.09C15.7707 28.3304 15.0309 28.4891 14.2803 28.563C13.937 28.6021 13.5703 28.6203 13.2894 28.6328L12.9136 28.6432L12.3735 28.6464C11.6249 28.6332 10.8772 28.7057 10.145 28.8626V28.8626Z" fill="#2C2C2E"/>
<g opacity="0.5">
<path opacity="0.5" d="M12.5583 20.0226C12.5457 20.0133 12.5136 20.036 12.5367 19.9842C12.6173 19.8254 12.7414 19.7371 12.8303 19.5842L12.8173 19.5593C12.9072 19.4548 13.0011 19.3469 13.1031 19.2419C13.2647 19.0281 13.4394 18.8255 13.616 18.6256C13.6046 18.6243 13.5962 18.6209 13.6119 18.5991C13.6837 18.514 13.8002 18.4122 13.9163 18.303L13.9651 18.2522C13.9684 18.2477 13.9706 18.2424 13.9716 18.2369C13.9725 18.2313 13.9722 18.2257 13.9706 18.2203L14.119 18.0919C14.7049 17.5065 15.3544 16.9886 16.0554 16.5476C16.2058 16.4379 16.3619 16.3361 16.5229 16.2426C16.7827 16.1119 17.049 15.9946 17.3209 15.8913C17.2472 15.8224 17.8282 15.5443 17.6778 15.5088C17.824 15.4651 17.9651 15.4057 18.0986 15.3319C18.1122 15.2472 18.2109 15.1159 18.6497 14.9283C18.8234 14.8602 19.1065 14.8129 19.1646 14.7789C19.2568 14.7265 18.9189 14.7958 19.0109 14.7434C17.6775 15.1053 16.4021 15.6545 15.223 16.3748C14.6257 16.7709 14.0597 17.2121 13.5298 17.6948C12.9401 18.2481 12.4174 18.8686 11.9722 19.5437L11.9334 19.6095C11.6781 20.0035 11.4742 20.4284 11.3266 20.874C11.2832 21.0487 11.2399 21.2249 11.2119 21.4039C11.2522 21.3296 11.2873 21.2604 11.3248 21.2034C11.2713 21.3371 11.2307 21.4756 11.2036 21.6171C11.1409 21.9989 11.241 21.7975 11.3367 21.675C11.3904 21.5824 11.3887 21.7276 11.4635 21.5815C11.4246 21.6911 11.4145 21.7488 11.3814 21.8607C11.4002 21.8796 11.4643 21.5116 11.4836 21.6016C11.4471 21.7133 11.4171 21.827 11.3937 21.9421C11.4362 21.9115 11.5103 21.5588 11.542 21.587C11.5261 21.6465 11.4103 21.8863 11.4443 21.9183C11.468 21.8672 11.4859 21.8136 11.4977 21.7586C11.4144 22.1039 11.4243 22.3013 11.5354 22.0003C11.5072 22.1069 11.4605 22.2569 11.4408 22.3723L11.4417 22.3715L11.4963 22.1655L11.4528 22.3596L11.4773 22.3289C11.4926 22.2816 11.507 22.234 11.5183 22.1838L11.4895 22.3122C11.5117 22.2794 11.5323 22.2456 11.5512 22.2108C11.6066 22.0635 11.6869 21.9319 11.7087 21.8518C11.9112 21.2077 12.1968 20.5928 12.5583 20.0226V20.0226Z" fill="#C7C7CC"/>
</g>
<g opacity="0.5">
<path opacity="0.5" d="M44.8894 11.2104C44.8992 11.1982 44.9047 11.1827 44.9157 11.1822C44.9453 11.1867 44.9292 11.2408 44.9589 11.2452L44.976 11.2266L45.0023 11.2942C45.0335 11.3146 45.0661 11.3329 45.0998 11.3489C45.1049 11.3413 45.11 11.3344 45.1148 11.334C45.1299 11.3378 45.139 11.3569 45.1512 11.3711L45.1603 11.3732C45.1659 11.3696 45.171 11.3653 45.1756 11.3604C45.1807 11.3662 45.1849 11.3727 45.1881 11.3798C45.2826 11.3939 45.3738 11.425 45.4573 11.4716C45.4828 11.4769 45.506 11.4901 45.5236 11.5093C45.5371 11.5364 45.52 11.5736 45.5122 11.5972C45.6048 11.6019 45.6233 11.6995 45.7112 11.7153C45.6994 11.7446 45.6742 11.7848 45.694 11.8001C45.7154 11.8124 45.734 11.8291 45.7486 11.849C45.7631 11.869 45.7733 11.8918 45.7784 11.916C45.7836 11.9402 45.7835 11.9652 45.7784 11.9893C45.7732 12.0135 45.7629 12.0363 45.7483 12.0563C45.7107 12.106 45.6141 12.1215 45.6025 12.1421C45.5835 12.1789 45.6954 12.1552 45.678 12.1909C45.777 12.142 45.8619 12.0688 45.9249 11.9782C45.9879 11.8875 46.0268 11.7823 46.038 11.6725C46.0584 11.4918 46.0216 11.3092 45.9327 11.1505C45.8427 11.0423 45.7431 10.9424 45.6352 10.8522C45.507 10.7496 45.4051 10.6752 45.3647 10.6304L45.356 10.6249C45.3096 10.5781 45.2499 10.5469 45.1851 10.5355L45.0839 10.5462L45.0809 10.5998C45.0626 10.5829 45.0444 10.5661 45.027 10.5728C44.9619 10.5701 44.9577 10.6236 44.936 10.6838C44.9309 10.7137 44.8902 10.7335 44.8913 10.7689L44.8609 10.7408C44.8438 10.7594 44.9088 10.7621 44.8742 10.7875C44.8677 10.7701 44.8442 10.7712 44.8321 10.7599C44.8153 10.7904 44.8688 10.8055 44.846 10.8303C44.8342 10.8309 44.8381 10.7656 44.8095 10.7966C44.8038 10.8028 44.816 10.814 44.822 10.8197C44.7742 10.7983 44.7274 10.8124 44.7353 10.8772C44.7235 10.8662 44.7167 10.8381 44.6997 10.8321L44.6994 10.8327C44.7052 10.839 44.7113 10.855 44.7171 10.8603L44.6958 10.8406L44.6889 10.8575C44.6906 10.8655 44.6944 10.8729 44.6999 10.8789L44.6858 10.8658L44.6742 10.9068C44.6753 10.9423 44.6678 10.9871 44.6769 10.9955C44.7416 11.073 44.8126 11.1449 44.8894 11.2104Z" fill="#C7C7CC"/>
</g>
<g opacity="0.5">
<path opacity="0.5" d="M41.4344 15.6409C41.4501 15.6414 41.4649 15.6131 41.4733 15.6561C41.492 15.7918 41.444 15.9029 41.4635 16.0386L41.489 16.0476L41.4644 16.3762L41.5084 16.9917C41.5174 16.986 41.5258 16.9831 41.5301 17.0033C41.5408 17.088 41.5371 17.2062 41.5403 17.3283L41.5474 17.3819C41.5492 17.3864 41.5521 17.3904 41.5557 17.3936C41.5593 17.3969 41.5635 17.3992 41.5682 17.4006L41.5699 17.5504C41.6502 18.1466 41.7447 18.7503 41.8487 19.4032C41.882 19.5405 41.9154 19.6777 41.9359 19.8106C41.9602 20.008 41.9642 20.262 41.9766 20.4555C42.0631 20.4187 42.1462 20.8851 42.2282 20.7836C42.2258 20.8953 42.2424 21.0066 42.2774 21.1127C42.3558 21.1358 42.4505 21.2269 42.5279 21.5624C42.5512 21.6944 42.5391 21.9017 42.5588 21.9471C42.59 22.0186 42.5954 21.7696 42.6266 21.8411C42.558 20.8511 42.4476 19.9017 42.3824 18.9045C42.3118 18.5686 42.1784 16.2768 42.1858 15.6868L42.1832 15.6333C42.1815 15.3047 42.161 14.9764 42.1217 14.6502L42.0436 14.2732L42.0027 14.4345C42.0076 14.3318 42.0017 14.229 41.9849 14.1276C41.9433 13.8538 41.9006 14.0097 41.8413 14.1164C41.8158 14.1928 41.7733 14.0906 41.7483 14.2101L41.7485 13.9949C41.723 13.9854 41.765 14.2598 41.7229 14.2007C41.731 14.1178 41.7148 14.0252 41.7148 13.9392C41.6809 13.9695 41.7057 14.2374 41.6723 14.2248C41.6633 14.1784 41.7148 13.9822 41.6725 13.9662C41.6634 14.0076 41.6604 14.05 41.6637 14.0923C41.6474 13.8274 41.6055 13.6816 41.5627 13.9244C41.5629 13.8403 41.5792 13.7212 41.5723 13.6323L41.5716 13.633L41.563 13.795L41.5633 13.6436L41.5461 13.6702C41.541 13.7083 41.5381 13.7468 41.5376 13.7852L41.5378 13.6846C41.5233 13.7125 41.5105 13.7413 41.4996 13.7707C41.4716 13.8691 41.4502 13.9692 41.4355 14.0704C41.4237 14.5933 41.4206 15.1187 41.4344 15.6409Z" fill="#C7C7CC"/>
</g>
<path d="M40.4965 10.8901C40.4208 10.8907 40.372 10.9052 40.3546 10.9531C40.3354 11.012 40.3247 11.0732 40.323 11.1351C40.3204 11.2306 40.3367 11.3256 40.3711 11.4147C40.3876 11.4479 40.3941 11.4894 40.4265 11.5094C40.4495 11.5217 40.471 11.5365 40.4906 11.5537C40.5035 11.5709 40.5218 11.5831 40.5426 11.5884C40.5528 11.5953 40.5647 11.5993 40.577 11.5999C40.5893 11.6004 40.6016 11.5975 40.6123 11.5916C40.6257 11.5518 40.6215 11.538 40.6144 11.5248C40.6149 11.507 40.6096 11.4896 40.5993 11.4751C40.5925 11.4552 40.5913 11.4338 40.5959 11.4133C40.5997 11.3847 40.5776 11.3658 40.5724 11.3391C40.5486 11.2763 40.5381 11.2092 40.5418 11.1421C40.5437 11.0998 40.55 11.0577 40.5605 11.0166C40.5689 10.9831 40.5406 10.9535 40.4965 10.8901Z" fill="#2C2C2E"/>
</svg>
