<svg width="54" height="54" viewBox="0 0 54 54" fill="none" xmlns="http://www.w3.org/2000/svg">
<path fill-rule="evenodd" clip-rule="evenodd" d="M27.8989 2.04221C34.9487 1.44353 40.0889 7.34217 44.7426 11.5292C48.5459 14.9511 50.9485 19.1024 51.8411 23.5834C52.6292 27.5394 50.2717 31.1986 49.4479 35.1502C48.4174 40.093 51.6255 46.7062 46.4144 49.6136C41.1904 52.5283 34.3039 46.8821 27.8989 47.1732C20.7871 47.4963 14.0239 54.0143 7.75225 51.3704C1.68981 48.8148 2.00911 41.6446 2.00088 36.2559C1.99434 31.9708 5.64159 28.5054 7.7113 24.5381C9.57783 20.9602 10.6791 17.3435 13.5172 14.1809C17.671 9.55209 20.7132 2.65244 27.8989 2.04221Z" fill="#FF8C82" stroke="#0375D7" stroke-width="4"/>
<g opacity="0.7">
<path opacity="0.7" d="M14.1547 11.772C14.171 11.7959 14.1798 11.8242 14.1801 11.8532C14.1804 11.8822 14.1721 11.9106 14.1563 11.9349C13.4402 13.042 13.0306 14.1801 12.5536 15.5472C11.8955 17.4331 11.8466 19.4677 12.0786 21.4455C12.3107 23.4233 13.0183 25.3866 14.3507 26.9324C14.9567 27.6004 15.6164 28.2165 16.3231 28.7744C17.0282 29.3922 17.7868 29.9444 18.5899 30.4245C19.5003 30.9367 20.5094 31.1837 21.4875 31.4789C23.22 32.0018 23.4567 31.723 25.1379 31.7338C25.4161 32.69 25.5141 34.1222 25.7923 35.0785C24.6216 35.46 25.5592 35.1701 23.5989 35.3122C23.0714 35.3547 22.5466 35.4265 22.0268 35.5273C21.0315 35.6966 20.0209 35.7564 19.0127 35.7056C17.9584 35.679 16.9034 35.7102 15.8524 35.7991C14.6757 35.8922 13.4941 35.9149 12.3134 35.9376L7.97811 36.0208C7.74373 36.0253 7.47721 36.0172 7.32242 35.8516C7.22633 35.7246 7.17404 35.5692 7.17355 35.4093L6.60044 30.0495C6.49837 29.3027 6.46222 28.5482 6.4924 27.795C6.53531 27.1783 6.66715 26.5691 6.69926 25.9519C6.75136 24.9507 6.5403 23.9536 6.5224 22.9514C6.50495 21.9746 6.67109 21.0005 6.64364 20.0239C6.62013 19.188 6.45492 18.3583 6.46111 17.5221C6.47351 15.8455 7.17292 14.1778 6.8666 12.5261C6.79813 12.1568 6.72262 11.687 7.06025 11.4878C7.20341 11.4196 7.3609 11.3878 7.519 11.3952C9.77211 11.3193 11.6532 11.4435 13.8817 11.6146C13.9359 11.6188 13.9885 11.6351 14.0357 11.6623C14.0829 11.6895 14.1236 11.727 14.1547 11.772L14.1547 11.772Z" fill="white"/>
</g>
<g opacity="0.5">
<path opacity="0.5" d="M32.8467 30.1845C33.4929 30.691 33.9956 31.3571 34.4894 32.0161C37.8598 36.5137 41.1792 41.0498 44.4476 45.6244C44.735 46.0268 45.0503 46.4515 45.513 46.6175C46.0339 46.8045 46.6206 46.6116 47.0804 46.3016C47.3643 46.1373 47.58 45.875 47.688 45.5628C47.8326 45.0106 47.4177 44.4833 47.032 44.0658C45.8631 42.8003 44.6884 41.5403 43.5081 40.2857C42.9906 39.7356 42.4723 39.1862 41.9534 38.6375L39.5566 36.1C37.5228 33.9468 35.5203 31.5329 33.3752 29.4929" fill="white"/>
</g>
<path d="M31.9627 27.5212C30.5011 28.6736 28.942 29.5965 27.1579 30.1046C25.6042 30.547 23.9891 30.7015 22.4127 30.3507C20.4164 29.9063 18.4841 29.0499 16.9458 27.689C15.0584 25.9798 13.8298 23.6508 13.4771 21.114C13.1403 18.5812 13.5786 16.0048 14.7331 13.7312C15.0204 13.1322 15.3812 12.5721 15.8068 12.0641C16.376 11.4041 17.0162 10.8102 17.7156 10.2936C18.1014 9.99596 18.5163 9.73891 18.9537 9.52639C21.9537 7.97234 26.1672 7.9875 29.2876 9.2766C29.962 9.55518 30.6395 9.8577 31.2115 10.3137C33.0857 11.8078 33.92 13.2807 34.6494 15.1398C35.0344 16.1695 35.3007 17.2406 35.4432 18.332C35.6763 20.0706 35.4591 21.8407 34.8126 23.4691C34.1661 25.0974 33.1126 26.5282 31.7551 27.6214" fill="white"/>
<path d="M31.6657 27.4269C31.6703 27.4229 31.6756 27.4199 31.6814 27.4181C31.6872 27.4164 31.6933 27.4159 31.6993 27.4168C31.8304 27.407 32.0748 27.4531 31.995 27.7944C31.9908 27.8091 31.9842 27.8231 31.9756 27.8357C31.962 27.8455 31.7158 28.0412 31.3382 28.3095C31.1994 28.4052 31.0578 28.5028 30.9136 28.6023C30.4301 28.9272 29.928 29.2228 29.4099 29.4877C28.3185 30.0465 27.1504 30.4369 25.9445 30.6459C24.6666 30.8832 23.3536 30.8466 22.0906 30.5385C20.7835 30.2315 19.5294 29.7279 18.3701 29.0446C15.9931 27.6559 14.1745 25.1846 13.4731 22.3766C12.7428 19.5648 13.1349 16.48 14.3939 13.8511C14.698 13.178 15.0862 12.5472 15.549 11.9741C16.0218 11.4199 16.541 10.9079 17.1007 10.4438C17.3833 10.2074 17.6826 10.0046 17.9717 9.80015C18.2737 9.5955 18.5909 9.41466 18.9204 9.25922C19.5644 8.93731 20.2399 8.68436 20.9359 8.50449C21.6213 8.32098 22.3213 8.19876 23.0278 8.13924C24.4155 8.01405 25.8138 8.09326 27.179 8.3744C27.8492 8.50854 28.5067 8.70071 29.1442 8.94876C29.7803 9.17878 30.3918 9.47306 30.9695 9.82715C31.5172 10.2077 32.0261 10.6424 32.4885 11.125C33.3817 12.0534 34.095 13.1427 34.5916 14.3366C35.0856 15.4453 35.4309 16.6158 35.6182 17.8171C35.8268 18.9418 35.846 20.094 35.6751 21.2252C35.5183 22.2652 35.2092 23.2758 34.7578 24.2237C34.5461 24.6615 34.3062 25.0846 34.0396 25.4905C33.9037 25.6835 33.7822 25.883 33.6353 26.0593L33.5791 26.131C33.5213 26.2047 33.4709 26.2689 33.4295 26.3217C33.3482 26.4289 33.2954 26.4846 33.2954 26.4846L32.9555 26.8097C32.7355 27.0076 32.5027 27.1906 32.2588 27.3575C31.4734 27.8786 31.6988 27.5396 32.0866 27.1322C32.0653 27.1525 32.2921 26.8996 32.5212 26.6439C32.7356 26.3755 32.9544 26.1015 32.9544 26.1015C32.9544 26.1015 32.9988 26.045 33.0765 25.9461C33.0959 25.9213 33.1173 25.894 33.1408 25.8641L33.1773 25.8175L33.1965 25.7929L33.3401 25.6099C33.3981 25.5255 33.4566 25.4404 33.5156 25.3546C34.579 23.8067 35.1886 21.9867 35.2745 20.104C35.2993 19.0274 35.1804 17.9523 34.9209 16.9078C34.6572 15.7835 34.2511 14.6983 33.7125 13.6791C33.1507 12.6051 32.3901 11.6501 31.472 10.8662C31.2431 10.6615 31.0022 10.4709 30.7506 10.2955C30.4923 10.1264 30.2226 9.97582 29.9435 9.84491C29.368 9.57086 28.7735 9.33968 28.1647 9.15322C26.9118 8.77935 25.6119 8.59124 24.3056 8.59477C22.9679 8.58441 21.6374 8.79261 20.3655 9.21132C19.7284 9.43104 19.1135 9.71133 18.5288 10.0484C18.2591 10.2135 17.9615 10.4338 17.6932 10.6281C17.4223 10.8344 17.1621 11.0546 16.9136 11.2879C16.407 11.7453 15.9515 12.2573 15.5551 12.815C15.1791 13.3915 14.8583 14.003 14.5971 14.6411C13.5265 17.1911 13.289 20.1232 14.1016 22.7318C14.4936 24.0277 15.128 25.2354 15.9704 26.2894C16.7966 27.3156 17.8144 28.1674 18.9659 28.7962C20.0867 29.4061 21.2886 29.8495 22.5346 30.1128C23.7246 30.3495 24.9496 30.3408 26.1362 30.087C27.2715 29.8617 28.3677 29.4682 29.3894 28.9193C29.8787 28.6583 30.3527 28.3692 30.8093 28.0533C30.8922 27.9953 30.9735 27.9385 31.0534 27.8827C31.4151 27.6252 31.6525 27.4365 31.6657 27.4269Z" fill="#2C2C2E"/>
<path d="M32.1354 28.1577C32.1412 28.1543 32.1476 28.1521 32.1543 28.1512C32.1609 28.1502 32.1677 28.1507 32.1741 28.1524C32.3293 28.1586 32.5228 28.2781 32.3907 28.5814C32.3852 28.5941 32.3776 28.6057 32.3682 28.6158C32.145 28.7337 31.9446 28.8912 31.7767 29.0809C31.6557 29.2144 31.5495 29.3609 31.46 29.5177C31.3929 29.6563 31.3667 29.8115 31.3843 29.9648C31.4212 30.29 31.6257 30.4765 31.9046 30.4118C32.1917 30.3501 32.4953 30.0748 32.7743 29.8084C33.0518 29.5386 33.3021 29.2417 33.5216 28.922C33.5906 28.8312 33.6361 28.7244 33.654 28.6113C33.6631 28.571 33.6619 28.5289 33.6505 28.4891C33.6391 28.4494 33.6178 28.4132 33.5887 28.3841C33.506 28.3033 33.4045 28.2448 33.2935 28.2141C33.1825 28.1834 33.0657 28.1814 32.9538 28.2084C32.5292 28.3035 32.3758 28.3557 32.3978 28.2784C32.5258 28.1161 32.6978 27.9951 32.8927 27.9301C32.9573 27.8977 33.0268 27.8764 33.0983 27.8669C33.2915 27.8275 33.492 27.8481 33.6735 27.9261C33.7788 27.9691 33.8736 28.0345 33.9516 28.118C34.0296 28.2014 34.0888 28.3009 34.1253 28.4096C34.149 28.488 34.1594 28.5699 34.1561 28.6519C34.1553 28.6818 34.1527 28.7116 34.1484 28.7412C34.112 28.9087 34.0424 29.067 33.9439 29.2066C33.7044 29.5572 33.4306 29.8826 33.1269 30.1781C32.8214 30.4553 32.5208 30.7838 32.0094 30.9146C31.8728 30.9467 31.7308 30.9464 31.5944 30.9136C31.458 30.8809 31.3309 30.8167 31.2231 30.726C31.0254 30.5435 30.9025 30.2926 30.8788 30.0229C30.8496 29.7689 30.8942 29.5118 31.0071 29.283C31.1166 29.0853 31.2486 28.9012 31.4003 28.7344C31.6091 28.4991 31.8582 28.3038 32.1354 28.1577V28.1577Z" fill="#2C2C2E"/>
<path d="M31.2651 28.8777C31.2704 28.8738 31.2765 28.8711 31.283 28.8698C31.2895 28.8685 31.2961 28.8687 31.3026 28.8703C31.4461 28.8734 31.707 28.9494 31.5851 29.3119C31.5789 29.3275 31.5704 29.342 31.5596 29.3548C31.5439 29.3639 31.256 29.5507 30.818 29.8024C30.6571 29.8919 30.4931 29.983 30.326 30.076C29.7667 30.3781 29.1903 30.6465 28.5996 30.8798C27.3552 31.3721 26.0448 31.6731 24.7121 31.7728C23.2981 31.8956 21.8744 31.7169 20.5331 31.2481C19.1437 30.7759 17.8324 30.0956 16.6428 29.23C14.2027 27.4679 12.4815 24.5883 12.0112 21.4609C11.5094 18.3263 12.2563 15.014 13.8988 12.2898C14.2993 11.5903 14.7873 10.9458 15.3508 10.3725C15.9225 9.82038 16.5402 9.31908 17.197 8.87413C17.5297 8.64728 17.8749 8.45903 18.211 8.26711C18.5609 8.07723 18.9247 7.91469 19.2992 7.7809C20.0327 7.49911 20.7935 7.29616 21.569 7.17541C22.3332 7.04875 23.107 6.99047 23.8814 7.00126C25.4031 7.01296 26.9151 7.24809 28.3699 7.69928C29.0844 7.91682 29.7791 8.19592 30.4465 8.5335C31.1142 8.85129 31.7483 9.23687 32.3389 9.6843C32.6222 9.91884 32.8904 10.1715 33.1419 10.4407C33.3908 10.7019 33.635 10.9665 33.8608 11.2462C34.3162 11.7953 34.7146 12.3902 35.0497 13.0216C35.3692 13.6387 35.6353 14.2825 35.8451 14.9459C36.2903 16.2403 36.4667 17.5823 36.5545 18.8477C36.604 19.48 36.6069 20.1151 36.563 20.7479C36.5134 21.3587 36.4133 21.9643 36.264 22.5584C35.9862 23.6726 35.5458 24.7388 34.9573 25.7219C34.6819 26.1754 34.3773 26.6102 34.0455 27.0234C33.8778 27.2188 33.7251 27.4229 33.5471 27.5991L33.4787 27.6711C33.4082 27.7451 33.3469 27.8096 33.2963 27.8626C33.1969 27.9705 33.1337 28.0255 33.1337 28.0255C33.1337 28.0255 32.9624 28.1605 32.7308 28.3429C32.4711 28.5348 32.1992 28.7092 31.9169 28.8649C31.0093 29.3483 31.2894 29.0037 31.7529 28.6018C31.7277 28.6216 32.0003 28.3707 32.2758 28.1169C32.5365 27.8478 32.8028 27.5731 32.8028 27.5731C32.8028 27.5731 32.8568 27.5164 32.9515 27.4171L33.0298 27.3347L33.0743 27.2879L33.0978 27.2632L33.2727 27.0794C33.3445 26.9938 33.4169 26.9074 33.4899 26.8204C34.806 25.2496 35.6567 23.3351 35.9441 21.2971C36.1046 20.1879 36.0391 19.0049 35.8988 17.78C35.8296 17.1642 35.7186 16.5539 35.5665 15.9535C35.4021 15.3359 35.1989 14.7295 34.9581 14.138C34.4483 12.9153 33.708 11.8045 32.7784 10.8677C32.5491 10.6214 32.3063 10.3884 32.0512 10.1697C31.7886 9.95765 31.5114 9.76491 31.2217 9.59293C30.6247 9.23351 30.0026 8.91877 29.3602 8.65122C28.0373 8.11073 26.6436 7.7676 25.223 7.63259C23.7698 7.47854 22.3016 7.56308 20.8751 7.88295C20.1594 8.05356 19.4614 8.29262 18.7905 8.59691C18.4798 8.74654 18.1349 8.955 17.8218 9.13774C17.5058 9.33294 17.1999 9.54459 16.9056 9.77185C16.3073 10.2154 15.7585 10.7234 15.269 11.2871C14.8 11.8736 14.3876 12.5043 14.0374 13.1703C12.6081 15.8287 12.045 18.9914 12.6574 21.9138C12.9488 23.3643 13.5131 24.7447 14.3196 25.9801C15.1113 27.1834 16.1295 28.2174 17.3162 29.0231C18.4716 29.8049 19.7325 30.4143 21.0599 30.8324C22.3291 31.2159 23.662 31.336 24.9783 31.1856C26.236 31.0607 27.4685 30.7487 28.6361 30.2598C29.195 30.0277 29.7404 29.7634 30.2694 29.4682C30.3655 29.4139 30.4598 29.3607 30.5524 29.3085C30.9721 29.0668 31.2496 28.8867 31.2651 28.8777Z" fill="#2C2C2E"/>
<path d="M32.8535 30.5543C32.8489 30.5508 32.845 30.5462 32.8422 30.541C32.8395 30.5358 32.8378 30.53 32.8375 30.5241C32.8038 30.4036 32.7814 30.1458 33.1349 30.1481C33.1505 30.149 33.1659 30.1527 33.1802 30.1591C33.3877 30.3357 33.5836 30.5258 33.7666 30.7282C33.8425 30.8147 33.9199 30.9028 33.9988 30.9927C34.2321 31.268 34.4518 31.5577 34.671 31.8497C35.1017 32.4378 35.5458 33.0441 36.0032 33.6686C36.9159 34.916 37.8765 36.2287 38.8685 37.5845C39.8606 38.9404 40.8843 40.3394 41.9233 41.7593C42.4428 42.4693 42.9654 43.1836 43.4912 43.9022L44.28 44.9802C44.5479 45.3333 44.7998 45.7201 45.0664 46.0242C45.3391 46.3319 45.6582 46.5137 46.0289 46.4919C46.4191 46.4561 46.7902 46.3046 47.0956 46.0564C47.4159 45.8137 47.5684 45.5109 47.4621 45.1755C47.3597 44.8332 47.0789 44.5115 46.7837 44.1982C45.5905 42.9184 44.417 41.6599 43.2819 40.4425C41.0064 38.0165 38.8414 35.7821 37.0766 33.7874C36.6304 33.2956 36.2036 32.8253 35.7963 32.3764C35.4667 32.0232 35.1549 31.6889 34.8606 31.3735C34.7978 31.3079 34.7431 31.2507 34.6981 31.2036C34.6078 31.1096 34.5563 31.056 34.5563 31.056C34.5563 31.056 34.0544 30.4625 33.7193 30.0253C33.1296 29.3045 33.4706 29.476 33.9281 29.8336C33.9101 29.8088 34.173 30.0328 34.4372 30.2672C34.699 30.5043 34.9661 30.7463 34.9661 30.7463L35.1072 30.893C35.2121 31.0036 35.3394 31.138 35.4856 31.2921C36.2179 32.0698 37.0227 32.9648 37.8996 33.9388C39.6414 35.8913 41.7789 38.0811 44.0194 40.4838C45.1404 41.693 46.295 42.9099 47.477 44.2079C47.6319 44.3901 47.763 44.5917 47.867 44.8077C47.9854 45.0523 48.0262 45.328 47.9838 45.5969C47.9308 45.8652 47.7953 46.1098 47.5967 46.2957C47.4219 46.4644 47.2246 46.6075 47.0105 46.7207C46.5753 46.9801 46.0589 47.0628 45.5657 46.9521C45.0422 46.8059 44.6944 46.4032 44.4275 46.047C42.3504 43.2083 40.2698 40.3646 38.3134 37.6908C37.3357 36.3548 36.3891 35.0612 35.4896 33.8319C35.0391 33.218 34.6011 32.6212 34.1756 32.0413C33.9606 31.756 33.7477 31.4813 33.5262 31.2272C33.4787 31.174 33.432 31.1217 33.3863 31.0704C33.2198 30.887 33.0419 30.7146 32.8535 30.5543V30.5543Z" fill="#2C2C2E"/>
<path d="M6.42141 12.2729C6.42159 12.2647 6.4235 12.2567 6.42703 12.2494C6.43055 12.242 6.4356 12.2355 6.44182 12.2303C6.55026 12.0892 6.81318 11.8974 7.06966 12.2799C7.08004 12.297 7.08759 12.3158 7.09201 12.3354L6.99259 13.4572C6.7536 16.0216 6.64835 18.597 6.67729 21.1727C6.68802 21.815 6.71597 22.4564 6.75417 23.0969C6.80094 23.7252 6.84348 24.4117 6.82937 25.0591L6.76214 28.9393C6.77485 30.2166 6.88662 31.4908 7.09644 32.7504L7.39497 34.6592L7.53773 35.5724C7.53898 35.5819 7.53836 35.5762 7.53965 35.5779L7.95058 35.5659L15.6247 35.3431C18.0808 35.2608 20.5455 35.2296 22.9847 35.0865C23.5946 35.0481 24.2031 35 24.8093 34.9375L25.1491 34.9008L25.365 34.8765L25.4023 34.8844C25.4048 34.8852 25.4076 34.8853 25.4102 34.8846C25.4128 34.8839 25.4152 34.8826 25.4171 34.8807C25.4202 34.8777 25.4228 34.8742 25.4247 34.8703C25.4256 34.8658 25.4281 34.8701 25.4276 34.8572L25.4212 34.7929C25.387 34.4437 25.3489 34.0029 25.3331 33.6367C25.2494 32.3993 25.4854 32.8554 25.7033 33.591C25.7032 33.5504 25.8177 33.9933 25.9321 34.4462C25.9622 34.568 25.9924 34.6904 26.0208 34.8054C26.0667 35.0158 26.1097 35.2129 26.1467 35.3821C26.1507 35.4033 26.1575 35.4264 26.1591 35.445L26.1052 35.4536L26.0047 35.4696L25.839 35.4958L25.6922 35.519L25.1571 35.5823L24.3992 35.6587C23.8141 35.7121 23.2287 35.7533 22.6436 35.7863C20.3019 35.9093 17.9753 35.9448 15.644 36.0216L7.9699 36.2448L7.42124 36.2608L7.18142 36.2678L7.06151 36.2712L7.00156 36.273C6.97905 36.2766 6.96008 36.276 6.96338 36.2482L6.88909 35.7734L6.73205 34.7698L6.43104 32.8454C6.21622 31.5524 6.10219 30.2443 6.08998 28.9332L6.15702 25.0533C6.16967 24.4065 6.13165 23.8008 6.083 23.1393C6.04414 22.4886 6.01577 21.8374 6.00484 21.1863C5.97528 18.5868 6.08117 15.9875 6.32207 13.3992L6.42141 12.2729Z" fill="#2C2C2E"/>
<path d="M6.7251 11.962C6.71707 11.9629 6.70893 11.9621 6.70124 11.9595C6.69355 11.957 6.68648 11.9529 6.68052 11.9473C6.52696 11.8581 6.29844 11.6213 6.63477 11.3122C6.65008 11.2995 6.66736 11.2894 6.68592 11.2823L7.80254 11.2307L9.98144 11.1313L10.6039 11.1025C10.6039 11.1025 11.6313 11.1245 12.3526 11.1947C13.5754 11.2828 13.0929 11.4559 12.3421 11.5718C12.4211 11.583 10.5446 11.784 10.5446 11.784L10.0117 11.8089L7.83873 11.9101L6.7251 11.962Z" fill="#2C2C2E"/>
<path d="M14.7385 21.448C14.7339 21.4365 14.7316 21.4242 14.732 21.4118C14.7323 21.3993 14.7352 21.3871 14.7404 21.3759C14.7995 21.1053 15.0506 20.7161 15.6147 21.0678C15.6381 21.0838 15.6588 21.1035 15.6759 21.1263C15.8443 21.6278 16.0471 22.1167 16.283 22.5896C16.5232 23.0661 16.7939 23.5263 17.0935 23.9671C17.2608 24.2096 17.4367 24.4458 17.6209 24.6755C17.6209 24.6755 17.673 24.7483 17.7628 24.8738C17.8511 24.9989 17.9774 25.1728 18.1315 25.3667C18.4355 25.7578 18.8469 26.2333 19.2075 26.6155C19.5203 26.9306 19.7269 27.1398 19.8369 27.2757C19.945 27.4146 19.955 27.4819 19.8894 27.4963C19.7609 27.5228 19.3234 27.3387 18.84 27.0259C18.4656 26.7864 18.1128 26.514 17.7858 26.2117C17.4302 25.8929 17.0922 25.5546 16.7734 25.1983C16.6013 24.9844 16.4417 24.7611 16.2838 24.5365C15.9572 24.0582 15.6621 23.5588 15.4005 23.0414C15.1433 22.5265 14.9221 21.9941 14.7385 21.448V21.448Z" fill="#C7C7CC"/>
<path d="M33.5246 16.5545C33.5296 16.5813 33.524 16.6091 33.509 16.6318C33.4802 16.7086 33.4353 16.7782 33.3774 16.8357C33.3194 16.8933 33.2498 16.9375 33.1734 16.9652C33.0125 17.012 32.8189 16.9423 32.5895 16.7388C32.5704 16.7213 32.5543 16.7005 32.5421 16.6774C32.4702 16.1942 32.3048 15.73 32.0554 15.3114C31.8206 14.906 31.5567 14.5186 31.266 14.1522C31.0814 13.9147 30.893 13.683 30.7007 13.4571C30.7007 13.4571 30.4865 13.1576 30.1715 12.7803C29.8272 12.3625 29.4486 11.9749 29.0397 11.6216C28.7013 11.3496 28.4629 11.1851 28.3294 11.0757C28.1962 10.9643 28.1706 10.9006 28.2315 10.872C28.35 10.8162 28.8321 10.9037 29.3599 11.1711C29.7645 11.3745 30.1429 11.6272 30.4867 11.9234C30.8551 12.2286 31.2043 12.5567 31.5322 12.9058C31.7083 13.1132 31.8759 13.3248 32.0419 13.5366C32.3636 13.9411 32.6555 14.3689 32.9151 14.8166C33.2296 15.3496 33.4368 15.9402 33.5246 16.5545V16.5545Z" fill="#C7C7CC"/>
<path d="M18.3048 22.6946C18.2979 22.7096 18.2955 22.7151 18.2718 22.7281C18.1239 22.8253 17.813 22.9207 17.6942 22.4744C17.6899 22.4548 17.6889 22.4345 17.691 22.4145L18.1508 21.3861L20.1429 16.9265L20.6409 15.8117L20.89 15.2542L21.0604 14.8726C21.0952 14.7816 21.1399 14.6948 21.1937 14.6138C21.2361 14.5553 21.2898 14.5061 21.3516 14.4692C21.4799 14.3926 21.6329 14.3699 21.7776 14.4061C21.9176 14.44 22.0388 14.5281 22.1152 14.6515C22.2002 14.7597 22.2137 14.9922 22.2371 15.1886L22.2788 15.5354L22.4336 16.7447C22.5507 17.6225 22.6789 18.4986 22.8181 19.3732L23.0636 20.8523C23.0636 20.8523 23.1728 21.8806 23.209 22.6118C23.302 23.8467 23.0622 23.3954 22.8391 22.6591C22.8392 22.6998 22.7225 22.2566 22.6094 21.802C22.4995 21.3455 22.3876 20.8813 22.3876 20.8813L22.1356 19.3553C22.0028 18.5171 21.8803 17.6772 21.7682 16.8358L21.5807 15.3583L20.7556 17.2062L18.7641 21.666L18.3048 22.6946Z" fill="#2C2C2E"/>
<path d="M19.4698 19.815C19.464 19.8145 19.4619 19.8144 19.4546 19.7976C19.4093 19.6974 19.3867 19.5883 19.3883 19.4782C19.3899 19.3681 19.4157 19.2597 19.4638 19.161C19.4686 19.1509 19.4752 19.1418 19.4833 19.1343L21.7699 19.243C21.9795 19.2936 22.1846 19.3612 22.3834 19.4451C22.8093 19.6098 22.6231 19.7518 22.3494 19.82C22.3761 19.8361 21.6997 19.9184 21.6997 19.9184L19.4698 19.815Z" fill="#2C2C2E"/>
<path d="M25.5929 18.7543C25.5811 18.7586 25.5766 18.7594 25.5556 18.7516C25.4604 18.7251 25.3726 18.6766 25.2991 18.61C25.2232 18.5311 25.1615 18.3973 25.2982 18.1707C25.3115 18.1509 25.3283 18.1338 25.3477 18.1202C25.7521 17.9814 26.1832 17.9415 26.6058 18.0038C26.9244 18.0365 27.241 18.087 27.5541 18.1552C27.9025 18.2306 28.2291 18.3862 28.5084 18.6099C29.0124 19.0588 29.3974 19.6279 29.6284 20.2655C29.7094 20.4717 29.7789 20.6823 29.8367 20.8963C29.8367 20.8963 29.8936 21.1636 29.9332 21.5235C29.9739 21.9152 29.9873 22.3093 29.9734 22.7028C29.9412 23.9493 29.7514 23.4621 29.6009 22.7178C29.5975 22.7579 29.5232 22.3099 29.4202 21.8669C29.3506 21.5725 29.2661 21.2819 29.1671 20.9962C29.1215 20.8332 29.0673 20.6728 29.0048 20.5157C28.815 19.9882 28.5002 19.5158 28.088 19.1398C27.8866 18.9787 27.6503 18.868 27.3986 18.8166C27.1144 18.7557 26.8271 18.7104 26.5381 18.6807C26.2217 18.6308 25.8981 18.656 25.5929 18.7543V18.7543Z" fill="#2C2C2E"/>
<path d="M29.1264 20.172C29.1344 20.1727 29.1421 20.1751 29.1491 20.1791C29.156 20.1831 29.162 20.1886 29.1667 20.1952C29.294 20.312 29.4775 20.5884 29.0805 20.8258C29.0627 20.8352 29.0436 20.8417 29.0237 20.8449C28.6688 20.7806 28.3109 20.7349 27.9514 20.7077C27.2265 20.6583 26.4725 20.8843 26.2138 21.4675C26.1461 21.5949 26.1141 21.7386 26.1213 21.8831C26.1285 22.0275 26.1745 22.1672 26.2545 22.2871C26.4582 22.5492 26.74 22.738 27.058 22.8257C27.2339 22.8825 27.4151 22.921 27.5988 22.9404C27.7767 22.9745 27.9575 22.9913 28.1386 22.9906C28.4813 23.0022 28.8222 22.9353 29.1358 22.7949C29.2938 22.7027 29.4214 22.5655 29.5027 22.4004C29.5523 22.301 29.5775 22.2624 29.613 22.2961C29.6391 22.3422 29.6556 22.3932 29.6614 22.446C29.6672 22.4988 29.6621 22.5522 29.6466 22.6029C29.6009 22.8002 29.4941 22.9776 29.3417 23.1091C29.2733 23.1809 29.1927 23.2397 29.1038 23.2827C28.8987 23.3922 28.6801 23.4735 28.4537 23.5243C28.2253 23.5785 27.9919 23.6082 27.7573 23.6129C27.6489 23.6156 27.5405 23.6122 27.4324 23.6029C27.2361 23.5769 27.0424 23.533 26.8539 23.4718C26.393 23.3398 25.9877 23.0583 25.7005 22.6708C25.5496 22.4512 25.463 22.1931 25.4507 21.926C25.4415 21.6671 25.495 21.4099 25.6066 21.1766C25.8227 20.7304 26.2014 20.3862 26.6631 20.2161C27.0855 20.0599 27.5359 19.9958 27.9846 20.0282C28.3674 20.0561 28.7485 20.1041 29.1264 20.172Z" fill="#2C2C2E"/>
</svg>
