<svg width="54" height="54" viewBox="0 0 54 54" fill="none" xmlns="http://www.w3.org/2000/svg">
<path fill-rule="evenodd" clip-rule="evenodd" d="M25.4863 2.24645C31.0696 2.77958 35.8419 5.56298 40.3357 8.60616C44.7646 11.6054 49.3258 14.8221 51.0685 19.5708C52.8166 24.3345 51.9536 29.6103 49.7316 34.2098C47.6491 38.5205 43.2375 41.1865 39.1953 44.1479C34.8913 47.3011 31.0127 51.6296 25.4863 51.9723C19.8438 52.3221 14.5946 49.3061 10.3397 45.937C6.35717 42.7836 3.85863 38.4623 2.56323 33.8213C1.33511 29.4213 2.36996 25.0221 3.25516 20.5553C4.29922 15.2869 3.79269 9.13879 8.16888 5.53469C12.6389 1.85328 19.4734 1.67231 25.4863 2.24645Z" fill="#FFAB01" stroke="#0375D7" stroke-width="4"/>
<path d="M12.4513 34.3629C12.4342 33.323 12.5536 32.2854 12.8067 31.2766C12.8364 31.0888 12.8915 30.906 12.9706 30.7331C13.0406 30.6074 13.1239 30.4895 13.219 30.3814C13.418 30.1398 13.7016 29.876 13.9999 29.972C14.3148 30.0735 14.3758 30.4846 14.3807 30.8149L14.4359 34.5658L14.4786 37.4608L14.5311 41.0295C14.55 41.395 14.5282 41.7614 14.4663 42.1221C14.3876 42.4963 14.1373 42.9085 13.7544 42.9034C13.416 42.8989 13.1787 42.5696 13.0504 42.2571C12.8093 41.5574 12.6895 40.8217 12.6964 40.0817L12.5703 37.4135L12.5052 36.0369C12.487 35.6525 12.4689 35.2681 12.4575 34.8835" fill="white"/>
<path d="M13.6034 34.3629C13.5803 33.6412 13.6434 32.9194 13.7912 32.2126C13.826 31.9067 13.887 31.6043 13.9734 31.3088C13.9761 31.3024 14.0498 31.1787 14.0788 31.1426C14.1235 31.0888 14.1718 31.0381 14.2234 30.9909C14.0125 31.0765 13.9979 31.0998 14.1796 31.0606H13.5672C13.4096 30.9708 13.2854 30.8326 13.2131 30.6666C13.2435 30.8031 13.2475 30.815 13.2251 30.7024C13.2109 30.8648 13.214 31.0283 13.2346 31.19L13.2539 32.5028L13.2923 35.1086L13.3698 40.3721C13.3962 40.8043 13.3968 41.2377 13.3717 41.6699C13.3724 41.7192 13.3671 41.7684 13.3558 41.8165C13.313 41.95 13.3068 41.9818 13.3375 41.9118C13.198 41.704 14.2821 41.7193 14.1501 41.8958C14.1629 41.8787 13.9459 41.2366 13.9271 41.1208C13.8781 40.7446 13.8504 40.3658 13.8441 39.9864C13.7632 38.286 13.6639 36.585 13.6097 34.8835C13.5626 33.4073 11.2586 33.4008 11.3059 34.8835C11.3389 35.9178 11.3968 36.9516 11.4457 37.9852C11.4974 39.0788 11.5008 40.1877 11.6415 41.2742C11.7788 42.334 12.1435 43.6764 13.3263 43.9959C14.6679 44.3583 15.5192 43.1001 15.6498 41.9423C15.7191 40.8252 15.7182 39.7048 15.6473 38.5878L15.6001 35.38L15.5508 32.034C15.5364 31.0581 15.7058 29.7618 14.7939 29.1138C13.5651 28.2406 12.1612 29.4263 11.7816 30.6251C11.4115 31.8351 11.2486 33.0987 11.2997 34.3629C11.3058 34.6659 11.4292 34.9548 11.6439 35.1691C11.8586 35.3835 12.148 35.5066 12.4516 35.5127C12.7562 35.5098 13.0474 35.3877 13.2628 35.1727C13.4782 34.9577 13.6005 34.6669 13.6035 34.3629L13.6034 34.3629Z" fill="white"/>
<path d="M42.0688 38.976C42.0859 40.0158 41.9665 41.0535 41.7135 42.0623C41.6837 42.2501 41.6286 42.4329 41.5495 42.6058C41.4795 42.7315 41.3963 42.8494 41.3011 42.9574C41.1021 43.1991 40.8185 43.4629 40.5202 43.3668C40.2053 43.2653 40.1443 42.8543 40.1394 42.5239L40.0842 38.773L40.0416 35.8781L39.989 32.3093C39.9701 31.9439 39.9919 31.5774 40.0538 31.2167C40.1325 30.8425 40.3828 30.4304 40.7657 30.4355C41.1041 30.44 41.3414 30.7692 41.4697 31.0817C41.7109 31.7815 41.8306 32.5172 41.8237 33.2571L41.9498 35.9254L42.0149 37.302C42.0331 37.6863 42.0513 38.0707 42.0626 38.4554" fill="white"/>
<path d="M40.917 38.976C40.9401 39.6977 40.8771 40.4195 40.7293 41.1263C40.6945 41.4322 40.6335 41.7346 40.5471 42.0301C40.5444 42.0364 40.4707 42.1602 40.4416 42.1963C40.3969 42.25 40.3486 42.3007 40.2971 42.348C40.508 42.2623 40.5226 42.2391 40.3408 42.2783H40.9533C41.1108 42.368 41.235 42.5062 41.3074 42.6723C41.277 42.5358 41.273 42.5239 41.2954 42.6365C41.3096 42.4741 41.3064 42.3106 41.2859 42.1488L41.2665 40.836L41.2282 38.2302L41.1507 32.9667C41.1243 32.5346 41.1236 32.1012 41.1487 31.669C41.148 31.6196 41.1534 31.5704 41.1646 31.5224C41.2075 31.3888 41.2136 31.3571 41.1829 31.4271C41.3224 31.6349 40.2384 31.6196 40.3703 31.443C40.3575 31.4602 40.5745 32.1022 40.5934 32.218C40.6424 32.5943 40.6701 32.973 40.6764 33.3524C40.7573 35.0529 40.8565 36.7538 40.9108 38.4554C40.9578 39.9316 43.2618 39.9381 43.2146 38.4554C43.1816 37.421 43.1236 36.3873 43.0748 35.3536C43.0231 34.26 43.0197 33.1512 42.8789 32.0647C42.7416 31.0049 42.377 29.6624 41.1942 29.343C39.8526 28.9806 39.0013 30.2388 38.8707 31.3965C38.8014 32.5137 38.8022 33.6341 38.8732 34.7511L38.9204 37.9588L38.9697 41.3049C38.984 42.2808 38.8146 43.577 39.7265 44.225C40.9554 45.0982 42.3593 43.9126 42.7389 42.7138C43.109 41.5038 43.2719 40.2401 43.2208 38.976C43.2146 38.673 43.0913 38.384 42.8766 38.1697C42.6619 37.9554 42.3725 37.8323 42.0689 37.8261C41.7643 37.8291 41.473 37.9512 41.2576 38.1662C41.0423 38.3812 40.92 38.672 40.917 38.976L40.917 38.976Z" fill="white"/>
<g opacity="0.5">
<path opacity="0.5" d="M10.6419 31.1867C10.5676 33.2113 10.5439 35.2431 10.5412 37.2691C10.5302 38.2614 10.5745 39.2536 10.6741 40.241C10.7471 40.9011 10.7101 42.3247 11.5736 42.4801C12.2985 42.6105 12.6094 41.5026 11.8799 41.3713C12.0349 41.5219 12.0692 41.4919 11.9827 41.2814C11.9595 41.1597 11.9379 41.0378 11.9179 40.9156C11.8864 40.722 11.8591 40.5279 11.8361 40.3333C11.7851 39.903 11.7527 39.4703 11.7306 39.0377C11.6862 38.1694 11.689 37.2996 11.6994 36.4305C11.7202 34.6829 11.7297 32.9333 11.7938 31.1867C11.821 30.4466 10.669 30.4478 10.6419 31.1867H10.6419Z" fill="white"/>
</g>
<g opacity="0.8">
<path opacity="0.8" d="M9.67513 33.7742C9.4901 33.9514 9.3442 34.1652 9.24681 34.4019C9.14941 34.6387 9.10266 34.8931 9.10955 35.149C9.10796 35.6889 9.16866 36.2343 9.20132 36.7732C9.23337 37.3021 9.25919 37.8317 9.2975 38.3602C9.29585 38.6248 9.37649 38.8834 9.52832 39.1004C9.62969 39.2266 9.76445 39.3219 9.91732 39.3755C10.0702 39.4292 10.2351 39.439 10.3932 39.4039C10.54 39.3625 10.6646 39.2651 10.7399 39.1327C10.8152 39.0003 10.8352 38.8436 10.7955 38.6966C10.7515 38.5518 10.6534 38.4293 10.5216 38.3546C10.3897 38.2799 10.2342 38.2586 10.087 38.2951L10.03 38.303H10.3362C10.1463 38.2758 10.4832 38.4011 10.4538 38.4251C10.455 38.3427 10.4498 38.2604 10.4384 38.1788L10.4054 37.6347L10.334 36.4558C10.3103 36.0648 10.2774 35.6731 10.264 35.2817C10.2413 35.1563 10.25 35.0273 10.2893 34.9061C10.3287 34.785 10.3975 34.6754 10.4896 34.5873C11.0339 34.0825 10.2179 33.2708 9.67511 33.7742H9.67513Z" fill="white"/>
</g>
<g opacity="0.5">
<path opacity="0.5" d="M43.9534 42.4217C44.0277 40.3971 44.0514 38.3653 44.0541 36.3394C44.0651 35.347 44.0208 34.3548 43.9213 33.3674C43.8482 32.7073 43.8852 31.2837 43.0217 31.1283C42.2969 30.9979 41.9859 32.1058 42.7154 32.2371C42.5604 32.0866 42.5261 32.1165 42.6126 32.327C42.6358 32.4487 42.6574 32.5706 42.6774 32.6928C42.7089 32.8864 42.7362 33.0806 42.7592 33.2752C42.8102 33.7054 42.8425 34.1381 42.8647 34.5708C42.9091 35.439 42.9063 36.3089 42.8959 37.1779C42.8751 38.9255 42.8656 40.6751 42.8015 42.4217C42.7743 43.1618 43.9262 43.1607 43.9534 42.4217H43.9534Z" fill="white"/>
</g>
<g opacity="0.8">
<path opacity="0.8" d="M44.9201 39.8343C45.1051 39.6571 45.251 39.4433 45.3484 39.2066C45.4458 38.9698 45.4926 38.7153 45.4857 38.4595C45.4873 37.9196 45.4265 37.3741 45.3939 36.8352C45.3618 36.3064 45.336 35.7767 45.2977 35.2483C45.2994 34.9837 45.2187 34.725 45.0669 34.5081C44.9655 34.3819 44.8308 34.2866 44.6779 34.2329C44.525 34.1793 44.3602 34.1695 44.202 34.2046C44.0552 34.246 43.9307 34.3434 43.8554 34.4758C43.78 34.6082 43.7601 34.7648 43.7997 34.9118C43.8437 35.0567 43.9418 35.1791 44.0736 35.2539C44.2055 35.3286 44.3611 35.3499 44.5082 35.3134L44.5653 35.3054H44.259C44.449 35.3327 44.112 35.2074 44.1414 35.1834C44.1402 35.2658 44.1454 35.3481 44.1568 35.4297L44.1898 35.9738L44.2612 37.1526C44.2849 37.5436 44.3178 37.9353 44.3312 38.3268C44.3539 38.4522 44.3453 38.5812 44.3059 38.7023C44.2665 38.8235 44.1977 38.9331 44.1056 39.0212C43.5614 39.526 44.3773 40.3377 44.9201 39.8343H44.9201Z" fill="white"/>
</g>
<g opacity="0.9">
<path opacity="0.9" d="M16.9241 37.4227C16.9183 37.4222 16.9126 37.4206 16.9075 37.4178C16.9024 37.415 16.8979 37.4112 16.8944 37.4065C16.7956 37.3238 16.6773 37.1313 16.952 36.9641C16.9641 36.9574 16.9773 36.9528 16.991 36.9503C17.1408 36.9717 17.2912 36.9892 17.4418 37.0044L17.668 37.0238L17.7246 37.0277L17.7529 37.0296L17.9206 37.0395L18.2938 37.0519C18.792 37.0597 19.2901 37.0315 19.7841 36.9675L19.9691 36.942C20.0299 36.933 20.0998 36.9241 20.1288 36.9154C20.1379 36.9132 20.1468 36.9099 20.1551 36.9055L20.175 36.8842C20.2014 36.8607 20.2206 36.8303 20.2303 36.7964C20.3121 36.5766 20.396 36.3276 20.4679 36.0931C20.616 35.6135 20.7255 35.122 20.828 34.6216C20.8492 34.5158 20.8808 34.4124 20.9224 34.3128C20.9596 34.2095 21.0172 34.1146 21.0918 34.0338C21.1474 33.9702 21.2253 33.9302 21.3095 33.9222C21.3519 33.9184 21.3946 33.9235 21.4349 33.9371C21.4752 33.9507 21.5122 33.9725 21.5435 34.0012C21.6733 34.1643 21.7534 34.3612 21.774 34.5685C21.7992 34.6896 21.7996 34.7159 21.8122 34.7887L21.8426 34.976C22.0181 35.9761 22.2578 36.964 22.5602 37.9335L22.7909 38.6619C22.821 38.767 22.8582 38.8699 22.9023 38.97L22.903 38.9702C22.959 38.7929 22.9961 38.6103 23.0137 38.4253L23.1414 37.667L23.652 34.6338L24.1627 31.6006L24.2904 30.8423L24.3542 30.4632L24.3901 30.2552C24.4073 30.1343 24.4635 30.0223 24.5501 29.9361C24.6401 29.8609 24.7562 29.8245 24.873 29.8348C24.9899 29.8451 25.0978 29.9013 25.1732 29.991C25.2484 30.0773 25.3013 30.1806 25.3275 30.292C25.3453 30.3674 25.3567 30.4442 25.3617 30.5215L25.4048 31.294C25.5195 33.3393 25.6599 35.383 25.826 37.4249C25.9432 38.8725 26.0738 40.3188 26.2178 41.764C26.291 42.4854 26.3577 43.2139 26.4602 43.9183L26.531 44.4359C26.5526 44.5196 26.6012 44.5309 26.632 44.5208C26.6467 44.5155 26.6631 44.5054 26.6776 44.4684C26.6978 44.4 26.7116 44.3298 26.7189 44.2588C26.7431 44.0865 26.7614 43.9067 26.7788 43.728C26.9126 42.2948 26.9483 40.8335 27.073 39.3818C27.1856 37.9296 27.3228 36.4801 27.474 35.0329L27.952 30.6962L28.1935 28.5299C28.2275 28.1729 28.2865 27.7977 28.3381 27.4287C28.3463 27.3542 28.3695 27.2821 28.4062 27.2168C28.443 27.1514 28.4925 27.0941 28.5519 27.0483C28.6252 26.9945 28.7124 26.9626 28.8032 26.9565C28.8939 26.9504 28.9846 26.9703 29.0645 27.0138C29.1329 27.0545 29.1916 27.1096 29.2365 27.1753C29.2813 27.241 29.3112 27.3157 29.3241 27.3941L29.3773 27.6712C29.4812 28.4005 29.5405 29.1354 29.555 29.8718C29.5723 30.2334 29.5949 30.5888 29.6371 30.9428C29.6828 31.3037 29.7134 31.6787 29.7521 32.0327C29.921 33.4656 29.9937 34.937 30.1669 36.373C30.3491 37.8029 30.4801 39.2602 30.7627 40.6662L30.8774 41.1933L30.8928 41.2594L30.8931 41.2601L30.8947 41.26C30.98 41.2473 31.0211 40.769 31.0768 40.4302L31.3965 38.2745L32.036 33.9631L32.123 33.3767L32.1632 33.1059C32.1699 33.0226 32.1877 32.9405 32.2162 32.8619C32.2518 32.776 32.3144 32.704 32.3945 32.6566C32.5613 32.5395 32.9325 32.5749 32.9347 32.7933L33.0345 33.135L33.0606 33.5901C33.1026 34.3079 33.1861 35.0228 33.2839 35.7411C33.3812 36.4591 33.4857 37.1815 33.5688 37.9073L33.6289 38.4519L33.6316 38.4762L33.6321 38.4771L33.6338 38.4772L33.6345 38.4764L33.6624 38.4223L33.778 38.176L34.0094 37.6823C34.0862 37.5049 34.1754 37.3331 34.2763 37.1682C34.3379 37.0635 34.4195 36.9721 34.5166 36.8991C34.6137 36.8261 34.7243 36.7729 34.8421 36.7427C34.9493 36.7211 35.0587 36.7119 35.1681 36.7155L35.2944 36.7174L35.3151 36.7178L35.3981 36.7192L35.73 36.7248L36.0275 36.751C36.2685 36.776 36.6562 36.8176 36.964 36.8667C37.8268 36.9825 37.4795 37.0822 36.9428 37.13C36.9794 37.1375 36.4125 37.1649 36.0203 37.1828L35.6596 37.1988L35.3355 37.1934L35.295 37.1927C35.4279 37.2085 34.8863 37.1379 34.7929 37.2867C34.5962 37.5427 34.4388 37.8265 34.3257 38.1288L34.0997 38.6109C34.0419 38.7482 33.9501 38.8686 33.8328 38.9607C33.7691 39.0053 33.6935 39.0298 33.6156 39.031C33.5378 39.0323 33.4614 39.0102 33.3963 38.9676C33.3286 38.9185 33.2725 38.8552 33.2317 38.7823C33.191 38.7093 33.1665 38.6284 33.1602 38.5451L33.1306 38.2713L33.0705 37.7452L32.9339 36.6932C32.8383 35.9914 32.7349 35.2862 32.6631 34.5732L32.6141 34.0379L32.5806 33.537L32.3423 35.1438L31.7173 39.3586L31.561 40.4122L31.4829 40.9391L31.4633 41.0708C31.4568 41.1229 31.4474 41.1747 31.4352 41.2258C31.4047 41.3465 31.3479 41.459 31.2688 41.5552C31.2166 41.6217 31.1495 41.6749 31.0728 41.7107C30.9962 41.7465 30.9123 41.7639 30.8277 41.7613C30.7443 41.7593 30.6636 41.7312 30.5969 41.681C30.5303 41.6308 30.4811 41.561 30.4563 41.4815L30.3247 40.9C30.2504 40.5489 30.186 40.1945 30.1305 39.8409C30.0158 39.1363 29.935 38.4314 29.85 37.7218C29.7669 37.0141 29.6734 36.3052 29.5991 35.5984L29.4212 33.4836L29.206 31.3637C29.11 30.6664 29.0775 29.9264 29.0482 29.2281C29.0313 28.8757 29.0094 28.5267 28.9695 28.1828C28.9486 28.0112 28.9249 27.8405 28.8935 27.6721L28.8686 27.5462C28.8605 27.5018 28.8497 27.4582 28.8479 27.4529C28.835 27.4273 28.8343 27.4312 28.8343 27.4312C28.8343 27.4312 28.8378 27.4284 28.8288 27.4359C28.8224 27.4452 28.8178 27.4557 28.8153 27.4667C28.8076 27.5032 28.8017 27.5401 28.7978 27.5772L28.7256 28.0891C28.6792 28.4331 28.6461 28.7925 28.6055 29.1434L28.3681 31.2597L27.9061 35.4905C27.7619 36.901 27.6291 38.3121 27.5256 39.7248C27.4095 41.1352 27.379 42.5514 27.2327 43.9802C27.2112 44.1634 27.1978 44.3292 27.1539 44.5376C27.1239 44.6802 27.0443 44.8077 26.9292 44.8975C26.8639 44.9448 26.7889 44.9768 26.7095 44.9913C26.6302 45.0057 26.5486 45.0022 26.4708 44.981C26.3967 44.9598 26.3276 44.9238 26.2678 44.8752C26.208 44.8266 26.1587 44.7664 26.1229 44.6982C26.092 44.6369 26.0699 44.5716 26.0572 44.5042L26.0393 44.3704L25.9679 43.8349C25.8628 43.1173 25.8085 42.4176 25.7328 41.7087C25.5937 40.2947 25.4663 38.8796 25.3504 37.4635C25.184 35.4177 25.0433 33.3701 24.9283 31.3206L24.8858 30.5577C24.8833 30.4944 24.8725 30.4317 24.8537 30.3712L24.6333 31.6796L24.1226 34.7127L23.612 37.7459L23.4844 38.5042L23.4206 38.8834L23.4037 38.9819C23.3949 39.0307 23.3806 39.0784 23.361 39.124C23.3407 39.1718 23.3145 39.2168 23.2831 39.2582C23.2446 39.3088 23.1975 39.3524 23.1439 39.3868C23.0912 39.4207 23.0322 39.4437 22.9704 39.4544C22.9086 39.4651 22.8453 39.4633 22.7842 39.449C22.6617 39.4139 22.5582 39.3318 22.4962 39.2206C22.4299 39.0893 22.3766 38.9518 22.3372 38.8101L22.1035 38.0722C21.795 37.0832 21.5506 36.0755 21.3718 35.0552L21.3077 34.6619L21.2957 34.7172C21.1925 35.221 21.0791 35.7317 20.9245 36.2323C20.8469 36.4838 20.7692 36.7173 20.6733 36.9741C20.6405 37.0606 20.5906 37.1396 20.5267 37.2065C20.4914 37.2474 20.4503 37.2828 20.4047 37.3118C20.3581 37.3397 20.3077 37.361 20.2552 37.375C20.1838 37.392 20.1115 37.4049 20.0386 37.4136L19.8451 37.4402C19.3284 37.5071 18.8076 37.5366 18.2866 37.5285L17.8963 37.5155L17.7209 37.5052L17.6913 37.5032L17.6321 37.4991L17.3955 37.4789C17.2381 37.4632 17.0808 37.4449 16.9241 37.4227Z" fill="white"/>
</g>
<g opacity="0.5">
<path opacity="0.5" d="M9.30829 34.2275C7.14268 30.1191 7.20666 24.9962 9.16824 20.7869C11.1298 16.5776 14.8702 13.3 19.1854 11.5687C23.5005 9.83729 28.3455 9.59879 32.8993 10.5413C33.9037 10.7336 34.8862 11.0261 35.832 11.4145C36.6166 11.7591 37.3668 12.1773 38.0723 12.6633C41.5292 15.0132 44.1229 18.4256 45.4591 22.3817C46.7584 26.2651 46.3062 30.3376 44.9917 34.2139C45.1655 34.395 45.317 34.5961 45.4429 34.8132C45.5033 34.9246 45.553 35.0416 45.5914 35.1624C47.0628 29.8038 47.3737 25.9876 46.0862 21.7405C45.1785 18.7467 43.7739 15.8792 41.552 13.6736C36.9153 9.07074 30.3952 7.45778 23.9303 8.43843C17.4654 9.4191 12.5413 11.5762 9.48356 17.3461C8.76055 18.9046 8.16101 20.5173 7.69045 22.1693C6.65331 26.7028 7.14335 31.4512 9.08459 35.6783L9.09685 35.6782C9.01335 35.1691 9.02188 34.5773 9.40284 34.2278L9.30829 34.2275Z" fill="white"/>
</g>
<path d="M10.2999 33.2623C10.3139 33.2613 10.3278 33.2655 10.339 33.274C10.3756 33.291 10.4076 33.3166 10.4323 33.3485C10.457 33.3804 10.4737 33.4177 10.481 33.4573C10.4906 33.5379 10.4353 33.6222 10.337 33.72C10.3289 33.728 10.3195 33.7345 10.3091 33.7392C10.2028 33.742 10.0982 33.7671 10.0021 33.8127C9.9516 33.8372 9.90292 33.8654 9.85647 33.8969L9.78775 33.9485L9.75478 33.9766C9.71462 34.0114 9.67699 34.0489 9.64216 34.089C9.59031 34.1471 9.54422 34.2101 9.50454 34.2771C9.18228 34.8279 9.2606 35.5852 9.26703 36.3212L9.28884 37.4294C9.28475 37.7861 9.30105 38.1427 9.33764 38.4975C9.35956 38.6458 9.41826 38.7862 9.50842 38.906C9.59857 39.0258 9.71731 39.1212 9.85382 39.1835C10.0022 39.2589 10.1587 39.3171 10.3204 39.3568C10.3818 39.3706 10.4416 39.3907 10.4988 39.4169C10.5828 39.4565 10.6526 39.521 10.6987 39.6015C10.7537 39.7183 10.7825 39.8457 10.7832 39.9747C10.8116 40.3694 10.7784 40.7413 10.7959 41.0889C10.7952 41.4157 10.8891 41.7358 11.0664 42.0106C11.136 42.1132 11.227 42.1996 11.3333 42.2637C11.3846 42.2931 11.4392 42.3162 11.4959 42.3325C11.5917 42.3537 11.6844 42.3868 11.7718 42.4311C11.939 42.5458 12.07 42.7056 12.1494 42.8919C12.2178 43.0154 12.2988 43.1315 12.3911 43.2383C12.5709 43.4539 12.797 43.6263 13.0527 43.7427C13.3083 43.8591 13.587 43.9165 13.8679 43.9106C14.1449 43.902 14.4151 43.8237 14.6536 43.6828C14.892 43.542 15.0909 43.3432 15.2317 43.105C15.4773 42.5653 15.5833 41.9729 15.5401 41.3817L15.4639 33.8207L15.4445 31.9303C15.4778 31.3242 15.4294 30.7165 15.3005 30.1233C15.222 29.858 15.0796 29.616 14.8857 29.4183C14.6919 29.2207 14.4524 29.0735 14.1883 28.9897C13.9136 28.9436 13.6318 28.9632 13.3661 29.0468C13.1004 29.1304 12.8583 29.2756 12.6597 29.4706C12.4432 29.6609 12.2623 29.888 12.1254 30.1414C12.0426 30.2739 12.0412 30.3728 11.8932 30.5985C11.8086 30.702 11.6904 30.7726 11.5591 30.7981C11.456 30.8202 11.395 30.8256 11.3439 30.8437C11.2278 30.8879 11.1225 30.9565 11.0353 31.0449C10.948 31.1332 10.8808 31.2393 10.8382 31.3558L10.8112 31.4203L10.7985 31.4566C10.7636 31.5538 10.7387 31.6544 10.724 31.7566C10.6965 31.8842 10.6786 32.0137 10.6707 32.144C10.6523 32.3766 10.6549 32.6864 10.6328 32.9474C10.6029 33.392 10.5184 33.5158 10.4813 33.4661C10.4221 33.2978 10.384 33.1228 10.3681 32.9452C10.3671 32.9718 10.3185 32.6653 10.2761 32.3296C10.2567 32.1708 10.2473 32.011 10.2483 31.851C10.2492 31.7732 10.2546 31.6954 10.2646 31.6183C10.2883 31.4891 10.3239 31.3624 10.371 31.2397L10.3805 31.2168L10.3945 31.1833C10.4104 31.1424 10.4314 31.1029 10.4509 31.063C10.5332 30.8981 10.6461 30.7503 10.7835 30.6275C10.9299 30.4966 11.1077 30.4057 11.2997 30.3636C11.364 30.3542 11.4277 30.341 11.4903 30.3239C11.5181 30.31 11.5071 30.3214 11.5349 30.28C11.5557 30.2443 11.5849 30.1652 11.621 30.087C11.6558 30.0103 11.6945 29.9355 11.7356 29.8621C11.8189 29.7161 11.9146 29.5774 12.0216 29.4476C12.2362 29.1871 12.495 28.9663 12.7862 28.7953C13.084 28.6173 13.4187 28.5099 13.7646 28.4814C14.1239 28.4562 14.482 28.5438 14.789 28.7319C15.0795 28.9176 15.3257 29.1647 15.5102 29.4557C15.6947 29.7467 15.813 30.0745 15.8569 30.4161C15.9134 31.0411 15.936 31.6688 15.9248 32.2962L15.9438 34.1469L16.0153 41.5527C16.0526 42.2174 15.8991 42.8789 15.573 43.4596C15.3753 43.7476 15.11 43.9829 14.8003 44.1449C14.4905 44.3069 14.1457 44.3907 13.796 44.3891C13.451 44.3826 13.1115 44.301 12.8013 44.1499C12.4911 43.9989 12.2177 43.7821 12.0002 43.5146C11.7751 43.2701 11.6285 42.8612 11.5291 42.8415C11.3743 42.8002 11.2245 42.7423 11.0824 42.6686C10.9213 42.5709 10.7829 42.44 10.6764 42.2848C10.4468 41.9363 10.3228 41.5289 10.3193 41.1118C10.3012 40.7209 10.3334 40.353 10.3073 40.0098C10.3052 39.9539 10.2983 39.8983 10.2864 39.8436L10.2867 39.8437C10.2591 39.8331 10.2307 39.8245 10.2017 39.8183C10.0037 39.7693 9.81195 39.6975 9.6304 39.6045C9.43425 39.5047 9.26201 39.3638 9.12549 39.1914C8.99192 39.0122 8.90361 38.8035 8.86805 38.583C8.82573 38.2031 8.80687 37.821 8.81158 37.4388L8.78969 36.3306C8.78546 35.9614 8.76567 35.5949 8.78559 35.2044C8.79316 34.7948 8.8991 34.393 9.09452 34.0328C9.14919 33.9407 9.21256 33.854 9.28375 33.774C9.33232 33.7185 9.38459 33.6664 9.44021 33.618L9.48667 33.5784C9.51782 33.5523 9.55203 33.5292 9.58477 33.5048C9.65336 33.4579 9.72544 33.4164 9.80037 33.3805C9.95679 33.3067 10.1269 33.2665 10.2999 33.2623V33.2623Z" fill="#2C2C2E"/>
<path d="M11.6035 30.2132C11.6046 30.2076 11.607 30.2022 11.6104 30.1976C11.6138 30.1929 11.6181 30.189 11.6232 30.1862C11.7171 30.101 11.9227 30.0091 12.0534 30.3065C12.0585 30.3195 12.0614 30.3333 12.0621 30.3473C11.9946 30.5977 11.9158 30.8449 11.8639 31.0994C11.4537 33.0052 11.3127 34.959 11.4451 36.9038C11.4927 37.8804 11.5809 38.8566 11.6849 39.8328L11.8497 41.2977L11.912 41.8071C11.9274 42.2006 11.9952 42.5903 12.1136 42.9659C12.273 43.3414 12.3726 43.4487 12.2977 43.4561C12.1168 43.3814 11.967 43.2471 11.8733 43.0755C11.7516 42.8907 11.6582 42.6888 11.5962 42.4764C11.5279 42.2576 11.473 42.0348 11.4319 41.8093L11.1956 39.735C11.0944 38.7699 11.0091 37.8008 10.9642 36.8274C10.8381 34.871 10.9845 32.9065 11.3991 30.9903C11.4527 30.7279 11.5337 30.4719 11.6035 30.2132Z" fill="#2C2C2E"/>
<path d="M10.1636 33.1503C10.1634 33.1445 10.1644 33.1388 10.1666 33.1335C10.1688 33.1282 10.1722 33.1235 10.1764 33.1196C10.2478 33.0158 10.4266 32.873 10.6231 33.1301C10.6311 33.1417 10.6372 33.1544 10.6411 33.1679L10.6197 33.9535C10.593 35.5097 10.6531 37.0696 10.724 38.6317L10.7441 39.0718C10.7441 39.0718 10.729 39.7986 10.68 40.3101C10.6187 41.1769 10.4971 40.8373 10.4155 40.3055C10.4077 40.3617 10.2659 39.0314 10.2659 39.0314L10.2145 37.8854L10.1662 36.5744C10.1405 35.6996 10.1268 34.8231 10.1423 33.9455L10.1636 33.1503Z" fill="#2C2C2E"/>
<path d="M44.1687 34.2173C44.1602 34.2172 44.1573 34.2173 44.1458 34.2057C44.0912 34.1622 44.0468 34.1073 44.0156 34.0449C43.9862 33.9732 43.9793 33.8711 44.1311 33.7598C44.1456 33.751 44.1615 33.7445 44.178 33.7404C44.3509 33.7446 44.521 33.7849 44.6774 33.8587C44.7523 33.8946 44.8244 33.9362 44.8929 33.9831C44.9257 34.0075 44.9598 34.0306 44.991 34.0568L45.0374 34.0963C45.093 34.1447 45.1453 34.1968 45.1939 34.2523C45.265 34.3324 45.3284 34.419 45.383 34.5111C45.5784 34.8713 45.6843 35.273 45.6918 35.6825C45.7118 36.073 45.692 36.4394 45.6877 36.8086L45.6658 37.9168C45.6705 38.299 45.6516 38.6811 45.6093 39.061C45.5738 39.2814 45.4855 39.49 45.3519 39.6691C45.2155 39.8415 45.0433 39.9823 44.8472 40.0821C44.6657 40.175 44.474 40.2467 44.276 40.2957C44.247 40.302 44.2185 40.3106 44.1909 40.3213L44.1909 40.3214C44.179 40.3761 44.172 40.4318 44.17 40.4878C44.1438 40.8311 44.176 41.199 44.1579 41.5898C44.1544 42.0068 44.0305 42.414 43.8009 42.7625C43.6919 42.9212 43.5496 43.0543 43.3841 43.1529C43.2983 43.2021 43.2069 43.2408 43.1118 43.2681C43.0531 43.2804 42.9959 43.2987 42.941 43.3228C42.8545 43.3976 42.7875 43.4924 42.7459 43.5989C42.6614 43.7516 42.5614 43.895 42.4472 44.0271C42.2205 44.2971 41.9355 44.5126 41.6137 44.6575C41.2919 44.8023 40.9414 44.8727 40.5885 44.8635C40.2311 44.8513 39.8826 44.749 39.5756 44.5661C39.2685 44.3832 39.0127 44.1257 38.8322 43.8176C38.5444 43.2079 38.417 42.535 38.462 41.8625L38.5389 34.2929L38.5584 32.4007C38.5627 32.0839 38.5618 31.7736 38.5733 31.4497C38.5774 31.1119 38.629 30.7763 38.7264 30.4527C38.8294 30.1113 39.0156 29.8006 39.2682 29.5486C39.5208 29.2965 39.8321 29.1108 40.1742 29.0081C40.5235 28.9426 40.8835 28.9615 41.224 29.0632C41.5646 29.165 41.8758 29.3466 42.1316 29.593C42.3904 29.8204 42.6066 30.0919 42.7702 30.3949C42.8509 30.533 42.9258 30.749 42.9576 30.7838C42.9708 30.7976 42.966 30.7984 43.0254 30.8147C43.1088 30.8283 43.1913 30.8464 43.2728 30.8689C43.4543 30.9328 43.6199 31.035 43.7582 31.1686C43.8964 31.3023 44.0042 31.4642 44.0739 31.6433L44.1097 31.7292L44.1265 31.7768C44.1715 31.903 44.2038 32.0335 44.2228 32.1661C44.2336 32.3204 44.2306 32.4754 44.214 32.6292C44.1887 32.8868 44.1249 33.1912 44.0752 33.438C44.0041 33.8562 43.984 33.9906 43.9295 33.95C43.8435 33.7822 43.8032 33.5947 43.8126 33.4064C43.8029 33.4352 43.808 33.1041 43.8067 32.7873C43.8058 32.6447 43.7963 32.5022 43.7781 32.3607C43.7699 32.3003 43.7582 32.2404 43.7431 32.1813C43.7248 32.0822 43.6976 31.985 43.6616 31.8909L43.6544 31.8738L43.6439 31.8487C43.6322 31.8176 43.6164 31.7892 43.6022 31.7597C43.5471 31.6475 43.471 31.5468 43.378 31.4631C43.2936 31.3867 43.1908 31.3334 43.0797 31.3084C42.9912 31.2956 42.9039 31.2754 42.8187 31.2482C42.6932 31.2006 42.5892 31.1092 42.526 30.991C42.4724 30.8914 42.4515 30.8238 42.4219 30.7625C42.393 30.6988 42.3607 30.6365 42.3265 30.5753C42.2568 30.4534 42.1769 30.3375 42.0875 30.2291C41.9088 30.0121 41.6934 29.8281 41.4509 29.6854C41.2294 29.535 40.9703 29.4491 40.7026 29.4373C40.4349 29.4256 40.1692 29.4883 39.9353 29.6187C39.7049 29.7685 39.5102 29.9669 39.3648 30.1998C39.2193 30.4327 39.1267 30.6945 39.0933 30.9669C39.0412 31.5703 39.0203 32.176 39.0309 32.7816L39.0119 34.6306L38.9404 42.0235C38.9038 42.5972 39.0297 43.1695 39.3038 43.6751C39.4582 43.8971 39.6644 44.0783 39.9046 44.2029C40.1449 44.3275 40.412 44.3917 40.6827 44.3901C40.9575 44.3834 41.2274 44.3171 41.4739 44.1958C41.7205 44.0745 41.9376 43.9011 42.1103 43.6877C42.1987 43.5807 42.2763 43.4654 42.3421 43.3433C42.4224 43.1557 42.5598 42.9982 42.7349 42.893C42.8775 42.8521 43.0165 42.8 43.1508 42.737C43.2542 42.6735 43.3429 42.5887 43.4109 42.4882C43.5881 42.2136 43.682 41.8936 43.6813 41.5669C43.6989 41.2194 43.6656 40.8475 43.6941 40.4528C43.6947 40.3236 43.7236 40.1962 43.7786 40.0793C43.8248 39.9987 43.8947 39.9341 43.9788 39.8944C44.0361 39.8683 44.0959 39.8481 44.1573 39.8343C44.3189 39.7946 44.4755 39.7364 44.6238 39.6611C44.7602 39.5988 44.8789 39.5035 44.969 39.3837C45.0591 39.264 45.1178 39.1237 45.1397 38.9755C45.1763 38.6207 45.1926 38.2641 45.1885 37.9075L45.2104 36.7993C45.2169 36.0633 45.2952 35.3059 44.9731 34.7553C44.9334 34.6884 44.8873 34.6254 44.8355 34.5673C44.8007 34.5273 44.763 34.4897 44.7229 34.4549L44.69 34.4268L44.6213 34.3752C44.5749 34.3436 44.5262 34.3155 44.4757 34.291C44.3797 34.2453 44.2751 34.2202 44.1687 34.2173V34.2173Z" fill="#2C2C2E"/>
<path d="M42.4162 30.8254C42.4143 30.8201 42.4136 30.8144 42.4142 30.8088C42.4147 30.8031 42.4164 30.7977 42.4193 30.7928C42.4266 30.747 42.4467 30.7042 42.4771 30.6692C42.5076 30.6341 42.5472 30.6083 42.5915 30.5945C42.6359 30.5807 42.6832 30.5796 42.7281 30.5912C42.7731 30.6028 42.8139 30.6267 42.846 30.6602C42.8573 30.6689 42.867 30.6794 42.8748 30.6913C42.9444 30.95 43.0253 31.206 43.0789 31.4684C43.4989 33.4176 43.6434 35.4158 43.5082 37.405C43.4596 38.3947 43.3702 39.3799 43.2655 40.3611L43.0997 41.8305L43.0357 42.3506C43.0357 42.3506 43.0011 42.5335 42.928 42.7799C42.8513 43.0559 42.7294 43.3174 42.5672 43.5537C42.4829 43.6844 42.3715 43.7955 42.2404 43.8794C42.1654 43.9223 42.1339 43.918 42.1338 43.8859C42.1328 43.8199 42.2534 43.6469 42.3422 43.414C42.4088 43.2326 42.4612 43.0463 42.4988 42.8567C42.535 42.6475 42.5597 42.4366 42.5727 42.2247L42.8074 40.1634C42.9081 39.2036 42.9924 38.2437 43.0367 37.2835C43.1606 35.3712 43.0184 33.4509 42.614 31.5776C42.5622 31.323 42.4835 31.0758 42.4162 30.8254Z" fill="#2C2C2E"/>
<path d="M43.837 33.646C43.8364 33.6404 43.837 33.6346 43.8388 33.6292C43.8406 33.6239 43.8436 33.6189 43.8475 33.6148C43.9113 33.5083 44.0791 33.3483 44.2938 33.5915C44.3027 33.6026 44.3097 33.615 44.3145 33.6284L44.3354 34.4236C44.3615 35.9975 44.2998 37.5671 44.2279 39.1313L44.2073 39.5718C44.2073 39.5718 44.1246 40.2942 44.0282 40.7989C43.8864 41.6563 43.797 41.3068 43.7652 40.7697C43.7522 40.825 43.7349 39.4874 43.7349 39.4874L43.7861 38.3435L43.8342 37.0382C43.8598 36.1684 43.8733 35.2992 43.858 34.4316L43.837 33.646Z" fill="#2C2C2E"/>
<path d="M12.1449 33.6599C12.1455 33.6654 12.145 33.6709 12.1432 33.6762C12.1414 33.6814 12.1385 33.6862 12.1346 33.6901C12.0715 33.791 11.9057 33.9615 11.6885 33.7154C11.6795 33.704 11.6723 33.6912 11.6674 33.6776C11.6244 32.4733 11.9058 31.2795 12.482 30.2207C12.5621 30.0664 12.6676 29.9266 12.7942 29.8073C12.938 29.693 13.1118 29.6227 13.2947 29.6048C13.5835 29.5843 13.8737 29.6079 14.1553 29.6749C14.3152 29.7037 14.4609 29.785 14.5694 29.9058C14.622 29.9781 14.6156 30.0106 14.5844 30.0118C14.4283 29.9663 14.2671 29.9403 14.1046 29.9343C14.1342 29.9374 13.8322 29.9352 13.5189 29.9793C13.3995 29.9905 13.2844 30.0297 13.183 30.0936C13.1435 30.1214 13.1084 30.1548 13.0785 30.1927C13.0077 30.2709 12.9471 30.3578 12.8983 30.4513C12.3649 31.4346 12.1047 32.5424 12.1449 33.6599L12.1449 33.6599Z" fill="#C7C7CC"/>
<path d="M40.2357 30.356C40.2279 30.3599 40.2253 30.3613 40.2096 30.3563C40.1409 30.3428 40.076 30.3142 40.0198 30.2724C39.961 30.2216 39.9095 30.1336 39.9928 29.9662C40.0016 29.9518 40.0125 29.9388 40.0253 29.9277C40.3174 29.7925 40.6475 29.7628 40.9591 29.8437C41.2673 29.9181 41.5489 30.0764 41.7723 30.301C41.9826 30.5146 42.1542 30.763 42.2795 31.0352C42.5058 31.5519 42.6698 32.0938 42.7678 32.6492C42.8682 33.1948 42.9276 33.747 42.9457 34.3014C42.9581 34.5772 42.959 34.8525 42.9569 35.1272L42.9466 35.616C42.9466 35.616 42.8702 36.3456 42.7615 36.8482C42.6022 37.7034 42.5204 37.3509 42.4991 36.8144C42.4922 36.8419 42.4909 36.5217 42.4865 36.196C42.4797 35.8686 42.4729 35.539 42.4729 35.539L42.4814 35.0282C42.4838 34.7646 42.4779 34.5018 42.4666 34.2397C42.4467 33.7179 42.3873 33.1982 42.2888 32.6853C42.1974 32.1802 42.0461 31.6877 41.838 31.2183C41.7524 31.0018 41.6189 30.8075 41.4476 30.6498C41.2762 30.492 41.0714 30.375 40.8484 30.3074C40.6446 30.2526 40.4282 30.2697 40.2357 30.356V30.356Z" fill="#C7C7CC"/>
<g opacity="0.5">
<path opacity="0.5" d="M17.0403 38.8964C17.0347 38.8974 17.029 38.8971 17.0235 38.8956C17.018 38.8942 17.0129 38.8915 17.0085 38.8879C16.8984 38.8311 16.7274 38.6742 16.9571 38.4448C16.9677 38.4352 16.9797 38.4275 16.9927 38.4218L17.788 38.3526C18.4496 38.3048 19.1123 38.2781 19.776 38.2724L20.221 38.2721C20.221 38.2721 20.9535 38.3265 21.4606 38.426C22.3215 38.5747 21.9657 38.6593 21.4316 38.6885C21.4591 38.695 21.1395 38.7018 20.8138 38.7154L20.1562 38.7468L19.7801 38.7476C19.1272 38.7533 18.4749 38.7801 17.8232 38.828L17.0403 38.8964Z" fill="#0375D7"/>
</g>
<g opacity="0.5">
<path opacity="0.5" d="M34.9594 39.1962C34.9542 39.1965 34.9523 39.1966 34.9446 39.1857C34.8971 39.1227 34.8682 39.0478 34.8611 38.9693C34.854 38.8908 34.8689 38.8119 34.9043 38.7415C34.9079 38.7337 34.9131 38.7267 34.9194 38.7208L36.9467 38.5526C37.1362 38.5653 37.3248 38.5902 37.5111 38.6272C37.9073 38.6958 37.7612 38.8139 37.5257 38.8905C37.5516 38.8988 36.9585 39.0284 36.9585 39.0284C36.9585 39.0284 34.9873 39.1938 34.9594 39.1962Z" fill="#0375D7"/>
</g>
<g opacity="0.5">
<path opacity="0.5" d="M23.8497 38.9023C23.8489 38.908 23.847 38.9134 23.8439 38.9182C23.8408 38.9231 23.8367 38.9272 23.8319 38.9303C23.7443 39.0195 23.5436 39.1327 23.3932 38.8458C23.3872 38.833 23.3834 38.8193 23.3818 38.8053L23.5433 38.0312C23.6801 37.3648 23.8348 36.6842 23.9349 36.0452L23.9535 35.6123L24.0074 35.1882C24.049 34.9128 24.1167 34.6419 24.2097 34.3793C24.3553 33.9603 24.4562 33.8582 24.4837 33.9136C24.5039 34.0923 24.4975 34.2731 24.4645 34.4499C24.4756 34.4243 24.4297 34.7339 24.4216 35.0505C24.4155 35.2089 24.4199 35.3656 24.4221 35.4957L24.4256 35.7075L24.4087 36.0919C24.299 36.804 24.1474 37.4557 24.0109 38.1282L23.8497 38.9023Z" fill="#0375D7"/>
</g>
<g opacity="0.5">
<path opacity="0.5" d="M25.3932 31.4076C25.3916 31.4021 25.3912 31.3964 25.392 31.3909C25.3929 31.3853 25.3949 31.3799 25.398 31.3752C25.4079 31.3299 25.4302 31.2883 25.4625 31.255C25.4948 31.2217 25.5358 31.198 25.5808 31.1867C25.6258 31.1753 25.6731 31.1767 25.7174 31.1907C25.7616 31.2047 25.8011 31.2308 25.8314 31.2659C25.8421 31.2753 25.8512 31.2863 25.8584 31.2986C25.9165 31.5611 25.9774 31.8232 26.0161 32.0884C26.2184 33.4799 26.3116 34.885 26.2947 36.2909C26.3038 36.9875 26.3126 37.6817 26.3413 38.3726C26.3608 38.7172 26.3767 39.0623 26.4103 39.4046L26.4324 39.6638L26.4597 39.8915L26.4775 40.3132C26.4921 40.5417 26.511 40.8362 26.5287 41.1143C26.6134 41.9719 26.4389 41.6706 26.2663 41.1504C26.2009 40.9511 26.1482 40.7479 26.1085 40.5419C26.0333 40.2182 25.9792 39.8834 25.9792 39.8834C25.9702 39.8066 25.9592 39.7299 25.9538 39.653L25.9254 39.323C25.8921 38.9777 25.8795 38.6326 25.8617 38.2879C25.8321 37.5983 25.8275 36.9116 25.8171 36.2271C25.8324 34.8692 25.7415 33.5121 25.5453 32.1682C25.5079 31.9114 25.449 31.6599 25.3932 31.4076Z" fill="#0375D7"/>
</g>
<g opacity="0.5">
<path opacity="0.5" d="M27.8695 44.0308C27.8694 44.0365 27.868 44.0421 27.8656 44.0472C27.8631 44.0524 27.8595 44.0569 27.8551 44.0606C27.7787 44.1593 27.5927 44.2944 27.4096 44.0264C27.4022 44.0144 27.3968 44.0013 27.3936 43.9875L27.4626 43.1999L28.3203 33.3898C28.3203 33.3898 28.4322 32.6713 28.5489 32.1707C28.7253 31.3194 28.8005 31.6717 28.8106 32.2094C28.8258 32.1546 28.7891 33.4919 28.7891 33.4919L27.9382 43.2429L27.8695 44.0308Z" fill="#0375D7"/>
</g>
<g opacity="0.5">
<path opacity="0.5" d="M29.5421 28.9363C29.5411 28.9307 29.5414 28.9249 29.5428 28.9194C29.5443 28.9138 29.547 28.9087 29.5506 28.9043C29.6074 28.7926 29.7649 28.6236 29.9944 28.8512C30.0039 28.8616 30.0116 28.8735 30.0173 28.8864L30.0955 29.6734L30.856 37.3136C30.856 37.3136 30.8792 38.0403 30.8572 38.5533C30.8417 39.4217 30.7023 39.0881 30.5927 38.5612C30.5879 38.6177 30.376 37.2967 30.376 37.2967L29.6205 29.7229L29.5421 28.9363Z" fill="#0375D7"/>
</g>
<g opacity="0.5">
<path opacity="0.5" d="M31.8881 41.2344C31.8873 41.24 31.8853 41.2455 31.8822 41.2503C31.8791 41.2551 31.875 41.2591 31.8702 41.2622C31.782 41.3509 31.5804 41.4627 31.432 41.1748C31.4261 41.162 31.4224 41.1483 31.4209 41.1342L31.5875 40.3612L32.0214 38.3511L32.1143 37.9202C32.1143 37.9202 32.3148 37.2212 32.4929 36.7392C32.7739 35.9167 32.8046 36.2761 32.7476 36.811C32.7695 36.7586 32.5665 38.0809 32.5665 38.0809L32.4869 38.4509L32.0544 40.4613L31.8881 41.2344Z" fill="#0375D7"/>
</g>
<g opacity="0.5">
<path opacity="0.5" d="M33.1045 33.85C33.1032 33.8444 33.1032 33.8387 33.1044 33.8331C33.1056 33.8275 33.1079 33.8222 33.1113 33.8176C33.1622 33.7031 33.3105 33.5253 33.5515 33.7402C33.5615 33.7501 33.5699 33.7616 33.5762 33.7741L33.6956 34.5568L33.7576 34.972L33.8241 35.4083C33.8241 35.4083 33.8855 36.1337 33.8904 36.6473C33.9203 37.5155 33.7635 37.1888 33.6266 36.6687C33.6247 36.7252 33.3443 35.4183 33.3443 35.4183L33.2872 35.0447L33.2238 34.6307L33.1045 33.85Z" fill="#0375D7"/>
</g>
<path d="M9.41502 34.0511C9.41682 34.0547 9.41784 34.0586 9.418 34.0626C9.41817 34.0666 9.41747 34.0705 9.41596 34.0742C9.4011 34.1601 9.33274 34.3094 9.13237 34.2062C9.12383 34.2013 9.11616 34.1949 9.10968 34.1875C9.10542 34.1775 9.02525 33.9889 8.90739 33.7116L8.89624 33.6854L8.88079 33.649C8.82033 33.5148 8.7713 33.3754 8.72044 33.236C8.50599 32.6713 8.32337 32.0951 8.1734 31.51C7.85482 30.2835 7.67249 29.0256 7.62971 27.7593C7.52137 25.018 8.14602 22.2974 9.4395 19.8769C10.1279 18.6148 10.9641 17.4388 11.9306 16.3738C12.9276 15.2931 14.041 14.3255 15.2506 13.4887C16.4838 12.6484 17.8047 11.9443 19.1902 11.3888C20.5879 10.839 22.0382 10.4337 23.5186 10.1791C26.4685 9.68494 29.483 9.71946 32.4208 10.2811C34.5997 10.5865 36.6691 11.4253 38.4445 12.7226C39.0247 13.1292 39.5814 13.5684 40.1117 14.038C44.3166 17.7787 46.5561 23.0246 46.3986 27.5259C46.3818 28.5981 46.2751 29.6671 46.0797 30.7215C45.9872 31.2232 45.8802 31.7082 45.7665 32.1773C45.6962 32.4407 45.628 32.6964 45.5619 32.9444L45.5176 33.0928L45.4791 33.222C45.3792 33.4952 45.2655 33.7632 45.1386 34.0249C44.8817 34.5778 44.888 34.3224 44.9668 33.956C44.9568 33.9733 45.0128 33.7567 45.0682 33.5355C45.1195 33.3133 45.1719 33.0864 45.1719 33.0864L45.2094 32.9606L45.2291 32.8943L45.2404 32.8566C45.2898 32.6717 45.341 32.4802 45.3939 32.282C45.9058 30.3704 46.1242 28.3923 46.0419 26.4153C45.9869 25.2886 45.8049 24.1717 45.4995 23.0857C45.1592 21.9252 44.7058 20.8009 44.1455 19.7289C42.9285 17.406 41.2475 15.3568 39.2063 13.7075C38.1392 12.8309 36.9589 12.1014 35.6971 11.5389C34.3751 11.0248 32.9969 10.6684 31.5911 10.4768C30.163 10.2492 28.7178 10.1461 27.2718 10.1687C25.8139 10.1841 24.3607 10.3385 22.9322 10.6298C20.0721 11.19 17.3686 12.3651 15.0094 14.0736C13.8543 14.9083 12.8005 15.8746 11.8693 16.9527C10.953 17.9997 10.173 19.1581 9.54782 20.4004C8.36255 22.7683 7.82086 25.4053 7.97691 28.0477C8.03824 29.2716 8.23309 30.4851 8.55801 31.6668C8.63738 31.9528 8.73033 32.2326 8.8146 32.5122C8.91399 32.7868 9.01252 33.059 9.11019 33.3288L9.21918 33.5909C9.3332 33.8588 9.41082 34.0412 9.41502 34.0511Z" fill="#2C2C2E"/>
<path d="M45.6192 35.3408C45.6185 35.3447 45.6169 35.3484 45.6145 35.3517C45.6122 35.3549 45.6092 35.3577 45.6057 35.3596C45.541 35.4187 45.3966 35.4888 45.3028 35.2818C45.2991 35.2727 45.297 35.2629 45.2965 35.2531C45.2992 35.2427 45.3515 35.0472 45.4282 34.7598C45.4739 34.5855 45.5204 34.4077 45.5678 34.2265C45.7266 33.6016 45.879 32.9633 46.018 32.3115C46.3109 30.9709 46.511 29.6116 46.6169 28.2435C46.7225 26.805 46.6587 25.359 46.4269 23.9353C46.1621 22.4539 45.7381 21.0053 45.1622 19.6146C44.5906 18.1704 43.8425 16.8021 42.9349 15.5409C41.9874 14.2656 40.8579 13.1357 39.5825 12.187C36.9729 10.2436 33.911 8.99492 30.6847 8.55832C29.074 8.33077 27.4433 8.27766 25.8211 8.39992C24.2114 8.53333 22.6141 8.78834 21.043 9.1628C19.4963 9.51349 17.9914 10.0281 16.5541 10.6978C15.1581 11.3553 13.8744 12.2278 12.7498 13.2833C11.6693 14.3097 10.7431 15.4866 9.99994 16.7776C9.82307 17.0963 9.62525 17.4048 9.48155 17.7285C9.33098 18.0541 9.19257 18.3871 9.05817 18.7189C8.79208 19.384 8.54421 20.047 8.31454 20.7076C8.07457 21.3483 7.88793 22.0077 7.75652 22.679C7.68422 23.0092 7.62845 23.3398 7.58029 23.6689C7.52292 23.9967 7.48802 24.3248 7.45233 24.65C7.31788 25.9052 7.29591 27.17 7.38668 28.4292C7.47005 29.587 7.64982 30.7358 7.92412 31.8638L8.13346 32.6546C8.21253 32.9117 8.29053 33.1654 8.36746 33.4155C8.45403 33.6623 8.53935 33.9056 8.6234 34.1453L8.65344 34.2251L8.70969 34.367L8.75864 34.4906C8.75864 34.4906 8.90703 34.9742 9.01168 35.3152C9.19081 35.8949 9.02723 35.7082 8.83792 35.3793C8.8431 35.3985 8.7357 35.1997 8.63096 34.9937C8.53267 34.7846 8.43233 34.5712 8.43233 34.5712L8.38318 34.4473L8.35729 34.382L8.34259 34.345C8.27126 34.1442 8.1974 33.9362 8.12101 33.7212C7.41167 31.6238 7.03426 29.4288 7.00235 27.2153C6.98368 25.9513 7.07614 24.6882 7.27868 23.4404C7.32356 23.1158 7.39342 22.7928 7.45939 22.4665C7.52126 22.1338 7.60416 21.8055 7.70759 21.4833C7.909 20.8365 8.13765 20.1924 8.38114 19.5427C8.6266 18.8933 8.88064 18.2393 9.18036 17.5855C9.32931 17.2516 9.5231 16.9487 9.69919 16.632C9.8759 16.313 10.0691 16.0034 10.278 15.7044C11.107 14.4528 12.1183 13.3317 13.2786 12.3779C14.486 11.401 15.8286 10.6036 17.2646 10.0103C18.7342 9.4142 20.2571 8.95847 21.8128 8.64921C23.3872 8.30932 24.9868 8.0988 26.5956 8.01976C28.2223 7.95152 29.8517 8.06014 31.4549 8.34371C34.673 8.89708 37.6981 10.256 40.2473 12.2934L40.7148 12.6738C40.868 12.8033 41.0104 12.9449 41.1585 13.0797C41.4536 13.3505 41.7465 13.6224 42.0188 13.9161C42.5625 14.4965 43.0604 15.118 43.5083 15.7749C44.3786 17.0678 45.0939 18.4582 45.6395 19.9175C46.1926 21.3211 46.5879 22.7817 46.818 24.2724C47.0182 25.7063 47.0534 27.1584 46.9228 28.6002C46.8025 29.9634 46.5902 31.317 46.2872 32.6516C46.1435 33.2984 45.9896 33.9313 45.83 34.5506C45.8027 34.6528 45.776 34.7531 45.7497 34.8515C45.6738 35.1364 45.622 35.3303 45.6192 35.3408Z" fill="#2C2C2E"/>
</svg>
