<svg width="10" height="22" viewBox="0 0 10 22" fill="none" xmlns="http://www.w3.org/2000/svg">
<path d="M3 3.25V0.75C3 0.335786 3.33579 0 3.75 0H6.25C6.66421 0 7 0.335786 7 0.75V3.25C7 3.66421 6.66421 4 6.25 4H3.75C3.33579 4 3 3.66421 3 3.25Z" fill="url(#paint0_linear_504_2068)"/>
<path d="M0.5 7.25C0.5 6.83579 0.835786 6.5 1.25 6.5H6.25C6.66421 6.5 7 6.83579 7 7.25V18.75C7 18.8881 7.11193 19 7.25 19H8.75C9.16421 19 9.5 19.3358 9.5 19.75V21.25C9.5 21.6642 9.16421 22 8.75 22H1.25C0.835786 22 0.5 21.6642 0.5 21.25V19.75C0.5 19.3358 0.835786 19 1.25 19H2.75C2.88807 19 3 18.8881 3 18.75V10.25C3 10.1119 2.88807 10 2.75 10H1.25C0.835786 10 0.5 9.66421 0.5 9.25V7.25Z" fill="url(#paint1_linear_504_2068)"/>
<defs>
<linearGradient id="paint0_linear_504_2068" x1="5" y1="0" x2="5" y2="22" gradientUnits="userSpaceOnUse">
<stop stop-color="#3472FF"/>
<stop offset="1" stop-color="#334EFF"/>
</linearGradient>
<linearGradient id="paint1_linear_504_2068" x1="5" y1="0" x2="5" y2="22" gradientUnits="userSpaceOnUse">
<stop stop-color="#3472FF"/>
<stop offset="1" stop-color="#334EFF"/>
</linearGradient>
</defs>
</svg>
