<svg width="18" height="24" viewBox="0 0 18 24" fill="none" xmlns="http://www.w3.org/2000/svg">
<path d="M1.42871 19.7143H16.5716C17.1238 19.7143 17.5716 20.162 17.5716 20.7143V22.1429C17.5716 22.6952 17.1238 23.1429 16.5716 23.1429H1.42871C0.876424 23.1429 0.428711 22.6952 0.428711 22.1429V20.7143C0.428711 20.162 0.876424 19.7143 1.42871 19.7143Z" fill="url(#paint0_linear_504_2078)"/>
<path d="M12.6234 8.807C12.845 8.72818 12.845 8.4147 12.6234 8.33589L1.0937 4.23645C0.695022 4.0947 0.428711 3.71737 0.428711 3.29424V1.4543C0.428711 0.752998 1.13181 0.269533 1.78665 0.520555L15.7041 5.85557C16.8289 6.28677 17.5716 7.36677 17.5716 8.57144C17.5716 9.77612 16.8289 10.8561 15.7041 11.2873L1.78665 16.6223C1.13181 16.8734 0.428711 16.3899 0.428711 15.6886V13.8486C0.428711 13.4255 0.695022 13.0482 1.0937 12.9064L12.6234 8.807Z" fill="url(#paint1_linear_504_2078)"/>
<defs>
<linearGradient id="paint0_linear_504_2078" x1="9.00014" y1="0.453369" x2="9.00014" y2="23.1429" gradientUnits="userSpaceOnUse">
<stop stop-color="#2EE62E"/>
<stop offset="1" stop-color="#2EE66B"/>
</linearGradient>
<linearGradient id="paint1_linear_504_2078" x1="9.00014" y1="0.453369" x2="9.00014" y2="23.1429" gradientUnits="userSpaceOnUse">
<stop stop-color="#2EE62E"/>
<stop offset="1" stop-color="#2EE66B"/>
</linearGradient>
</defs>
</svg>
