<svg width="21" height="26" viewBox="0 0 21 26" fill="none" xmlns="http://www.w3.org/2000/svg">
<path d="M11.4761 26C11.3561 26 11.2481 25.958 11.1521 25.874C11.0681 25.778 11.0261 25.67 11.0261 25.55V17.09C11.0261 16.958 11.0681 16.85 11.1521 16.766C11.2481 16.682 11.3561 16.64 11.4761 16.64H13.6901C13.8221 16.64 13.9301 16.682 14.0141 16.766C14.0981 16.85 14.1401 16.958 14.1401 17.09V17.774C14.4641 17.378 14.8781 17.06 15.3821 16.82C15.8981 16.58 16.4861 16.46 17.1461 16.46C17.8301 16.46 18.4361 16.616 18.9641 16.928C19.5041 17.24 19.9241 17.702 20.2241 18.314C20.5361 18.926 20.6921 19.664 20.6921 20.528V25.55C20.6921 25.67 20.6501 25.778 20.5661 25.874C20.4821 25.958 20.3741 26 20.2421 26H17.8481C17.7161 26 17.6021 25.958 17.5061 25.874C17.4221 25.79 17.3801 25.682 17.3801 25.55V20.636C17.3801 20.096 17.2481 19.682 16.9841 19.394C16.7321 19.106 16.3601 18.962 15.8681 18.962C15.3881 18.962 15.0101 19.112 14.7341 19.412C14.4581 19.7 14.3201 20.108 14.3201 20.636V25.55C14.3201 25.67 14.2781 25.778 14.1941 25.874C14.1101 25.958 14.0021 26 13.8701 26H11.4761Z" fill="url(#paint0_linear_504_2063)"/>
<path d="M0.856082 20C0.669416 20 0.510749 19.9347 0.380082 19.804C0.249415 19.6734 0.184082 19.5147 0.184082 19.328V1.10003C0.184082 0.894691 0.240082 0.726691 0.352082 0.596025C0.482749 0.465358 0.650749 0.400024 0.856082 0.400024H8.36008C10.6187 0.400024 12.3921 0.932025 13.6801 1.99603C14.9681 3.06003 15.6121 4.60936 15.6121 6.64402C15.6121 8.66002 14.9681 10.1907 13.6801 11.236C12.3921 12.2627 10.6187 12.776 8.36008 12.776H4.24408V19.328C4.24408 19.5334 4.17875 19.7014 4.04808 19.832C3.91742 19.944 3.74942 20 3.54408 20H0.856082ZM8.22008 9.64003C9.30275 9.64003 10.1241 9.38803 10.6841 8.88403C11.2627 8.36136 11.5521 7.60536 11.5521 6.61603C11.5521 5.64536 11.2721 4.88936 10.7121 4.34803C10.1707 3.80669 9.34008 3.53603 8.22008 3.53603H4.18808V9.64003H8.22008Z" fill="url(#paint1_linear_504_2063)"/>
<defs>
<linearGradient id="paint0_linear_504_2063" x1="10.4381" y1="0.400024" x2="10.4381" y2="26" gradientUnits="userSpaceOnUse">
<stop stop-color="#FFD233"/>
<stop offset="1" stop-color="#FFB133"/>
</linearGradient>
<linearGradient id="paint1_linear_504_2063" x1="10.4381" y1="0.400024" x2="10.4381" y2="26" gradientUnits="userSpaceOnUse">
<stop stop-color="#FFD233"/>
<stop offset="1" stop-color="#FFB133"/>
</linearGradient>
</defs>
</svg>
