<svg width="26" height="23" viewBox="0 0 26 23" fill="none" xmlns="http://www.w3.org/2000/svg">
<path d="M17.9242 10C17.8308 10 17.7468 9.96734 17.6722 9.90201C17.6068 9.82734 17.5742 9.74334 17.5742 9.65001V8.60001C17.5742 8.32001 17.6908 8.08667 17.9242 7.90001L19.2262 6.62601C20.1128 5.95401 20.7802 5.43134 21.2282 5.05801C21.6855 4.68467 22.0308 4.34867 22.2642 4.05001C22.5068 3.74201 22.6282 3.45267 22.6282 3.18201C22.6282 2.49134 22.2828 2.14601 21.5922 2.14601C21.2282 2.14601 20.9482 2.25801 20.7522 2.48201C20.5562 2.69667 20.4255 2.96734 20.3602 3.29401C20.3042 3.50867 20.1455 3.61601 19.8842 3.61601H18.0362C17.9522 3.61601 17.8775 3.58801 17.8122 3.53201C17.7562 3.46667 17.7282 3.39667 17.7282 3.32201C17.7468 2.70601 17.9148 2.15067 18.2322 1.65601C18.5588 1.15201 19.0115 0.755339 19.5902 0.466005C20.1688 0.167339 20.8362 0.0180054 21.5922 0.0180054C22.3762 0.0180054 23.0528 0.144005 23.6222 0.396006C24.1915 0.648006 24.6208 1.00267 24.9102 1.46001C25.2088 1.91734 25.3582 2.44934 25.3582 3.05601C25.3582 3.72801 25.1482 4.33467 24.7282 4.87601C24.3175 5.41734 23.6875 6.00534 22.8382 6.64001L21.6762 7.80201H25.2182C25.3208 7.80201 25.4048 7.83467 25.4702 7.90001C25.5355 7.96534 25.5682 8.04934 25.5682 8.15201V9.65001C25.5682 9.74334 25.5355 9.82734 25.4702 9.90201C25.4048 9.96734 25.3208 10 25.2182 10H17.9242Z" fill="url(#paint0_linear_504_2073)"/>
<path d="M1.32016 22.8571C1.14016 22.8571 0.980156 22.7971 0.840156 22.6771C0.720156 22.5371 0.660156 22.3771 0.660156 22.1971C0.660156 22.0171 0.720156 21.8471 0.840156 21.6871L5.97016 14.8471L1.23016 8.42715C1.11016 8.26715 1.05016 8.09715 1.05016 7.91715C1.05016 7.73715 1.11016 7.58715 1.23016 7.46715C1.37016 7.32715 1.53016 7.25715 1.71016 7.25715H4.35016C4.57016 7.25715 4.73016 7.30715 4.83016 7.40715C4.95016 7.48715 5.07016 7.60715 5.19016 7.76715L8.55016 12.2371L11.8802 7.76715C11.9002 7.74715 11.9702 7.65715 12.0902 7.49715C12.2302 7.33715 12.4402 7.25715 12.7202 7.25715H15.2702C15.4502 7.25715 15.6002 7.32715 15.7202 7.46715C15.8402 7.58715 15.9002 7.72715 15.9002 7.88715C15.9002 8.08715 15.8402 8.26715 15.7202 8.42715L10.9202 14.8771L16.0802 21.6871C16.2002 21.8471 16.2602 22.0171 16.2602 22.1971C16.2602 22.3771 16.1902 22.5371 16.0502 22.6771C15.9302 22.7971 15.7802 22.8571 15.6002 22.8571H12.8402C12.5202 22.8571 12.2502 22.6971 12.0302 22.3771L8.43016 17.6371L4.80016 22.3771C4.58016 22.6971 4.31016 22.8571 3.99016 22.8571H1.32016Z" fill="url(#paint1_linear_504_2073)"/>
<defs>
<linearGradient id="paint0_linear_504_2073" x1="13.1142" y1="0.0180054" x2="13.1142" y2="22.8571" gradientUnits="userSpaceOnUse">
<stop stop-color="#FF5833"/>
<stop offset="1" stop-color="#FF7A33"/>
</linearGradient>
<linearGradient id="paint1_linear_504_2073" x1="13.1142" y1="0.0180054" x2="13.1142" y2="22.8571" gradientUnits="userSpaceOnUse">
<stop stop-color="#FF5833"/>
<stop offset="1" stop-color="#FF7A33"/>
</linearGradient>
</defs>
</svg>
