<svg width="18" height="24" viewBox="0 0 18 24" fill="none" xmlns="http://www.w3.org/2000/svg">
<path fill-rule="evenodd" clip-rule="evenodd" d="M18 12C18 18.6274 13.9706 24 9 24C4.02944 24 0 18.6274 0 12C0 5.37258 4.02944 0 9 0C13.9706 0 18 5.37258 18 12ZM14.7093 12.5C14.6146 14.9999 13.8159 17.1397 12.7103 18.6138C11.5293 20.1885 10.1768 20.8182 9 20.8182C7.82315 20.8182 6.47068 20.1885 5.2897 18.6138C4.18409 17.1397 3.38542 14.9999 3.29069 12.5H14.7093ZM14.4367 9.31818C14.0979 7.75471 13.4781 6.40992 12.7103 5.38617C11.5293 3.81154 10.1768 3.18182 9 3.18182C7.82315 3.18182 6.47068 3.81154 5.2897 5.38617C4.52189 6.40992 3.90212 7.75471 3.56334 9.31818H14.4367Z" fill="url(#paint0_linear_504_2046)"/>
<defs>
<linearGradient id="paint0_linear_504_2046" x1="9" y1="0" x2="9" y2="24" gradientUnits="userSpaceOnUse">
<stop stop-color="#FF5833"/>
<stop offset="1" stop-color="#FF7A33"/>
</linearGradient>
</defs>
</svg>
