<svg width="27" height="18" viewBox="0 0 27 18" fill="none" xmlns="http://www.w3.org/2000/svg">
<path fill-rule="evenodd" clip-rule="evenodd" d="M13.5 16.796C12.1762 17.5617 10.6393 18 9 18C4.02944 18 0 13.9706 0 9C0 4.02944 4.02944 0 9 0C10.6393 0 12.1762 0.438275 13.5 1.20404C14.8238 0.438275 16.3607 0 18 0C22.9706 0 27 4.02944 27 9C27 13.9706 22.9706 18 18 18C16.3607 18 14.8238 17.5617 13.5 16.796ZM11.2061 14.903C10.5195 15.1597 9.77613 15.3 9 15.3C5.52061 15.3 2.7 12.4794 2.7 9C2.7 5.52061 5.52061 2.7 9 2.7C9.77613 2.7 10.5195 2.84035 11.2061 3.09705C9.83193 4.67724 9 6.74147 9 9C9 11.2585 9.83193 13.3228 11.2061 14.903ZM15.7939 3.09705C16.4805 2.84035 17.2239 2.7 18 2.7C21.4794 2.7 24.3 5.52061 24.3 9C24.3 12.4794 21.4794 15.3 18 15.3C17.2239 15.3 16.4805 15.1597 15.7939 14.9029C17.1681 13.3228 18 11.2585 18 9C18 6.74147 17.1681 4.67724 15.7939 3.09705ZM13.5 4.59091C14.6135 5.7272 15.3 7.28342 15.3 9C15.3 10.7166 14.6135 12.2728 13.5 13.4091C12.3865 12.2728 11.7 10.7166 11.7 9C11.7 7.28342 12.3865 5.7272 13.5 4.59091Z" fill="url(#paint0_linear_504_2038)"/>
<defs>
<linearGradient id="paint0_linear_504_2038" x1="13.5" y1="0" x2="13.5" y2="18" gradientUnits="userSpaceOnUse">
<stop stop-color="#4FC1FF"/>
<stop offset="1" stop-color="#4FA4FF"/>
</linearGradient>
</defs>
</svg>
