<svg width="22" height="22" viewBox="0 0 22 22" fill="none" xmlns="http://www.w3.org/2000/svg">
<path d="M18.3335 11.2514C18.3335 11.5995 18.0749 11.8871 17.7393 11.9327L17.646 11.9389L5.56066 11.9384L9.92673 16.2866C10.1958 16.5545 10.1967 16.9898 9.92883 17.2589C9.68528 17.5035 9.30338 17.5265 9.03381 17.3274L8.95656 17.261L3.41072 11.739C3.37526 11.7037 3.34445 11.6655 3.31831 11.6251C3.31092 11.613 3.3034 11.6005 3.29628 11.5878C3.28972 11.577 3.2838 11.5657 3.27821 11.5543C3.27045 11.5377 3.26287 11.5205 3.25598 11.503C3.25039 11.4895 3.24572 11.4764 3.24146 11.4632C3.23639 11.4468 3.23147 11.4293 3.22724 11.4116C3.22409 11.3992 3.2216 11.3872 3.21942 11.3753C3.21637 11.3575 3.21376 11.339 3.21191 11.3204C3.2103 11.3062 3.20934 11.2921 3.20881 11.278C3.20867 11.2694 3.2085 11.2604 3.2085 11.2514L3.20884 11.2248C3.20937 11.2113 3.21029 11.1978 3.21161 11.1844L3.2085 11.2514C3.2085 11.2081 3.21251 11.1656 3.2202 11.1245C3.22198 11.1146 3.2241 11.1045 3.22646 11.0945C3.23134 11.0738 3.23698 11.0539 3.24348 11.0343C3.24667 11.0246 3.25039 11.0142 3.25436 11.004C3.26239 10.9833 3.27112 10.9635 3.28073 10.9443C3.28519 10.9353 3.29019 10.9258 3.29543 10.9165C3.30402 10.9012 3.31287 10.8867 3.32223 10.8726C3.32883 10.8626 3.33614 10.8521 3.34378 10.8419L3.34973 10.834C3.36825 10.8098 3.38835 10.7868 3.40986 10.7653L3.41068 10.7647L8.95652 5.24176C9.22556 4.97383 9.66086 4.97473 9.92879 5.24377C10.1724 5.48835 10.1938 5.87034 9.9935 6.13907L9.92677 6.21604L5.5625 10.5634L17.646 10.5639C18.0257 10.5639 18.3335 10.8718 18.3335 11.2514Z" fill="black"/>
</svg>
