<svg width="13" height="13" viewBox="0 0 13 13" fill="none" xmlns="http://www.w3.org/2000/svg">
<path fill-rule="evenodd" clip-rule="evenodd" d="M8.55497 0.541672C8.77922 0.541672 8.96122 0.723672 8.96122 0.947922L8.96147 1.40715C9.75236 1.46138 10.4092 1.73228 10.8741 2.19814C11.3817 2.70785 11.6487 3.44073 11.646 4.31985V9.26148C11.646 11.0663 10.4998 12.1876 8.65545 12.1876H4.07404C2.22966 12.1876 1.0835 11.0506 1.0835 9.22031V4.31877C1.0835 2.61641 2.10565 1.52368 3.7727 1.40734L3.77303 0.947922C3.77303 0.723672 3.95503 0.541672 4.17928 0.541672C4.40353 0.541672 4.58553 0.723672 4.58553 0.947922L4.58537 1.39696H8.14845L8.14872 0.947922C8.14872 0.723672 8.33072 0.541672 8.55497 0.541672ZM10.8335 5.36467H1.896V9.22031C1.896 10.6102 2.6695 11.3751 4.07404 11.3751H8.65545C10.06 11.3751 10.8335 10.6243 10.8335 9.26148L10.8335 5.36467ZM8.77581 8.773C9.00006 8.773 9.18206 8.955 9.18206 9.17925C9.18206 9.4035 9.00006 9.5855 8.77581 9.5855C8.55156 9.5855 8.3674 9.4035 8.3674 9.17925C8.3674 8.955 8.54669 8.773 8.77094 8.773H8.77581ZM6.37217 8.773C6.59642 8.773 6.77842 8.955 6.77842 9.17925C6.77842 9.4035 6.59642 9.5855 6.37217 9.5855C6.14792 9.5855 5.96375 9.4035 5.96375 9.17925C5.96375 8.955 6.14304 8.773 6.36729 8.773H6.37217ZM3.96348 8.773C4.18773 8.773 4.36973 8.955 4.36973 9.17925C4.36973 9.4035 4.18773 9.5855 3.96348 9.5855C3.73923 9.5855 3.55453 9.4035 3.55453 9.17925C3.55453 8.955 3.73436 8.773 3.95861 8.773H3.96348ZM8.77581 6.66771C9.00006 6.66771 9.18206 6.84971 9.18206 7.07396C9.18206 7.29821 9.00006 7.48021 8.77581 7.48021C8.55156 7.48021 8.3674 7.29821 8.3674 7.07396C8.3674 6.84971 8.54669 6.66771 8.77094 6.66771H8.77581ZM6.37217 6.66771C6.59642 6.66771 6.77842 6.84971 6.77842 7.07396C6.77842 7.29821 6.59642 7.48021 6.37217 7.48021C6.14792 7.48021 5.96375 7.29821 5.96375 7.07396C5.96375 6.84971 6.14304 6.66771 6.36729 6.66771H6.37217ZM3.96348 6.66771C4.18773 6.66771 4.36973 6.84971 4.36973 7.07396C4.36973 7.29821 4.18773 7.48021 3.96348 7.48021C3.73923 7.48021 3.55453 7.29821 3.55453 7.07396C3.55453 6.84971 3.73436 6.66771 3.95861 6.66771H3.96348ZM8.14845 2.20946H4.58537L4.58553 2.73055C4.58553 2.9548 4.40353 3.1368 4.17928 3.1368C3.95503 3.1368 3.77303 2.9548 3.77303 2.73055L3.77275 2.22176C2.55929 2.3237 1.896 3.05926 1.896 4.31877V4.55217H10.8335L10.8335 4.31877C10.8357 3.64981 10.6558 3.12981 10.2989 2.77231C9.98552 2.45804 9.52746 2.27035 8.96169 2.22202L8.96122 2.73055C8.96122 2.9548 8.77922 3.1368 8.55497 3.1368C8.33072 3.1368 8.14872 2.9548 8.14872 2.73055L8.14845 2.20946Z" fill="white"/>
</svg>
