<svg width="24" height="25" viewBox="0 0 24 25" fill="none" xmlns="http://www.w3.org/2000/svg">
<g filter="url(#filter0_b_504_3129)">
<path fill-rule="evenodd" clip-rule="evenodd" d="M2.44125e-07 12.0762L2.44125e-07 11.9474C-1.245e-05 9.8274 -2.25008e-05 8.14752 0.136439 6.80608C0.276255 5.43166 0.568868 4.28425 1.23952 3.28055C1.77611 2.47747 2.46564 1.78795 3.26871 1.25135C4.27241 0.580708 5.41982 0.288095 6.79424 0.148279C8.13569 0.011816 9.81553 0.0118256 11.9356 0.0118408H12.0644C14.1845 0.0118256 15.8643 0.011816 17.2058 0.148279C18.5802 0.288095 19.7276 0.580708 20.7313 1.25135C21.5344 1.78795 22.2239 2.47747 22.7605 3.28055C23.4311 4.28425 23.7237 5.43166 23.8636 6.80608C24 8.14753 24 9.82737 24 11.9474V12.0763C24 14.1963 24 15.8762 23.8636 17.2176C23.7237 18.592 23.4311 19.7394 22.7605 20.7431C22.2239 21.5462 21.5344 22.2357 20.7313 22.7723C19.7276 23.443 18.5802 23.7356 17.2058 23.8754C15.8643 24.0119 14.1845 24.0119 12.0644 24.0118H11.9356C9.81554 24.0119 8.13568 24.0119 6.79424 23.8754C5.41982 23.7356 4.27241 23.443 3.26871 22.7723C2.46564 22.2357 1.77611 21.5462 1.23952 20.7431C0.568868 19.7394 0.276255 18.592 0.136439 17.2176C-2.25008e-05 15.8762 -1.245e-05 14.1963 2.44125e-07 12.0762ZM8.17599 12.7391C7.72248 12.2856 6.98719 12.2856 6.53368 12.7391C6.08017 13.1926 6.08017 13.9279 6.53368 14.3814L11.1788 19.0265C11.6324 19.4801 12.3676 19.4801 12.8212 19.0265L17.4663 14.3814C17.9198 13.9279 17.9198 13.1926 17.4663 12.7391C17.0128 12.2856 16.2775 12.2856 15.824 12.7391L13.1613 15.4018L13.1613 7.36668C13.1613 6.72532 12.6414 6.20539 12 6.20539C11.3586 6.20539 10.8387 6.72532 10.8387 7.36668L10.8387 15.4018L8.17599 12.7391Z" fill="white" fill-opacity="0.48"/>
</g>
<defs>
<filter id="filter0_b_504_3129" x="-144" y="-143.988" width="312" height="312" filterUnits="userSpaceOnUse" color-interpolation-filters="sRGB">
<feFlood flood-opacity="0" result="BackgroundImageFix"/>
<feGaussianBlur in="BackgroundImageFix" stdDeviation="72"/>
<feComposite in2="SourceAlpha" operator="in" result="effect1_backgroundBlur_504_3129"/>
<feBlend mode="normal" in="SourceGraphic" in2="effect1_backgroundBlur_504_3129" result="shape"/>
</filter>
</defs>
</svg>
